<svg width="189" height="377" viewBox="0 0 189 377" fill="none" xmlns="http://www.w3.org/2000/svg">
<path fill-rule="evenodd" clip-rule="evenodd" d="M180.3 243.24C174.329 263.235 164.885 282.551 151.831 300.318C138.777 318.085 123.167 332.871 105.87 344.545L180.3 243.24ZM81.8285 358.282L186.224 216.192C187.29 208.694 187.895 201.157 188.048 193.623L60.8366 366.767C67.9801 364.37 74.9918 361.54 81.8285 358.282ZM43.2369 371.736C37.6054 373.035 31.9166 374.075 26.1902 374.852L185.409 158.144C186.378 163.841 187.086 169.581 187.53 175.343L43.2369 371.736ZM182.291 143.401L11.1895 376.284C6.22355 376.559 1.24232 376.638 -3.74184 376.52L178.055 129.082C179.657 133.803 181.07 138.58 182.291 143.401ZM173.305 116.561L-17.1097 375.729C-21.6057 375.303 -26.095 374.714 -30.5686 373.962L167.595 104.246C169.65 108.29 171.554 112.398 173.305 116.561ZM161.622 93.3906L-42.7129 371.505C-46.8336 370.53 -50.9335 369.412 -55.0053 368.15L154.746 82.6627C157.167 86.1715 159.459 89.7499 161.622 93.3906ZM147.76 73.1859L-66.1369 364.316C-69.9342 362.873 -73.7004 361.301 -77.4292 359.599L139.884 63.8195C142.623 66.8692 145.248 69.9934 147.76 73.1859ZM132.003 55.5605L-87.6661 354.546C-91.1694 352.683 -94.6331 350.7 -98.0518 348.596L123.221 47.4278C126.25 50.0613 129.178 52.7741 132.003 55.5605ZM114.511 40.2964L-107.46 342.416C-108.678 341.564 -109.889 340.696 -111.093 339.811C-113.096 338.339 -115.062 336.835 -116.99 335.301L104.873 33.3282C106.914 34.7099 108.937 36.1365 110.94 37.6084C112.144 38.4929 113.334 39.389 114.511 40.2964ZM95.3614 27.2888L-125.596 328.029C-128.59 325.344 -131.48 322.58 -134.267 319.744L84.8635 21.4912C88.4033 23.3022 91.9044 25.2345 95.3614 27.2888ZM74.517 16.588L-142.038 311.335C-144.738 308.23 -147.323 305.051 -149.793 301.804L63.1036 12.0364C66.9401 13.4228 70.7467 14.9396 74.517 16.588ZM51.8507 8.36687L-156.658 292.162C-159.035 288.59 -161.281 284.949 -163.395 281.247L39.4205 5.19908C43.5857 6.11035 47.7315 7.16591 51.8507 8.36687ZM27.1344 2.93577L-169.227 270.199C-171.23 266.078 -173.078 261.894 -174.77 257.656L13.5088 1.39512C18.0583 1.74262 22.6033 2.2557 27.1344 2.93577ZM-0.0384364 0.848374L-179.34 244.891C-180.875 240.068 -182.213 235.189 -183.354 230.268L-15.1928 1.38854C-10.1561 1.00651 -5.10034 0.825803 -0.0384364 0.848374ZM-30.4516 3.17119L-186.213 215.174C-187.079 209.313 -187.668 203.412 -187.98 197.492L-47.8531 6.7699C-42.1112 5.29766 -36.3037 4.09703 -30.4516 3.17119ZM-65.9286 12.3863L-188.022 178.564C-187.64 170.637 -186.755 162.716 -185.358 154.852L-87.761 22.0154C-80.6741 18.3321 -73.3798 15.1199 -65.9286 12.3863ZM-113.717 38.3578L-177.52 125.198C-171.557 108.404 -163.072 92.1938 -151.984 77.1014C-140.895 62.009 -127.962 49.0677 -113.717 38.3578Z" fill="#F68A22" fill-opacity="0.56"/>
</svg>
