<svg width="108" height="29" viewBox="0 0 108 29" fill="none" xmlns="http://www.w3.org/2000/svg">
<path fill-rule="evenodd" clip-rule="evenodd" d="M0.881889 10.8624C1.4119 10.8966 1.58479 10.5008 1.11059 10.3388C0.820789 10.2398 0.821941 10.2065 1.11756 10.133C1.58427 10.0168 1.62743 10.151 1.38644 10.9667C1.21349 11.5522 1.14434 11.6089 0.907161 11.3586C0.71978 11.1609 0.571377 11.1352 0.449018 11.2794C0.335421 11.4131 0.302057 11.3699 0.359696 11.1637C0.410302 10.9827 0.645157 10.8472 0.881889 10.8624ZM0.619201 12.1131C1.15073 12.1474 1.62172 12.5846 1.14699 12.6031C0.983515 12.6096 0.696999 12.4954 0.510201 12.3496C0.181506 12.0929 0.185192 12.0851 0.619201 12.1131ZM2.15889 9.38727C2.3864 9.47332 2.41774 9.53587 2.23896 9.54672C2.077 9.55657 1.9085 9.49274 1.8646 9.40513C1.8207 9.31752 1.95303 9.3095 2.15889 9.38727ZM3.10172 8.6377C3.6178 8.2356 4.24126 8.36372 4.26471 8.87663C4.28943 9.41682 4.22853 9.47449 4.00753 9.11977C3.84806 8.86379 3.7198 8.85885 3.40022 9.09668C2.81846 9.52979 2.52875 9.08406 3.10172 8.6377ZM5.12409 7.27368C5.22031 7.30561 5.42565 7.1511 5.58072 6.93018C5.85331 6.54123 5.86314 6.54273 5.89019 6.97787C5.90986 7.29417 5.82733 7.41903 5.61137 7.39951C5.43184 7.3835 5.31132 7.51621 5.32044 7.71923C5.33381 8.00748 5.29944 8.00707 5.11803 7.71587C4.8696 7.31728 4.87145 7.18985 5.12409 7.27368ZM6.93012 5.22956C7.37083 4.98902 7.758 4.71245 7.79036 4.61494C7.82271 4.51744 7.93825 4.46733 8.04714 4.50346C8.15604 4.5396 8.28394 4.45223 8.33135 4.30934C8.46241 3.91435 9.51653 3.40631 9.77135 3.61539C9.89715 3.71851 10.1001 3.63868 10.2332 3.43378C10.4111 3.15994 10.5623 3.13466 10.8363 3.33361C11.1241 3.54263 11.1983 3.52191 11.1852 3.23597C11.1672 2.84255 12.154 2.27784 13.3926 1.97273C13.7876 1.87541 14.2134 1.71156 14.339 1.60848C14.4647 1.5054 14.8535 1.45094 15.2034 1.4876C15.5533 1.52406 15.8667 1.47185 15.8999 1.37156C15.9333 1.27108 16.0942 1.23338 16.2575 1.28758C16.4208 1.34178 16.5841 1.29694 16.6203 1.18794C16.6564 1.07893 16.8197 1.0341 16.983 1.0883C17.1463 1.1425 17.3244 1.05307 17.3786 0.889562C17.4493 0.676511 17.6947 0.664418 18.2451 0.847058C18.6858 0.9933 19.1597 1.00994 19.3579 0.886278C19.5477 0.767778 19.8703 0.726305 20.0746 0.794105C20.2792 0.861971 20.4761 0.828302 20.5122 0.719299C20.5484 0.610296 20.7615 0.582014 20.9857 0.656383C21.2098 0.730753 21.3705 0.695426 21.3427 0.577945C21.2753 0.293551 21.9503 0.271766 22.1813 0.551069C22.5272 0.968572 23.0009 1.09713 23.4189 0.887134C23.7061 0.743051 23.8014 0.581064 23.7209 0.374602C23.6335 0.150919 23.7766 0.130411 24.2744 0.295575C24.6434 0.418035 24.8998 0.60123 24.844 0.702606C24.7882 0.803785 24.8871 0.972581 25.0639 1.07767C25.2408 1.18255 25.417 1.17282 25.4559 1.05569C25.4947 0.938757 25.4163 0.806506 25.2819 0.761897C25.1473 0.717222 25.429 0.612699 25.9076 0.529504C26.3864 0.446375 26.8673 0.407942 26.9766 0.444208C27.0859 0.480473 27.4128 0.390927 27.7029 0.245188C28.2708 -0.0400619 29.0694 0.101294 28.9486 0.465365C28.8984 0.616779 28.9748 0.650922 29.188 0.572063C29.3664 0.506071 29.6488 0.581531 29.8441 0.747328C30.2915 1.12723 30.6662 1.27048 30.6988 1.07426C30.7904 0.520744 30.9785 0.412873 31.3928 0.676422C31.6362 0.831312 31.9207 0.886566 32.0248 0.79924C32.129 0.711912 32.4135 0.767167 32.6569 0.922057C32.9972 1.13839 33.1256 1.1249 33.2124 0.863492C33.2833 0.649649 33.4171 0.598982 33.5731 0.727078C33.7095 0.839031 33.8868 0.842633 33.9671 0.735273C34.0472 0.628111 34.5144 0.65487 35.0053 0.795087C35.4964 0.93537 36.1195 1.05259 36.3905 1.05584C36.7309 1.05989 36.8574 1.14255 36.7994 1.32375C36.734 1.52907 36.7737 1.53851 36.9826 1.36716C37.1414 1.23722 37.3718 1.24899 37.5511 1.39606C37.7324 1.54511 38.0485 1.55713 38.3449 1.42623C38.7337 1.25452 38.8966 1.28105 39.1219 1.55317C39.3356 1.81131 39.4852 1.85853 39.721 1.74207C39.9628 1.62295 40.0712 1.69764 40.1912 2.06594C40.2784 2.33359 40.384 2.43417 40.4305 2.29386C40.5215 2.01957 41.4939 2.39305 44.2061 3.74466C45.8186 4.54836 46.5461 5.05971 46.4574 5.32707C46.3594 5.62256 47.714 6.00802 48.0697 5.78572C48.2552 5.66993 48.6457 5.65429 48.9371 5.751C49.2288 5.84777 49.5802 5.87043 49.7179 5.80127C49.8557 5.73218 50.3128 5.74918 50.7337 5.83913C51.606 6.0256 52.2436 5.84865 52.2242 5.42552C52.215 5.22554 52.516 5.19322 53.2063 5.32016C53.7538 5.42087 54.4018 5.43504 54.6467 5.35151C55.1701 5.17316 55.8381 5.53936 55.7074 5.93316C55.6574 6.08378 55.7056 6.23681 55.8145 6.27295C55.9234 6.30908 56.059 6.19853 56.1158 6.0271C56.1827 5.82554 56.3721 5.78059 56.6527 5.89963C57.4592 6.24183 57.5946 6.20734 57.793 5.6094C57.9245 5.21303 58.0893 5.04769 58.2873 5.11339C58.4506 5.16759 58.5547 5.30112 58.5185 5.41012C58.4823 5.51913 58.6755 5.68222 58.9477 5.77256C59.22 5.86289 59.4723 5.84762 59.5085 5.73861C59.5446 5.62961 59.4673 5.50495 59.3366 5.46159C59.1545 5.40115 59.1716 5.34632 59.4092 5.22694C59.5796 5.14135 60.4214 5.27241 61.2797 5.51825C62.1379 5.76429 63.0308 5.98644 63.2641 6.01214C63.4973 6.03803 63.757 6.0745 63.8416 6.09331C63.9262 6.11192 64.0413 5.9882 64.0977 5.81835C64.154 5.64851 64.2635 5.58494 64.3409 5.67751C64.4181 5.77002 64.9163 5.83304 65.4483 5.8177C66.9931 5.77301 68.3188 6.34491 68.1124 6.96702C68.0585 7.12933 68.2247 7.31076 68.5157 7.40733C68.8238 7.50956 69.048 7.45921 69.1094 7.2743C69.2047 6.98693 69.5527 6.9981 70.2509 7.31162C70.4349 7.39425 70.6134 7.37843 70.6472 7.27657C70.681 7.1745 71.0888 7.15316 71.5533 7.22898C72.1906 7.33283 72.4514 7.47284 72.6143 7.79795C72.8142 8.19714 72.8506 8.20394 73.1009 7.89076C73.3259 7.60945 73.5296 7.61479 74.3088 7.92329C74.8243 8.12731 75.2461 8.40326 75.2463 8.53664C75.2465 8.71028 75.3464 8.74016 75.5981 8.6415C75.7915 8.56597 75.9268 8.40801 75.8991 8.29079C75.8713 8.17331 76.0156 8.06941 76.2201 8.06003C76.4243 8.05058 76.6191 8.15966 76.6531 8.30248C76.746 8.69459 79.3299 9.51015 80.4021 9.48619C80.5504 9.48284 80.6962 9.58289 80.7259 9.70849C80.8027 10.0321 81.8045 10.3275 82.182 10.1379C82.428 10.0143 82.5338 10.0494 82.6571 10.2956C82.7444 10.4698 83.0267 10.6823 83.2843 10.7677C83.5419 10.8532 83.8809 11.0583 84.0375 11.2236C84.2025 11.3978 84.6514 11.5566 85.1049 11.6013C85.5508 11.6454 85.8165 11.7382 85.7224 11.817C85.6317 11.8931 85.8612 11.9929 86.2328 12.0387C86.6955 12.0959 86.948 12.2329 87.0337 12.4734C87.1543 12.8115 88.3823 13.3585 90.8593 14.1774C91.3908 14.353 91.9586 14.6369 92.1211 14.8083C92.3185 15.0166 92.6055 15.0995 92.9869 15.0584C93.3849 15.0154 93.7683 15.1318 94.2555 15.4435C94.7954 15.789 95.0741 15.8573 95.4861 15.7449C95.9619 15.6153 96.0075 15.6341 95.9123 15.9211C95.8536 16.0979 95.9125 16.2932 96.0431 16.3548C96.745 16.6869 96.879 16.7191 97.1625 16.6246C97.3634 16.5575 97.4456 16.5993 97.3976 16.744C97.357 16.8662 97.5465 17.0402 97.8188 17.1306C98.091 17.2209 98.3426 17.2078 98.3779 17.1016C98.4185 16.9791 98.5949 17.033 98.8591 17.2483C99.0885 17.4353 99.8848 17.7924 100.629 18.0419C102.787 18.7659 103.061 18.8868 102.993 19.0892C102.958 19.1944 103.249 19.363 103.639 19.4637C104.25 19.6217 104.35 19.5853 104.362 19.2017C104.37 18.9567 104.094 18.1677 103.749 17.4482C103.403 16.7286 103.143 15.8656 103.17 15.5303C103.202 15.1347 103.139 14.9881 102.99 15.1129C102.829 15.2477 102.558 14.9513 102.084 14.1233C101.711 13.4733 101.382 12.9125 101.351 12.8772C101.32 12.8417 101.459 12.7228 101.658 12.6129C101.962 12.4461 102.089 12.4822 102.432 12.8327C102.658 13.0637 102.95 13.4962 103.081 13.7942C103.213 14.0921 103.44 14.3756 103.586 14.4242C103.733 14.4728 103.808 14.6463 103.754 14.8098C103.7 14.9733 103.769 15.1449 103.908 15.191C104.047 15.2372 104.365 15.6395 104.614 16.0853C104.863 16.5309 105.115 16.9115 105.174 16.931C105.367 16.995 106.181 18.7564 106.113 18.9623C106.076 19.0731 105.927 19.1639 105.782 19.1642C105.576 19.1645 105.56 19.2147 105.707 19.3906C105.811 19.5149 105.928 19.5178 105.968 19.3973C106.008 19.2768 106.322 19.5969 106.666 20.1088C107.01 20.6205 107.324 21.0813 107.364 21.1326C107.404 21.1839 107.294 21.2599 107.12 21.3013C106.898 21.3542 106.855 21.4392 106.977 21.585C107.377 22.0634 106.858 22.6627 105.82 22.9205C105.246 23.0631 104.678 23.1468 104.557 23.1066C104.436 23.0666 104.175 23.1878 103.977 23.3761C103.719 23.621 103.489 23.6472 103.169 23.4685C102.842 23.2857 102.693 23.3069 102.613 23.5481C102.48 23.9484 101.988 24.2204 101.705 24.0493C101.592 23.9805 101.563 23.9909 101.641 24.0726C101.72 24.1542 101.479 24.38 101.107 24.5741C100.32 24.9846 98.8908 25.7857 98.0354 26.2958C97.6268 26.5395 97.3203 26.5749 97.0639 26.4084C96.7555 26.2078 96.6589 26.2564 96.5173 26.6833C96.3717 27.1219 96.2576 27.173 95.7787 27.014C95.2904 26.852 95.2031 26.8947 95.1464 27.3219C95.1024 27.6553 94.8527 27.9434 94.3845 28.2012C94.0017 28.4122 93.6688 28.6438 93.6449 28.716C93.6209 28.7881 93.2285 28.7034 92.7732 28.5277C91.1763 27.912 90.8091 27.3587 91.866 27.1614C92.5111 27.041 92.7545 26.8195 92.5387 26.5497C92.4 26.3763 92.4438 26.2938 92.712 26.225C93.023 26.1454 93.0342 26.0811 92.796 25.7465C92.5461 25.3954 92.5579 25.3453 92.9226 25.2028C93.1434 25.1163 93.3523 24.961 93.3866 24.8576C93.4209 24.7541 93.627 24.58 93.8446 24.4707C94.0812 24.3519 94.2104 24.362 94.1659 24.4962C94.1251 24.6192 94.199 24.6946 94.3302 24.6633C94.4615 24.6321 94.6263 24.4335 94.6965 24.2219C94.7718 23.9949 94.9596 23.8821 95.1542 23.9467C95.3356 24.0069 95.4446 23.9775 95.3965 23.8815C95.2374 23.5636 97.8239 21.9725 98.2632 22.1182C98.3664 22.1525 98.9231 21.9434 99.4999 21.6536C100.881 20.96 100.878 20.5481 99.4894 20.1367C97.6822 19.601 94.9392 18.545 94.7848 18.3255C94.7026 18.2087 93.8128 17.7724 92.8075 17.3558C91.8021 16.9393 90.9065 16.4813 90.8172 16.3379C90.7278 16.1945 90.5866 16.1116 90.503 16.1536C90.2532 16.279 88.2936 15.6772 88.2421 15.459C88.2156 15.348 87.8674 15.1415 87.468 15.0006C87.0686 14.8596 86.5874 14.6134 86.3987 14.4533C86.21 14.2935 85.8838 14.1901 85.6737 14.2238C85.4214 14.2642 85.2433 14.1599 85.1483 13.9163C85.05 13.6641 84.8808 13.5693 84.6119 13.6158C84.1138 13.702 79.7828 12.2017 79.8598 11.9697C79.8913 11.8745 79.7429 11.8649 79.5298 11.9482C79.2319 12.0647 79.0581 12.0136 78.7789 11.7272C78.5789 11.5222 78.0123 11.2282 77.5195 11.0739C77.0268 10.9194 76.3768 10.6604 76.0751 10.498C75.7733 10.3358 75.3127 10.2402 75.0513 10.2855C74.7899 10.3307 74.3425 10.3198 74.0573 10.261C73.7719 10.2024 73.1713 10.0817 72.7226 9.9926C71.9128 9.83192 71.3854 9.36936 71.7056 9.10096C71.7973 9.02402 71.7877 8.93305 71.684 8.89862C71.5802 8.8642 71.4079 8.94319 71.3007 9.07397C71.1934 9.20468 70.6592 9.23422 70.1131 9.13971C69.296 8.99839 69.0957 8.89189 68.9825 8.53838C68.8599 8.15715 68.8194 8.13952 68.6211 8.3815C68.1493 8.95737 66.8973 8.89593 65.3623 8.22158C64.5135 7.84862 63.8469 7.43185 63.7316 7.20174C63.6244 6.98753 63.3886 6.81929 63.2076 6.82765C62.6622 6.85305 62.7065 7.23804 63.2797 7.4555C63.6437 7.59369 63.6889 7.65046 63.4197 7.63222C63.2016 7.61726 62.8106 7.69213 62.5507 7.7984C62.0456 8.00504 61.7245 7.97989 60.044 7.60223C59.3003 7.4349 58.9413 7.44778 58.8764 7.64359C58.7742 7.95157 57.9425 7.55085 57.5972 7.02731C57.467 6.82964 57.3839 6.84233 57.3078 7.07163C57.2491 7.24841 57.0675 7.34874 56.9041 7.29454C56.7408 7.24034 56.5658 7.32046 56.5154 7.47247C56.4443 7.68671 56.2776 7.66064 55.7731 7.35663C55.3075 7.07607 55.1227 7.03696 55.1235 7.21939C55.1245 7.48792 54.0192 7.65732 53.4654 7.47357C53.2862 7.41411 52.8254 7.5087 52.4413 7.68378C52.0575 7.85892 51.5277 7.93064 51.2644 7.84327C50.3714 7.54697 49.4662 7.52028 49.3774 7.78783C49.3278 7.93726 49.429 8.04762 49.6083 8.03914C50.0681 8.01791 51.0539 9.02944 51.1634 9.63472C51.2145 9.91855 51.5351 10.4858 51.8757 10.8954C52.2163 11.305 52.4565 11.7561 52.4096 11.8976C52.3626 12.0391 52.4475 12.196 52.5984 12.246C53.0472 12.395 53.242 13.5295 52.9089 14.0539C52.7204 14.3504 52.6874 14.6101 52.8175 14.7697C52.971 14.9574 52.9352 14.992 52.6744 14.9081C52.0681 14.7126 51.868 15.6176 52.3089 16.5623C52.6564 17.3068 52.3759 18.6931 51.9489 18.3426C51.7905 18.2126 51.5512 18.3792 51.2227 18.8481C50.7441 19.5313 50.51 19.5902 49.6872 19.2356C49.4688 19.1413 49.3639 19.1884 49.4049 19.3617C49.4497 19.5506 49.3473 19.5578 49.0805 19.3843C48.866 19.2449 48.6679 19.1996 48.64 19.2837C48.5855 19.448 46.8346 19.5739 46.4372 19.442C46.3045 19.398 46.2406 19.2283 46.2949 19.0648C46.4286 18.6617 46.0259 18.5586 45.5712 18.8797C45.2739 19.0894 45.1665 19.0758 45.0313 18.8105C44.9384 18.6286 44.6577 18.4115 44.4072 18.3284C44.1568 18.2453 43.9817 18.0873 44.0181 17.9775C44.0584 17.8563 43.9042 17.8214 43.6258 17.8889C43.2669 17.9762 43.1198 17.9248 42.9505 17.6527C42.8313 17.4614 42.4508 17.1695 42.105 17.0041C41.7592 16.8386 41.4762 16.6025 41.4759 16.4795C41.4759 16.3563 41.3541 16.2153 41.2054 16.166C41.0565 16.1166 40.8014 15.6607 40.6383 15.1527C40.4751 14.6449 40.2415 14.0685 40.1191 13.8718C39.9223 13.5555 39.9389 13.5014 40.262 13.4033C40.5689 13.3103 40.5667 13.2919 40.2472 13.2889C39.8388 13.2851 39.573 12.5143 39.9135 12.3208C40.0199 12.2604 39.9562 12.2423 39.7717 12.281C39.5242 12.3326 39.4963 12.2778 39.665 12.072C39.8256 11.876 39.7975 11.7974 39.5702 11.808C39.1425 11.8278 39.3464 11.2304 39.9755 10.6202C40.2449 10.3589 40.4745 9.9258 40.496 9.63789C40.5274 9.21798 40.6105 9.14832 40.9471 9.26C41.3059 9.37905 41.3566 9.3237 41.3358 8.83653C41.3153 8.35582 41.4239 8.22795 42.1018 7.93565C42.5362 7.74847 43.1 7.39192 43.3547 7.14377C43.6704 6.83603 43.9737 6.74414 44.3077 6.85498C44.894 7.04951 45.0918 6.68174 44.5798 6.34903C44.3809 6.21968 44.2444 6.0351 44.2763 5.93878C44.3083 5.84246 43.9091 5.62993 43.389 5.46639C41.9086 5.00046 40.6588 4.25551 40.7742 3.90769C40.8701 3.61873 40.2215 3.4836 39.8717 3.71956C39.6548 3.86604 38.9315 3.76773 37.5364 3.40228C36.4251 3.11097 35.3778 2.92671 35.2094 2.99249C35.041 3.05827 34.8261 3.0202 34.7321 2.90758C34.638 2.79497 34.3954 2.7677 34.1931 2.84667C33.9342 2.94799 33.8472 2.92483 33.8992 2.76806C34.005 2.44918 33.4764 2.32329 33.0117 2.55673C32.4731 2.82708 32.3837 2.76747 32.3561 2.11921C32.343 1.81234 32.2164 1.53075 32.0748 1.49322C31.8721 1.43961 31.863 1.46386 32.0315 1.60712C32.5183 2.02076 31.6605 2.65841 30.9392 2.41907C30.7064 2.34181 30.2863 2.32013 30.0053 2.37077C29.7245 2.42129 29.355 2.43682 29.1841 2.40522C29.0134 2.37341 28.348 2.29192 27.7057 2.22398C27.0634 2.15585 26.2134 2.03485 25.8168 1.95496C24.7541 1.74114 24.5562 1.77977 24.4063 2.23144C24.3317 2.45638 24.0986 2.63755 23.888 2.63433C23.6775 2.63092 23.2497 2.65374 22.9372 2.6847C22.6247 2.71566 22.2098 2.70492 22.015 2.66055C21.8202 2.61637 21.4799 2.65107 21.2585 2.73753C20.9225 2.86895 20.8416 2.83792 20.7702 2.5509C20.7001 2.26822 20.6637 2.26848 20.5667 2.55242C20.5017 2.74275 20.2886 2.85924 20.0928 2.81144C19.7608 2.73031 19.4773 2.66396 18.551 2.45098C18.3478 2.40424 18.2047 2.46371 18.233 2.5833C18.2613 2.70269 18.1814 2.92632 18.0554 3.07991C17.8862 3.28646 17.7781 3.28182 17.641 3.06185C17.504 2.84194 17.3551 2.83433 17.0718 3.03229C16.6256 3.34381 14.4593 3.99103 14.1764 3.89714C14.0706 3.86206 13.9397 3.96713 13.8855 4.13063C13.7664 4.48935 13.223 4.35391 13.219 3.9645C13.2173 3.81277 13.1877 3.85356 13.1528 4.05539C13.0669 4.55403 12.1981 4.71215 12.1763 4.23297C12.153 3.72408 11.7653 3.68366 11.7327 4.18656C11.7173 4.42369 11.6404 4.54095 11.5621 4.44699C11.4836 4.35316 11.3606 4.4536 11.2886 4.67041C11.1355 5.13199 10.3894 5.56095 10.1783 5.30875C10.0983 5.21288 9.93995 5.24747 9.82662 5.38566C9.71349 5.5239 9.47781 5.56517 9.30315 5.47751C9.12849 5.38985 9.08449 5.39329 9.20492 5.48539C9.57132 5.76493 9.29905 6.08733 8.23738 6.63202C7.27983 7.12326 6.63775 7.04331 7.09165 6.48946C7.378 6.13984 6.94991 6.03365 6.58781 6.36452C6.3243 6.60555 6.2866 6.58403 6.21159 6.1497C6.14155 5.74276 6.25428 5.59844 6.93012 5.22956ZM40.8528 14.6693C40.9403 14.6253 41.0042 14.4566 40.9944 14.2947C40.9837 14.1156 40.9212 14.147 40.8351 14.3748C40.7573 14.5808 40.7652 14.7133 40.8528 14.6693ZM42.3482 13.5434C42.4798 13.6906 42.676 14.0279 42.7841 14.293C42.8922 14.5581 43.088 14.8106 43.2195 14.8542C43.3507 14.8977 43.5374 15.089 43.6341 15.2791C43.7805 15.5671 44.1591 15.9749 44.5766 16.2945C44.6248 16.3314 44.7983 16.4829 44.9623 16.6311C45.1261 16.7794 45.3981 16.8538 45.5667 16.7967C46.0012 16.6491 46.8282 16.9092 47.0484 17.2628C47.1867 17.4845 47.447 17.5009 48.053 17.3262C49.081 17.0297 49.809 16.3316 50.26 15.2103C50.583 14.4071 50.6708 14.3372 51.3524 14.3423C51.9281 14.3467 52.0275 14.2937 51.7978 14.105C51.635 13.9716 51.3309 13.8056 51.1221 13.7363C50.9132 13.6669 50.7763 13.4979 50.818 13.3604C50.9234 13.0114 50.4564 11.882 50.2495 11.9861C50.0557 12.0835 49.5426 11.2642 49.6309 10.9981C49.7392 10.6716 49.2379 9.87805 48.6368 9.42426C47.9009 8.86875 47.1306 8.59734 47.0427 8.86251C47.0065 8.97152 46.7959 9.00065 46.5748 8.92727C46.3534 8.85382 46.0768 8.91053 45.96 9.05328C45.8429 9.19596 45.6427 9.27803 45.5148 9.23559C45.3871 9.19321 45.0928 9.39257 44.861 9.67865C44.5781 10.0277 44.3035 10.1537 44.0263 10.0617C43.7224 9.96089 43.5715 10.0501 43.4558 10.3989C43.3692 10.6597 43.1524 10.8799 42.9738 10.8882C42.5318 10.9087 42.0021 13.1564 42.3482 13.5434ZM51.5952 16.4636C51.774 16.4527 51.7426 16.3902 51.5151 16.3042C51.3093 16.2264 51.1769 16.2344 51.2208 16.322C51.2647 16.4096 51.4332 16.4734 51.5952 16.4636ZM65.7587 7.76746C66.0031 7.89343 66.0703 7.87568 65.9513 7.71716C65.8507 7.58303 65.7493 7.22223 65.7262 6.91558C65.6847 6.36697 65.6814 6.36763 65.5337 6.96588C65.4271 7.39694 65.4927 7.63056 65.7587 7.76746Z" fill="#F68A22"/>
</svg>
