<svg width="108" height="29" viewBox="0 0 108 29" fill="none" xmlns="http://www.w3.org/2000/svg">
<path fill-rule="evenodd" clip-rule="evenodd" d="M106.56 10.8595C106.03 10.8937 105.857 10.4978 106.331 10.3359C106.621 10.2368 106.62 10.2036 106.324 10.1301C105.858 10.0139 105.814 10.1481 106.055 10.9638C106.228 11.5493 106.298 11.606 106.535 11.3556C106.722 11.1579 106.871 11.1322 106.993 11.2764C107.106 11.4101 107.14 11.367 107.082 11.1608C107.032 10.9798 106.797 10.8443 106.56 10.8595ZM106.823 12.1102C106.291 12.1445 105.82 12.5817 106.295 12.6002C106.458 12.6066 106.745 12.4924 106.932 12.3466C107.26 12.0899 107.257 12.0821 106.823 12.1102ZM105.283 9.38434C105.055 9.47039 105.024 9.53294 105.203 9.5438C105.365 9.55364 105.533 9.48981 105.577 9.4022C105.621 9.31459 105.489 9.30657 105.283 9.38434ZM104.34 8.63477C103.824 8.23267 103.201 8.36079 103.177 8.8737C103.152 9.41389 103.213 9.47156 103.434 9.11684C103.594 8.86086 103.722 8.85592 104.042 9.09375C104.623 9.52686 104.913 9.08113 104.34 8.63477ZM102.318 7.27075C102.222 7.30268 102.016 7.14817 101.861 6.92725C101.589 6.5383 101.579 6.5398 101.552 6.97494C101.532 7.29124 101.615 7.4161 101.831 7.39658C102.01 7.38057 102.131 7.51328 102.121 7.7163C102.108 8.00455 102.142 8.00414 102.324 7.71294C102.572 7.31435 102.57 7.18692 102.318 7.27075ZM100.512 5.22663C100.071 4.98609 99.6839 4.70952 99.6515 4.61201C99.6192 4.51451 99.5036 4.4644 99.3948 4.50053C99.2859 4.53667 99.158 4.4493 99.1105 4.30641C98.9795 3.91142 97.9254 3.40338 97.6705 3.61246C97.5447 3.71558 97.3418 3.63575 97.2087 3.43085C97.0308 3.15701 96.8796 3.13173 96.6056 3.33068C96.3177 3.5397 96.2436 3.51898 96.2567 3.23304C96.2747 2.83962 95.2879 2.27491 94.0493 1.9698C93.6543 1.87248 93.2285 1.70863 93.1028 1.60555C92.9772 1.50247 92.5884 1.44801 92.2385 1.48467C91.8886 1.52113 91.5752 1.46892 91.542 1.36863C91.5086 1.26815 91.3477 1.23045 91.1844 1.28465C91.021 1.33885 90.8578 1.29401 90.8216 1.18501C90.7855 1.076 90.6222 1.03117 90.4589 1.08537C90.2955 1.13957 90.1175 1.05014 90.0633 0.886633C89.9926 0.673581 89.7472 0.661489 89.1968 0.844128C88.7561 0.990371 88.2822 1.00702 88.084 0.883349C87.8941 0.764848 87.5716 0.723376 87.3673 0.791176C87.1627 0.859041 86.9658 0.825372 86.9297 0.716369C86.8935 0.607366 86.6804 0.579084 86.4562 0.653454C86.2321 0.727823 86.0714 0.692496 86.0992 0.575015C86.1666 0.290621 85.4916 0.268836 85.2606 0.548139C84.9147 0.965642 84.441 1.0942 84.023 0.884204C83.7358 0.740121 83.6405 0.578134 83.721 0.371672C83.8084 0.147989 83.6653 0.127482 83.1675 0.292645C82.7985 0.415105 82.5421 0.598301 82.5979 0.699677C82.6537 0.800855 82.5548 0.969652 82.378 1.07474C82.2011 1.17962 82.0249 1.16989 81.986 1.05276C81.9472 0.935827 82.0256 0.803576 82.16 0.758967C82.2946 0.714292 82.0129 0.609769 81.5343 0.526574C81.0555 0.443445 80.5746 0.405013 80.4653 0.441278C80.356 0.477543 80.0291 0.387997 79.739 0.242258C79.1711 -0.0429916 78.3725 0.0983646 78.4933 0.462435C78.5435 0.61385 78.4671 0.647992 78.2539 0.569133C78.0755 0.503142 77.7931 0.578602 77.5978 0.744398C77.1504 1.1243 76.7757 1.26755 76.7431 1.07133C76.6515 0.517814 76.4634 0.409944 76.0491 0.673493C75.8057 0.828382 75.5212 0.883636 75.417 0.79631C75.3129 0.708982 75.0284 0.764237 74.785 0.919127C74.4447 1.13546 74.3162 1.12197 74.2295 0.860563C74.1586 0.646719 74.0248 0.596052 73.8688 0.724149C73.7324 0.836101 73.5551 0.839703 73.4748 0.732344C73.3947 0.625182 72.9275 0.65194 72.4366 0.792158C71.9455 0.93244 71.3224 1.04966 71.0514 1.05291C70.711 1.05696 70.5845 1.13962 70.6425 1.32082C70.7079 1.52614 70.6682 1.53558 70.4593 1.36423C70.3005 1.23429 70.0701 1.24606 69.8908 1.39313C69.7095 1.54218 69.3934 1.5542 69.097 1.42331C68.7082 1.25159 68.5453 1.27812 68.32 1.55024C68.1063 1.80838 67.9567 1.8556 67.7209 1.73914C67.4791 1.62002 67.3707 1.69471 67.2507 2.06301C67.1635 2.33066 67.0579 2.43124 67.0114 2.29093C66.9204 2.01664 65.948 2.39012 63.2358 3.74173C61.6233 4.54543 60.8958 5.05678 60.9845 5.32414C61.0825 5.61963 59.7279 6.00509 59.3722 5.78279C59.1867 5.667 58.7962 5.65136 58.5048 5.74807C58.2131 5.84484 57.8617 5.8675 57.724 5.79834C57.5862 5.72925 57.1291 5.74625 56.7082 5.83621C55.8359 6.02267 55.1983 5.84572 55.2177 5.42259C55.2269 5.22261 54.9259 5.19029 54.2356 5.31723C53.6881 5.41794 53.0401 5.43211 52.7952 5.34858C52.2718 5.17023 51.6038 5.53643 51.7345 5.93023C51.7845 6.08085 51.7363 6.23388 51.6274 6.27002C51.5185 6.30615 51.3829 6.1956 51.3261 6.02417C51.2592 5.82261 51.0697 5.77766 50.7892 5.8967C49.9827 6.2389 49.8473 6.20441 49.6489 5.60648C49.5174 5.2101 49.3526 5.04476 49.1546 5.11046C48.9913 5.16466 48.8872 5.29819 48.9234 5.40719C48.9596 5.5162 48.7664 5.67929 48.4942 5.76963C48.2219 5.85996 47.9696 5.84469 47.9334 5.73568C47.8973 5.62668 47.9746 5.50202 48.1053 5.45866C48.2874 5.39822 48.2703 5.34339 48.0327 5.22401C47.8623 5.13842 47.0205 5.26948 46.1622 5.51532C45.304 5.76136 44.4111 5.98351 44.1778 6.00921C43.9446 6.0351 43.6849 6.07157 43.6003 6.09038C43.5157 6.10899 43.4006 5.98527 43.3442 5.81542C43.2879 5.64558 43.1784 5.58201 43.101 5.67458C43.0238 5.76709 42.5255 5.83011 41.9936 5.81477C40.4488 5.77008 39.1231 6.34198 39.3295 6.96409C39.3834 7.1264 39.2172 7.30783 38.9261 7.4044C38.6181 7.50663 38.3939 7.45628 38.3325 7.27137C38.2372 6.984 37.8892 6.99517 37.191 7.30869C37.007 7.39132 36.8285 7.3755 36.7947 7.27364C36.7609 7.17157 36.3531 7.15023 35.8885 7.22605C35.2513 7.3299 34.9905 7.46991 34.8276 7.79502C34.6277 8.19421 34.5913 8.20101 34.341 7.88783C34.116 7.60652 33.9123 7.61186 33.133 7.92036C32.6176 8.12438 32.1958 8.40033 32.1956 8.53371C32.1954 8.70735 32.0955 8.73723 31.8438 8.63857C31.6504 8.56304 31.5151 8.40508 31.5428 8.28786C31.5706 8.17038 31.4263 8.06648 31.2218 8.0571C31.0176 8.04765 30.8228 8.15673 30.7888 8.29955C30.6959 8.69166 28.112 9.50722 27.0398 9.48326C26.8915 9.47991 26.7457 9.57996 26.716 9.70556C26.6392 10.0292 25.6374 10.3246 25.2599 10.135C25.0139 10.0114 24.9081 10.0465 24.7847 10.2927C24.6975 10.4669 24.4152 10.6793 24.1576 10.7648C23.9 10.8503 23.561 11.0554 23.4044 11.2206C23.2394 11.3949 22.7905 11.5537 22.337 11.5984C21.8911 11.6425 21.6254 11.7353 21.7195 11.8141C21.8102 11.8902 21.5807 11.9899 21.209 12.0358C20.7464 12.0929 20.4939 12.23 20.4082 12.4705C20.2876 12.8086 19.0596 13.3556 16.5826 14.1744C16.0511 14.3501 15.4833 14.634 15.3208 14.8054C15.1234 15.0137 14.8363 15.0966 14.455 15.0555C14.0569 15.0125 13.6736 15.1289 13.1864 15.4406C12.6465 15.7861 12.3678 15.8543 11.9558 15.742C11.48 15.6123 11.4344 15.6312 11.5296 15.9182C11.5883 16.095 11.5294 16.2903 11.3988 16.3519C10.6969 16.684 10.5629 16.7161 10.2794 16.6217C10.0785 16.5546 9.99631 16.5964 10.0443 16.741C10.0849 16.8633 9.89536 17.0373 9.62312 17.1276C9.35088 17.218 9.09926 17.2049 9.06401 17.0987C9.02337 16.9762 8.84697 17.0301 8.58277 17.2454C8.35338 17.4324 7.55708 17.7894 6.81302 18.039C4.65442 18.7629 4.38135 18.8839 4.4485 19.0862C4.48342 19.1915 4.19294 19.36 3.80306 19.4608C3.19236 19.6188 3.09193 19.5824 3.07981 19.1987C3.07195 18.9538 3.34798 18.1648 3.69321 17.4452C4.03842 16.7257 4.29869 15.8627 4.2716 15.5273C4.2397 15.1318 4.30293 14.9852 4.45203 15.11C4.61279 15.2447 4.88414 14.9483 5.35826 14.1204C5.73053 13.4704 6.06028 12.9095 6.09099 12.8743C6.12164 12.8388 5.98329 12.7199 5.7835 12.61C5.48 12.4432 5.35263 12.4793 5.00958 12.8298C4.78357 13.0608 4.49144 13.4932 4.36043 13.7913C4.22915 14.0892 4.00208 14.3726 3.85556 14.4212C3.70905 14.4699 3.63366 14.6434 3.68791 14.8069C3.74217 14.9704 3.67272 15.1419 3.53372 15.1881C3.39453 15.2342 3.07702 15.6366 2.82776 16.0823C2.57869 16.528 2.32672 16.9086 2.26812 16.9281C2.07508 16.9921 1.26097 18.7535 1.3293 18.9594C1.36606 19.0702 1.51486 19.1609 1.66027 19.1613C1.86565 19.1616 1.88229 19.2117 1.73537 19.3876C1.63133 19.5119 1.51363 19.5149 1.47364 19.3944C1.43366 19.2739 1.11941 19.594 0.775597 20.1059C0.431718 20.6175 0.117585 21.0784 0.0776795 21.1297C0.0377744 21.181 0.147607 21.257 0.322002 21.2983C0.543748 21.3513 0.586476 21.4363 0.464731 21.5821C0.0645432 22.0605 0.583847 22.6598 1.62221 22.9176C2.1957 23.0602 2.76371 23.1438 2.88469 23.1037C3.00547 23.0636 3.26659 23.1849 3.4649 23.3732C3.72287 23.6181 3.95289 23.6443 4.27272 23.4655C4.60002 23.2828 4.74904 23.304 4.82907 23.5451C4.96191 23.9455 5.45439 24.2175 5.73654 24.0464C5.84996 23.9775 5.87891 23.9879 5.80051 24.0696C5.72211 24.1513 5.96274 24.377 6.33508 24.5712C7.12211 24.9817 8.55105 25.7827 9.40652 26.2929C9.8151 26.5366 10.1216 26.572 10.378 26.4055C10.6864 26.2048 10.783 26.2535 10.9246 26.6804C11.0702 27.119 11.1843 27.17 11.6632 27.0111C12.1515 26.8491 12.2388 26.8918 12.2955 27.319C12.3395 27.6524 12.5892 27.9405 13.0574 28.1983C13.4402 28.4092 13.7731 28.6409 13.797 28.713C13.821 28.7852 14.2133 28.7005 14.6687 28.5248C16.2656 27.9091 16.6328 27.3558 15.5758 27.1585C14.9308 27.0381 14.6874 26.8166 14.9032 26.5468C15.0419 26.3733 14.9981 26.2909 14.7299 26.2221C14.4189 26.1425 14.4077 26.0782 14.6459 25.7435C14.8958 25.3924 14.884 25.3424 14.5193 25.1999C14.2985 25.1134 14.0896 24.9581 14.0553 24.8546C14.021 24.7512 13.8149 24.5771 13.5973 24.4678C13.3607 24.349 13.2315 24.3591 13.276 24.4932C13.3168 24.6163 13.2429 24.6917 13.1117 24.6604C12.9804 24.6292 12.8156 24.4306 12.7454 24.2189C12.6701 23.992 12.4823 23.8792 12.2877 23.9438C12.1063 24.004 11.9972 23.9746 12.0454 23.8785C12.2045 23.5606 9.61799 21.9695 9.17864 22.1153C9.07549 22.1495 8.51883 21.9404 7.94199 21.6507C6.56124 20.9571 6.56412 20.5452 7.95253 20.1337C9.75974 19.5981 12.5027 18.5421 12.6571 18.3225C12.7392 18.2057 13.6291 17.7695 14.6344 17.3529C15.6398 16.9364 16.5353 16.4784 16.6247 16.335C16.7141 16.1916 16.8553 16.1086 16.9389 16.1506C17.1887 16.2761 19.1483 15.6743 19.1998 15.4561C19.2263 15.345 19.5745 15.1386 19.9739 14.9977C20.3733 14.8566 20.8545 14.6105 21.0432 14.4504C21.2319 14.2906 21.5581 14.1872 21.7681 14.2209C22.0205 14.2612 22.1986 14.157 22.2936 13.9134C22.3919 13.6612 22.5611 13.5663 22.83 13.6129C23.3281 13.6991 27.6591 12.1988 27.5821 11.9667C27.5506 11.8716 27.699 11.8619 27.9121 11.9452C28.21 12.0618 28.3838 12.0107 28.663 11.7242C28.863 11.5193 29.4296 11.2252 29.9224 11.0709C30.4151 10.9165 31.0651 10.6575 31.3668 10.4951C31.6686 10.3329 32.1292 10.2373 32.3906 10.2825C32.652 10.3278 33.0994 10.3169 33.3845 10.2581C33.6699 10.1995 34.2706 10.0787 34.7193 9.98967C35.5291 9.82899 36.0565 9.36643 35.7363 9.09803C35.6446 9.02109 35.6542 8.93012 35.7579 8.89569C35.8617 8.86127 36.034 8.94026 36.1412 9.07104C36.2485 9.20175 36.7827 9.23129 37.3288 9.13678C38.1459 8.99546 38.3462 8.88896 38.4594 8.53545C38.5819 8.15422 38.6225 8.13659 38.8208 8.37858C39.2926 8.95445 40.5446 8.893 42.0796 8.21865C42.9284 7.84569 43.595 7.42892 43.7103 7.19881C43.8175 6.9846 44.0533 6.81636 44.2343 6.82472C44.7797 6.85012 44.7354 7.23511 44.1622 7.45257C43.7982 7.59076 43.753 7.64753 44.0222 7.62929C44.2403 7.61433 44.6313 7.6892 44.8912 7.79547C45.3963 8.00211 45.7174 7.97696 47.3979 7.5993C48.1415 7.43197 48.5006 7.44485 48.5655 7.64066C48.6677 7.94864 49.4994 7.54792 49.8447 7.02438C49.9749 6.82671 50.058 6.8394 50.1341 7.0687C50.1928 7.24548 50.3744 7.34581 50.5378 7.29161C50.7011 7.23741 50.876 7.31753 50.9265 7.46954C50.9976 7.68378 51.1643 7.65771 51.6688 7.3537C52.1344 7.07314 52.3192 7.03403 52.3184 7.21646C52.3174 7.48499 53.4227 7.65439 53.9765 7.47064C54.1557 7.41118 54.6165 7.50577 55.0006 7.68085C55.3844 7.85599 55.9142 7.92772 56.1775 7.84034C57.0705 7.54404 57.9757 7.51735 58.0645 7.7849C58.1141 7.93433 58.0129 8.04469 57.8336 8.03621C57.3738 8.01498 56.388 9.02651 56.2785 9.63179C56.2274 9.91562 55.9068 10.4829 55.5662 10.8925C55.2256 11.3021 54.9854 11.7532 55.0323 11.8947C55.0793 12.0362 54.9944 12.1931 54.8435 12.2431C54.3947 12.3921 54.1999 13.5266 54.533 14.051C54.7215 14.3475 54.7545 14.6072 54.6244 14.7667C54.4709 14.9545 54.5067 14.989 54.7675 14.9052C55.3738 14.7097 55.5739 15.6146 55.133 16.5593C54.7855 17.3039 55.066 18.6901 55.493 18.3397C55.6514 18.2096 55.8906 18.3762 56.2192 18.8452C56.6978 19.5283 56.9319 19.5873 57.7547 19.2326C57.9731 19.1384 58.0779 19.1854 58.037 19.3588C57.9922 19.5476 58.0946 19.5548 58.3614 19.3814C58.5759 19.242 58.774 19.1967 58.8019 19.2807C58.8564 19.445 60.6073 19.5709 61.0047 19.4391C61.1373 19.3951 61.2013 19.2254 61.147 19.0618C61.0132 18.6587 61.416 18.5557 61.8707 18.8767C62.168 19.0865 62.2754 19.0729 62.4106 18.8076C62.5034 18.6256 62.7842 18.4086 63.0347 18.3255C63.2851 18.2424 63.4602 18.0844 63.4238 17.9746C63.3835 17.8533 63.5377 17.8185 63.8161 17.886C64.175 17.9733 64.3221 17.9218 64.4914 17.6498C64.6106 17.4585 64.9911 17.1665 65.3369 17.0012C65.6827 16.8356 65.9657 16.5996 65.966 16.4765C65.966 16.3533 66.0878 16.2124 66.2365 16.163C66.3854 16.1136 66.6405 15.6578 66.8036 15.1498C66.9668 14.642 67.2004 14.0655 67.3228 13.8689C67.5196 13.5526 67.503 13.4985 67.1799 13.4004C66.873 13.3073 66.8752 13.289 67.1947 13.286C67.6031 13.2822 67.8689 12.5113 67.5284 12.3178C67.422 12.2574 67.4857 12.2394 67.6702 12.2781C67.9177 12.3297 67.9456 12.2749 67.7769 12.0691C67.6162 11.8731 67.6444 11.7944 67.8717 11.8051C68.2994 11.8248 68.0954 11.2274 67.4664 10.6173C67.197 10.356 66.9674 9.92287 66.9459 9.63496C66.9145 9.21505 66.8314 9.14539 66.4948 9.25707C66.136 9.37612 66.0853 9.32077 66.1061 8.8336C66.1266 8.35289 66.018 8.22502 65.3401 7.93272C64.9057 7.74554 64.3419 7.38899 64.0872 7.14084C63.7714 6.8331 63.4682 6.74121 63.1342 6.85205C62.5479 7.04658 62.3501 6.67881 62.8621 6.3461C63.061 6.21675 63.1975 6.03217 63.1656 5.93585C63.1336 5.83953 63.5328 5.627 64.0528 5.46346C65.5333 4.99753 66.7831 4.25258 66.6677 3.90476C66.5718 3.6158 67.2204 3.48067 67.5702 3.71663C67.7871 3.86311 68.5104 3.7648 69.9055 3.39935C71.0168 3.10804 72.0641 2.92378 72.2325 2.98956C72.4009 3.05534 72.6158 3.01727 72.7098 2.90465C72.8039 2.79204 73.0465 2.76477 73.2488 2.84374C73.5077 2.94506 73.5947 2.9219 73.5427 2.76513C73.4369 2.44625 73.9655 2.32036 74.4302 2.55381C74.9688 2.82415 75.0582 2.76454 75.0858 2.11628C75.0989 1.80941 75.2255 1.52782 75.3671 1.49029C75.5698 1.43668 75.5789 1.46093 75.4104 1.60419C74.9236 2.01783 75.7814 2.65548 76.5027 2.41615C76.7355 2.33888 77.1556 2.3172 77.4366 2.36784C77.7173 2.41836 78.0869 2.43389 78.2578 2.40229C78.4285 2.37048 79.0938 2.28899 79.7362 2.22105C80.3784 2.15292 81.2285 2.03192 81.6251 1.95203C82.6878 1.73821 82.8857 1.77684 83.0355 2.22851C83.1102 2.45345 83.3433 2.63462 83.5539 2.6314C83.7644 2.62799 84.1922 2.65082 84.5047 2.68177C84.8172 2.71273 85.2321 2.702 85.4269 2.65762C85.6217 2.61344 85.962 2.64814 86.1834 2.7346C86.5194 2.86602 86.6003 2.835 86.6716 2.54797C86.7418 2.26529 86.7782 2.26555 86.8752 2.54949C86.9402 2.73982 87.1533 2.85631 87.3491 2.80851C87.6811 2.72738 87.9646 2.66103 88.8909 2.44805C89.0941 2.40131 89.2372 2.46078 89.2089 2.58037C89.1806 2.69976 89.2605 2.92339 89.3865 3.07698C89.5557 3.28353 89.6638 3.27889 89.8009 3.05892C89.9379 2.83901 90.0868 2.8314 90.37 3.02936C90.8163 3.34088 92.9826 3.9881 93.2655 3.89421C93.3713 3.85913 93.5022 3.9642 93.5564 4.1277C93.6755 4.48642 94.2189 4.35098 94.2229 3.96157C94.2246 3.80984 94.2542 3.85063 94.2891 4.05246C94.375 4.5511 95.2438 4.70922 95.2656 4.23004C95.2889 3.72115 95.6766 3.68073 95.7092 4.18364C95.7246 4.42076 95.8015 4.53802 95.8798 4.44406C95.9583 4.35024 96.0813 4.45067 96.1533 4.66748C96.3064 5.12906 97.0525 5.55802 97.2636 5.30582C97.3436 5.20995 97.5019 5.24454 97.6153 5.38273C97.7284 5.52097 97.9641 5.56224 98.1387 5.47458C98.3134 5.38692 98.3574 5.39036 98.237 5.48246C97.8706 5.762 98.1428 6.0844 99.2045 6.62909C100.162 7.12033 100.804 7.04038 100.35 6.48653C100.064 6.13691 100.492 6.03072 100.854 6.36159C101.118 6.60262 101.155 6.5811 101.23 6.14677C101.3 5.73983 101.188 5.59551 100.512 5.22663ZM66.5891 14.6663C66.5016 14.6224 66.4377 14.4537 66.4475 14.2918C66.4582 14.1127 66.5207 14.1441 66.6068 14.3718C66.6846 14.5779 66.6767 14.7103 66.5891 14.6663ZM65.0937 13.5404C64.9621 13.6877 64.7659 14.025 64.6578 14.2901C64.5497 14.5552 64.3539 14.8076 64.2224 14.8513C64.0912 14.8948 63.9045 15.0861 63.8078 15.2762C63.6613 15.5641 63.2828 15.972 62.8653 16.2916C62.8171 16.3285 62.6436 16.48 62.4796 16.6282C62.3158 16.7764 62.0438 16.8509 61.8752 16.7937C61.4407 16.6462 60.6137 16.9063 60.3935 17.2599C60.2551 17.4816 59.9949 17.498 59.3889 17.3232C58.3609 17.0268 57.6329 16.3287 57.1819 15.2073C56.8589 14.4041 56.7711 14.3343 56.0895 14.3393C55.5138 14.3438 55.4144 14.2907 55.6441 14.1021C55.8069 13.9687 56.111 13.8026 56.3198 13.7333C56.5287 13.664 56.6656 13.495 56.6239 13.3574C56.5185 13.0085 56.9855 11.8791 57.1924 11.9832C57.3862 12.0806 57.8993 11.2613 57.811 10.9951C57.7026 10.6687 58.204 9.87512 58.8051 9.42133C59.541 8.86582 60.3113 8.59441 60.3992 8.85958C60.4354 8.96859 60.646 8.99772 60.8671 8.92434C61.0885 8.85089 61.3651 8.9076 61.4819 9.05035C61.599 9.19303 61.7992 9.2751 61.9271 9.23266C62.0548 9.19028 62.3491 9.38964 62.5809 9.67572C62.8638 10.0247 63.1384 10.1508 63.4156 10.0588C63.7195 9.95796 63.8704 10.0471 63.9861 10.396C64.0727 10.6568 64.2895 10.877 64.4681 10.8853C64.9101 10.9058 65.4398 13.1534 65.0937 13.5404ZM55.8467 16.4607C55.6679 16.4498 55.6993 16.3873 55.9268 16.3012C56.1326 16.2235 56.265 16.2315 56.2211 16.3191C56.1772 16.4067 56.0087 16.4705 55.8467 16.4607ZM41.6832 7.76453C41.4388 7.8905 41.3716 7.87276 41.4906 7.71423C41.5912 7.5801 41.6926 7.2193 41.7157 6.91265C41.7572 6.36404 41.7605 6.3647 41.9082 6.96295C42.0147 7.39401 41.9492 7.62763 41.6832 7.76453Z" fill="#F68A22"/>
</svg>
