<svg width="26" height="13" viewBox="0 0 26 13" fill="none" xmlns="http://www.w3.org/2000/svg">
<path d="M6.4375 5.75781L6.86719 7.20312H5.34375L5.8125 5.75781C5.92969 5.28906 6.08594 4.42969 6.08594 4.42969H6.125C6.125 4.42969 6.28125 5.28906 6.4375 5.75781ZM24.5625 0.25C25.0703 0.25 25.5 0.679688 25.5 1.1875V11.8125C25.5 12.3594 25.0703 12.75 24.5625 12.75H13.625V0.25H24.5625ZM23.625 4.9375V4.3125C23.625 4.07812 23.3906 3.84375 23.1562 3.84375H20.6562V3.21875C20.6562 2.98438 20.4219 2.75 20.1875 2.75H19.5625C19.2891 2.75 19.0938 2.98438 19.0938 3.21875V3.84375H16.5938C16.3203 3.84375 16.125 4.07812 16.125 4.3125V4.9375C16.125 5.21094 16.3203 5.40625 16.5938 5.40625H21.0469C20.8125 5.99219 20.3828 6.53906 19.875 7.125C19.6016 6.85156 19.3672 6.57812 19.1719 6.30469C19.0547 6.10938 18.7812 6.03125 18.5469 6.14844L18.2734 6.34375L18.0391 6.5C17.8047 6.61719 17.7266 6.92969 17.8828 7.16406C18.1172 7.47656 18.3906 7.82812 18.7031 8.14062C18.3906 8.41406 18.0391 8.64844 17.6875 8.84375C17.4531 9 17.375 9.27344 17.5312 9.50781L17.8438 10.0156C17.9609 10.25 18.2344 10.3281 18.4688 10.2109C18.9766 9.89844 19.4453 9.58594 19.875 9.23438C20.3047 9.58594 20.7344 9.89844 21.2422 10.2109C21.4766 10.3281 21.75 10.25 21.9062 10.0156L22.2188 9.50781C22.3359 9.27344 22.2578 9 22.0625 8.84375C21.7109 8.64844 21.3594 8.41406 21.0078 8.14062C21.8281 7.28125 22.4141 6.34375 22.6875 5.40625H23.1562C23.3906 5.40625 23.625 5.21094 23.625 4.9375ZM0.5 1.1875C0.5 0.679688 0.890625 0.25 1.4375 0.25H12.375V12.75H1.4375C0.890625 12.75 0.5 12.3594 0.5 11.8125V1.1875ZM2.76562 9.66406C2.6875 9.9375 2.92188 10.25 3.23438 10.25H4.13281C4.32812 10.25 4.52344 10.1328 4.5625 9.9375L4.91406 8.6875H7.29688L7.64844 9.9375C7.6875 10.1328 7.88281 10.25 8.07812 10.25H8.97656C9.32812 10.25 9.52344 9.9375 9.44531 9.66406L7.17969 3.02344C7.14062 2.86719 6.94531 2.71094 6.75 2.71094H5.46094C5.26562 2.71094 5.10938 2.86719 5.03125 3.02344L2.76562 9.66406Z" fill="#14A38B"/>
</svg>
