<svg width="21" height="21" viewBox="0 0 21 21" fill="none" xmlns="http://www.w3.org/2000/svg">
<path d="M7.52344 12.6094L10.9609 15.4609C10.9609 15.5781 11 15.6953 11 15.8125C11 18.8203 8.92969 20.5 6 20.5C2.44531 20.5 1 17.6875 0.960938 14.4844C1.35156 14.7188 2.71875 15.8125 3.14844 15.8125C3.38281 15.8125 3.61719 15.6562 3.69531 15.4219C4.51562 13.3125 5.92188 12.6875 7.52344 12.6094ZM18.8516 0.5C19.9844 0.5 21 1.32031 21 2.45312C21 3.07812 20.7266 3.70312 20.4531 4.25C16.0391 12.4922 14.6328 14.25 12.1719 14.25C11.8984 14.25 11.5859 14.2109 11.3125 14.1328L8.8125 12.0625C8.61719 11.5938 8.5 11.0859 8.5 10.5781C8.5 8.46875 9.32031 8.3125 17.2891 1.16406C17.7188 0.773438 18.2656 0.5 18.8516 0.5Z" fill="#00A5CE"/>
</svg>
