<svg width="115" height="51" viewBox="0 0 115 51" fill="none" xmlns="http://www.w3.org/2000/svg">
<path fill-rule="evenodd" clip-rule="evenodd" d="M67.079 0.445967C67.2436 0.703306 67.3773 0.730738 67.5353 0.538975C67.844 0.164331 69.2127 1.15136 69.4317 1.9064C69.5566 2.33669 69.5709 2.22748 69.4887 1.47349L69.3786 0.465039L70.1619 0.665685C71.3073 0.959338 71.6395 0.990951 71.8364 0.825052C72.0906 0.611082 73.2327 0.788998 73.4751 1.0803C73.6102 1.2428 73.7081 1.21224 73.7598 0.990689C73.8231 0.719765 73.9548 0.715846 74.4267 0.970311C74.8277 1.18637 75.1197 1.20518 75.3444 1.02962C75.5958 0.832889 75.76 0.897681 76.0373 1.30289C76.3395 1.74468 76.5285 1.80242 77.1586 1.64671C77.5754 1.54351 77.9969 1.49831 78.0952 1.54612C78.1936 1.59367 78.7164 1.66891 79.2571 1.71307C80.8198 1.84082 80.8659 1.85075 80.8659 2.06106C80.8659 2.17105 81.1194 2.20632 81.4293 2.13996C81.933 2.0318 81.9822 2.0783 81.893 2.57705C81.826 2.95169 81.8758 3.13509 82.0446 3.13509C82.1828 3.13509 82.2959 2.95874 82.2959 2.74321C82.2959 2.48195 82.4747 2.35132 82.8322 2.35132C83.1419 2.35132 83.3684 2.48926 83.3684 2.67789C83.3686 2.87958 83.6453 3.01779 84.0925 3.03947C84.9164 3.07918 85.1772 3.31301 84.7932 3.6678C84.6152 3.83239 84.6023 3.91207 84.7537 3.91495C84.8765 3.91704 84.9772 4.09521 84.9772 4.31075C84.9772 4.52629 85.0978 4.70264 85.2453 4.70264C85.3928 4.70264 85.5134 4.52629 85.5134 4.31075C85.5134 4.09521 85.433 3.91887 85.3347 3.91887C85.2364 3.91887 85.1559 3.8013 85.1559 3.65761C85.1559 3.26363 85.6402 3.3441 85.7483 3.75584C85.8059 3.97477 86.0098 4.06883 86.2695 3.9962C86.6639 3.88621 86.6907 3.94682 86.6229 4.7946C86.5532 5.66694 86.1108 6.27776 85.8852 5.81298C85.8282 5.69568 85.5603 5.5789 85.29 5.55382C85.0197 5.52873 84.6978 5.49477 84.575 5.47831C84.452 5.46185 84.1706 5.52952 83.9494 5.62854C83.649 5.76308 83.5472 5.70325 83.5472 5.39262C83.5472 5.05429 83.4619 5.02425 83.0887 5.23169C82.3987 5.61495 81.7596 5.54911 81.7596 5.09452C81.7596 4.85077 81.5909 4.70264 81.3128 4.70264C81.0516 4.70264 80.8659 4.85286 80.8659 5.0637C80.8659 5.55852 79.4518 5.58987 79.3227 5.09792C79.2712 4.90198 79.0142 4.74784 78.7516 4.75515C77.8419 4.78075 77.6484 4.70081 77.6484 4.29926C77.6484 4.07745 77.5477 3.91495 77.4249 3.93846C77.3019 3.96171 77.0177 3.96694 76.793 3.94969C76.4432 3.92331 76.4118 3.84467 76.5737 3.40236C76.728 2.98069 76.7128 2.91381 76.4906 3.03817C76.3408 3.12229 76.2183 3.35481 76.2183 3.55493C76.2183 3.75506 76.1063 3.91887 75.9693 3.91887C75.8324 3.91887 75.6746 4.09339 75.6185 4.30657C75.469 4.87611 73.3133 4.72485 72.8223 4.11037C72.4446 3.63775 72.0145 3.48857 72.1838 3.88908C72.2376 4.01631 72.0795 4.17673 71.8325 4.24596C71.5857 4.31493 71.3397 4.26764 71.2861 4.14093C71.2324 4.01396 71.1137 3.97791 71.0222 4.06073C70.9307 4.14329 70.8558 4.08633 70.8558 3.93428C70.8558 3.78223 70.6901 3.65761 70.4878 3.65761C70.2854 3.65761 70.1694 3.77517 70.2302 3.91887C70.2981 4.07954 70.0443 4.16497 69.5704 4.14093C69.0567 4.11481 68.9605 4.06595 69.2819 3.99437C69.6253 3.91782 69.7336 3.77256 69.6592 3.4891C69.6019 3.27042 69.5057 3.18943 69.4456 3.30909C69.2765 3.64637 68.5655 4.18012 68.285 4.18012C68.1467 4.18012 67.663 3.66884 67.2102 3.04365C66.6466 2.26563 66.387 2.04199 66.387 2.33434C66.387 2.56895 66.6298 2.97076 66.9265 3.22679C67.5337 3.75114 67.4824 4.18012 66.8128 4.18012C66.527 4.18012 66.4108 4.07405 66.4903 3.88595C66.5795 3.67511 66.5245 3.66545 66.2968 3.85172C65.8944 4.18091 65.3145 3.97112 65.3145 3.49641C65.3145 3.29786 65.2341 3.13509 65.1358 3.13509C65.0374 3.13509 64.957 3.29185 64.957 3.48335C64.957 4.0299 62.8517 3.96746 62.7507 3.41803C62.6881 3.07709 62.6711 3.08467 62.654 3.46166C62.63 3.98836 62.2672 4.06308 61.954 3.60536C61.7913 3.36761 61.7395 3.36631 61.7395 3.59987C61.7395 3.94159 58.6003 3.9267 58.2243 3.58341C58.1099 3.47865 57.9753 3.54083 57.9253 3.72135C57.8556 3.9719 57.7916 3.95988 57.6536 3.67015C57.5544 3.4614 57.5122 3.19832 57.5599 3.08519C57.6076 2.97233 57.522 2.94986 57.3694 3.03529C57.2167 3.12098 57.0919 3.32947 57.0919 3.49902C57.0919 3.83579 56.7505 3.91259 55.3938 3.88124C54.9022 3.86975 53.8565 3.88725 53.07 3.91991C50.5647 4.02415 50.41 4.01187 50.3396 3.70359C50.2919 3.4938 50.1889 3.52045 50.0041 3.79059C49.6677 4.28227 48.5609 4.29246 47.7724 3.81097C47.2517 3.49302 47.1201 3.49302 46.8227 3.81097C46.4005 4.26242 46.0319 4.30396 46.3311 3.86661C46.623 3.43998 46.6007 3.13509 46.2775 3.13509C46.13 3.13509 46.0094 3.31144 46.0094 3.52698C46.0094 3.74252 45.8685 3.92853 45.6965 3.94003C45.5246 3.95178 45.1424 3.98914 44.8475 4.02311C44.5525 4.05707 44.2521 3.95936 44.1798 3.806C44.0921 3.61946 44.0477 3.63514 44.0458 3.85355C44.0443 4.0333 43.8622 4.17829 43.6409 4.1762C43.3612 4.17333 43.3093 4.10671 43.4706 3.95701C43.657 3.78432 43.6507 3.67929 43.4384 3.42169C43.2232 3.1607 43.1384 3.19936 42.9802 3.63096C42.8642 3.94786 42.6789 4.10044 42.5187 4.01057C42.3714 3.92801 42.1515 3.97974 42.0298 4.12552C41.6698 4.55686 41.0805 4.59761 40.7637 4.2133C40.5716 3.98052 40.4681 3.95753 40.4681 4.14825C40.4681 4.45941 39.8905 4.55503 39.6991 4.27548C39.4418 3.89953 38.16 3.92409 38.0131 4.30788C37.8576 4.71413 37.092 4.82647 35.9482 4.61094C35.576 4.54066 35.0329 4.58324 34.7416 4.70525C34.4502 4.82752 34.2118 4.83274 34.2118 4.71701C34.2118 4.60127 34.0107 4.50669 33.7649 4.50669C33.5191 4.50669 33.318 4.65457 33.318 4.83536C33.318 5.22803 32.6448 5.53892 32.5637 5.18361C32.5328 5.0475 32.2071 4.83719 31.8401 4.71622C31.2414 4.51897 31.173 4.55032 31.173 5.02059C31.173 5.48432 31.0961 5.52351 30.5027 5.36153C30.1339 5.26095 29.8947 5.27035 29.9709 5.38243C30.1713 5.67765 28.9817 6.22002 28.7311 5.94779C28.6097 5.81586 28.4754 5.83597 28.4077 5.99613C28.3441 6.14687 27.9883 6.27018 27.6173 6.27018C27.2462 6.27018 26.8846 6.35483 26.8138 6.45829C26.6136 6.7509 24.8541 6.75691 24.6039 6.46613C24.4434 6.27933 24.3804 6.32923 24.3804 6.643C24.3804 6.9923 24.2104 7.07643 23.5314 7.06258C23.0645 7.05291 22.412 7.1211 22.0815 7.21411C21.6931 7.32331 21.4339 7.27185 21.3479 7.06859C21.2458 6.82745 21.1566 6.83555 20.9654 7.10307C20.6031 7.61017 19.7887 8.09324 19.6466 7.88554C19.4244 7.56054 18.6724 7.67653 18.5741 8.05118C18.4979 8.34091 18.4226 8.35267 18.2192 8.10604C17.9615 7.79332 17.5112 7.96784 17.6612 8.3221C17.7307 8.48643 17.2261 8.52275 16.5601 8.401C16.4371 8.37853 16.3302 8.15438 16.3225 7.90304C16.3112 7.53755 16.2875 7.52448 16.2042 7.83773C16.1468 8.05327 15.98 8.35868 15.8334 8.51648C15.6869 8.67428 15.6196 8.92796 15.684 9.08001C15.7564 9.25113 15.6711 9.30704 15.46 9.22631C15.2725 9.15473 14.8267 9.29894 14.4694 9.54662C14.1119 9.79455 13.4206 9.99755 12.933 9.99755C12.4455 9.99755 12.0466 10.0994 12.0466 10.2238C12.0466 10.3484 11.9259 10.4503 11.7785 10.4503C11.631 10.4503 11.5103 10.3202 11.5103 10.1611C11.5103 10.002 11.3897 9.93955 11.2422 10.0224C11.0947 10.1049 10.9741 10.0587 10.9741 9.91969C10.9741 9.50403 10.4848 9.63335 10.3676 10.0798C10.2072 10.6907 10.2188 10.7116 10.7186 10.7116C11.1555 10.7116 11.163 10.734 10.8672 11.1664C10.6453 11.4904 10.5349 11.5288 10.4825 11.2997C10.4326 11.081 10.221 11.1878 9.8213 11.6335C9.4495 12.0482 9.11953 12.225 8.9238 12.1153C8.74058 12.0126 8.55109 12.0905 8.4594 12.3063C8.37431 12.5069 8.16124 12.6713 7.98589 12.6713C7.81053 12.6715 7.65716 12.8186 7.64483 12.9978C7.63249 13.1773 7.61247 13.4229 7.60014 13.5433C7.53775 14.156 5.96903 14.643 5.96903 14.0497C5.96903 13.8741 5.84373 13.9919 5.69054 14.3114C5.53735 14.6312 5.45602 14.9967 5.50983 15.1237C5.64014 15.432 5.27834 15.8249 4.66808 16.0381C4.37224 16.1415 3.9747 16.6275 3.68494 17.2399C3.41735 17.8055 3.09935 18.2726 2.97834 18.2781C2.85732 18.2836 2.70342 18.6073 2.63639 18.9979C2.56936 19.3882 2.36629 19.94 2.18521 20.2242C1.96159 20.5751 1.89778 20.9134 1.9868 21.2781C2.05902 21.5734 2.10031 22.2782 2.07887 22.8441C2.05724 23.4103 2.15965 24.1407 2.30623 24.4678C2.4528 24.7949 2.57275 25.2427 2.57275 25.4635C2.57275 25.684 2.65337 25.835 2.75186 25.7992C2.85036 25.7631 3.03268 26.0278 3.15709 26.387C3.28168 26.7463 3.56303 27.1562 3.78255 27.298C4.00187 27.4399 4.18152 27.7573 4.18152 28.0034C4.18152 28.2498 4.2952 28.545 4.4341 28.66C4.57317 28.7749 4.71384 29.2217 4.74691 29.6527C4.7907 30.2236 4.90492 30.4438 5.16714 30.4632C5.63959 30.4982 6.48437 31.1547 7.03742 31.9165C7.28088 32.252 7.50111 32.5005 7.52703 32.4683C7.6593 32.3048 9.3199 33.3955 9.67544 33.8796C9.79985 34.0489 9.90157 34.3272 9.90157 34.4978C9.90157 34.6754 10.0487 34.752 10.2453 34.6767C10.4342 34.6046 10.8384 34.7671 11.1433 35.0383C11.4483 35.3092 11.8137 35.531 11.9552 35.531C12.097 35.531 12.5104 35.913 12.8742 36.3796C13.2378 36.8465 13.683 37.1916 13.8636 37.1469C14.0945 37.0897 14.1916 37.2266 14.1916 37.6096C14.1916 38.0684 14.2663 38.1261 14.6678 37.9788C15.0621 37.8343 15.1247 37.8784 15.031 38.2351C14.9554 38.5232 15.0112 38.6661 15.1994 38.6661C15.3764 38.6661 15.4429 38.5204 15.3782 38.2743C15.3083 38.0078 15.3878 37.8824 15.6272 37.8824C15.8207 37.8824 15.9791 37.9803 15.9791 38.1C15.9791 38.2199 16.0796 38.3377 16.2026 38.3623C18.1672 38.7539 19.1573 39.3067 19.2308 40.0534C19.2805 40.5605 19.3119 40.5759 19.5464 40.207C19.8122 39.7893 19.8212 39.7906 21.3719 40.4821C21.7326 40.6431 22.3291 40.8312 22.6975 40.8999C23.0657 40.9689 23.4597 41.1376 23.5728 41.2748C23.6858 41.412 24.2557 41.6014 24.8391 41.6957C25.4276 41.7908 26.2757 42.1599 26.7441 42.5252C27.4222 43.0534 27.64 43.1206 27.85 42.8659C28.0411 42.6341 28.2075 42.6239 28.4685 42.8282C28.6649 42.9819 29.1002 43.1075 29.4357 43.1075C29.771 43.1075 30.295 43.2894 30.5999 43.5117C30.9411 43.7607 31.854 43.9652 32.9755 44.0441C33.9774 44.1147 34.9359 44.2811 35.1057 44.4141C35.2755 44.5468 35.9684 44.6745 36.6453 44.6981C37.3222 44.7216 38.1999 44.8979 38.5955 45.0902C38.991 45.2822 39.8356 45.4607 40.4724 45.4868C41.2828 45.5202 41.7558 45.6775 42.0498 46.0119C42.4147 46.4265 42.5035 46.4401 42.7262 46.1146C42.9128 45.8418 43.1011 45.8055 43.4176 45.9813C43.6568 46.1143 44.1568 46.2139 44.5288 46.2026C44.9007 46.1914 45.2854 46.2076 45.3837 46.2387C45.482 46.27 45.8158 46.2755 46.1254 46.2512C46.435 46.2269 46.7413 46.3327 46.8062 46.4861C46.8711 46.6395 47.1106 46.7651 47.3387 46.7651C47.5666 46.7651 47.8514 46.9381 47.9715 47.1497C48.1515 47.4669 48.2309 47.4742 48.4241 47.192C48.7144 46.7675 50.7624 46.8733 51.1406 47.3323C51.3433 47.5782 51.4309 47.5711 51.5458 47.2989C51.6556 47.0394 52.194 46.9632 53.6789 46.9966C55.8502 47.0455 56.5528 47.29 56.5611 47.9996C56.5662 48.4291 56.5809 48.4272 56.7607 47.9748C56.9178 47.5795 56.9851 47.5546 57.1129 47.8441C57.2367 48.125 57.2923 48.0873 57.3712 47.6686C57.4394 47.3064 57.6404 47.1163 57.9968 47.0765C58.2857 47.0444 58.522 47.122 58.522 47.2492C58.522 47.3765 58.7633 47.4392 59.0582 47.389C59.3532 47.3388 59.5945 47.4044 59.5945 47.5348C59.5945 47.8736 60.1422 48.0027 60.6818 47.7913C61.0291 47.6552 61.1955 47.7323 61.3536 48.1022C61.4692 48.3726 61.6998 48.5939 61.866 48.5939C62.1013 48.5939 62.1208 48.5242 61.954 48.2804C61.4992 47.6158 61.7468 47.4185 62.9938 47.4514C63.6836 47.4695 64.2899 47.3859 64.3409 47.2652C64.4767 46.9438 65.285 47.5513 65.3749 48.0424C65.4368 48.3815 65.4559 48.37 65.4725 47.9831C65.4911 47.5544 65.6418 47.5102 66.8786 47.5732C67.6404 47.6119 68.4421 47.7354 68.6598 47.8475C68.8929 47.9677 69.1024 47.9408 69.1695 47.7825C69.232 47.6343 69.406 47.5821 69.5559 47.6662C69.7059 47.7503 69.919 47.7166 70.0294 47.5912C70.6091 46.9329 71.3758 47.1648 71.6171 48.0714C71.6999 48.3828 71.7242 48.3685 71.7354 48.0019C71.7455 47.6751 71.8927 47.5437 72.2411 47.5515C72.5114 47.5573 72.9313 47.5298 73.174 47.4901C73.6604 47.411 73.9282 48.2407 73.5317 48.5986C73.4112 48.7076 73.3678 48.9276 73.4354 49.0872C73.6127 49.5065 73.8946 49.4443 73.8946 48.9858C73.8946 48.7703 73.9779 48.5939 74.0796 48.5939C74.202 48.5939 74.1967 48.4082 74.0635 48.0445C73.8697 47.5152 73.8955 47.4987 74.7724 47.5873C75.4551 47.6565 75.6823 47.5899 75.6823 47.3211C75.6821 47.0319 75.7341 47.0253 75.9502 47.2876C76.1129 47.4849 76.2183 47.5058 76.2183 47.3407C76.2183 47.1813 76.6815 47.0671 77.3355 47.0653C77.9499 47.0635 79.3508 47.0227 80.4481 46.9749C81.5457 46.9274 82.4064 46.9767 82.3606 47.0849C82.2498 47.3467 82.8171 47.0327 83.3412 46.5418C83.6457 46.257 83.8421 46.223 84.0562 46.4182C84.2209 46.5684 84.5097 46.5971 84.709 46.4835C85.2356 46.1828 86.5756 46.205 87.3703 46.5276C87.894 46.74 88.098 46.7325 88.1977 46.4968C88.273 46.3186 88.7824 46.1681 89.3796 46.1478C90.2493 46.1182 90.4979 46.2126 90.8313 46.6998C91.3316 47.4311 91.6761 47.4799 91.3758 46.7769C91.1226 46.1846 91.3173 45.7381 91.6298 46.1948C91.9378 46.6449 92.2107 46.5739 91.9485 46.112C91.826 45.8964 91.756 45.7141 91.7926 45.7068C91.8291 45.6997 92.3676 45.6284 92.9892 45.5484C94.0025 45.4181 94.1666 45.4664 94.5784 46.0187L95.0377 46.6345L94.9197 45.916C94.7912 45.1333 94.7794 45.1425 96.0151 45.0659C96.433 45.0398 96.7748 45.126 96.7748 45.2574C96.7748 45.3888 96.9011 45.3115 97.0556 45.0855C97.2102 44.8598 97.4783 44.6751 97.6515 44.6751C97.8248 44.6751 98.0178 44.5998 98.0807 44.5081C98.1435 44.4162 98.4988 44.3111 98.8701 44.2748C100.585 44.106 101.679 43.8602 101.898 43.5945C102.075 43.3797 102.212 43.3952 102.425 43.6535C102.668 43.9488 102.748 43.9315 102.943 43.5409C103.116 43.1945 103.197 43.1645 103.268 43.4202C103.341 43.6872 103.395 43.6912 103.517 43.4388C103.603 43.2619 103.861 43.1697 104.089 43.234C104.318 43.2985 104.954 43.1201 105.504 42.8376C106.054 42.555 106.648 42.3906 106.823 42.4721C107.019 42.5628 107.143 42.487 107.145 42.2759C107.147 42.0225 107.195 42.0351 107.325 42.3237C107.477 42.6592 107.547 42.6325 107.814 42.1396C107.985 41.8229 108.588 41.3069 109.153 40.9929C109.719 40.6791 110.181 40.3447 110.181 40.2499C110.181 40.155 110.463 40.1253 110.807 40.184C111.382 40.2823 111.432 40.2352 111.432 39.6025C111.432 39.0431 111.535 38.8843 111.982 38.7537C112.37 38.6403 112.668 38.2771 112.996 37.5192C113.251 36.9285 113.44 36.4055 113.417 36.3564C113.394 36.3072 113.491 36.1309 113.634 35.9645C113.776 35.798 113.943 34.9871 114.004 34.1628C114.103 32.8445 114.073 32.6246 113.757 32.3364C113.56 32.1564 113.399 31.7433 113.399 31.4186C113.399 31.0941 113.322 30.8284 113.228 30.8284C113.135 30.8284 112.924 30.4169 112.761 29.914C112.598 29.4111 112.353 28.9996 112.216 28.9996C112.08 28.9996 111.969 28.8515 111.969 28.6707C111.969 28.4896 111.808 28.1947 111.611 28.0152C111.415 27.8357 111.254 27.4684 111.254 27.199C111.254 26.9195 111.091 26.647 110.874 26.5642C110.569 26.4474 110.517 26.2883 110.609 25.7498C110.721 25.0967 110.491 24.8197 110.27 25.342C110.21 25.4857 110.093 25.6033 110.011 25.6033C109.789 25.6033 109.624 24.8171 109.774 24.4694C109.845 24.3027 109.881 23.9607 109.853 23.7091C109.824 23.4578 109.891 23.2519 110.002 23.2519C110.112 23.2519 110.154 23.3661 110.095 23.5056C110.036 23.6451 110.189 23.833 110.435 23.9234C110.682 24.0138 110.932 24.3111 110.991 24.5841C111.05 24.8574 111.174 25.0807 111.266 25.0807C111.357 25.0807 111.432 25.2239 111.432 25.3989C111.432 25.574 111.646 25.986 111.908 26.3144C112.169 26.6425 112.471 27.1755 112.579 27.4982C112.687 27.8211 113.034 28.2615 113.351 28.4771C113.668 28.6929 113.929 29.0707 113.931 29.3181C113.933 29.6089 114.029 29.7139 114.203 29.6167C114.514 29.4422 114.541 29.7424 114.298 30.6761C114.155 31.2266 114.187 31.3896 114.482 31.6205C114.678 31.7742 114.789 32.0163 114.729 32.1593C114.669 32.3019 114.722 32.5995 114.847 32.8205C115.017 33.1194 115.025 33.3396 114.879 33.6816C114.759 33.9627 114.745 34.2838 114.842 34.5093C115.06 35.0111 115.05 36.3148 114.829 36.3148C114.73 36.3148 114.643 36.6383 114.636 37.0333C114.628 37.4283 114.581 37.6049 114.532 37.4252C114.414 37.0017 114.148 37.0017 114.173 37.4252C114.206 37.9764 113.526 39.7112 113.276 39.7112C113.147 39.7112 113.041 39.8765 113.041 40.0785C113.041 40.3092 112.916 40.3983 112.706 40.3181C112.477 40.2305 112.248 40.444 111.979 40.9958C111.763 41.4389 111.431 41.8012 111.241 41.8012C111.051 41.8012 110.896 41.9776 110.896 42.1931C110.896 42.4087 110.775 42.585 110.628 42.585C110.481 42.585 110.36 42.7125 110.36 42.8679C110.36 43.0237 110.259 43.0971 110.136 43.0312C110.013 42.9654 109.932 42.7836 109.956 42.6271C109.979 42.4706 109.878 42.4097 109.732 42.4917C109.586 42.5738 109.466 42.7914 109.466 42.9751C109.466 43.3011 108.445 44.1525 108.054 44.1525C107.946 44.1525 107.857 44.2523 107.857 44.3741C107.857 44.4958 107.608 44.6058 107.303 44.6186C106.998 44.6312 106.606 44.8313 106.43 45.063C106.217 45.3457 105.958 45.4277 105.644 45.3125C105.369 45.2119 105.176 45.2506 105.176 45.4061C105.176 45.5518 105.015 45.6096 104.819 45.5346C104.415 45.3802 104.35 45.0455 104.685 44.848C104.807 44.7756 104.727 44.7069 104.506 44.6957C104.273 44.6837 104.104 44.8295 104.104 45.0413C104.104 45.4776 103.108 46.0997 102.539 46.0187C102.318 45.9874 102.137 46.071 102.137 46.2047C102.137 46.6089 101.572 46.7944 101.31 46.4764C101.12 46.2457 101.065 46.2695 101.065 46.5817C101.065 46.8863 100.792 47.0206 99.9476 47.1314C99.3331 47.2121 98.6012 47.2654 98.321 47.2503C97.8619 47.2252 97.8214 47.1502 97.9111 46.4947C97.9812 45.9829 97.9291 45.7217 97.7356 45.613C97.318 45.3789 97.2629 45.4212 97.3839 45.8823C97.4694 46.2079 97.4118 46.2737 97.1349 46.1679C96.6759 45.9926 96.6723 46.2805 97.1274 46.7599C97.4522 47.1021 97.4574 47.168 97.1943 47.5931C96.9927 47.9186 96.8202 47.9855 96.6085 47.8201C96.4385 47.6868 96.2004 47.6832 96.0587 47.8112C95.9212 47.9353 95.7512 47.9852 95.6812 47.9217C95.6109 47.8582 95.3256 47.9343 95.047 48.0907C94.7683 48.2472 94.1382 48.4278 93.6466 48.4923C93.155 48.5566 92.602 48.6773 92.4177 48.7603C92.1994 48.8586 92.1251 48.8102 92.2048 48.6219C92.3882 48.1882 92.0259 48.2736 91.7697 48.7246C91.4555 49.2782 91.2335 49.2108 91.2335 48.5621C91.2335 48.1563 91.1734 48.0761 91.01 48.2627C90.8871 48.4032 90.5251 48.6467 90.2057 48.8037C89.6605 49.0718 89.6247 49.0517 89.6247 48.4803C89.6247 48.091 89.4958 47.8219 89.2677 47.7346C88.9869 47.6273 88.9437 47.684 89.0649 48.0006C89.3348 48.7052 88.6864 49.3487 87.7133 49.3424C87.2407 49.3393 86.5118 49.4514 86.0933 49.5911C85.6491 49.7395 85.2914 49.7482 85.2337 49.6115C85.1793 49.483 85.2201 49.3777 85.3241 49.3777C85.4282 49.3777 85.5134 49.286 85.5134 49.1737C85.5134 48.851 84.5012 48.3781 84.2657 48.5908C84.1263 48.7167 84.1967 48.8416 84.4704 48.9542L84.8878 49.1256L84.481 49.6256C83.9644 50.2605 81.4415 50.3538 81.2813 49.744C81.1535 49.2573 80.8659 49.275 80.8659 49.7696C80.8659 50.0105 80.6984 50.1615 80.431 50.1615C80.0651 50.1615 79.9984 50.0389 80.0111 49.3908C80.022 48.8275 80.123 48.5989 80.3861 48.5417C80.7 48.4732 80.7116 48.4218 80.476 48.1383C80.2476 47.8632 80.14 48.0009 79.7762 49.0349L79.3465 50.2566L79.2451 49.4906C79.1894 49.0692 79.2062 48.4657 79.2822 48.1493C79.3894 47.7036 79.3619 47.6069 79.1601 47.72C79.0169 47.8002 78.8984 48.0004 78.8969 48.1647C78.8953 48.3434 78.8315 48.3186 78.738 48.1033C78.5185 47.5967 78.1474 48.0108 78.2788 48.6159C78.3385 48.8912 78.3071 49.1164 78.2087 49.1164C78.1104 49.1164 77.9789 49.3516 77.9165 49.639C77.8541 49.9263 77.6879 50.1615 77.547 50.1615C77.4062 50.1615 77.2909 50.279 77.2909 50.4227C77.2909 50.771 76.6434 50.7553 76.1839 50.3958C75.9009 50.1745 75.7799 50.1897 75.6621 50.4611C75.543 50.7357 75.5082 50.7127 75.506 50.3574C75.5028 49.8124 75.0189 49.7573 74.6237 50.2568C74.4684 50.4528 74.0397 50.6806 73.6711 50.7629C73.1483 50.8794 73.0008 50.8259 73.0008 50.5194C73.0008 50.1252 72.5665 50.1949 71.9378 50.6895C71.7955 50.8016 71.4966 50.7919 71.2737 50.6678C71.0304 50.5327 70.826 50.5432 70.7621 50.6939C70.6063 51.0625 69.4683 51.0006 69.3804 50.6187C69.3261 50.383 69.2351 50.3689 69.0527 50.568C68.9139 50.72 68.3381 50.8737 67.7732 50.9097C66.865 50.9675 66.6963 50.8961 66.3125 50.2908L65.8785 49.6066L65.82 50.2106C65.765 50.778 65.691 50.8112 64.5995 50.7579C63.9605 50.7268 63.3572 50.6892 63.2589 50.6741C63.1606 50.6592 61.9819 50.7281 60.6395 50.8269C58.3496 50.9957 58.1934 50.9769 58.113 50.5189C58.0372 50.0881 58.0247 50.0844 58.0064 50.488C57.988 50.8959 57.7887 51.061 57.4124 50.98C57.1404 50.9212 51.9691 50.6281 51.506 50.6451C51.2357 50.655 51.0144 50.5531 51.0144 50.4185C51.0144 50.2707 50.8499 50.2657 50.5974 50.4063C50.3679 50.5338 50.0735 50.5416 49.943 50.4238C49.8114 50.3049 49.5719 50.3316 49.4055 50.4836C49.2187 50.6539 48.8408 50.6777 48.4062 50.5463C48.0219 50.43 47.6344 50.3608 47.5452 50.3924C47.4558 50.4243 47.3253 50.3143 47.2551 50.1484C47.1587 49.9203 47.0331 49.9201 46.7435 50.1466C46.5322 50.3117 46.2862 50.3807 46.1969 50.2999C46.1073 50.2192 45.5305 50.0956 44.9147 50.0259C44.2991 49.9559 43.7433 49.7756 43.6797 49.6251C43.6161 49.4746 43.4105 49.3558 43.2226 49.3612C42.7523 49.3746 42.2255 49.3733 41.8534 49.3581C41.6814 49.3511 41.5406 49.1763 41.5406 48.9696C41.5406 48.763 41.4199 48.5939 41.2724 48.5939C41.125 48.5939 41.0043 48.7115 41.0043 48.8552C41.0043 48.9989 40.8887 49.1164 40.7475 49.1164C40.5646 49.1164 40.4933 48.811 40.5004 48.0589C40.506 47.4771 40.4607 46.9284 40.4 46.8396C40.339 46.7508 40.2893 46.9859 40.2893 47.3624C40.2893 48.1268 39.9477 49.3777 39.7389 49.3777C39.4041 49.3777 39.0381 49.03 39.0381 48.712C39.0381 48.1237 38.6394 47.9653 38.3938 48.4562C38.1184 49.0067 37.5176 48.793 37.6733 48.2C37.733 47.9721 37.6745 47.8102 37.5322 47.8102C37.3984 47.8102 37.2425 47.9865 37.1858 48.202C37.1293 48.4176 36.8995 48.5803 36.6751 48.5636C36.3725 48.5412 36.348 48.5025 36.5802 48.4139C36.9434 48.2752 37.0042 47.8102 36.659 47.8102C36.5303 47.8102 36.2692 47.9768 36.0786 48.1804C35.8341 48.4419 35.6663 48.4709 35.5082 48.2791C35.3506 48.0879 35.2843 48.0978 35.2843 48.3126C35.2843 48.515 35.0891 48.5641 34.7033 48.4589C34.0829 48.2893 33.8725 48.237 32.0667 47.8044C31.4277 47.651 30.744 47.4177 30.5474 47.2853C30.3507 47.1531 29.9888 47.0572 29.743 47.0724C29.1041 47.1121 27.8961 46.7636 27.6963 46.4819C27.603 46.3502 27.374 46.2426 27.1875 46.2426C27.0013 46.2426 26.6352 46.0232 26.3742 45.7546C26.051 45.4223 25.7858 45.3332 25.5423 45.475C24.9769 45.8045 24.7403 45.7541 24.852 45.3282C24.9172 45.08 24.8497 44.9363 24.6677 44.9363C24.5097 44.9363 24.3804 45.0539 24.3804 45.1976C24.3804 45.3413 24.2598 45.4588 24.1123 45.4588C23.7956 45.4588 23.7925 45.4301 24.0185 44.5614C24.1318 44.1259 24.1318 43.8913 24.0185 43.8913C23.9226 43.8913 23.8442 44.0676 23.8442 44.2832C23.8442 44.4987 23.6901 44.6751 23.5015 44.6751C23.3131 44.6751 23.1322 44.789 23.0993 44.9282C23.0645 45.0766 22.6989 45.0022 22.2172 44.7485C21.5948 44.4206 21.3447 44.122 21.1897 43.5219L20.9849 42.7287L20.7126 43.2964C20.4536 43.8369 20.4053 43.8461 19.7102 43.4876C19.3085 43.2805 18.9196 43.1655 18.8459 43.2321C18.7723 43.2985 18.7482 43.0764 18.7925 42.7384C18.8713 42.1346 18.4729 41.448 18.3517 41.9791C18.3177 42.1281 18.1856 42.4583 18.058 42.7133C17.8533 43.1224 17.7439 43.1394 17.1262 42.858C16.741 42.6827 16.0849 42.3146 15.6683 42.0398C15.2514 41.7649 14.7874 41.54 14.6369 41.54C14.4864 41.54 14.0447 41.2461 13.6553 40.8868C13.266 40.5276 12.8309 40.2337 12.6885 40.2337C12.5462 40.2337 12.3233 40.0866 12.1933 39.9071C12.0636 39.7276 11.6871 39.5489 11.3571 39.5105C11.027 39.4719 10.5869 39.2662 10.3788 39.0533C10.1709 38.8404 9.85777 38.6661 9.68295 38.6661C9.50831 38.6661 9.36531 38.4898 9.36531 38.2743C9.36531 38.0545 9.20586 37.8824 9.00227 37.8824C8.80242 37.8824 8.59274 37.706 8.53625 37.4905C8.47959 37.2749 8.23882 37.0986 8.00108 37.0986C7.70452 37.0986 7.51559 36.8935 7.39904 36.4454C7.2328 35.8064 6.86279 35.536 6.86279 36.0536C6.86279 36.44 6.51797 36.3707 6.21159 35.9229C6.06413 35.7074 5.80744 35.531 5.6412 35.531C5.47478 35.531 5.25938 35.2761 5.16232 34.9646C5.06526 34.653 4.82556 34.271 4.62965 34.1156C4.43374 33.9601 4.09571 33.5685 3.87853 33.245C3.66135 32.9219 3.41949 32.6522 3.34102 32.6462C3.26255 32.64 2.99728 32.2658 2.7515 31.8144C2.50572 31.3629 2.08279 30.6855 1.81163 30.3093C1.15418 29.3962 0.109024 26.3295 0.609703 26.7818C0.971321 27.1086 0.844398 25.8737 0.383224 24.5794C0.105797 23.8006 -0.0581131 23.0952 0.0191116 23.0118C0.0965042 22.9282 0.15979 22.0468 0.159966 21.0529C0.160324 19.8415 0.233971 19.2098 0.383408 19.1369C0.50621 19.077 0.606483 18.8743 0.606483 18.6862C0.606483 18.4978 0.719635 18.2805 0.857811 18.2031C0.995987 18.1255 1.16293 17.7028 1.22907 17.2636C1.29503 16.8245 1.42321 16.3981 1.51402 16.3161C1.60482 16.2343 1.68185 15.9095 1.68543 15.5947C1.68901 15.2799 1.8699 14.7237 2.08762 14.3587C2.62942 13.4498 3.82401 12.19 3.82401 12.527C3.82401 12.6781 3.94467 12.8016 4.09214 12.8016C4.23961 12.8016 4.36027 12.7029 4.36027 12.5824C4.36027 12.4617 4.56136 12.2289 4.80714 12.0654C5.05293 11.9016 5.256 11.5596 5.2585 11.3049C5.26297 10.832 6.27881 9.92779 6.80577 9.92779C6.96289 9.92779 7.20599 9.72192 7.34595 9.47059C7.52077 9.1563 7.6282 9.11032 7.68951 9.32376C7.75011 9.53382 7.89561 9.46328 8.14068 9.10509C8.39201 8.73776 8.63439 8.62464 8.93398 8.73437C9.17583 8.82319 9.36531 8.77721 9.36531 8.62986C9.36531 8.20349 10.6473 7.14958 11.421 6.93979C11.8142 6.83319 12.2184 6.64639 12.3192 6.52491C12.6894 6.07816 14.5566 5.30797 15.8617 5.06396C16.2703 4.98767 16.8661 4.82569 17.1857 4.70421C17.5791 4.55477 17.7666 4.57567 17.7666 4.76926C17.7666 4.92628 17.9477 4.81054 18.1688 4.51166C18.4212 4.17072 18.9038 3.92043 19.4648 3.83918C19.9563 3.76786 20.7607 3.57792 21.2523 3.41673C21.7438 3.25579 22.6119 3.07814 23.1814 3.02171C23.7509 2.96554 24.3139 2.80643 24.4326 2.66823C24.5513 2.53002 25.2116 2.40618 25.8998 2.39286C27.1329 2.36908 27.426 2.31553 27.9555 2.01848C28.4367 1.7486 30.1005 1.63835 30.1005 1.87635C30.1005 2.00411 30.249 1.99235 30.4306 1.85023C30.6576 1.67257 30.825 1.6859 30.9669 1.89333C31.1226 2.12089 31.173 2.10548 31.173 1.83115C31.173 1.5665 31.2341 1.59001 31.398 1.91737C31.6519 2.42473 32.3713 2.3764 32.5996 1.8369C32.6974 1.60569 32.9317 1.54612 33.3087 1.65637C33.6918 1.76819 33.8337 1.73031 33.7522 1.5375C33.6771 1.35985 33.7853 1.37369 34.0419 1.5746C34.381 1.83978 34.4865 1.82515 34.6542 1.49021C34.8358 1.12707 34.8776 1.13046 35.0599 1.52235C35.2483 1.92756 35.2641 1.92599 35.2737 1.50223C35.2796 1.2509 35.3045 1.03432 35.329 1.02126C35.3534 1.00845 36.173 0.945753 37.1499 0.882267C38.127 0.818521 39.0246 0.647135 39.1449 0.501354C39.2947 0.319518 39.4034 0.329707 39.4894 0.533227C39.5714 0.72708 39.8414 0.764701 40.2652 0.641126C41.372 0.318212 42.0768 0.344599 42.0768 0.709054C42.0768 0.893763 42.1573 1.04503 42.2556 1.04503C42.3539 1.04503 42.4141 0.912834 42.3896 0.751116C42.365 0.589397 42.5461 0.425328 42.7918 0.3864C43.0376 0.347473 43.4196 0.230952 43.6409 0.127232C43.9453 -0.0151531 44.0431 0.0418011 44.0431 0.361319C44.0431 0.593839 43.9492 0.783773 43.8345 0.783773C43.7199 0.783773 43.6861 0.871817 43.7598 0.979194C43.8334 1.08683 43.9948 0.972662 44.1183 0.725513C44.4238 0.114692 45.2568 0.0718459 45.9852 0.62937C46.4589 0.991734 46.6298 1.02126 46.7896 0.767575C46.9428 0.524867 46.9378 0.491165 46.7691 0.630154C46.632 0.743278 46.5456 0.657324 46.5456 0.407301C46.5456 0.183403 46.6484 0 46.7739 0C47.0518 0 47.804 0.711666 48.1097 1.2637C48.304 1.61483 48.3331 1.59054 48.3331 1.07743C48.3331 0.606118 48.4052 0.520687 48.6906 0.653144C48.9454 0.771233 49.0481 0.700171 49.0481 0.405472C49.0481 0.102674 49.204 0.00496379 49.6291 0.0410173C49.9487 0.0684494 50.3401 0.183664 50.4994 0.297311C50.6585 0.410958 50.8374 0.432904 50.897 0.345905C50.9565 0.258645 51.7432 0.153881 52.645 0.112863C53.885 0.0566927 54.3867 0.136115 54.7033 0.439435C55.0547 0.775935 55.1373 0.781944 55.2174 0.477057C55.3177 0.0953591 55.9746 0.0284769 56.3442 0.362364C56.4638 0.470264 56.5233 0.648964 56.4767 0.759215C56.43 0.869466 56.5017 1.18925 56.636 1.46931C56.8444 1.90405 57.4391 2.06446 57.9857 1.83351C58.1367 1.76976 57.1917 1.22112 57.0253 1.27624C56.9395 1.30446 56.9195 1.13699 56.9806 0.90369C57.0419 0.670648 57.0919 0.370986 57.0919 0.238267C57.0919 0.0979718 57.6731 0.060873 58.4773 0.149701C60.1112 0.329968 60.0821 0.330491 60.7117 0.110773C61.0878 -0.0206394 61.2032 0.0347471 61.2032 0.345905C61.2032 0.706441 61.2592 0.710099 61.6948 0.37804C62.3678 -0.13507 63.7054 -0.101891 64.2357 0.441003C64.5412 0.753728 64.6871 0.791611 64.7373 0.571632C64.8412 0.11626 65.7684 0.193331 66.0447 0.680054C66.261 1.06097 66.308 1.05287 66.5643 0.590181C66.8039 0.1578 66.8809 0.136115 67.079 0.445967ZM64.7783 1.17566C64.7783 1.3912 64.8587 1.58218 64.957 1.6002C65.0553 1.61823 65.2191 1.64749 65.3209 1.66552C65.423 1.68354 65.5826 1.87452 65.6758 2.09006C65.9162 2.64576 65.9074 1.94898 65.6658 1.28905C65.4479 0.6939 64.7783 0.608469 64.7783 1.17566ZM74.2521 1.68276C74.2521 1.74625 74.3325 1.8706 74.4308 1.95943C74.5292 2.04826 74.6096 1.99627 74.6096 1.84422C74.6096 1.69217 74.5292 1.56755 74.4308 1.56755C74.3325 1.56755 74.2521 1.61928 74.2521 1.68276ZM79.5174 3.11654C79.6931 3.5322 79.9762 3.19361 79.8513 2.71734C79.7825 2.4553 79.6851 2.40514 79.5707 2.57234C79.4743 2.71316 79.4504 2.95796 79.5174 3.11654ZM35.8205 2.74321C35.8205 2.95874 35.9387 3.13509 36.0831 3.13509C36.2429 3.13509 36.3053 2.982 36.2427 2.74321C36.1861 2.52767 36.0679 2.35132 35.9801 2.35132C35.8924 2.35132 35.8205 2.52767 35.8205 2.74321ZM33.9565 2.54726C34.0453 2.65516 34.1783 2.86077 34.2516 3.00446C34.3278 3.15364 34.3862 3.06952 34.3878 2.80852C34.3893 2.55432 34.2582 2.35132 34.0925 2.35132C33.9288 2.35132 33.8675 2.43936 33.9565 2.54726ZM80.3296 3.13509C80.3296 3.27878 80.4101 3.39635 80.5084 3.39635C80.6067 3.39635 80.6871 3.27878 80.6871 3.13509C80.6871 2.9914 80.6067 2.87383 80.5084 2.87383C80.4101 2.87383 80.3296 2.9914 80.3296 3.13509ZM74.658 3.03163C74.7174 3.11837 74.8716 3.12778 75.0005 3.05227C75.1432 2.96893 75.1008 2.90701 74.8926 2.89447C74.7041 2.88324 74.5987 2.9449 74.658 3.03163ZM31.173 3.41621C31.173 3.53978 31.2936 3.57348 31.4411 3.49093C31.5886 3.40811 31.7092 3.23907 31.7092 3.11524C31.7092 2.99166 31.5886 2.95796 31.4411 3.04052C31.2936 3.12334 31.173 3.29237 31.173 3.41621ZM27.4192 3.13509C27.4192 3.27878 27.5601 3.39452 27.732 3.39243C27.9994 3.38903 28.0059 3.35141 27.7767 3.13509C27.4394 2.81636 27.4192 2.81636 27.4192 3.13509ZM83.6365 3.65761C83.5758 3.8013 83.6113 3.91887 83.7154 3.91887C83.8194 3.91887 83.9047 3.8013 83.9047 3.65761C83.9047 3.51392 83.8693 3.39635 83.8258 3.39635C83.7824 3.39635 83.6973 3.51392 83.6365 3.65761ZM36.893 3.65761C36.893 3.8013 36.9783 3.91887 37.0823 3.91887C37.1864 3.91887 37.2219 3.8013 37.1612 3.65761C37.1004 3.51392 37.0153 3.39635 36.9719 3.39635C36.9284 3.39635 36.893 3.51392 36.893 3.65761ZM32.4323 4.29638C32.2698 4.58272 32.2627 4.70264 32.408 4.70264C32.5215 4.70264 32.6606 4.52629 32.717 4.31075C32.7737 4.09521 32.9321 3.91887 33.069 3.91887C33.2059 3.91887 33.318 3.79712 33.318 3.64846C33.318 3.31013 32.761 3.71744 32.4323 4.29638ZM34.7965 3.81541C34.8558 3.90214 35.0101 3.91155 35.1389 3.83605C35.2816 3.7527 35.2392 3.69079 35.031 3.67825C34.8426 3.66701 34.7371 3.72867 34.7965 3.81541ZM87.1817 4.61564C87.4146 4.9558 87.2961 5.48641 86.9881 5.48249C86.7407 5.47936 86.7268 5.43076 86.9216 5.25023C87.0571 5.12483 87.1127 4.89153 87.0451 4.7319C86.91 4.41238 86.9938 4.34106 87.1817 4.61564ZM28.1827 5.38295C28.242 5.46969 28.3963 5.4791 28.5251 5.40359C28.6678 5.32025 28.6254 5.25833 28.4172 5.24579C28.2288 5.23456 28.1233 5.29622 28.1827 5.38295ZM27.598 5.74767C27.598 5.89136 27.6784 6.00893 27.7767 6.00893C27.875 6.00893 27.9555 5.89136 27.9555 5.74767C27.9555 5.60398 27.875 5.48641 27.7767 5.48641C27.6784 5.48641 27.598 5.60398 27.598 5.74767ZM25.6317 5.8783C25.6317 6.09384 25.7121 6.27018 25.8104 6.27018C25.9088 6.27018 25.9892 6.09384 25.9892 5.8783C25.9892 5.66276 25.9088 5.48641 25.8104 5.48641C25.7121 5.48641 25.6317 5.66276 25.6317 5.8783ZM20.6266 6.41623C20.6266 6.64012 20.7071 6.7509 20.8054 6.66207C20.9037 6.57324 20.9842 6.3901 20.9842 6.25477C20.9842 6.11944 20.9037 6.00893 20.8054 6.00893C20.7071 6.00893 20.6266 6.19233 20.6266 6.41623ZM14.0128 8.75213C14.0128 8.96767 14.1335 9.14402 14.281 9.14402C14.4284 9.14402 14.5491 8.96767 14.5491 8.75213C14.5491 8.53659 14.4284 8.36025 14.281 8.36025C14.1335 8.36025 14.0128 8.53659 14.0128 8.75213ZM7.81696 11.0381C7.86648 11.2179 7.90705 11.0708 7.90705 10.7116C7.90705 10.3523 7.86648 10.2055 7.81696 10.385C7.76727 10.5647 7.76727 10.8587 7.81696 11.0381ZM92.0379 14.1079C92.0986 14.2516 92.0631 14.3692 91.959 14.3692C91.855 14.3692 91.7697 14.2516 91.7697 14.1079C91.7697 13.9642 91.8051 13.8467 91.8486 13.8467C91.892 13.8467 91.9771 13.9642 92.0379 14.1079ZM94.4228 15.1529C94.4228 15.5122 94.3822 15.6593 94.3327 15.4795C94.283 15.3 94.283 15.0061 94.3327 14.8264C94.3822 14.6469 94.4228 14.7937 94.4228 15.1529ZM98.1715 15.4701C98.45 15.8772 98.4432 16.2732 98.1601 16.1233C98.0371 16.0582 97.801 16.1773 97.6351 16.3882C97.4692 16.5993 97.2481 16.6944 97.1435 16.6001C96.8888 16.3699 96.9015 15.9367 97.1628 15.9367C97.278 15.9367 97.5044 15.7619 97.6658 15.5485C97.8923 15.2488 98.008 15.2311 98.1715 15.4701ZM100.576 16.6155C100.635 16.7014 100.64 16.9358 100.587 17.1367C100.51 17.4295 100.649 17.47 101.291 17.3415C101.8 17.2396 102.135 17.2877 102.214 17.4734C102.282 17.6341 102.252 17.7655 102.148 17.7655C102.044 17.7655 101.959 18.0448 101.959 18.386C101.959 18.8738 101.863 19.0065 101.512 19.0065C101.197 19.0065 101.065 18.8644 101.065 18.5258C101.065 17.9967 100.567 17.5079 100.216 17.6921C100.066 17.7705 100.032 17.6579 100.112 17.3527C100.194 17.0413 100.165 16.9561 100.023 17.0849C99.9076 17.1889 99.8135 17.162 99.8135 17.0251C99.8135 16.8882 99.9408 16.7051 100.096 16.6178C100.443 16.4232 100.444 16.4232 100.576 16.6155ZM99.456 17.1753C99.456 17.6571 99.1257 17.8167 98.7871 17.4988C98.5337 17.2605 98.5292 17.2286 98.7639 17.3334C98.9241 17.405 99.1452 17.3316 99.2555 17.1704C99.4037 16.9538 99.456 16.9551 99.456 17.1753ZM103.299 18.0268C103.36 18.1705 103.324 18.288 103.22 18.288C103.116 18.288 103.031 18.4547 103.031 18.6582C103.031 19.1946 102.618 19.3156 102.383 18.8482C102.23 18.5464 102.238 18.3643 102.415 18.107C102.692 17.7015 103.144 17.6605 103.299 18.0268ZM104.506 18.7293C104.678 18.7951 104.819 19.0611 104.819 19.3203C104.819 19.5794 104.954 19.953 105.12 20.1503C105.383 20.4622 105.407 20.4523 105.31 20.0732C105.244 19.8138 105.302 19.5794 105.455 19.4935C105.597 19.4143 105.712 19.4634 105.712 19.6024C105.712 19.7417 105.833 19.8556 105.98 19.8556C106.128 19.8556 106.249 19.9695 106.249 20.1087C106.249 20.2477 106.361 20.2987 106.499 20.2213C106.898 19.9974 106.948 20.4635 106.583 21.0117C106.288 21.4553 106.249 21.4631 106.249 21.077C106.249 20.8363 106.128 20.6394 105.98 20.6394C105.833 20.6394 105.712 20.8238 105.712 21.0495C105.712 21.7356 104.941 21.3892 104.799 20.6394C104.721 20.2284 104.669 20.1558 104.658 20.4434C104.638 20.9539 104.368 21.0527 104.183 20.6166C104.117 20.4604 103.913 20.3901 103.729 20.4604C103.456 20.5646 103.426 20.5035 103.564 20.1255C103.657 19.8713 103.685 19.5917 103.625 19.5045C103.506 19.3305 103.9 18.5307 104.081 18.5796C104.143 18.5963 104.334 18.6637 104.506 18.7293ZM103.389 19.5943C103.618 19.8106 103.611 19.8483 103.344 19.8517C103.172 19.8538 103.031 19.738 103.031 19.5943C103.031 19.2756 103.051 19.2756 103.389 19.5943ZM108.071 21.5462C108.991 22.4138 109.088 22.6364 108.617 22.8054C108.445 22.8671 108.566 22.87 108.885 22.8117C109.486 22.702 109.685 23.0732 109.178 23.3577C108.995 23.4604 108.923 23.7094 108.982 24.0388C109.033 24.3244 109.002 24.5582 108.913 24.5582C108.824 24.5582 108.751 24.3231 108.751 24.0357C108.751 23.4662 108.619 23.3951 108.231 23.7546C107.938 24.0255 107.321 23.5589 107.321 23.0667C107.321 22.8791 107.191 22.807 107.008 22.893C106.756 23.0116 106.745 22.9886 106.952 22.7741C107.161 22.557 107.167 22.4342 106.981 22.1074C106.797 21.7824 106.799 21.617 106.993 21.2308C107.22 20.7783 107.273 20.7938 108.071 21.5462ZM111.701 27.1708C111.639 27.3166 111.773 27.4302 112.003 27.4281C112.335 27.4247 112.363 27.3746 112.147 27.1708C111.815 26.8568 111.833 26.8568 111.701 27.1708ZM7.30967 33.9635C7.24889 34.1072 7.32933 34.2248 7.48842 34.2248C7.64751 34.2248 7.72794 34.1072 7.66717 33.9635C7.60639 33.8198 7.52596 33.7022 7.48842 33.7022C7.45088 33.7022 7.37045 33.8198 7.30967 33.9635ZM10.3762 36.7179C10.4344 36.9397 10.5204 37.0652 10.5672 36.9967C10.6141 36.9282 10.5994 36.7467 10.5345 36.5936C10.3583 36.1766 10.2553 36.2576 10.3762 36.7179ZM10.9124 38.2855C10.9707 38.5073 11.0567 38.6327 11.1035 38.5642C11.1503 38.4958 11.1357 38.3142 11.0708 38.1611C10.8945 37.7442 10.7916 37.8251 10.9124 38.2855ZM15.0854 39.1887C15.0854 39.3323 15.1706 39.4499 15.2747 39.4499C15.3787 39.4499 15.4143 39.3323 15.3535 39.1887C15.2927 39.045 15.2076 38.9274 15.1642 38.9274C15.1207 38.9274 15.0854 39.045 15.0854 39.1887ZM14.4597 39.1887C14.3989 39.3323 14.4747 39.4499 14.6279 39.4499C14.7811 39.4499 14.9066 39.3323 14.9066 39.1887C14.9066 39.045 14.831 38.9274 14.7384 38.9274C14.6458 38.9274 14.5205 39.045 14.4597 39.1887ZM26.3467 44.4138C26.3467 44.5575 26.4271 44.6751 26.5255 44.6751C26.6238 44.6751 26.7042 44.5575 26.7042 44.4138C26.7042 44.2701 26.6238 44.1525 26.5255 44.1525C26.4271 44.1525 26.3467 44.2701 26.3467 44.4138ZM95.4638 46.791C95.3819 46.8806 95.4422 47.0251 95.5979 47.1123C95.8018 47.2268 95.881 47.1149 95.881 46.7134C95.881 46.4067 95.8206 46.2619 95.7469 46.3921C95.6733 46.5219 95.5458 46.7016 95.4638 46.791ZM92.3544 47.1842C92.4138 47.2709 92.568 47.2803 92.6969 47.2048C92.8396 47.1215 92.7972 47.0596 92.5889 47.047C92.4005 47.0358 92.2951 47.0974 92.3544 47.1842ZM48.5119 48.202C48.5119 48.4272 48.6731 48.5939 48.8912 48.5939C49.2083 48.5939 49.234 48.5294 49.0481 48.202C48.9257 47.9865 48.755 47.8102 48.6688 47.8102C48.5825 47.8102 48.5119 47.9865 48.5119 48.202ZM68.0852 48.3327C68.0244 48.4764 68.1048 48.5939 68.2639 48.5939C68.423 48.5939 68.5034 48.4764 68.4427 48.3327C68.3819 48.189 68.3014 48.0714 68.2639 48.0714C68.2264 48.0714 68.1459 48.189 68.0852 48.3327ZM75.1458 48.4314C75.1458 48.4855 75.2665 48.6762 75.414 48.8552C75.6337 49.1217 75.6821 49.1036 75.6821 48.7564C75.6821 48.5234 75.5614 48.3327 75.414 48.3327C75.2665 48.3327 75.1458 48.3771 75.1458 48.4314ZM63.3482 48.4479C63.3482 48.5114 63.4287 48.6357 63.527 48.7246C63.6253 48.8134 63.7057 48.7614 63.7057 48.6093C63.7057 48.4573 63.6253 48.3327 63.527 48.3327C63.4287 48.3327 63.3482 48.3844 63.3482 48.4479ZM71.2879 49.1164C71.1484 49.1164 71.0346 49.3516 71.0346 49.639C71.0346 49.9263 71.0805 50.1615 71.1366 50.1615C71.342 50.1615 71.6613 49.4947 71.6997 48.9858C71.7213 48.6984 71.6945 48.6104 71.6402 48.7899C71.5857 48.9696 71.4271 49.1164 71.2879 49.1164ZM78.7209 49.639C78.7209 49.9757 78.6304 50.161 78.4974 50.0962C78.3745 50.0363 78.274 49.8305 78.274 49.639C78.274 49.4475 78.3745 49.2416 78.4974 49.1818C78.6304 49.117 78.7209 49.3022 78.7209 49.639ZM67.3374 49.6881C67.3945 49.8963 67.4368 49.8344 67.4454 49.53C67.4531 49.2546 67.4109 49.1005 67.3516 49.1872C67.2922 49.274 67.2858 49.4994 67.3374 49.6881ZM66.8339 50.4227C66.7731 50.5664 66.8489 50.684 67.0021 50.684C67.1553 50.684 67.2808 50.5664 67.2808 50.4227C67.2808 50.279 67.2052 50.1615 67.1126 50.1615C67.02 50.1615 66.8947 50.279 66.8339 50.4227Z" fill="#F68A22"/>
</svg>
