<svg width="115" height="51" viewBox="0 0 115 51" fill="none" xmlns="http://www.w3.org/2000/svg">
<path fill-rule="evenodd" clip-rule="evenodd" d="M47.921 0.448897C47.7564 0.706236 47.6227 0.733667 47.4647 0.541904C47.156 0.167261 45.7873 1.15429 45.5683 1.90933C45.4434 2.33962 45.4291 2.23041 45.5113 1.47642L45.6214 0.467969L44.8381 0.668614C43.6927 0.962268 43.3605 0.99388 43.1636 0.827982C42.9094 0.614012 41.7673 0.791928 41.5249 1.08323C41.3898 1.24573 41.2919 1.21517 41.2402 0.993619C41.1769 0.722695 41.0452 0.718776 40.5733 0.973241C40.1723 1.1893 39.8803 1.20811 39.6556 1.03255C39.4042 0.835819 39.24 0.900611 38.9627 1.30582C38.6605 1.74761 38.4715 1.80535 37.8414 1.64964C37.4246 1.54644 37.0031 1.50124 36.9048 1.54905C36.8064 1.5966 36.2836 1.67184 35.7429 1.716C34.1802 1.84375 34.1341 1.85368 34.1341 2.06399C34.1341 2.17398 33.8806 2.20925 33.5707 2.14289C33.067 2.03473 33.0178 2.08123 33.107 2.57998C33.174 2.95462 33.1242 3.13802 32.9554 3.13802C32.8172 3.13802 32.7041 2.96167 32.7041 2.74614C32.7041 2.48488 32.5253 2.35425 32.1678 2.35425C31.8581 2.35425 31.6316 2.49219 31.6316 2.68082C31.6314 2.88251 31.3547 3.02072 30.9075 3.0424C30.0836 3.08211 29.8228 3.31594 30.2068 3.67073C30.3848 3.83532 30.3977 3.915 30.2463 3.91788C30.1235 3.91997 30.0228 4.09814 30.0228 4.31368C30.0228 4.52922 29.9022 4.70557 29.7547 4.70557C29.6072 4.70557 29.4866 4.52922 29.4866 4.31368C29.4866 4.09814 29.567 3.92179 29.6653 3.92179C29.7636 3.92179 29.8441 3.80423 29.8441 3.66054C29.8441 3.26656 29.3598 3.34703 29.2517 3.75877C29.1941 3.9777 28.9902 4.07176 28.7305 3.99913C28.3361 3.88914 28.3093 3.94975 28.3771 4.79753C28.4468 5.66987 28.8892 6.28069 29.1148 5.81591C29.1718 5.69861 29.4397 5.58183 29.71 5.55675C29.9803 5.53166 30.3022 5.4977 30.425 5.48124C30.548 5.46478 30.8294 5.53245 31.0506 5.63146C31.351 5.76601 31.4528 5.70618 31.4528 5.39555C31.4528 5.05722 31.5381 5.02718 31.9113 5.23462C32.6013 5.61788 33.2404 5.55204 33.2404 5.09745C33.2404 4.8537 33.4091 4.70557 33.6872 4.70557C33.9484 4.70557 34.1341 4.85579 34.1341 5.06663C34.1341 5.56145 35.5482 5.5928 35.6773 5.10085C35.7288 4.90491 35.9858 4.75077 36.2484 4.75808C37.1581 4.78368 37.3516 4.70374 37.3516 4.30219C37.3516 4.08038 37.4523 3.91788 37.5751 3.94139C37.6981 3.96464 37.9823 3.96987 38.207 3.95262C38.5568 3.92624 38.5882 3.8476 38.4263 3.40529C38.272 2.98362 38.2872 2.91674 38.5094 3.0411C38.6592 3.12522 38.7817 3.35774 38.7817 3.55786C38.7817 3.75799 38.8937 3.92179 39.0307 3.92179C39.1676 3.92179 39.3254 4.09632 39.3815 4.3095C39.531 4.87904 41.6867 4.72778 42.1777 4.1133C42.5554 3.64068 42.9855 3.4915 42.8162 3.89201C42.7624 4.01924 42.9205 4.17966 43.1675 4.24889C43.4143 4.31786 43.6603 4.27057 43.7139 4.14386C43.7676 4.01689 43.8863 3.98084 43.9778 4.06366C44.0693 4.14621 44.1442 4.08926 44.1442 3.93721C44.1442 3.78516 44.3099 3.66054 44.5122 3.66054C44.7146 3.66054 44.8306 3.7781 44.7698 3.92179C44.7019 4.08247 44.9557 4.1679 45.4296 4.14386C45.9433 4.11774 46.0395 4.06888 45.7181 3.9973C45.3747 3.92075 45.2664 3.77549 45.3408 3.49203C45.3981 3.27335 45.4943 3.19236 45.5544 3.31202C45.7235 3.6493 46.4345 4.18305 46.715 4.18305C46.8533 4.18305 47.337 3.67177 47.7898 3.04658C48.3534 2.26856 48.613 2.04492 48.613 2.33727C48.613 2.57188 48.3702 2.97369 48.0735 3.22972C47.4663 3.75407 47.5176 4.18305 48.1872 4.18305C48.473 4.18305 48.5892 4.07698 48.5097 3.88888C48.4205 3.67804 48.4755 3.66838 48.7032 3.85465C49.1056 4.18384 49.6855 3.97405 49.6855 3.49934C49.6855 3.30079 49.7659 3.13802 49.8642 3.13802C49.9626 3.13802 50.043 3.29478 50.043 3.48628C50.043 4.03283 52.1483 3.97039 52.2493 3.42096C52.3119 3.08002 52.3289 3.0876 52.346 3.46459C52.37 3.99129 52.7328 4.06601 53.046 3.60829C53.2087 3.37054 53.2605 3.36923 53.2605 3.6028C53.2605 3.94452 56.3997 3.92963 56.7757 3.58634C56.8901 3.48158 57.0247 3.54375 57.0747 3.72428C57.1444 3.97483 57.2084 3.96281 57.3464 3.67308C57.4456 3.46433 57.4878 3.20125 57.4401 3.08812C57.3924 2.97526 57.478 2.95279 57.6306 3.03822C57.7833 3.12391 57.9081 3.3324 57.9081 3.50195C57.9081 3.83872 58.2495 3.91552 59.6062 3.88417C60.0978 3.87268 61.1435 3.89018 61.93 3.92284C64.4353 4.02708 64.59 4.0148 64.6604 3.70652C64.7081 3.49673 64.8111 3.52338 64.9959 3.79352C65.3323 4.2852 66.4391 4.29539 67.2276 3.8139C67.7483 3.49595 67.8799 3.49595 68.1773 3.8139C68.5995 4.26535 68.9681 4.30689 68.6689 3.86954C68.377 3.44291 68.3993 3.13802 68.7225 3.13802C68.87 3.13802 68.9906 3.31437 68.9906 3.52991C68.9906 3.74545 69.1315 3.93146 69.3035 3.94296C69.4754 3.95471 69.8576 3.99207 70.1525 4.02604C70.4475 4.06 70.7479 3.96229 70.8202 3.80893C70.9079 3.62239 70.9523 3.63807 70.9542 3.85648C70.9557 4.03623 71.1378 4.18122 71.3591 4.17913C71.6388 4.17626 71.6907 4.10964 71.5294 3.95994C71.343 3.78725 71.3493 3.68222 71.5616 3.42462C71.7768 3.16363 71.8616 3.20229 72.0198 3.63389C72.1358 3.95079 72.3211 4.10337 72.4813 4.0135C72.6286 3.93094 72.8485 3.98267 72.9702 4.12845C73.3302 4.55979 73.9195 4.60054 74.2363 4.21623C74.4284 3.98345 74.5319 3.96046 74.5319 4.15118C74.5319 4.46234 75.1095 4.55796 75.3009 4.27841C75.5582 3.90246 76.84 3.92702 76.9869 4.31081C77.1424 4.71706 77.908 4.8294 79.0518 4.61387C79.424 4.54359 79.9671 4.58617 80.2584 4.70818C80.5498 4.83045 80.7882 4.83567 80.7882 4.71994C80.7882 4.6042 80.9893 4.50962 81.2351 4.50962C81.4809 4.50962 81.682 4.6575 81.682 4.83829C81.682 5.23096 82.3552 5.54185 82.4363 5.18654C82.4672 5.05043 82.7929 4.84012 83.1599 4.71915C83.7586 4.5219 83.827 4.55325 83.827 5.02352C83.827 5.48725 83.9039 5.52644 84.4973 5.36446C84.8661 5.26388 85.1053 5.27328 85.0291 5.38536C84.8287 5.68058 86.0183 6.22295 86.2689 5.95072C86.3903 5.81879 86.5246 5.8389 86.5923 5.99905C86.6559 6.1498 87.0117 6.27311 87.3827 6.27311C87.7538 6.27311 88.1154 6.35776 88.1862 6.46122C88.3864 6.75383 90.1459 6.75984 90.3961 6.46906C90.5566 6.28226 90.6196 6.33216 90.6196 6.64593C90.6196 6.99523 90.7896 7.07936 91.4686 7.06551C91.9355 7.05584 92.588 7.12403 92.9185 7.21704C93.3069 7.32624 93.5661 7.27478 93.6521 7.07152C93.7542 6.83038 93.8434 6.83848 94.0346 7.106C94.3969 7.6131 95.2113 8.09617 95.3534 7.88847C95.5756 7.56347 96.3276 7.67946 96.4259 8.05411C96.5021 8.34384 96.5774 8.3556 96.7808 8.10897C97.0385 7.79625 97.4888 7.97077 97.3388 8.32503C97.2693 8.48936 97.7739 8.52568 98.4399 8.40393C98.5629 8.38146 98.6698 8.1573 98.6775 7.90597C98.6888 7.54047 98.7125 7.52741 98.7958 7.84066C98.8532 8.0562 99.02 8.36161 99.1666 8.51941C99.3131 8.67721 99.3804 8.93089 99.316 9.08294C99.2436 9.25406 99.3289 9.30997 99.54 9.22924C99.7275 9.15766 100.173 9.30187 100.531 9.54955C100.888 9.79748 101.579 10.0005 102.067 10.0005C102.554 10.0005 102.953 10.1024 102.953 10.2267C102.953 10.3513 103.074 10.4532 103.222 10.4532C103.369 10.4532 103.49 10.3231 103.49 10.164C103.49 10.0049 103.61 9.94248 103.758 10.0253C103.905 10.1079 104.026 10.0616 104.026 9.92262C104.026 9.50696 104.515 9.63628 104.632 10.0828C104.793 10.6936 104.781 10.7145 104.281 10.7145C103.844 10.7145 103.837 10.737 104.133 11.1693C104.355 11.4933 104.465 11.5317 104.517 11.3026C104.567 11.0839 104.779 11.1908 105.179 11.6365C105.55 12.0511 105.88 12.228 106.076 12.1182C106.259 12.0156 106.449 12.0934 106.541 12.3092C106.626 12.5099 106.839 12.6742 107.014 12.6742C107.189 12.6744 107.343 12.8215 107.355 13.0008C107.368 13.1802 107.388 13.4258 107.4 13.5463C107.462 14.1589 109.031 14.6459 109.031 14.0526C109.031 13.877 109.156 13.9948 109.309 14.3144C109.463 14.6341 109.544 14.9996 109.49 15.1266C109.36 15.4349 109.722 15.8278 110.332 16.041C110.628 16.1445 111.025 16.6304 111.315 17.2428C111.583 17.8084 111.901 18.2756 112.022 18.281C112.143 18.2865 112.297 18.6102 112.364 19.0008C112.431 19.3911 112.634 19.9429 112.815 20.2271C113.038 20.578 113.102 20.9163 113.013 21.2811C112.941 21.5763 112.9 22.2812 112.921 22.847C112.943 23.4132 112.84 24.1437 112.694 24.4708C112.547 24.7979 112.427 25.2456 112.427 25.4664C112.427 25.6869 112.347 25.8379 112.248 25.8021C112.15 25.7661 111.967 26.0307 111.843 26.39C111.718 26.7492 111.437 27.1591 111.217 27.301C110.998 27.4428 110.818 27.7603 110.818 28.0064C110.818 28.2527 110.705 28.5479 110.566 28.6629C110.427 28.7778 110.286 29.2246 110.253 29.6557C110.209 30.2265 110.095 30.4468 109.833 30.4661C109.36 30.5011 108.516 31.1576 107.963 31.9195C107.719 32.2549 107.499 32.5034 107.473 32.4712C107.341 32.3077 105.68 33.3985 105.325 33.8826C105.2 34.0519 105.098 34.3301 105.098 34.5007C105.098 34.6784 104.951 34.7549 104.755 34.6797C104.566 34.6076 104.162 34.7701 103.857 35.0412C103.552 35.3122 103.186 35.534 103.045 35.534C102.903 35.534 102.49 35.9159 102.126 36.3825C101.762 36.8494 101.317 37.1945 101.136 37.1499C100.905 37.0926 100.808 37.2295 100.808 37.6125C100.808 38.0713 100.734 38.129 100.332 37.9817C99.9379 37.8372 99.8753 37.8814 99.969 38.238C100.045 38.5262 99.9888 38.6691 99.8006 38.6691C99.6236 38.6691 99.5571 38.5233 99.6218 38.2772C99.6917 38.0107 99.6122 37.8853 99.3728 37.8853C99.1793 37.8853 99.0209 37.9833 99.0209 38.1029C99.0209 38.2228 98.9204 38.3407 98.7974 38.3652C96.8328 38.7569 95.8427 39.3097 95.7692 40.0563C95.7195 40.5634 95.6881 40.5789 95.4536 40.21C95.1878 39.7922 95.1788 39.7935 93.6281 40.4851C93.2674 40.646 92.6709 40.8341 92.3025 40.9028C91.9343 40.9718 91.5403 41.1406 91.4272 41.2777C91.3142 41.4149 90.7443 41.6043 90.1609 41.6986C89.5724 41.7937 88.7243 42.1629 88.2559 42.5281C87.5778 43.0564 87.36 43.1235 87.15 42.8688C86.9589 42.637 86.7925 42.6269 86.5315 42.8312C86.3351 42.9848 85.8998 43.1104 85.5643 43.1104C85.229 43.1104 84.705 43.2923 84.4001 43.5146C84.0589 43.7636 83.146 43.9682 82.0245 44.0471C81.0226 44.1176 80.0641 44.284 79.8943 44.417C79.7245 44.5497 79.0316 44.6775 78.3547 44.701C77.6778 44.7245 76.8001 44.9008 76.4045 45.0931C76.009 45.2852 75.1644 45.4636 74.5276 45.4897C73.7172 45.5232 73.2442 45.6804 72.9502 46.0149C72.5853 46.4295 72.4965 46.443 72.2738 46.1175C72.0872 45.8448 71.8989 45.8085 71.5824 45.9843C71.3432 46.1173 70.8432 46.2168 70.4712 46.2056C70.0993 46.1943 69.7146 46.2105 69.6163 46.2416C69.518 46.273 69.1842 46.2785 68.8746 46.2542C68.565 46.2299 68.2587 46.3357 68.1938 46.489C68.1289 46.6424 67.8894 46.7681 67.6613 46.7681C67.4334 46.7681 67.1486 46.941 67.0285 47.1526C66.8485 47.4698 66.7691 47.4771 66.5759 47.195C66.2856 46.7704 64.2376 46.8762 63.8594 47.3352C63.6567 47.5811 63.5691 47.574 63.4542 47.3018C63.3444 47.0424 62.806 46.9661 61.3211 46.9995C59.1498 47.0484 58.4472 47.2929 58.4389 48.0025C58.4338 48.432 58.4191 48.4302 58.2393 47.9777C58.0822 47.5824 58.0149 47.5576 57.8871 47.847C57.7633 48.1279 57.7077 48.0903 57.6288 47.6715C57.5606 47.3094 57.3596 47.1192 57.0032 47.0795C56.7143 47.0473 56.478 47.1249 56.478 47.2522C56.478 47.3794 56.2367 47.4421 55.9418 47.3919C55.6468 47.3418 55.4055 47.4074 55.4055 47.5377C55.4055 47.8766 54.8578 48.0056 54.3182 47.7943C53.9709 47.6582 53.8045 47.7352 53.6464 48.1052C53.5308 48.3756 53.3002 48.5969 53.134 48.5969C52.8987 48.5969 52.8792 48.5271 53.046 48.2833C53.5008 47.6187 53.2532 47.4215 52.0062 47.4544C51.3164 47.4724 50.7101 47.3888 50.6591 47.2681C50.5233 46.9468 49.715 47.5542 49.6251 48.0453C49.5632 48.3845 49.5441 48.373 49.5275 47.986C49.5089 47.5573 49.3582 47.5132 48.1214 47.5761C47.3596 47.6148 46.5579 47.7384 46.3402 47.8504C46.1071 47.9706 45.8976 47.9437 45.8305 47.7854C45.768 47.6373 45.594 47.585 45.4441 47.6691C45.2941 47.7533 45.081 47.7196 44.9706 47.5942C44.3909 46.9358 43.6242 47.1678 43.3829 48.0743C43.3001 48.3858 43.2758 48.3714 43.2646 48.0048C43.2545 47.678 43.1073 47.5466 42.7589 47.5544C42.4886 47.5602 42.0687 47.5328 41.826 47.493C41.3396 47.4139 41.0718 48.2436 41.4683 48.6016C41.5888 48.7105 41.6322 48.9305 41.5646 49.0901C41.3873 49.5094 41.1054 49.4473 41.1054 48.9887C41.1054 48.7732 41.0221 48.5969 40.9204 48.5969C40.798 48.5969 40.8033 48.4111 40.9365 48.0474C41.1303 47.5181 41.1045 47.5017 40.2276 47.5902C39.5449 47.6595 39.3177 47.5928 39.3177 47.324C39.3179 47.0348 39.2659 47.0283 39.0498 47.2906C38.8871 47.4878 38.7817 47.5087 38.7817 47.3436C38.7817 47.1842 38.3185 47.0701 37.6645 47.0682C37.0501 47.0664 35.6492 47.0257 34.5519 46.9778C33.4543 46.9303 32.5936 46.9797 32.6394 47.0878C32.7502 47.3496 32.1829 47.0356 31.6588 46.5447C31.3543 46.2599 31.1579 46.2259 30.9438 46.4211C30.7791 46.5713 30.4903 46.6001 30.291 46.4864C29.7644 46.1857 28.4244 46.2079 27.6297 46.5306C27.106 46.743 26.902 46.7354 26.8023 46.4997C26.727 46.3216 26.2176 46.1711 25.6204 46.1507C24.7507 46.1212 24.5021 46.2155 24.1687 46.7027C23.6684 47.434 23.3239 47.4829 23.6242 46.7798C23.8774 46.1875 23.6827 45.7411 23.3702 46.1977C23.0622 46.6479 22.7893 46.5768 23.0515 46.1149C23.174 45.8994 23.244 45.717 23.2074 45.7097C23.1709 45.7026 22.6324 45.6313 22.0108 45.5514C20.9975 45.421 20.8334 45.4693 20.4216 46.0216L19.9623 46.6374L20.0803 45.919C20.2088 45.1362 20.2206 45.1454 18.9849 45.0688C18.567 45.0427 18.2252 45.1289 18.2252 45.2603C18.2252 45.3918 18.0989 45.3144 17.9444 45.0884C17.7898 44.8627 17.5217 44.678 17.3485 44.678C17.1752 44.678 16.9822 44.6027 16.9193 44.511C16.8565 44.4191 16.5012 44.3141 16.1299 44.2777C14.4151 44.109 13.3207 43.8631 13.1015 43.5974C12.9245 43.3827 12.7882 43.3981 12.5753 43.6565C12.3318 43.9517 12.2524 43.9345 12.0571 43.5439C11.8837 43.1974 11.8029 43.1674 11.7324 43.4232C11.6588 43.6902 11.605 43.6941 11.4826 43.4417C11.3966 43.2649 11.1393 43.1726 10.9109 43.2369C10.6823 43.3014 10.0456 43.123 9.49573 42.8406C8.94607 42.5579 8.35243 42.3936 8.1769 42.4751C7.98117 42.5657 7.85658 42.49 7.85497 42.2789C7.85282 42.0254 7.80546 42.038 7.67479 42.3267C7.52303 42.6621 7.4526 42.6355 7.18608 42.1425C7.01466 41.8258 6.41209 41.3099 5.8467 40.9958C5.28131 40.6821 4.81888 40.3476 4.81888 40.2528C4.81888 40.158 4.53734 40.1282 4.19325 40.187C3.61802 40.2852 3.56762 40.2382 3.56762 39.6054C3.56762 39.0461 3.46483 38.8872 3.01778 38.7566C2.62971 38.6432 2.33155 38.2801 2.00426 37.5221C1.74918 36.9314 1.55952 36.4084 1.58276 36.3593C1.60618 36.3102 1.50876 36.1338 1.36629 35.9674C1.22401 35.801 1.05723 34.99 0.995562 34.1658C0.897248 32.8475 0.926921 32.6275 1.2426 32.3393C1.43994 32.1593 1.60135 31.7463 1.60135 31.4215C1.60135 31.097 1.67803 30.8313 1.7717 30.8313C1.86537 30.8313 2.07576 30.4199 2.23896 29.9169C2.40216 29.414 2.6474 29.0025 2.78361 29.0025C2.91982 29.0025 3.03136 28.8544 3.03136 28.6736C3.03136 28.4926 3.19224 28.1976 3.38886 28.0181C3.58549 27.8386 3.74637 27.4713 3.74637 27.2019C3.74637 26.9224 3.90921 26.6499 4.12604 26.5671C4.43134 26.4503 4.48318 26.2912 4.39077 25.7527C4.27851 25.0996 4.50856 24.8227 4.7295 25.3449C4.79028 25.4886 4.907 25.6062 4.98905 25.6062C5.21124 25.6062 5.37551 24.8201 5.22607 24.4723C5.15457 24.3056 5.119 23.9637 5.14742 23.7121C5.17566 23.4607 5.10863 23.2549 4.99834 23.2549C4.88805 23.2549 4.84605 23.369 4.90503 23.5085C4.96402 23.6481 4.81083 23.8359 4.56451 23.9263C4.31819 24.0167 4.06812 24.314 4.00877 24.587C3.94961 24.8603 3.82609 25.0837 3.73439 25.0837C3.64269 25.0837 3.56762 25.2268 3.56762 25.4019C3.56762 25.5769 3.35365 25.9889 3.09232 26.3173C2.8308 26.6455 2.52871 27.1784 2.4211 27.5011C2.3135 27.824 1.966 28.2645 1.64908 28.48C1.33161 28.6958 1.07117 29.0736 1.06903 29.321C1.06653 29.6118 0.970536 29.7168 0.796969 29.6196C0.485941 29.4451 0.459129 29.7453 0.701873 30.679C0.845232 31.2295 0.813414 31.3925 0.518116 31.6235C0.321847 31.7771 0.210664 32.0193 0.271082 32.1622C0.3315 32.3048 0.278232 32.6024 0.152749 32.8234C-0.0168865 33.1223 -0.025109 33.3425 0.120931 33.6845C0.241231 33.9656 0.255352 34.2867 0.157754 34.5122C-0.0596081 35.0141 -0.0497768 36.3177 0.171339 36.3177C0.269652 36.3177 0.356525 36.6412 0.364212 37.0362C0.371898 37.4312 0.418909 37.6078 0.468424 37.4281C0.585506 37.0046 0.852382 37.0046 0.826999 37.4281C0.79393 37.9793 1.47444 39.7141 1.72379 39.7141C1.85303 39.7141 1.95885 39.8795 1.95885 40.0814C1.95885 40.3121 2.08362 40.4012 2.29365 40.321C2.52281 40.2335 2.75197 40.4469 3.02082 40.9987C3.23657 41.4418 3.56869 41.8042 3.75852 41.8042C3.94854 41.8042 4.10387 41.9805 4.10387 42.196C4.10387 42.4116 4.22453 42.5879 4.372 42.5879C4.51947 42.5879 4.64012 42.7154 4.64012 42.8709C4.64012 43.0266 4.74076 43.1 4.86356 43.0342C4.98655 42.9683 5.06788 42.7865 5.04446 42.63C5.02104 42.4735 5.12168 42.4126 5.2679 42.4947C5.41412 42.5767 5.53388 42.7943 5.53388 42.978C5.53388 43.304 6.55509 44.1555 6.9462 44.1555C7.05434 44.1555 7.14264 44.2553 7.14264 44.377C7.14264 44.4988 7.392 44.6088 7.69695 44.6216C8.00172 44.6341 8.39444 44.8342 8.56962 45.066C8.7834 45.3486 9.04188 45.4307 9.35595 45.3155C9.63051 45.2149 9.82392 45.2535 9.82392 45.409C9.82392 45.5548 9.98479 45.6125 10.1814 45.5375C10.5849 45.3831 10.6503 45.0485 10.3155 44.8509C10.1927 44.7786 10.2731 44.7099 10.4942 44.6986C10.7268 44.6866 10.8964 44.8324 10.8964 45.0443C10.8964 45.4806 11.8919 46.1026 12.4605 46.0216C12.6816 45.9903 12.8627 46.0739 12.8627 46.2077C12.8627 46.6118 13.4275 46.7973 13.6898 46.4794C13.8798 46.2487 13.9352 46.2724 13.9352 46.5847C13.9352 46.8893 14.2082 47.0236 15.0524 47.1343C15.6669 47.2151 16.3988 47.2684 16.679 47.2532C17.1381 47.2281 17.1786 47.1531 17.0889 46.4977C17.0188 45.9858 17.0709 45.7246 17.2644 45.6159C17.682 45.3818 17.7371 45.4241 17.6161 45.8853C17.5306 46.2108 17.5882 46.2766 17.8651 46.1708C18.3241 45.9955 18.3277 46.2834 17.8726 46.7628C17.5478 47.1051 17.5426 47.1709 17.8057 47.596C18.0073 47.9215 18.1798 47.9884 18.3915 47.823C18.5615 47.6898 18.7996 47.6861 18.9413 47.8141C19.0788 47.9382 19.2488 47.9881 19.3188 47.9246C19.3891 47.8612 19.6744 47.9372 19.953 48.0937C20.2317 48.2502 20.8618 48.4307 21.3534 48.4952C21.845 48.5595 22.398 48.6802 22.5823 48.7633C22.8006 48.8615 22.8749 48.8132 22.7952 48.6248C22.6118 48.1911 22.9741 48.2766 23.2303 48.7275C23.5445 49.2811 23.7665 49.2137 23.7665 48.565C23.7665 48.1593 23.8266 48.079 23.99 48.2656C24.1129 48.4061 24.4749 48.6496 24.7943 48.8066C25.3395 49.0747 25.3753 49.0546 25.3753 48.4832C25.3753 48.0939 25.5042 47.8248 25.7323 47.7376C26.0131 47.6302 26.0563 47.6869 25.9351 48.0035C25.6652 48.7082 26.3136 49.3516 27.2867 49.3454C27.7593 49.3422 28.4882 49.4543 28.9067 49.5941C29.3509 49.7425 29.7086 49.7511 29.7663 49.6145C29.8207 49.4859 29.7799 49.3806 29.6759 49.3806C29.5718 49.3806 29.4866 49.2889 29.4866 49.1766C29.4866 48.8539 30.4988 48.3811 30.7343 48.5937C30.8737 48.7197 30.8033 48.8445 30.5296 48.9571L30.1122 49.1285L30.519 49.6286C31.0356 50.2634 33.5585 50.3567 33.7187 49.7469C33.8465 49.2602 34.1341 49.278 34.1341 49.7725C34.1341 50.0134 34.3016 50.1644 34.569 50.1644C34.9349 50.1644 35.0016 50.0419 34.9889 49.3937C34.978 48.8304 34.877 48.6018 34.6139 48.5446C34.3 48.4762 34.2884 48.4247 34.524 48.1412C34.7524 47.8661 34.86 48.0038 35.2238 49.0379L35.6535 50.2595L35.7549 49.4935C35.8106 49.0721 35.7938 48.4686 35.7178 48.1522C35.6106 47.7065 35.6381 47.6098 35.8399 47.7229C35.9831 47.8032 36.1016 48.0033 36.1031 48.1676C36.1047 48.3463 36.1685 48.3215 36.262 48.1062C36.4815 47.5996 36.8526 48.0137 36.7212 48.6188C36.6615 48.8942 36.6929 49.1194 36.7913 49.1194C36.8896 49.1194 37.0211 49.3545 37.0835 49.6419C37.1459 49.9293 37.3121 50.1644 37.453 50.1644C37.5938 50.1644 37.7091 50.282 37.7091 50.4257C37.7091 50.7739 38.3566 50.7582 38.8161 50.3988C39.0991 50.1775 39.2201 50.1926 39.3379 50.4641C39.457 50.7386 39.4918 50.7157 39.494 50.3603C39.4972 49.8154 39.9811 49.7602 40.3763 50.2598C40.5316 50.4557 40.9603 50.6835 41.3289 50.7658C41.8517 50.8823 41.9992 50.8288 41.9992 50.5223C41.9992 50.1281 42.4335 50.1978 43.0622 50.6924C43.2045 50.8045 43.5034 50.7948 43.7263 50.6707C43.9696 50.5357 44.174 50.5461 44.2379 50.6968C44.3937 51.0655 45.5317 51.0036 45.6196 50.6216C45.6739 50.386 45.7649 50.3718 45.9473 50.5709C46.0861 50.723 46.6619 50.8766 47.2268 50.9126C48.135 50.9704 48.3037 50.8991 48.6875 50.2937L49.1215 49.6095L49.18 50.2135C49.235 50.781 49.309 50.8142 50.4005 50.7609C51.0395 50.7298 51.6428 50.6921 51.7411 50.677C51.8394 50.6621 53.0181 50.7311 54.3605 50.8298C56.6504 50.9986 56.8066 50.9798 56.887 50.5218C56.9628 50.091 56.9753 50.0873 56.9936 50.491C57.012 50.8988 57.2113 51.0639 57.5876 50.9829C57.8596 50.9241 63.0309 50.631 63.494 50.648C63.7643 50.6579 63.9856 50.556 63.9856 50.4215C63.9856 50.2736 64.1501 50.2686 64.4026 50.4092C64.6321 50.5367 64.9265 50.5445 65.057 50.4267C65.1886 50.3078 65.4281 50.3345 65.5945 50.4865C65.7813 50.6569 66.1592 50.6807 66.5938 50.5492C66.9781 50.433 67.3656 50.3637 67.4548 50.3954C67.5442 50.4272 67.6747 50.3172 67.7449 50.1513C67.8413 49.9233 67.9669 49.923 68.2565 50.1495C68.4678 50.3146 68.7138 50.3836 68.8031 50.3029C68.8927 50.2221 69.4695 50.0986 70.0853 50.0288C70.7009 49.9588 71.2567 49.7785 71.3203 49.628C71.3839 49.4776 71.5895 49.3587 71.7774 49.3642C72.2477 49.3775 72.7745 49.3762 73.1466 49.361C73.3186 49.354 73.4594 49.1792 73.4594 48.9725C73.4594 48.7659 73.5801 48.5969 73.7276 48.5969C73.875 48.5969 73.9957 48.7144 73.9957 48.8581C73.9957 49.0018 74.1113 49.1194 74.2525 49.1194C74.4354 49.1194 74.5067 48.814 74.4996 48.0618C74.494 47.48 74.5393 46.9313 74.6 46.8425C74.661 46.7537 74.7107 46.9888 74.7107 47.3653C74.7107 48.1297 75.0523 49.3806 75.2611 49.3806C75.5959 49.3806 75.9619 49.0329 75.9619 48.7149C75.9619 48.1266 76.3606 47.9683 76.6062 48.4592C76.8816 49.0096 77.4824 48.7959 77.3267 48.2029C77.267 47.9751 77.3255 47.8131 77.4678 47.8131C77.6016 47.8131 77.7575 47.9894 77.8142 48.205C77.8707 48.4205 78.1005 48.5833 78.3249 48.5666C78.6275 48.5441 78.652 48.5054 78.4198 48.4169C78.0566 48.2781 77.9958 47.8131 78.341 47.8131C78.4697 47.8131 78.7308 47.9798 78.9214 48.1833C79.1659 48.4448 79.3337 48.4738 79.4918 48.282C79.6494 48.0908 79.7157 48.1007 79.7157 48.3155C79.7157 48.518 79.9109 48.5671 80.2967 48.4618C80.9171 48.2922 81.1275 48.24 82.9333 47.8073C83.5723 47.654 84.256 47.4207 84.4526 47.2882C84.6493 47.156 85.0112 47.0601 85.257 47.0753C85.8959 47.115 87.1039 46.7665 87.3037 46.4849C87.397 46.3532 87.626 46.2455 87.8125 46.2455C87.9987 46.2455 88.3648 46.0261 88.6258 45.7575C88.949 45.4252 89.2142 45.3361 89.4577 45.478C90.0231 45.8074 90.2597 45.757 90.148 45.3311C90.0828 45.0829 90.1503 44.9393 90.3323 44.9393C90.4903 44.9393 90.6196 45.0568 90.6196 45.2005C90.6196 45.3442 90.7402 45.4618 90.8877 45.4618C91.2044 45.4618 91.2075 45.433 90.9815 44.5643C90.8682 44.1288 90.8682 43.8942 90.9815 43.8942C91.0774 43.8942 91.1558 44.0706 91.1558 44.2861C91.1558 44.5016 91.3099 44.678 91.4985 44.678C91.6869 44.678 91.8678 44.7919 91.9007 44.9311C91.9355 45.0795 92.3011 45.0051 92.7828 44.7514C93.4052 44.4235 93.6553 44.1249 93.8103 43.5248L94.0151 42.7316L94.2874 43.2993C94.5464 43.8399 94.5947 43.849 95.2898 43.4906C95.6915 43.2834 96.0804 43.1684 96.1541 43.2351C96.2277 43.3014 96.2518 43.0794 96.2075 42.7413C96.1287 42.1375 96.5271 41.4509 96.6483 41.9821C96.6823 42.131 96.8144 42.4612 96.942 42.7162C97.1467 43.1253 97.2561 43.1423 97.8738 42.8609C98.259 42.6856 98.9151 42.3175 99.3317 42.0427C99.7486 41.7678 100.213 41.5429 100.363 41.5429C100.514 41.5429 100.955 41.249 101.345 40.8898C101.734 40.5305 102.169 40.2366 102.312 40.2366C102.454 40.2366 102.677 40.0895 102.807 39.91C102.936 39.7306 103.313 39.5519 103.643 39.5135C103.973 39.4748 104.413 39.2692 104.621 39.0562C104.829 38.8433 105.142 38.6691 105.317 38.6691C105.492 38.6691 105.635 38.4927 105.635 38.2772C105.635 38.0575 105.794 37.8853 105.998 37.8853C106.198 37.8853 106.407 37.7089 106.464 37.4934C106.52 37.2779 106.761 37.1015 106.999 37.1015C107.295 37.1015 107.484 36.8964 107.601 36.4484C107.767 35.8093 108.137 35.5389 108.137 36.0565C108.137 36.4429 108.482 36.3737 108.788 35.9259C108.936 35.7103 109.193 35.534 109.359 35.534C109.525 35.534 109.741 35.279 109.838 34.9676C109.935 34.6559 110.174 34.2739 110.37 34.1185C110.566 33.963 110.904 33.5714 111.121 33.248C111.339 32.9248 111.581 32.6552 111.659 32.6492C111.737 32.6429 112.003 32.2688 112.248 31.8173C112.494 31.3659 112.917 30.6884 113.188 30.3122C113.846 29.3991 114.891 26.3325 114.39 26.7847C114.029 27.1115 114.156 25.8766 114.617 24.5823C114.894 23.8035 115.058 23.0981 114.981 23.0148C114.903 22.9312 114.84 22.0497 114.84 21.0559C114.84 19.8444 114.766 19.2127 114.617 19.1398C114.494 19.08 114.394 18.8772 114.394 18.6891C114.394 18.5008 114.28 18.2834 114.142 18.2061C114.004 18.1285 113.837 17.7058 113.771 17.2666C113.705 16.8274 113.577 16.401 113.486 16.319C113.395 16.2372 113.318 15.9125 113.315 15.5977C113.311 15.2828 113.13 14.7266 112.912 14.3617C112.371 13.4527 111.176 12.193 111.176 12.53C111.176 12.681 111.055 12.8046 110.908 12.8046C110.76 12.8046 110.64 12.7058 110.64 12.5854C110.64 12.4647 110.439 12.2319 110.193 12.0683C109.947 11.9045 109.744 11.5625 109.742 11.3078C109.737 10.8349 108.721 9.93072 108.194 9.93072C108.037 9.93072 107.794 9.72485 107.654 9.47352C107.479 9.15923 107.372 9.11325 107.31 9.32669C107.25 9.53675 107.104 9.46621 106.859 9.10802C106.608 8.74069 106.366 8.62757 106.066 8.7373C105.824 8.82612 105.635 8.78014 105.635 8.63279C105.635 8.20642 104.353 7.15251 103.579 6.94272C103.186 6.83612 102.782 6.64932 102.681 6.52784C102.311 6.08109 100.443 5.3109 99.1383 5.06689C98.7297 4.9906 98.1339 4.82862 97.8143 4.70714C97.4209 4.5577 97.2334 4.5786 97.2334 4.77219C97.2334 4.9292 97.0523 4.81347 96.8312 4.51459C96.5788 4.17365 96.0962 3.92336 95.5352 3.84211C95.0437 3.77079 94.2393 3.58085 93.7477 3.41966C93.2562 3.25872 92.3881 3.08107 91.8186 3.02464C91.2491 2.96847 90.6861 2.80936 90.5674 2.67115C90.4487 2.53295 89.7884 2.40911 89.1002 2.39579C87.8671 2.37201 87.574 2.31846 87.0445 2.02141C86.5633 1.75153 84.8995 1.64128 84.8995 1.87928C84.8995 2.00704 84.751 1.99528 84.5694 1.85316C84.3424 1.6755 84.175 1.68883 84.0331 1.89626C83.8774 2.12382 83.827 2.10841 83.827 1.83408C83.827 1.56943 83.7659 1.59294 83.602 1.9203C83.3481 2.42766 82.6287 2.37933 82.4004 1.83983C82.3026 1.60862 82.0683 1.54905 81.6913 1.6593C81.3082 1.77112 81.1663 1.73324 81.2478 1.54043C81.3229 1.36278 81.2147 1.37662 80.9581 1.57753C80.619 1.84271 80.5135 1.82808 80.3458 1.49314C80.1642 1.13 80.1224 1.13339 79.9401 1.52528C79.7517 1.93049 79.7359 1.92892 79.7263 1.50516C79.7204 1.25383 79.6955 1.03725 79.671 1.02419C79.6466 1.01138 78.827 0.948683 77.8501 0.885197C76.873 0.82145 75.9754 0.650065 75.8551 0.504283C75.7053 0.322448 75.5966 0.332637 75.5106 0.536157C75.4286 0.73001 75.1586 0.767631 74.7348 0.644056C73.628 0.321142 72.9232 0.347529 72.9232 0.711983C72.9232 0.896692 72.8427 1.04796 72.7444 1.04796C72.6461 1.04796 72.5859 0.915764 72.6104 0.754045C72.635 0.592327 72.4539 0.428257 72.2082 0.38933C71.9624 0.350402 71.5804 0.233881 71.3591 0.130162C71.0547 -0.0122234 70.9569 0.0447308 70.9569 0.364249C70.9569 0.596768 71.0508 0.786703 71.1655 0.786703C71.2801 0.786703 71.3139 0.874746 71.2402 0.982123C71.1666 1.08976 71.0052 0.975592 70.8817 0.728442C70.5762 0.117622 69.7432 0.0747756 69.0148 0.6323C68.5411 0.994664 68.3702 1.02419 68.2104 0.770505C68.0572 0.527796 68.0622 0.494094 68.2309 0.633083C68.368 0.746208 68.4544 0.660254 68.4544 0.41023C68.4544 0.186333 68.3516 0.00292969 68.2261 0.00292969C67.9482 0.00292969 67.196 0.714596 66.8903 1.26663C66.696 1.61776 66.6669 1.59347 66.6669 1.08036C66.6669 0.609048 66.5948 0.523616 66.3094 0.656074C66.0546 0.774162 65.9519 0.7031 65.9519 0.408402C65.9519 0.105604 65.796 0.00789348 65.3709 0.043947C65.0513 0.0713791 64.6599 0.186594 64.5006 0.300241C64.3415 0.413888 64.1626 0.435834 64.103 0.348835C64.0435 0.261575 63.2568 0.15681 62.355 0.115793C61.115 0.0596224 60.6133 0.139045 60.2967 0.442365C59.9453 0.778865 59.8627 0.784874 59.7826 0.479986C59.6823 0.0982888 59.0254 0.0314065 58.6558 0.365294C58.5362 0.473193 58.4767 0.651894 58.5233 0.762145C58.57 0.872395 58.4983 1.19217 58.364 1.47224C58.1556 1.90698 57.5609 2.06739 57.0143 1.83644C56.8633 1.77269 57.8083 1.22405 57.9747 1.27917C58.0605 1.30739 58.0805 1.13992 58.0194 0.90662C57.9581 0.673578 57.9081 0.373916 57.9081 0.241197C57.9081 0.100901 57.3269 0.0638027 56.5227 0.15263C54.8888 0.332898 54.9179 0.333421 54.2883 0.113703C53.9122 -0.0177097 53.7968 0.0376768 53.7968 0.348835C53.7968 0.70937 53.7408 0.713028 53.3052 0.38097C52.6322 -0.13214 51.2946 -0.0989609 50.7643 0.443933C50.4588 0.756658 50.3129 0.79454 50.2627 0.574561C50.1588 0.119189 49.2316 0.196261 48.9553 0.682984C48.739 1.0639 48.692 1.0558 48.4357 0.593111C48.1961 0.16073 48.1191 0.139045 47.921 0.448897ZM50.2217 1.17859C50.2217 1.39413 50.1413 1.58511 50.043 1.60313C49.9447 1.62116 49.7809 1.65042 49.6791 1.66845C49.577 1.68647 49.4174 1.87745 49.3242 2.09299C49.0838 2.64869 49.0926 1.95191 49.3342 1.29198C49.5521 0.69683 50.2217 0.611399 50.2217 1.17859ZM40.7479 1.68569C40.7479 1.74918 40.6675 1.87353 40.5692 1.96236C40.4708 2.05119 40.3904 1.9992 40.3904 1.84715C40.3904 1.6951 40.4708 1.57048 40.5692 1.57048C40.6675 1.57048 40.7479 1.6222 40.7479 1.68569ZM35.4826 3.11947C35.3069 3.53513 35.0238 3.19654 35.1487 2.72027C35.2175 2.45823 35.3149 2.40807 35.4293 2.57527C35.5257 2.71609 35.5496 2.96089 35.4826 3.11947ZM79.1795 2.74614C79.1795 2.96167 79.0613 3.13802 78.9169 3.13802C78.7571 3.13802 78.6947 2.98492 78.7573 2.74614C78.8139 2.5306 78.9321 2.35425 79.0199 2.35425C79.1076 2.35425 79.1795 2.5306 79.1795 2.74614ZM81.0435 2.55019C80.9547 2.65809 80.8217 2.8637 80.7484 3.00739C80.6722 3.15657 80.6138 3.07245 80.6122 2.81145C80.6107 2.55725 80.7418 2.35425 80.9075 2.35425C81.0712 2.35425 81.1325 2.44229 81.0435 2.55019ZM34.6704 3.13802C34.6704 3.28171 34.5899 3.39928 34.4916 3.39928C34.3933 3.39928 34.3129 3.28171 34.3129 3.13802C34.3129 2.99433 34.3933 2.87676 34.4916 2.87676C34.5899 2.87676 34.6704 2.99433 34.6704 3.13802ZM40.342 3.03456C40.2826 3.1213 40.1284 3.13071 39.9995 3.0552C39.8568 2.97186 39.8992 2.90994 40.1074 2.8974C40.2959 2.88617 40.4013 2.94783 40.342 3.03456ZM83.827 3.41914C83.827 3.54271 83.7064 3.57641 83.5589 3.49385C83.4114 3.41104 83.2908 3.242 83.2908 3.11817C83.2908 2.99459 83.4114 2.96089 83.5589 3.04345C83.7064 3.12627 83.827 3.2953 83.827 3.41914ZM87.5808 3.13802C87.5808 3.28171 87.4399 3.39745 87.268 3.39536C87.0006 3.39196 86.9941 3.35434 87.2233 3.13802C87.5606 2.81929 87.5808 2.81929 87.5808 3.13802ZM31.3635 3.66054C31.4242 3.80423 31.3887 3.92179 31.2846 3.92179C31.1806 3.92179 31.0953 3.80423 31.0953 3.66054C31.0953 3.51685 31.1307 3.39928 31.1742 3.39928C31.2176 3.39928 31.3027 3.51685 31.3635 3.66054ZM78.107 3.66054C78.107 3.80423 78.0217 3.92179 77.9177 3.92179C77.8136 3.92179 77.7781 3.80423 77.8388 3.66054C77.8996 3.51685 77.9847 3.39928 78.0281 3.39928C78.0716 3.39928 78.107 3.51685 78.107 3.66054ZM82.5677 4.29931C82.7302 4.58565 82.7373 4.70557 82.592 4.70557C82.4785 4.70557 82.3394 4.52922 82.283 4.31368C82.2263 4.09814 82.0679 3.92179 81.931 3.92179C81.7941 3.92179 81.682 3.80005 81.682 3.65139C81.682 3.31306 82.239 3.72037 82.5677 4.29931ZM80.2035 3.81834C80.1442 3.90507 79.9899 3.91448 79.8611 3.83898C79.7184 3.75563 79.7608 3.69372 79.969 3.68118C80.1574 3.66994 80.2629 3.7316 80.2035 3.81834ZM27.8183 4.61857C27.5854 4.95873 27.7039 5.48934 28.0119 5.48542C28.2593 5.48229 28.2732 5.43369 28.0784 5.25316C27.9429 5.12776 27.8873 4.89446 27.9549 4.73483C28.09 4.41531 28.0062 4.34399 27.8183 4.61857ZM86.8173 5.38588C86.758 5.47262 86.6037 5.48203 86.4749 5.40652C86.3322 5.32318 86.3746 5.26126 86.5828 5.24872C86.7712 5.23749 86.8767 5.29915 86.8173 5.38588ZM87.402 5.7506C87.402 5.89429 87.3216 6.01186 87.2233 6.01186C87.125 6.01186 87.0445 5.89429 87.0445 5.7506C87.0445 5.60691 87.125 5.48934 87.2233 5.48934C87.3216 5.48934 87.402 5.60691 87.402 5.7506ZM89.3683 5.88123C89.3683 6.09677 89.2879 6.27311 89.1896 6.27311C89.0912 6.27311 89.0108 6.09677 89.0108 5.88123C89.0108 5.66569 89.0912 5.48934 89.1896 5.48934C89.2879 5.48934 89.3683 5.66569 89.3683 5.88123ZM94.3734 6.41916C94.3734 6.64305 94.2929 6.75383 94.1946 6.665C94.0963 6.57617 94.0158 6.39303 94.0158 6.2577C94.0158 6.12237 94.0963 6.01186 94.1946 6.01186C94.2929 6.01186 94.3734 6.19526 94.3734 6.41916ZM100.987 8.75506C100.987 8.9706 100.867 9.14695 100.719 9.14695C100.572 9.14695 100.451 8.9706 100.451 8.75506C100.451 8.53952 100.572 8.36318 100.719 8.36318C100.867 8.36318 100.987 8.53952 100.987 8.75506ZM107.183 11.0411C107.134 11.2208 107.093 11.0737 107.093 10.7145C107.093 10.3553 107.134 10.2084 107.183 10.3879C107.233 10.5677 107.233 10.8616 107.183 11.0411ZM22.9621 14.1108C22.9014 14.2545 22.9369 14.3721 23.041 14.3721C23.145 14.3721 23.2303 14.2545 23.2303 14.1108C23.2303 13.9672 23.1949 13.8496 23.1514 13.8496C23.108 13.8496 23.0229 13.9672 22.9621 14.1108ZM20.5772 15.1559C20.5772 15.5151 20.6178 15.6622 20.6673 15.4824C20.717 15.303 20.717 15.009 20.6673 14.8293C20.6178 14.6498 20.5772 14.7966 20.5772 15.1559ZM16.8285 15.473C16.55 15.8801 16.5568 16.2761 16.8399 16.1262C16.9629 16.0611 17.199 16.1803 17.3649 16.3911C17.5308 16.6022 17.7519 16.6973 17.8565 16.603C18.1112 16.3728 18.0985 15.9396 17.8372 15.9396C17.722 15.9396 17.4956 15.7649 17.3342 15.5514C17.1077 15.2518 16.992 15.234 16.8285 15.473ZM14.4243 16.6184C14.3655 16.7043 14.3605 16.9387 14.4132 17.1396C14.49 17.4325 14.3506 17.473 13.7094 17.3444C13.2004 17.2425 12.865 17.2906 12.7864 17.4764C12.7184 17.637 12.7481 17.7685 12.8521 17.7685C12.9562 17.7685 13.0414 18.0477 13.0414 18.3889C13.0414 18.8767 13.1371 19.0094 13.4883 19.0094C13.8031 19.0094 13.9352 18.8673 13.9352 18.5287C13.9352 17.9997 14.433 17.5109 14.7844 17.695C14.9339 17.7734 14.9682 17.6608 14.8881 17.3557C14.8063 17.0442 14.8347 16.9591 14.9773 17.0879C15.0924 17.1919 15.1865 17.1649 15.1865 17.028C15.1865 16.8911 15.0592 16.708 14.9037 16.6207C14.5567 16.4261 14.5556 16.4261 14.4243 16.6184ZM15.544 17.1783C15.544 17.66 15.8743 17.8197 16.2129 17.5017C16.4663 17.2634 16.4708 17.2316 16.2361 17.3363C16.0759 17.4079 15.8548 17.3345 15.7445 17.1733C15.5963 16.9567 15.544 16.958 15.544 17.1783ZM11.7008 18.0297C11.64 18.1734 11.6756 18.291 11.7796 18.291C11.8837 18.291 11.9689 18.4576 11.9689 18.6612C11.9689 19.1975 12.3819 19.3185 12.6174 18.8511C12.7696 18.5494 12.7617 18.3673 12.5854 18.1099C12.3082 17.7044 11.8556 17.6634 11.7008 18.0297ZM10.4942 18.7322C10.3221 18.7981 10.1814 19.064 10.1814 19.3232C10.1814 19.5824 10.0457 19.956 9.87987 20.1532C9.61728 20.4652 9.59261 20.4552 9.68985 20.0761C9.75617 19.8167 9.69754 19.5824 9.54453 19.4964C9.40331 19.4172 9.28766 19.4664 9.28766 19.6054C9.28766 19.7446 9.167 19.8585 9.01954 19.8585C8.87206 19.8585 8.75141 19.9724 8.75141 20.1117C8.75141 20.2507 8.63897 20.3016 8.50134 20.2243C8.102 20.0004 8.05195 20.4665 8.41679 21.0146C8.7119 21.4582 8.75141 21.466 8.75141 21.0799C8.75141 20.8393 8.87206 20.6423 9.01954 20.6423C9.167 20.6423 9.28766 20.8267 9.28766 21.0525C9.28766 21.7385 10.0592 21.3921 10.2009 20.6423C10.2787 20.2313 10.3312 20.1587 10.3423 20.4463C10.3623 20.9568 10.6324 21.0556 10.8167 20.6196C10.8827 20.4633 11.0872 20.393 11.2711 20.4633C11.5442 20.5676 11.5743 20.5064 11.4359 20.1284C11.3428 19.8742 11.3154 19.5946 11.3751 19.5074C11.494 19.3334 11.0998 18.5337 10.9193 18.5825C10.8575 18.5993 10.6664 18.6667 10.4942 18.7322ZM11.6114 19.5973C11.3823 19.8136 11.3887 19.8512 11.6561 19.8546C11.8283 19.8567 11.9689 19.7409 11.9689 19.5973C11.9689 19.2785 11.9487 19.2785 11.6114 19.5973ZM6.92886 21.5491C6.00865 22.4167 5.91212 22.6393 6.38295 22.8084C6.55491 22.87 6.43443 22.8729 6.11482 22.8146C5.5135 22.7049 5.31473 23.0762 5.82221 23.3607C6.00525 23.4633 6.07675 23.7123 6.01776 24.0418C5.96664 24.3273 5.99774 24.5612 6.08694 24.5612C6.17596 24.5612 6.24889 24.326 6.24889 24.0386C6.24889 23.4691 6.38063 23.398 6.76923 23.7575C7.06203 24.0284 7.6789 23.5618 7.6789 23.0696C7.6789 22.882 7.80903 22.8099 7.99171 22.8959C8.24393 23.0145 8.25484 22.9915 8.04784 22.777C7.83852 22.5599 7.83316 22.4371 8.01871 22.1103C8.20336 21.7853 8.20121 21.6199 8.00727 21.2338C7.78007 20.7813 7.7268 20.7967 6.92886 21.5491ZM3.29949 27.1737C3.36116 27.3195 3.22745 27.4332 2.99722 27.4311C2.6651 27.4277 2.63686 27.3775 2.85261 27.1737C3.18527 26.8597 3.16668 26.8597 3.29949 27.1737ZM107.69 33.9664C107.751 34.1101 107.671 34.2277 107.512 34.2277C107.352 34.2277 107.272 34.1101 107.333 33.9664C107.394 33.8227 107.474 33.7052 107.512 33.7052C107.549 33.7052 107.63 33.8227 107.69 33.9664ZM104.624 36.7209C104.566 36.9427 104.48 37.0681 104.433 36.9996C104.386 36.9312 104.401 36.7496 104.465 36.5965C104.642 36.1795 104.745 36.2605 104.624 36.7209ZM104.088 38.2884C104.029 38.5102 103.943 38.6356 103.897 38.5672C103.85 38.4987 103.864 38.3172 103.929 38.1641C104.105 37.7471 104.208 37.8281 104.088 38.2884ZM99.9146 39.1916C99.9146 39.3353 99.8294 39.4528 99.7253 39.4528C99.6213 39.4528 99.5857 39.3353 99.6465 39.1916C99.7073 39.0479 99.7924 38.9303 99.8358 38.9303C99.8793 38.9303 99.9146 39.0479 99.9146 39.1916ZM100.54 39.1916C100.601 39.3353 100.525 39.4528 100.372 39.4528C100.219 39.4528 100.093 39.3353 100.093 39.1916C100.093 39.0479 100.169 38.9303 100.262 38.9303C100.354 38.9303 100.479 39.0479 100.54 39.1916ZM88.6533 44.4167C88.6533 44.5604 88.5729 44.678 88.4745 44.678C88.3762 44.678 88.2958 44.5604 88.2958 44.4167C88.2958 44.273 88.3762 44.1555 88.4745 44.1555C88.5729 44.1555 88.6533 44.273 88.6533 44.4167ZM19.5362 46.7939C19.6181 46.8835 19.5578 47.028 19.4021 47.1153C19.1982 47.2297 19.119 47.1179 19.119 46.7163C19.119 46.4096 19.1794 46.2649 19.2531 46.395C19.3267 46.5248 19.4542 46.7046 19.5362 46.7939ZM22.6456 47.1871C22.5862 47.2738 22.432 47.2833 22.3031 47.2078C22.1604 47.1244 22.2028 47.0625 22.4111 47.0499C22.5995 47.0387 22.7049 47.1004 22.6456 47.1871ZM66.4881 48.205C66.4881 48.4302 66.3269 48.5969 66.1088 48.5969C65.7917 48.5969 65.766 48.5323 65.9519 48.205C66.0743 47.9894 66.245 47.8131 66.3312 47.8131C66.4175 47.8131 66.4881 47.9894 66.4881 48.205ZM46.9148 48.3356C46.9756 48.4793 46.8952 48.5969 46.7361 48.5969C46.577 48.5969 46.4966 48.4793 46.5573 48.3356C46.6181 48.1919 46.6986 48.0743 46.7361 48.0743C46.7736 48.0743 46.8541 48.1919 46.9148 48.3356ZM39.8542 48.4344C39.8542 48.4884 39.7335 48.6792 39.586 48.8581C39.3663 49.1246 39.3179 49.1066 39.3179 48.7594C39.3179 48.5263 39.4386 48.3356 39.586 48.3356C39.7335 48.3356 39.8542 48.38 39.8542 48.4344ZM51.6518 48.4508C51.6518 48.5143 51.5713 48.6387 51.473 48.7275C51.3747 48.8163 51.2943 48.7643 51.2943 48.6123C51.2943 48.4602 51.3747 48.3356 51.473 48.3356C51.5713 48.3356 51.6518 48.3873 51.6518 48.4508ZM43.7121 49.1194C43.8516 49.1194 43.9654 49.3545 43.9654 49.6419C43.9654 49.9293 43.9195 50.1644 43.8634 50.1644C43.658 50.1644 43.3387 49.4977 43.3003 48.9887C43.2787 48.7014 43.3055 48.6133 43.3598 48.7928C43.4143 48.9725 43.5729 49.1194 43.7121 49.1194ZM36.2791 49.6419C36.2791 49.9786 36.3696 50.1639 36.5026 50.0991C36.6255 50.0393 36.726 49.8334 36.726 49.6419C36.726 49.4504 36.6255 49.2445 36.5026 49.1847C36.3696 49.1199 36.2791 49.3051 36.2791 49.6419ZM47.6626 49.691C47.6055 49.8992 47.5632 49.8373 47.5546 49.5329C47.5469 49.2576 47.5891 49.1034 47.6484 49.1902C47.7078 49.2769 47.7142 49.5024 47.6626 49.691ZM48.1661 50.4257C48.2269 50.5694 48.1511 50.6869 47.9979 50.6869C47.8447 50.6869 47.7192 50.5694 47.7192 50.4257C47.7192 50.282 47.7948 50.1644 47.8874 50.1644C47.98 50.1644 48.1053 50.282 48.1661 50.4257Z" fill="#F68A22"/>
</svg>
