<svg width="322" height="525" viewBox="0 0 322 525" fill="none" xmlns="http://www.w3.org/2000/svg">
<path fill-rule="evenodd" clip-rule="evenodd" d="M372.147 132.376C366.309 124.181 359.848 116.321 352.763 108.87C345.678 101.418 338.206 94.6218 330.414 88.4818L372.147 132.376ZM306.111 72.0071L387.81 157.938C391.008 164.067 393.902 170.324 396.494 176.685L288.287 62.8737C294.335 65.5997 300.284 68.6442 306.111 72.0071ZM274.224 57.1693C269.866 55.5925 265.468 54.1737 261.037 52.9131L405.964 205.346C404.766 200.686 403.417 196.06 401.918 191.476L274.224 57.1693ZM408.697 217.307L249.665 50.039C245.956 49.2179 242.23 48.5053 238.492 47.901L410.729 229.059C410.155 225.127 409.477 221.208 408.697 217.307ZM412.009 239.492L228.572 46.5549C225.265 46.1913 221.952 45.9116 218.634 45.7158L412.807 249.945C412.621 246.456 412.355 242.97 412.009 239.492ZM413.115 259.356L209.686 45.3914C208.495 45.3753 207.304 45.37 206.113 45.3755L206.113 51.2467L413.034 268.885C413.127 265.709 413.154 262.532 413.115 259.356ZM412.617 277.533L206.113 60.3337L206.113 69.9474L411.854 286.344C412.165 283.412 412.42 280.474 412.617 277.533ZM410.857 294.382L206.113 79.0344L206.113 88.6481L409.535 302.605C410.026 299.872 410.466 297.13 410.857 294.382ZM408.051 310.132L206.113 97.7352L206.113 107.349L406.251 317.852C406.896 315.288 407.496 312.714 408.051 310.132ZM404.345 324.935L206.113 116.436L206.113 126.05L402.125 332.213C402.907 329.798 403.647 327.372 404.345 324.935ZM399.842 338.9L206.113 135.137L206.113 144.75L397.243 345.779C398.148 343.499 399.015 341.205 399.842 338.9ZM394.618 352.105L206.113 153.837L206.113 163.451L391.67 358.618C392.689 356.461 393.672 354.29 394.618 352.105ZM388.727 364.61L206.113 172.538L206.113 182.152L385.454 370.782C386.58 368.739 387.671 366.682 388.727 364.61ZM382.213 376.46L206.113 191.239L206.113 200.853L378.633 382.307C379.859 380.374 381.052 378.424 382.213 376.46ZM375.107 387.686L206.113 209.94L206.113 219.554L371.232 393.224C372.555 391.395 373.847 389.549 375.107 387.686ZM367.434 398.316L206.113 228.641L206.113 238.254L363.274 403.555C364.691 401.826 366.077 400.08 367.434 398.316ZM359.21 408.367L206.113 247.341L206.113 256.955L354.772 413.314C356.281 411.683 357.76 410.034 359.21 408.367ZM350.449 417.853L206.113 266.042L206.113 275.656L345.737 422.511C347.325 420.989 348.896 419.437 350.449 417.853ZM341.154 426.777L206.113 284.743L206.113 294.357L336.164 431.144C337.844 429.72 339.507 428.264 341.154 426.777ZM331.315 435.13L206.113 303.444L206.113 313.057L326.041 439.197C327.815 437.874 329.573 436.519 331.315 435.13ZM320.918 442.895L206.113 322.144L206.113 331.758L315.349 446.652C317.22 445.434 319.077 444.182 320.918 442.895ZM309.942 450.051L206.113 340.845L206.113 350.459L304.065 453.484C306.038 452.376 307.997 451.232 309.942 450.051ZM298.358 456.569L206.113 359.546L206.113 369.16L292.156 459.658C294.236 458.667 296.304 457.637 298.358 456.569ZM286.131 462.409L206.113 378.247L206.113 387.86L279.579 465.131C281.774 464.264 283.959 463.357 286.131 462.409ZM273.21 467.52L206.113 396.947L206.113 406.561L266.278 469.843C268.599 469.112 270.91 468.338 273.21 467.52ZM259.532 471.834L206.113 415.648L206.113 425.262L252.178 473.713C254.638 473.135 257.09 472.509 259.532 471.834ZM245.008 475.259L206.113 434.349L206.113 443.963L237.174 476.633C239.792 476.228 242.404 475.77 245.008 475.259ZM229.516 477.665L206.113 453.05L206.113 462.664L221.12 478.448C223.922 478.247 226.721 477.986 229.516 477.665ZM212.877 478.865L206.113 471.751L206.113 478.95C208.368 478.961 210.623 478.932 212.877 478.865Z" fill="#B9DEDE"/>
<path d="M63.2726 480.058C177.107 480.058 269.387 382.998 269.387 263.268C269.387 143.538 177.107 46.4785 63.2726 46.4785L63.2726 480.058Z" fill="#8AC7C8"/>
</svg>
