<svg width="371" height="534" viewBox="0 0 371 534" fill="none" xmlns="http://www.w3.org/2000/svg">
<path fill-rule="evenodd" clip-rule="evenodd" d="M-30.019 134.821C-23.7365 126.475 -16.7828 118.471 -9.15796 110.881C-1.53317 103.292 6.50862 96.3709 14.894 90.1176L-30.019 134.821ZM41.0502 73.3381L-46.8771 160.856C-50.3182 167.098 -53.4335 173.471 -56.2229 179.949L60.2333 64.0359C53.7243 66.8123 47.3217 69.913 41.0502 73.3381ZM75.3686 58.226C80.059 56.62 84.7927 55.175 89.561 53.8911L-66.4152 209.14C-65.1252 204.394 -63.6734 199.683 -62.0599 195.014L75.3686 58.226ZM-69.3561 221.323L101.8 50.9638C105.791 50.1276 109.801 49.4018 113.825 48.7863L-71.5438 233.291C-70.9254 229.287 -70.1962 225.295 -69.3561 221.323ZM-72.9212 243.917L124.501 47.4153C128.06 47.045 131.626 46.7602 135.197 46.5608L-73.7798 254.563C-73.5795 251.01 -73.2933 247.46 -72.9212 243.917ZM-74.1117 264.149L144.827 46.2304C146.109 46.214 147.391 46.2085 148.673 46.2141L148.673 52.1936L-74.0242 273.853C-74.1244 270.619 -74.1535 267.384 -74.1117 264.149ZM-73.5754 282.661L148.673 61.4485L148.673 71.2399L-72.7542 291.635C-73.0891 288.649 -73.3628 285.657 -73.5754 282.661ZM-71.681 299.822L148.673 80.4948L148.673 90.2862L-70.2579 308.197C-70.7864 305.413 -71.2608 302.621 -71.681 299.822ZM-68.6612 315.863L148.673 99.5411L148.673 109.332L-66.724 323.726C-67.4186 321.114 -68.0643 318.493 -68.6612 315.863ZM-64.6729 330.939L148.673 118.587L148.673 128.379L-62.2831 338.352C-63.1245 335.892 -63.9211 333.421 -64.6729 330.939ZM-59.8268 345.162L148.673 137.634L148.673 147.425L-57.029 352.169C-58.0032 349.846 -58.9358 347.51 -59.8268 345.162ZM-54.2039 358.612L148.673 156.68L148.673 166.471L-51.0312 365.245C-52.1279 363.048 -53.1854 360.836 -54.2039 358.612ZM-47.8644 371.348L148.673 175.726L148.673 185.518L-44.3417 377.633C-45.5529 375.553 -46.7271 373.458 -47.8644 371.348ZM-40.8536 383.416L148.673 194.773L148.673 204.564L-36.9998 389.372C-38.3196 387.403 -39.6042 385.417 -40.8536 383.416ZM-33.2059 394.85L148.673 213.819L148.673 223.61L-29.0352 400.491C-30.4591 398.628 -31.8494 396.747 -33.2059 394.85ZM-24.9471 405.676L148.673 232.865L148.673 242.657L-20.4701 411.012C-21.9949 409.251 -23.4873 407.473 -24.9471 405.676ZM-16.0964 415.913L148.673 251.912L148.673 261.703L-11.3207 420.951C-12.9441 419.291 -14.536 417.611 -16.0964 415.913ZM-6.66729 425.574L148.673 270.958L148.673 280.749L-1.59676 430.319C-3.30563 428.769 -4.99606 427.187 -6.66729 425.574ZM3.33651 434.663L148.673 290.004L148.673 299.796L8.70608 439.11C6.89842 437.661 5.1083 436.178 3.33651 434.663ZM13.9252 443.171L148.673 309.051L148.673 318.842L19.6013 447.312C17.6924 445.965 15.8001 444.585 13.9252 443.171ZM25.1148 451.079L148.673 328.097L148.673 337.888L31.1082 454.905C29.0945 453.665 27.0964 452.39 25.1148 451.079ZM36.928 458.368L148.673 347.143L148.673 356.935L43.2529 461.863C41.1297 460.735 39.0211 459.57 36.928 458.368ZM49.3945 465.005L148.673 366.19L148.673 375.981L56.0702 468.152C53.8312 467.142 51.6057 466.093 49.3945 465.005ZM62.5542 470.953L148.673 385.236L148.673 395.027L69.6058 473.726C67.2428 472.843 64.8919 471.919 62.5542 470.953ZM76.4597 476.159L148.673 404.282L148.673 414.074L83.9202 478.525C81.4224 477.781 78.9351 476.992 76.4597 476.159ZM91.1805 480.553L148.673 423.329L148.673 433.12L99.0953 482.467C96.4478 481.878 93.8091 481.24 91.1805 480.553ZM106.812 484.041L148.673 442.375L148.673 452.166L115.243 485.441C112.426 485.028 109.615 484.562 106.812 484.041ZM123.486 486.491L148.673 461.421L148.673 471.213L132.522 487.289C129.506 487.084 126.493 486.818 123.486 486.491ZM141.393 487.714L148.673 480.468L148.673 487.801C146.246 487.811 143.819 487.782 141.393 487.714Z" fill="#B9DEDE"/>
<path d="M302.403 488.928C179.89 488.928 80.5742 390.075 80.5742 268.133C80.5742 146.191 179.89 47.3374 302.403 47.3374L302.403 488.928Z" fill="#8AC7C8"/>
</svg>
