<svg width="235" height="97" viewBox="0 0 235 97" fill="none" xmlns="http://www.w3.org/2000/svg">
<path d="M3 23.6897L13.2888 13.4009C20.6899 5.99978 32.6894 5.99978 40.0905 13.4009L49.6129 22.9233C57.014 30.3244 69.0136 30.3244 76.4147 22.9232L85.937 13.4009C93.3382 5.99978 105.338 5.99978 112.739 13.4009L122.261 22.9233C129.662 30.3244 141.662 30.3244 149.063 22.9232L158.585 13.4009C165.986 5.99978 177.986 5.99978 185.387 13.4009L194.909 22.9233C202.311 30.3244 214.31 30.3244 221.711 22.9232L232 12.6345" stroke="#8AC7C8" stroke-width="7.89655"/>
<path d="M3 53.6965L13.2888 43.4077C20.6899 36.0066 32.6894 36.0066 40.0905 43.4077L49.6129 52.9301C57.014 60.3312 69.0136 60.3312 76.4147 52.9301L85.937 43.4077C93.3382 36.0066 105.338 36.0066 112.739 43.4077L122.261 52.9301C129.662 60.3312 141.662 60.3312 149.063 52.9301L158.585 43.4077C165.986 36.0066 177.986 36.0066 185.387 43.4077L194.909 52.9301C202.311 60.3312 214.31 60.3312 221.711 52.9301L232 42.6413" stroke="#8AC7C8" stroke-width="7.89655"/>
<path d="M3 83.7033L13.2888 73.4146C20.6899 66.0134 32.6894 66.0135 40.0905 73.4146L49.6129 82.9369C57.014 90.338 69.0136 90.338 76.4147 82.9369L85.937 73.4146C93.3382 66.0134 105.338 66.0135 112.739 73.4146L122.261 82.9369C129.662 90.338 141.662 90.338 149.063 82.9369L158.585 73.4146C165.986 66.0134 177.986 66.0135 185.387 73.4146L194.909 82.9369C202.311 90.338 214.31 90.338 221.711 82.9369L232 72.6482" stroke="#8AC7C8" stroke-width="7.89655"/>
</svg>
