<svg width="234" height="389" viewBox="0 0 234 389" fill="none" xmlns="http://www.w3.org/2000/svg">
<g clip-path="url(#clip0_757_29666)">
<g clip-path="url(#clip1_757_29666)">
<circle cx="15.3486" cy="203.597" r="3.00268" transform="rotate(-57.6721 15.3486 203.597)" fill="#F68A22"/>
<circle cx="28.1943" cy="183.299" r="3.00268" transform="rotate(-57.6721 28.1943 183.299)" fill="#F68A22"/>
<circle cx="41.04" cy="163.001" r="3.00268" transform="rotate(-57.6721 41.04 163.001)" fill="#F68A22"/>
<circle cx="53.8862" cy="142.703" r="3.00268" transform="rotate(-57.6721 53.8862 142.703)" fill="#F68A22"/>
<circle cx="66.7319" cy="122.405" r="3.00268" transform="rotate(-57.6721 66.7319 122.405)" fill="#F68A22"/>
</g>
<g clip-path="url(#clip2_757_29666)">
<circle cx="35.6469" cy="216.443" r="3.00268" transform="rotate(-57.6721 35.6469 216.443)" fill="#F68A22"/>
<circle cx="48.4926" cy="196.145" r="3.00268" transform="rotate(-57.6721 48.4926 196.145)" fill="#F68A22"/>
<circle cx="61.3383" cy="175.847" r="3.00268" transform="rotate(-57.6721 61.3383 175.847)" fill="#F68A22"/>
<circle cx="74.1845" cy="155.548" r="3.00268" transform="rotate(-57.6721 74.1845 155.548)" fill="#F68A22"/>
<circle cx="87.0302" cy="135.251" r="3.00268" transform="rotate(-57.6721 87.0302 135.251)" fill="#F68A22"/>
</g>
<g clip-path="url(#clip3_757_29666)">
<circle cx="55.9447" cy="229.289" r="3.00268" transform="rotate(-57.6721 55.9447 229.289)" fill="#F68A22"/>
<circle cx="68.7905" cy="208.99" r="3.00268" transform="rotate(-57.6721 68.7905 208.99)" fill="#F68A22"/>
<circle cx="81.6362" cy="188.692" r="3.00268" transform="rotate(-57.6721 81.6362 188.692)" fill="#F68A22"/>
<circle cx="94.4823" cy="168.394" r="3.00268" transform="rotate(-57.6721 94.4823 168.394)" fill="#F68A22"/>
<circle cx="107.328" cy="148.096" r="3.00268" transform="rotate(-57.6721 107.328 148.096)" fill="#F68A22"/>
</g>
<g clip-path="url(#clip4_757_29666)">
<circle cx="76.2431" cy="242.135" r="3.00268" transform="rotate(-57.6721 76.2431 242.135)" fill="#F68A22"/>
<circle cx="89.0888" cy="221.837" r="3.00268" transform="rotate(-57.6721 89.0888 221.837)" fill="#F68A22"/>
<circle cx="101.934" cy="201.539" r="3.00268" transform="rotate(-57.6721 101.934 201.539)" fill="#F68A22"/>
<circle cx="114.781" cy="181.24" r="3.00268" transform="rotate(-57.6721 114.781 181.24)" fill="#F68A22"/>
<circle cx="127.626" cy="160.942" r="3.00268" transform="rotate(-57.6721 127.626 160.942)" fill="#F68A22"/>
</g>
<g clip-path="url(#clip5_757_29666)">
<circle cx="96.5414" cy="254.981" r="3.00268" transform="rotate(-57.6721 96.5414 254.981)" fill="#F68A22"/>
<circle cx="109.387" cy="234.682" r="3.00268" transform="rotate(-57.6721 109.387 234.682)" fill="#F68A22"/>
<circle cx="122.233" cy="214.384" r="3.00268" transform="rotate(-57.6721 122.233 214.384)" fill="#F68A22"/>
<circle cx="135.079" cy="194.086" r="3.00268" transform="rotate(-57.6721 135.079 194.086)" fill="#F68A22"/>
<circle cx="147.925" cy="173.788" r="3.00268" transform="rotate(-57.6721 147.925 173.788)" fill="#F68A22"/>
</g>
<g clip-path="url(#clip6_757_29666)">
<circle cx="116.839" cy="267.826" r="3.00268" transform="rotate(-57.6721 116.839 267.826)" fill="#F68A22"/>
<circle cx="129.685" cy="247.528" r="3.00268" transform="rotate(-57.6721 129.685 247.528)" fill="#F68A22"/>
<circle cx="142.531" cy="227.23" r="3.00268" transform="rotate(-57.6721 142.531 227.23)" fill="#F68A22"/>
<circle cx="155.377" cy="206.932" r="3.00268" transform="rotate(-57.6721 155.377 206.932)" fill="#F68A22"/>
<circle cx="168.223" cy="186.634" r="3.00268" transform="rotate(-57.6721 168.223 186.634)" fill="#F68A22"/>
</g>
<g clip-path="url(#clip7_757_29666)">
<circle cx="137.138" cy="280.672" r="3.00268" transform="rotate(-57.6721 137.138 280.672)" fill="#F68A22"/>
<circle cx="149.983" cy="260.374" r="3.00268" transform="rotate(-57.6721 149.983 260.374)" fill="#F68A22"/>
<circle cx="162.829" cy="240.076" r="3.00268" transform="rotate(-57.6721 162.829 240.076)" fill="#F68A22"/>
<circle cx="175.675" cy="219.777" r="3.00268" transform="rotate(-57.6721 175.675 219.777)" fill="#F68A22"/>
<circle cx="188.521" cy="199.48" r="3.00268" transform="rotate(-57.6721 188.521 199.48)" fill="#F68A22"/>
</g>
<g clip-path="url(#clip8_757_29666)">
<circle cx="157.435" cy="293.518" r="3.00268" transform="rotate(-57.6721 157.435 293.518)" fill="#F68A22"/>
<circle cx="170.281" cy="273.219" r="3.00268" transform="rotate(-57.6721 170.281 273.219)" fill="#F68A22"/>
<circle cx="183.127" cy="252.921" r="3.00268" transform="rotate(-57.6721 183.127 252.921)" fill="#F68A22"/>
<circle cx="195.973" cy="232.623" r="3.00268" transform="rotate(-57.6721 195.973 232.623)" fill="#F68A22"/>
<circle cx="208.819" cy="212.325" r="3.00268" transform="rotate(-57.6721 208.819 212.325)" fill="#F68A22"/>
</g>
<g clip-path="url(#clip9_757_29666)">
<circle cx="177.734" cy="306.363" r="3.00268" transform="rotate(-57.6721 177.734 306.363)" fill="#F68A22"/>
<circle cx="190.58" cy="286.065" r="3.00268" transform="rotate(-57.6721 190.58 286.065)" fill="#F68A22"/>
<circle cx="203.425" cy="265.767" r="3.00268" transform="rotate(-57.6721 203.425 265.767)" fill="#F68A22"/>
<circle cx="216.271" cy="245.469" r="3.00268" transform="rotate(-57.6721 216.271 245.469)" fill="#F68A22"/>
<circle cx="229.117" cy="225.171" r="3.00268" transform="rotate(-57.6721 229.117 225.171)" fill="#F68A22"/>
</g>
<g clip-path="url(#clip10_757_29666)">
<circle cx="198.032" cy="319.21" r="3.00268" transform="rotate(-57.6721 198.032 319.21)" fill="#F68A22"/>
<circle cx="210.877" cy="298.911" r="3.00268" transform="rotate(-57.6721 210.877 298.911)" fill="#F68A22"/>
<circle cx="223.723" cy="278.613" r="3.00268" transform="rotate(-57.6721 223.723 278.613)" fill="#F68A22"/>
<circle cx="236.569" cy="258.315" r="3.00268" transform="rotate(-57.6721 236.569 258.315)" fill="#F68A22"/>
</g>
<g clip-path="url(#clip11_757_29666)">
<circle cx="218.33" cy="332.055" r="3.00268" transform="rotate(-57.6721 218.33 332.055)" fill="#F68A22"/>
<circle cx="231.176" cy="311.757" r="3.00268" transform="rotate(-57.6721 231.176 311.757)" fill="#F68A22"/>
</g>
</g>
<g clip-path="url(#clip12_757_29666)">
<g clip-path="url(#clip13_757_29666)">
<circle cx="78.9858" cy="103.042" r="3.00268" transform="rotate(-57.6721 78.9858 103.042)" fill="#F68A22"/>
<circle cx="91.8315" cy="82.7438" r="3.00268" transform="rotate(-57.6721 91.8315 82.7438)" fill="#F68A22"/>
<circle cx="104.677" cy="62.4459" r="3.00268" transform="rotate(-57.6721 104.677 62.4459)" fill="#F68A22"/>
<circle cx="117.523" cy="42.1476" r="3.00268" transform="rotate(-57.6721 117.523 42.1476)" fill="#F68A22"/>
<circle cx="130.369" cy="21.8497" r="3.00268" transform="rotate(-57.6721 130.369 21.8497)" fill="#F68A22"/>
</g>
<g clip-path="url(#clip14_757_29666)">
<circle cx="99.2841" cy="115.888" r="3.00268" transform="rotate(-57.6721 99.2841 115.888)" fill="#F68A22"/>
<circle cx="112.13" cy="95.5895" r="3.00268" transform="rotate(-57.6721 112.13 95.5895)" fill="#F68A22"/>
<circle cx="124.976" cy="75.2916" r="3.00268" transform="rotate(-57.6721 124.976 75.2916)" fill="#F68A22"/>
<circle cx="137.822" cy="54.9933" r="3.00268" transform="rotate(-57.6721 137.822 54.9933)" fill="#F68A22"/>
<circle cx="150.667" cy="34.6954" r="3.00268" transform="rotate(-57.6721 150.667 34.6954)" fill="#F68A22"/>
</g>
<g clip-path="url(#clip15_757_29666)">
<circle cx="119.582" cy="128.734" r="3.00268" transform="rotate(-57.6721 119.582 128.734)" fill="#F68A22"/>
<circle cx="132.428" cy="108.435" r="3.00268" transform="rotate(-57.6721 132.428 108.435)" fill="#F68A22"/>
<circle cx="145.273" cy="88.1373" r="3.00268" transform="rotate(-57.6721 145.273 88.1373)" fill="#F68A22"/>
<circle cx="158.12" cy="67.839" r="3.00268" transform="rotate(-57.6721 158.12 67.839)" fill="#F68A22"/>
<circle cx="170.965" cy="47.5411" r="3.00268" transform="rotate(-57.6721 170.965 47.5411)" fill="#F68A22"/>
</g>
<g clip-path="url(#clip16_757_29666)">
<circle cx="139.88" cy="141.58" r="3.00268" transform="rotate(-57.6721 139.88 141.58)" fill="#F68A22"/>
<circle cx="152.726" cy="121.281" r="3.00268" transform="rotate(-57.6721 152.726 121.281)" fill="#F68A22"/>
<circle cx="165.572" cy="100.983" r="3.00268" transform="rotate(-57.6721 165.572 100.983)" fill="#F68A22"/>
<circle cx="178.418" cy="80.6852" r="3.00268" transform="rotate(-57.6721 178.418 80.6852)" fill="#F68A22"/>
<circle cx="191.264" cy="60.3873" r="3.00268" transform="rotate(-57.6721 191.264 60.3873)" fill="#F68A22"/>
</g>
<g clip-path="url(#clip17_757_29666)">
<circle cx="160.179" cy="154.425" r="3.00268" transform="rotate(-57.6721 160.179 154.425)" fill="#F68A22"/>
<circle cx="173.024" cy="134.127" r="3.00268" transform="rotate(-57.6721 173.024 134.127)" fill="#F68A22"/>
<circle cx="185.87" cy="113.829" r="3.00268" transform="rotate(-57.6721 185.87 113.829)" fill="#F68A22"/>
<circle cx="198.716" cy="93.5309" r="3.00268" transform="rotate(-57.6721 198.716 93.5309)" fill="#F68A22"/>
<circle cx="211.562" cy="73.233" r="3.00268" transform="rotate(-57.6721 211.562 73.233)" fill="#F68A22"/>
</g>
<g clip-path="url(#clip18_757_29666)">
<circle cx="180.476" cy="167.271" r="3.00268" transform="rotate(-57.6721 180.476 167.271)" fill="#F68A22"/>
<circle cx="193.322" cy="146.973" r="3.00268" transform="rotate(-57.6721 193.322 146.973)" fill="#F68A22"/>
<circle cx="206.168" cy="126.675" r="3.00268" transform="rotate(-57.6721 206.168 126.675)" fill="#F68A22"/>
<circle cx="219.014" cy="106.377" r="3.00268" transform="rotate(-57.6721 219.014 106.377)" fill="#F68A22"/>
<circle cx="231.86" cy="86.0787" r="3.00268" transform="rotate(-57.6721 231.86 86.0787)" fill="#F68A22"/>
</g>
<g clip-path="url(#clip19_757_29666)">
<circle cx="200.775" cy="180.117" r="3.00268" transform="rotate(-57.6721 200.775 180.117)" fill="#F68A22"/>
<circle cx="213.621" cy="159.818" r="3.00268" transform="rotate(-57.6721 213.621 159.818)" fill="#F68A22"/>
<circle cx="226.466" cy="139.521" r="3.00268" transform="rotate(-57.6721 226.466 139.521)" fill="#F68A22"/>
</g>
<g clip-path="url(#clip20_757_29666)">
<circle cx="221.073" cy="192.963" r="3.00268" transform="rotate(-57.6721 221.073 192.963)" fill="#F68A22"/>
<circle cx="233.918" cy="172.664" r="3.00268" transform="rotate(-57.6721 233.918 172.664)" fill="#F68A22"/>
</g>
</g>
<defs>
<clipPath id="clip0_757_29666">
<rect width="144" height="311" fill="white" transform="translate(0 222.235) rotate(-57.6721)"/>
</clipPath>
<clipPath id="clip1_757_29666">
<rect width="102.091" height="6.00535" fill="white" transform="translate(11.2056 204.529) rotate(-57.6721)"/>
</clipPath>
<clipPath id="clip2_757_29666">
<rect width="102.091" height="6.00535" fill="white" transform="translate(31.5039 217.375) rotate(-57.6721)"/>
</clipPath>
<clipPath id="clip3_757_29666">
<rect width="102.091" height="6.00535" fill="white" transform="translate(51.8018 230.22) rotate(-57.6721)"/>
</clipPath>
<clipPath id="clip4_757_29666">
<rect width="102.091" height="6.00535" fill="white" transform="translate(72.1001 243.066) rotate(-57.6721)"/>
</clipPath>
<clipPath id="clip5_757_29666">
<rect width="102.091" height="6.00535" fill="white" transform="translate(92.3984 255.912) rotate(-57.6721)"/>
</clipPath>
<clipPath id="clip6_757_29666">
<rect width="102.091" height="6.00535" fill="white" transform="translate(112.696 268.758) rotate(-57.6721)"/>
</clipPath>
<clipPath id="clip7_757_29666">
<rect width="102.091" height="6.00535" fill="white" transform="translate(132.995 281.604) rotate(-57.6721)"/>
</clipPath>
<clipPath id="clip8_757_29666">
<rect width="102.091" height="6.00535" fill="white" transform="translate(153.292 294.449) rotate(-57.6721)"/>
</clipPath>
<clipPath id="clip9_757_29666">
<rect width="102.091" height="6.00535" fill="white" transform="translate(173.591 307.295) rotate(-57.6721)"/>
</clipPath>
<clipPath id="clip10_757_29666">
<rect width="102.091" height="6.00535" fill="white" transform="translate(193.889 320.141) rotate(-57.6721)"/>
</clipPath>
<clipPath id="clip11_757_29666">
<rect width="102.091" height="6.00535" fill="white" transform="translate(214.187 332.987) rotate(-57.6721)"/>
</clipPath>
<clipPath id="clip12_757_29666">
<rect width="144" height="311" fill="white" transform="translate(63.6372 121.68) rotate(-57.6721)"/>
</clipPath>
<clipPath id="clip13_757_29666">
<rect width="102.091" height="6.00535" fill="white" transform="translate(74.8428 103.974) rotate(-57.6721)"/>
</clipPath>
<clipPath id="clip14_757_29666">
<rect width="102.091" height="6.00535" fill="white" transform="translate(95.1411 116.819) rotate(-57.6721)"/>
</clipPath>
<clipPath id="clip15_757_29666">
<rect width="102.091" height="6.00535" fill="white" transform="translate(115.439 129.665) rotate(-57.6721)"/>
</clipPath>
<clipPath id="clip16_757_29666">
<rect width="102.091" height="6.00535" fill="white" transform="translate(135.737 142.511) rotate(-57.6721)"/>
</clipPath>
<clipPath id="clip17_757_29666">
<rect width="102.091" height="6.00535" fill="white" transform="translate(156.036 155.357) rotate(-57.6721)"/>
</clipPath>
<clipPath id="clip18_757_29666">
<rect width="102.091" height="6.00535" fill="white" transform="translate(176.333 168.203) rotate(-57.6721)"/>
</clipPath>
<clipPath id="clip19_757_29666">
<rect width="102.091" height="6.00535" fill="white" transform="translate(196.632 181.048) rotate(-57.6721)"/>
</clipPath>
<clipPath id="clip20_757_29666">
<rect width="102.091" height="6.00535" fill="white" transform="translate(216.93 193.894) rotate(-57.6721)"/>
</clipPath>
</defs>
</svg>
