<svg width="187" height="84" viewBox="0 0 187 84" fill="none" xmlns="http://www.w3.org/2000/svg">
<circle cx="25" cy="2" r="2" fill="#F45D48"/>
<circle cx="57" cy="2" r="2" fill="#F45D48"/>
<circle cx="89" cy="2" r="2" fill="white"/>
<circle cx="121" cy="2" r="2" fill="white"/>
<circle cx="153" cy="2" r="2" fill="white"/>
<circle cx="185" cy="2" r="2" fill="white"/>
<circle cx="25" cy="22" r="2" fill="#F45D48"/>
<circle cx="57" cy="22" r="2" fill="#F45D48"/>
<circle cx="89" cy="22" r="2" fill="#F45D48"/>
<circle cx="121" cy="22" r="2" fill="#F45D48"/>
<circle cx="153" cy="22" r="2" fill="white"/>
<circle cx="185" cy="22" r="2" fill="white"/>
<circle cx="25" cy="42" r="2" fill="#F45D48"/>
<circle cx="57" cy="42" r="2" fill="#F45D48"/>
<circle cx="89" cy="42" r="2" fill="#F45D48"/>
<circle cx="121" cy="42" r="2" fill="#F45D48"/>
<circle cx="153" cy="42" r="2" fill="#F45D48"/>
<circle cx="185" cy="42" r="2" fill="#F45D48"/>
<circle cx="25" cy="62" r="2" fill="#F45D48"/>
<circle cx="57" cy="62" r="2" fill="#F45D48"/>
<circle cx="89" cy="62" r="2" fill="#F45D48"/>
<circle cx="121" cy="62" r="2" fill="#F45D48"/>
<circle cx="153" cy="62" r="2" fill="#F45D48"/>
<circle cx="185" cy="62" r="2" fill="#F45D48"/>
<circle cx="25" cy="82" r="2" fill="#F45D48"/>
<circle cx="57" cy="82" r="2" fill="#F45D48"/>
<circle cx="89" cy="82" r="2" fill="#F45D48"/>
<circle cx="121" cy="82" r="2" fill="#F45D48"/>
<circle cx="153" cy="82" r="2" fill="#F45D48"/>
<circle cx="185" cy="82" r="2" fill="#F45D48"/>
</svg>
