<svg width="340" height="472" viewBox="0 0 340 472" fill="none" xmlns="http://www.w3.org/2000/svg">
<path fill-rule="evenodd" clip-rule="evenodd" d="M29.2932 90.6472C16.745 97.9144 4.93685 107.02 -5.75523 117.965C-16.4473 128.909 -25.3424 140.995 -32.4428 153.84L29.2932 90.6472ZM-44.1888 180.258L55.1024 78.6234C61.8833 76.1721 68.7912 74.1942 75.7771 72.6897L-49.9858 201.421C-48.5151 194.271 -46.5838 187.199 -44.1888 180.258ZM-52.6049 218.496C-53.1515 223.858 -53.4454 229.243 -53.4861 234.627L108.218 69.1067C102.957 69.1488 97.697 69.4495 92.4583 70.0094L-52.6049 218.496ZM121.821 69.5769L-53.0271 248.552C-52.6909 253.114 -52.172 257.663 -51.4711 262.188L135.144 71.1692C130.723 70.4522 126.278 69.9214 121.821 69.5769ZM146.898 73.5319L-49.163 274.22C-48.2418 278.235 -47.174 282.221 -45.9597 286.17L158.573 76.8108C154.715 75.5677 150.82 74.4749 146.898 73.5319ZM168.97 80.5638L-42.2936 296.814C-40.9234 300.399 -39.4266 303.946 -37.8038 307.447L179.359 85.1592C175.938 83.4983 172.473 81.9664 168.97 80.5638ZM188.644 90.0493L-33.027 316.952C-31.2776 320.171 -29.4169 323.344 -27.4426 326.465L197.938 95.7649C194.889 93.7442 191.789 91.8395 188.644 90.0493ZM206.247 101.654L-21.6893 334.97C-19.6022 337.859 -17.4114 340.696 -15.1186 343.473L214.554 108.38C211.841 106.033 209.07 103.791 206.247 101.654ZM221.962 115.192L-8.46337 351.056C-7.57446 352.01 -6.67175 352.956 -5.75522 353.894C-4.18161 355.505 -2.58346 357.076 -0.96225 358.607L229.339 122.87C227.843 121.211 226.308 119.575 224.734 117.965C223.818 117.026 222.894 116.102 221.962 115.192ZM235.874 130.575L6.56419 365.297C9.32145 367.601 12.1355 369.799 15.001 371.89L242.316 139.21C240.273 136.278 238.125 133.397 235.874 130.575ZM247.943 147.845L23.4363 377.65C26.5329 379.624 29.6793 381.481 32.871 383.222L253.386 157.502C251.685 154.235 249.871 151.015 247.943 147.845ZM258.023 167.151L42.2973 387.968C45.7723 389.576 49.291 391.053 52.8458 392.399L262.352 177.948C261.037 174.309 259.594 170.708 258.023 167.151ZM265.852 188.761L63.409 395.981C67.3338 397.162 71.2939 398.188 75.2793 399.06L268.859 200.912C268.007 196.832 267.005 192.779 265.852 188.761ZM270.954 213.162L87.2472 401.204C91.7607 401.837 96.295 402.277 100.838 402.522L272.241 227.073C272.002 222.423 271.573 217.782 270.954 213.162ZM272.385 241.32L114.756 402.669C120.173 402.491 125.582 402.039 130.962 401.31L271.058 257.908C271.769 252.401 272.212 246.864 272.385 241.32ZM267.813 275.623L148.269 397.99C155.687 396.138 163.004 393.745 170.158 390.813L260.802 298.029C263.667 290.706 266.004 283.217 267.813 275.623ZM245.148 328.447L199.874 374.789C208.651 368.79 216.986 361.825 224.734 353.894C232.483 345.963 239.287 337.431 245.148 328.447Z" fill="#C4E8E2"/>
<path d="M39.9431 324.355L-73.1247 440.092H39.9431V324.355Z" fill="#FFC7BF"/>
</svg>
