<svg width="20" height="20" viewBox="0 0 20 20" fill="none" xmlns="http://www.w3.org/2000/svg">
<path d="M16.6667 5.83317V17.4998C16.6667 17.7209 16.579 17.9328 16.4227 18.0891C16.2664 18.2454 16.0544 18.3332 15.8334 18.3332H4.16675C3.94573 18.3332 3.73377 18.2454 3.57749 18.0891C3.42121 17.9328 3.33341 17.7209 3.33341 17.4998V5.83317H2.50008C2.03984 5.83317 1.66675 5.46007 1.66675 4.99984C1.66675 4.5396 2.03984 4.1665 2.50008 4.1665H17.5001C17.9603 4.1665 18.3334 4.5396 18.3334 4.99984C18.3334 5.46007 17.9603 5.83317 17.5001 5.83317H16.6667ZM5.00008 5.83317V16.6665H15.0001V5.83317H5.00008ZM5.83342 2.49984C5.83342 2.0396 6.20651 1.6665 6.66675 1.6665H13.3334C13.7937 1.6665 14.1667 2.0396 14.1667 2.49984C14.1667 2.96007 13.7937 3.33317 13.3334 3.33317H6.66675C6.20651 3.33317 5.83342 2.96007 5.83342 2.49984Z" fill="#FE7F2D"/>
<path d="M9.16667 13.333V9.16634C9.16667 8.7061 8.79357 8.33301 8.33333 8.33301C7.8731 8.33301 7.5 8.70611 7.5 9.16634V13.333C7.5 13.7932 7.8731 14.1663 8.33333 14.1663C8.79357 14.1663 9.16667 13.7932 9.16667 13.333Z" fill="#FE7F2D"/>
<path d="M12.5002 13.333V9.16634C12.5002 8.7061 12.1271 8.33301 11.6668 8.33301C11.2066 8.33301 10.8335 8.70611 10.8335 9.16634V13.333C10.8335 13.7932 11.2066 14.1663 11.6668 14.1663C12.1271 14.1663 12.5002 13.7932 12.5002 13.333Z" fill="#FE7F2D"/>
</svg>
