<svg width="416" height="452" viewBox="0 0 416 452" fill="none" xmlns="http://www.w3.org/2000/svg">
<path fill-rule="evenodd" clip-rule="evenodd" d="M159.514 97.7848C159.514 97.7848 231.542 97.7848 375.6 97.7848C373.716 84.161 364.111 77.3491 346.786 77.3491C320.797 77.3491 297.136 50.6394 267.557 50.6394C237.978 50.6394 237.833 73.9377 213.793 77.3491C189.754 80.7605 159.514 80.7605 159.514 97.7848Z" fill="#006162"/>
<path fill-rule="evenodd" clip-rule="evenodd" d="M81.2349 29.3755C82.2128 32.7956 82.7354 36.3993 82.7354 40.1213C82.7354 43.8434 82.2128 47.4471 81.2349 50.8672L81.2349 29.3755ZM78.7109 57.4047L78.7109 22.838C77.9236 21.2407 77.0306 19.7019 76.0406 18.23L76.0406 62.0127C77.0306 60.5408 77.9236 59.002 78.7109 57.4047ZM73.5167 65.3723C72.6747 66.3794 71.7835 67.3462 70.8465 68.2692L70.8465 11.9735C71.7835 12.8965 72.6747 13.8633 73.5167 14.8704L73.5167 65.3723ZM68.3225 9.68556L68.3225 70.5571C67.4624 71.2743 66.5716 71.9577 65.6523 72.6054L65.6523 7.63732C66.5716 8.28495 67.4624 8.9684 68.3225 9.68556ZM63.1283 5.99299L63.1283 74.2497C62.2592 74.7721 61.3686 75.2642 60.4581 75.7243L60.4581 4.51837C61.3686 4.97853 62.2592 5.47058 63.1283 5.99299ZM57.9341 3.34666L57.9341 76.896C57.0594 77.2672 56.1689 77.6099 55.2639 77.9229L55.2639 2.31981C56.1689 2.63279 57.0594 2.97548 57.9341 3.34666ZM52.74 1.5351L52.74 78.7076C51.8615 78.9507 50.971 79.1663 50.0697 79.3535L50.0697 0.88923C50.971 1.07638 51.8615 1.29201 52.74 1.5351ZM47.5458 0.444413L47.5458 79.7983C46.6645 79.9263 45.7741 80.0273 44.8755 80.1005L44.8755 0.142212C45.7741 0.215388 46.6645 0.316419 47.5458 0.444413ZM42.3516 0.0111246L42.3516 80.2316C42.0246 80.239 41.6966 80.2427 41.3677 80.2427C40.8029 80.2427 40.2406 80.2317 39.6813 80.21L39.6813 0.0327326C40.2407 0.0109802 40.8029 0 41.3677 0C41.6966 0 42.0246 0.00372189 42.3516 0.0111246ZM37.1573 0.205253L37.1573 80.0374C36.2585 79.9493 35.3681 79.8333 34.4871 79.6902L34.4871 0.55246C35.3681 0.409418 36.2585 0.29338 37.1573 0.205253ZM31.9632 1.04136L31.9632 79.2013C31.0614 78.998 30.171 78.7661 29.2929 78.5066L29.2929 1.73609C30.171 1.47661 31.0614 1.24469 31.9632 1.04136ZM26.769 2.56979L26.769 77.6729C25.8633 77.3415 24.9728 76.9803 24.0987 76.5903L24.0987 3.65242C24.9728 3.26244 25.8633 2.90115 26.769 2.56979ZM21.5748 4.88186L21.5748 75.3608C20.6634 74.8783 19.7728 74.3634 18.9046 73.8179L18.9046 6.4248C19.7728 5.87925 20.6634 5.36441 21.5748 4.88186ZM16.3806 8.14329V72.0994C15.4596 71.4214 14.5687 70.7068 13.7104 69.9578L13.7104 10.2848C14.5687 9.53591 15.4596 8.82131 16.3806 8.14329ZM11.1864 12.6827L11.1864 67.56C10.2456 66.587 9.35422 65.5684 8.51618 64.5081V15.7346C9.35422 14.6743 10.2456 13.6557 11.1864 12.6827ZM5.99223 19.3119V60.9308C4.98555 59.3245 4.0919 57.6442 3.32199 55.9002L3.322 24.3424C4.0919 22.5985 4.98555 20.9182 5.99223 19.3119ZM0.798058 32.2396V48.0031C0.274628 45.4546 9.91821e-05 42.8191 9.91821e-05 40.1213C9.91821e-05 37.4236 0.274628 34.7881 0.798058 32.2396Z" fill="#F68A22"/>
<path fill-rule="evenodd" clip-rule="evenodd" d="M217.615 125.489H296.927V202.411H217.615V125.489Z" fill="#388172"/>
<path fill-rule="evenodd" clip-rule="evenodd" d="M252.976 168.241V190.93H229.452V168.241H252.976ZM285.089 168.241V190.93H261.565V168.241H285.089ZM252.976 137.543V160.232H229.452V137.543H252.976ZM285.089 137.543V160.232H261.565V137.543H285.089Z" stroke="#006162" stroke-width="1.78847"/>
<path fill-rule="evenodd" clip-rule="evenodd" d="M17.8708 86.4529V342.597H415V86.4529H17.8708Z" stroke="#006162" stroke-width="1.78847"/>
<path fill-rule="evenodd" clip-rule="evenodd" d="M217.615 216.188H296.927V251.204H217.615V216.188Z" fill="#00A5CE"/>
<path d="M233.004 241.446C236.926 241.446 240.106 238.362 240.106 234.557C240.106 230.753 236.926 227.669 233.004 227.669C229.081 227.669 225.901 230.753 225.901 234.557C225.901 238.362 229.081 241.446 233.004 241.446Z" stroke="#006162" stroke-width="1.78847"/>
<path d="M246.025 229.391H288.64" stroke="#006162" stroke-width="1.78847" stroke-linecap="round"/>
<path d="M246.025 239.723H272.067" stroke="#006162" stroke-width="1.78847" stroke-linecap="round"/>
<path fill-rule="evenodd" clip-rule="evenodd" d="M34.7249 242.86L115.271 221.928L120.547 241.024L40.0005 261.956L34.7249 242.86Z" fill="#E05794"/>
<path fill-rule="evenodd" clip-rule="evenodd" d="M40.1155 245.22L52.6252 241.741L56.2122 253.873L43.7026 257.352L40.1155 245.22Z" stroke="#151C24" stroke-width="1.78847"/>
<path d="M62.8554 248.664L88.2444 241.604M61.105 242.744L105.55 230.383L61.105 242.744Z" stroke="#151C24" stroke-width="1.78847"/>
<path fill-rule="evenodd" clip-rule="evenodd" d="M35.9419 274.592H115.253V294.362H35.9419V274.592Z" stroke="#006162" stroke-width="1.78847"/>
<path fill-rule="evenodd" clip-rule="evenodd" d="M41.1533 278.166H54.1671V290.788H41.1533V278.166Z" stroke="#006162" stroke-width="1.78847"/>
<path d="M62.0332 287.557H88.4454M62.0332 281.398H108.27H62.0332Z" stroke="#006162" stroke-width="1.78847"/>
<path fill-rule="evenodd" clip-rule="evenodd" d="M35.9419 157.635H115.253V177.405H35.9419V157.635Z" stroke="#006162" stroke-width="1.78847"/>
<path fill-rule="evenodd" clip-rule="evenodd" d="M41.1533 161.209H54.1671V173.831H41.1533V161.209Z" stroke="#006162" stroke-width="1.78847"/>
<path d="M62.0332 170.599H88.4454M62.0332 164.44H108.27H62.0332Z" stroke="#006162" stroke-width="1.78847"/>
<path fill-rule="evenodd" clip-rule="evenodd" d="M35.9087 126.063H115.22V145.832H35.9087V126.063Z" stroke="#006162" stroke-width="1.78847"/>
<path fill-rule="evenodd" clip-rule="evenodd" d="M41.1201 129.636H54.1339V142.258H41.1201V129.636Z" stroke="#006162" stroke-width="1.78847"/>
<path d="M62 139.027H88.4122M62 132.868H108.236H62Z" stroke="#006162" stroke-width="1.78847"/>
<path fill-rule="evenodd" clip-rule="evenodd" d="M35.9419 304.945H115.253V324.715H35.9419V304.945Z" stroke="#006162" stroke-width="1.78847"/>
<path fill-rule="evenodd" clip-rule="evenodd" d="M41.1533 308.519H54.1671V321.141H41.1533V308.519Z" stroke="#006162" stroke-width="1.78847"/>
<path d="M62.0332 317.91H88.4454M62.0332 311.751H108.27H62.0332Z" stroke="#006162" stroke-width="1.78847"/>
<path fill-rule="evenodd" clip-rule="evenodd" d="M35.9419 188.562H115.253V208.332H35.9419V188.562Z" stroke="#006162" stroke-width="1.78847"/>
<path fill-rule="evenodd" clip-rule="evenodd" d="M41.1533 192.136H54.1671V204.758H41.1533V192.136Z" stroke="#006162" stroke-width="1.78847"/>
<path d="M62.0332 201.527H88.4454M62.0332 195.368H108.27H62.0332Z" stroke="#006162" stroke-width="1.78847"/>
<path d="M31.5752 101.176C33.7863 101.176 35.5787 99.4375 35.5787 97.2931C35.5787 95.1487 33.7863 93.4103 31.5752 93.4103C29.3642 93.4103 27.5718 95.1487 27.5718 97.2931C27.5718 99.4375 29.3642 101.176 31.5752 101.176Z" stroke="#006162" stroke-width="1.78847"/>
<path d="M34.6072 108.622H415" stroke="#006162" stroke-width="1.78847"/>
<path d="M41.7698 101.176H59.0334" stroke="#006162" stroke-width="1.78847"/>
<path fill-rule="evenodd" clip-rule="evenodd" d="M137.447 222.286H151.452V235.869H137.447V222.286Z" stroke="#006162" stroke-width="1.71566"/>
<path d="M158.051 232.392H182.69M158.051 225.764H204.025H158.051Z" stroke="#006162" stroke-width="1.71566"/>
<path fill-rule="evenodd" clip-rule="evenodd" d="M137.447 247.984H151.452V261.568H137.447V247.984Z" stroke="#006162" stroke-width="1.71566"/>
<path fill-rule="evenodd" clip-rule="evenodd" d="M137.447 273.682H151.452V287.266H137.447V273.682Z" stroke="#006162" stroke-width="1.71566"/>
<path fill-rule="evenodd" clip-rule="evenodd" d="M137.447 299.381H151.452V312.964H137.447V299.381Z" stroke="#006162" stroke-width="1.71566"/>
<path fill-rule="evenodd" clip-rule="evenodd" d="M319.893 196.588H333.898V210.171H319.893V196.588Z" stroke="#006162" stroke-width="1.71566"/>
<path d="M340.725 206.429H364.833M340.725 200.114H385.708H340.725Z" stroke="#006162" stroke-width="1.71566"/>
<path fill-rule="evenodd" clip-rule="evenodd" d="M319.893 222.286H333.898V235.869H319.893V222.286Z" stroke="#006162" stroke-width="1.71566"/>
<path d="M340.725 232.261H364.833M340.725 225.946H385.708H340.725Z" stroke="#006162" stroke-width="1.71566"/>
<path fill-rule="evenodd" clip-rule="evenodd" d="M319.893 247.984H333.898V261.568H319.893V247.984Z" stroke="#006162" stroke-width="1.71566"/>
<path d="M340.725 258.093H364.833M340.725 251.205H385.708H340.725Z" stroke="#006162" stroke-width="1.71566"/>
<path fill-rule="evenodd" clip-rule="evenodd" d="M319.893 273.682H333.898V287.266H319.893V273.682Z" stroke="#006162" stroke-width="1.71566"/>
<path d="M340.725 283.925H364.833M340.725 277.036H385.708H340.725Z" stroke="#006162" stroke-width="1.71566"/>
<path fill-rule="evenodd" clip-rule="evenodd" d="M319.893 299.381H333.898V312.964H319.893V299.381Z" stroke="#006162" stroke-width="1.71566"/>
<path d="M340.725 309.757H364.833M340.725 302.869H385.708H340.725Z" stroke="#006162" stroke-width="1.71566"/>
<path fill-rule="evenodd" clip-rule="evenodd" d="M313.012 126.102H392.709V324.546H313.012V126.102Z" stroke="#006162" stroke-width="1.78847"/>
<path fill-rule="evenodd" clip-rule="evenodd" d="M137.446 196.588H151.452V210.171H137.446V196.588Z" stroke="#006162" stroke-width="1.78847"/>
<path d="M158.051 206.694H182.69M158.051 200.065H204.025H158.051Z" stroke="#006162" stroke-width="1.78847"/>
<path d="M158.051 258.09H182.69M158.051 251.462H204.025H158.051Z" stroke="#006162" stroke-width="1.78847"/>
<path d="M158.051 283.788H182.69M158.051 277.16H204.025H158.051Z" stroke="#006162" stroke-width="1.78847"/>
<path d="M158.051 309.487H182.69M158.051 302.858H204.025H158.051Z" stroke="#006162" stroke-width="1.78847"/>
<path fill-rule="evenodd" clip-rule="evenodd" d="M130.908 126.102H210.604V324.546H130.908V126.102Z" stroke="#006162" stroke-width="1.78847"/>
<path d="M147.181 186.911H194.532" stroke="#006162" stroke-width="1.78847"/>
<path fill-rule="evenodd" clip-rule="evenodd" d="M138.459 117.291H203.052V179.937H138.459V117.291Z" fill="#F0AD2C"/>
<path fill-rule="evenodd" clip-rule="evenodd" d="M320.564 117.291H385.157V179.937H320.564V117.291Z" fill="#7D50B2"/>
<path d="M328.907 186.744H376.257" stroke="#006162" stroke-width="1.71566"/>
<path d="M18.1523 451H414.71" stroke="#151C24" stroke-width="1.71566"/>
<path fill-rule="evenodd" clip-rule="evenodd" d="M167.073 194.112L165.994 201.556L170.427 203.587C171.117 203.74 167.01 217.378 159.423 216.465L159.192 216.436C151.593 215.4 153.166 200.192 154.182 200.289L154.73 190.844L167.073 194.112Z" fill="#FF8B98"/>
<path fill-rule="evenodd" clip-rule="evenodd" d="M165.736 171.271C170.993 171.987 174.656 176.702 173.917 181.8L173.369 185.582L174.897 189.12C175.087 189.561 174.873 190.067 174.419 190.252C174.348 190.281 174.274 190.3 174.198 190.311L172.653 190.521L172.105 194.305C171.796 196.434 169.767 197.917 167.571 197.618C167.47 197.604 167.369 197.587 167.269 197.565L159.684 195.95C156.659 195.305 154.578 192.607 154.795 189.611L155.544 179.273C155.891 174.482 160.176 170.871 165.116 171.208C165.323 171.222 165.53 171.243 165.736 171.271Z" fill="#FF8B98"/>
<path fill-rule="evenodd" clip-rule="evenodd" d="M170.313 180.57L174.066 180.698C176.254 179.278 176.843 177.48 175.83 175.302C175.492 174.574 174.824 173.779 173.932 173.016C173.696 172.814 172.823 174.272 172.557 174.077C169.323 171.699 164.157 169.74 160.334 171.955C155.646 172.363 150.698 177.88 152.506 183.145L152.694 183.698C153.555 186.249 154.174 188.358 154.549 190.024L154.589 190.201C154.611 190.302 154.617 190.967 154.608 192.198C154.601 193.185 155.398 193.995 156.405 194.044L156.501 194.046H158.692C159.723 194.046 160.698 193.594 161.345 192.815L161.727 192.357C163.971 189.681 165.42 188.203 166.072 187.923C166.373 187.794 167.633 188.004 167.988 187.259C168.685 185.799 169.46 183.569 170.313 180.57Z" fill="#273237"/>
<path fill-rule="evenodd" clip-rule="evenodd" d="M155.879 229.868L137.348 251.745C136.676 252.538 136.555 253.643 137.041 254.555L159.146 296.081L150.469 302.611L115.759 264.686C110.816 259.285 109.598 251.575 112.646 244.986L127.616 212.626C131.401 204.443 141.31 200.785 149.748 204.457C150.455 204.765 151.139 205.12 151.796 205.519C159.721 210.345 162.113 220.487 157.138 228.173C156.756 228.763 156.335 229.33 155.879 229.868Z" fill="#FF8B98"/>
<path fill-rule="evenodd" clip-rule="evenodd" d="M137.953 251.08L114.196 241.757L127.547 212.187C130.354 205.97 137.004 202.247 143.958 202.998L145.785 203.196C151.85 203.851 157.039 207.718 159.254 213.233C161.477 218.767 160.416 225.035 156.488 229.59L137.953 251.08Z" fill="#FF5F13"/>
<path fill-rule="evenodd" clip-rule="evenodd" d="M166.642 183.715C166.873 183.746 167.034 183.953 167.001 184.177L166.219 189.575L165.801 189.518C164.148 189.293 162.997 187.811 163.229 186.209C163.461 184.606 164.989 183.489 166.642 183.715Z" fill="#FF8B98"/>
<path fill-rule="evenodd" clip-rule="evenodd" d="M115.908 306.723H200.682V263.005C200.682 262.692 200.678 262.378 200.669 262.065L199.926 233.879C199.411 214.382 183.268 198.678 163.168 198.121C161.863 198.085 160.565 198.077 159.274 198.098C158.66 198.108 158.052 198.125 157.447 198.15C138.197 198.937 122.629 213.623 121.283 232.264L115.908 306.723Z" fill="#FF5F13"/>
<path fill-rule="evenodd" clip-rule="evenodd" d="M179.832 202.627L207.595 217.802C208.517 218.306 209.66 218.229 210.501 217.607L252.263 186.744L261.104 194.517L225.155 238.496C220.53 244.156 212.913 246.658 205.693 244.891L166.143 235.21C156.401 232.825 150.496 223.232 152.955 213.784C153.161 212.992 153.424 212.215 153.741 211.458C157.568 202.323 168.307 197.928 177.725 201.64C178.448 201.925 179.152 202.255 179.832 202.627Z" fill="#FF8B98"/>
<path fill-rule="evenodd" clip-rule="evenodd" d="M252.264 186.745L252.058 184.088C251.885 181.847 253.233 179.756 255.387 178.927L259.583 177.311L266.088 171.887C266.749 171.335 267.739 171.381 268.342 171.992C268.951 172.607 268.973 173.571 268.394 174.213L264.022 179.049L264.813 178.994C266.075 178.907 267.17 179.828 267.261 181.051L267.265 181.13L267.266 181.209L267.959 181.164C269.175 181.084 270.227 181.975 270.31 183.155C270.318 183.277 270.316 183.399 270.303 183.52L270.286 183.641C271.305 183.799 272 184.728 271.837 185.716C271.789 186.006 271.67 186.28 271.489 186.516L267.155 192.139C266.317 193.226 265.071 193.948 263.687 194.147L261.104 194.518L252.264 186.745Z" fill="#FF8B98"/>
<path fill-rule="evenodd" clip-rule="evenodd" d="M206.615 217.228L200.812 243.64L165.672 235.365C158.284 233.625 152.921 227.426 152.438 220.067L152.311 218.135C151.89 211.716 155.177 205.602 160.844 202.263C166.529 198.912 173.644 198.83 179.411 202.048L206.615 217.228Z" fill="#FF5F13"/>
<path fill-rule="evenodd" clip-rule="evenodd" d="M159.273 198.098C160.565 198.077 161.863 198.085 163.168 198.121C167.249 198.234 171.168 198.972 174.825 200.239C176.41 200.632 177.953 201.234 179.411 202.048L206.616 217.228L200.812 243.64L200.179 243.491L200.669 262.065C200.673 262.222 200.676 262.378 200.678 262.535L200.682 263.005V306.723H115.908L120.421 244.2L114.196 241.757L127.547 212.187C129.829 207.132 134.652 203.726 140.114 203.033C145.252 200.151 151.153 198.407 157.447 198.15C158.051 198.125 158.66 198.108 159.273 198.098Z" fill="#0A8080"/>
<path fill-rule="evenodd" clip-rule="evenodd" d="M130.34 260.265C147.255 260.265 160.967 273.564 160.967 289.97C160.967 296.185 158.999 301.954 155.635 306.724H154.246C157.76 302.015 159.832 296.227 159.832 289.97C159.832 274.172 146.628 261.366 130.34 261.366C126.33 261.366 122.508 262.142 119.024 263.547L119.112 262.324C122.589 260.995 126.376 260.265 130.34 260.265ZM195.282 290.228C197.124 290.228 198.929 290.386 200.682 290.688V291.808C198.931 291.494 197.126 291.33 195.282 291.33C183.908 291.33 174.037 297.575 169.117 306.723H167.842C172.856 296.946 183.26 290.228 195.282 290.228ZM206.112 219.52L205.868 220.627C189.926 221.011 177.123 233.666 177.123 249.221C177.123 263.047 187.237 274.582 200.681 277.245L200.681 278.369C186.606 275.689 175.988 263.658 175.988 249.221C175.988 232.979 189.429 219.781 206.112 219.52ZM171.674 223.2C171.674 239.606 157.962 252.905 141.047 252.905C133.07 252.905 125.806 249.948 120.356 245.102L120.421 244.2L118.717 243.531C117.453 242.227 116.31 240.811 115.304 239.302L115.855 238.082C121.034 246.311 130.379 251.804 141.047 251.804C157.335 251.804 170.539 238.998 170.539 223.2C170.539 212.506 164.488 203.183 155.525 198.275C156.002 198.233 156.482 198.198 156.964 198.173L157.509 198.147C166.026 203.423 171.674 212.672 171.674 223.2Z" fill="#8AC7C8"/>
<path d="M200.812 243.641L165.672 235.365C158.284 233.625 152.921 227.426 152.438 220.067" stroke="#151C24" stroke-width="1.14377" stroke-linecap="round" stroke-linejoin="round"/>
<path d="M120.607 244.314L121.363 232.758" stroke="#151C24" stroke-width="1.14377" stroke-linecap="round" stroke-linejoin="round"/>
<path d="M157.426 342.677L154.848 438.415H123.96L116.852 307.617H199.762L194.018 438.415H163.127L159.214 342.664L157.426 342.677Z" fill="#1F1F1F" stroke="#006162" stroke-width="1.78847"/>
<path fill-rule="evenodd" clip-rule="evenodd" d="M164.25 439.309H190.678L191.012 442.508L193.55 442.34C198.081 442.039 202.006 445.358 202.316 449.752C202.337 450.051 202.34 450.35 202.327 450.649L202.313 450.873H166.028C164.565 450.873 163.379 449.722 163.379 448.303C163.379 448.222 163.383 448.14 163.391 448.059L164.25 439.309Z" fill="#006162"/>
<path fill-rule="evenodd" clip-rule="evenodd" d="M123.421 439.309H149.849L150.182 442.508L152.721 442.34C157.252 442.039 161.176 445.358 161.487 449.752C161.508 450.051 161.511 450.35 161.498 450.649L161.484 450.873H125.199C123.736 450.873 122.55 449.722 122.55 448.303C122.55 448.222 122.554 448.14 122.562 448.059L123.421 439.309Z" fill="#006162"/>
</svg>
