<svg width="22" height="21" viewBox="0 0 22 21" fill="none" xmlns="http://www.w3.org/2000/svg">
<path d="M20.5703 15.9688C21.1172 16.5547 21.1172 17.4531 20.5703 18.0391L18.5 20.1094C17.9141 20.6562 17.0156 20.6562 16.4297 20.1094L11.8594 15.5C10.9609 14.6016 10.8047 13.2734 11.3125 12.1797L7.17188 8H4.75L1 3L3.5 0.5L8.5 4.25V6.71094L12.6406 10.8516C13.7344 10.3047 15.0625 10.5 16 11.3984L20.5703 15.9688ZM13.9297 9.28906C13.6172 9.28906 13.3047 9.32812 12.9922 9.40625L9.75 6.20312C9.75 4.75781 10.2578 3.27344 11.3906 2.17969C12.8359 0.734375 14.8672 0.226562 16.7031 0.695312C17.0547 0.773438 17.2109 1.20312 16.9375 1.47656L14.0469 4.36719L14.4766 7.02344L17.1328 7.49219L20.0234 4.5625C20.2969 4.32812 20.7266 4.44531 20.8047 4.79688C21.2734 6.63281 20.7656 8.66406 19.3203 10.1094C18.8125 10.6172 18.2266 11.0078 17.6406 11.2812L16.8594 10.5C16.0781 9.71875 15.0625 9.28906 13.9297 9.28906ZM9.86719 12.4922C9.67188 13.3516 9.78906 14.1719 10.0625 14.9531L5.25781 19.7969C4.28125 20.7734 2.67969 20.7734 1.70312 19.7969C0.726562 18.8203 0.726562 17.2188 1.70312 16.2422L7.67969 10.3047L9.86719 12.4922ZM3.5 18.9375C4.00781 18.9375 4.4375 18.5469 4.4375 18C4.4375 17.4922 4.00781 17.0625 3.5 17.0625C2.95312 17.0625 2.5625 17.4922 2.5625 18C2.5625 18.5469 2.95312 18.9375 3.5 18.9375Z" fill="#6C84F5"/>
</svg>
