<svg width="16" height="16" viewBox="0 0 16 16" fill="none" xmlns="http://www.w3.org/2000/svg">
<path fill-rule="evenodd" clip-rule="evenodd" d="M8.0002 1.3335C8.48095 1.3335 8.92448 1.5923 9.161 2.01085L10.7846 4.88385L13.5895 5.43261C14.0782 5.52821 14.4729 5.88811 14.613 6.3659C14.7531 6.8437 14.6153 7.35976 14.2557 7.70413L12.1223 9.74711L12.6158 13.1417C12.6874 13.6341 12.4789 14.1254 12.0749 14.4159C11.6709 14.7065 11.1388 14.7479 10.6947 14.5234L8.0002 13.1609L5.30566 14.5234C4.8616 14.7479 4.32946 14.7065 3.9255 14.4159C3.52153 14.1254 3.31297 13.6341 3.38456 13.1417L3.87809 9.74711L1.74469 7.70413C1.38507 7.35976 1.2473 6.8437 1.38742 6.3659C1.52755 5.88811 1.92222 5.52821 2.41087 5.43261L5.21583 4.88385L6.8394 2.01085C7.07592 1.5923 7.51945 1.3335 8.0002 1.3335ZM6.0745 6.07447L2.66687 6.74113L5.29638 9.25919L4.70402 13.3335L8.0002 11.6668L11.2964 13.3335L10.704 9.25919L13.3335 6.74113L9.9259 6.07447L8.0002 2.66683L6.0745 6.07447Z" fill="#00A5CE"/>
</svg>
