<svg width="141" height="301" viewBox="0 0 141 301" fill="none" xmlns="http://www.w3.org/2000/svg">
<path d="M77.1443 168.492C77.2109 168.009 77.2565 167.467 77.3009 166.907C75.7951 167.74 74.3773 168.139 73.0988 168.248L73.0988 168.248L73.0944 168.248C71.0338 168.37 69.205 167.666 67.7177 166.404L67.717 166.403C65.6511 164.633 64.2755 161.867 63.6844 158.934L63.6838 158.931C63.2564 156.664 63.3347 154.273 64.0148 152.369C64.5415 150.79 65.4643 149.51 66.6756 148.602L66.676 148.602C67.9588 147.647 69.6529 147.099 71.7889 147.369C75.4567 147.755 77.7388 150.069 79.0647 153.315L79.0649 153.315C79.9701 155.543 80.3846 158.178 80.53 160.797C81.1499 160.084 81.789 159.278 82.4501 158.376C88.1108 150.311 90.9204 138.018 91.7888 125.109C92.439 115.296 91.9421 105.143 90.6458 96.2535C89.3488 87.3589 87.2544 79.748 84.7203 75.0069L84.8834 74.9016L84.7203 75.0069C84.5473 74.6832 84.579 74.2694 84.7263 73.9011C84.876 73.5268 85.1568 73.1638 85.541 72.9115C85.9252 72.6592 86.3479 72.5603 86.717 72.5945C87.0803 72.6282 87.4243 72.7967 87.5976 73.1211C90.2326 78.0504 92.3943 85.8754 93.7344 94.9698C95.0751 104.069 95.5962 114.458 94.9391 124.527L94.939 124.528C94.0201 138.048 90.9336 151.054 84.9047 159.521L84.9035 159.523C83.4009 161.589 81.9707 163.293 80.5565 164.561C80.4889 165.779 80.4079 167.006 80.275 168.061C77.9676 187.215 69.8294 208.876 56.3148 226.948L56.3148 226.948L56.314 226.949C56.0444 227.305 55.6777 227.575 55.2978 227.721C54.9201 227.865 54.5089 227.894 54.1602 227.731C53.8067 227.566 53.597 227.251 53.5639 226.871C53.5317 226.503 53.6675 226.105 53.9367 225.749C67.015 208.102 74.9078 187.092 77.1438 168.496L77.1443 168.492ZM73.7663 165.291C74.8808 165.18 76.1095 164.696 77.4471 163.729C77.4844 160.79 77.1086 157.512 76.0884 154.992C75.0936 152.539 73.4395 150.663 70.6091 150.292C69.5678 150.228 68.7498 150.359 68.1188 150.77C67.5375 151.257 67.1564 151.918 66.898 152.718C66.4545 154.174 66.4714 155.977 66.8007 157.701C67.2988 160.177 68.4473 162.53 70.1432 163.972C71.1437 164.803 72.3676 165.368 73.7663 165.291Z" fill="#F68A22" stroke="#F68A22" stroke-width="0.5"/>
<path d="M73.5536 214.86L73.5536 214.86L73.5559 214.859C73.9177 214.687 74.2937 214.632 74.6116 214.691C74.9265 214.749 75.2149 214.928 75.3271 215.25C75.4525 215.585 75.3875 215.951 75.2161 216.263C75.0434 216.576 74.7535 216.854 74.3885 217.027C67.8993 220.268 61.2133 224.731 56.3295 229.919L56.3296 229.919L56.3237 229.925C56.044 230.196 55.6923 230.387 55.3448 230.474C55.0013 230.56 54.6362 230.55 54.3466 230.382L54.3408 230.378L54.3353 230.375C54.0268 230.167 53.8703 229.85 53.8794 229.507C53.8883 229.174 54.0517 228.841 54.3325 228.567C59.5558 223.064 66.6387 218.266 73.5536 214.86Z" fill="#F68A22" stroke="#F68A22" stroke-width="0.5"/>
<path d="M53.4371 207.997L53.4371 207.997L53.4358 207.992C53.3202 207.634 53.4089 207.218 53.6051 206.861C53.8043 206.498 54.1294 206.163 54.5418 205.953L54.5419 205.953C54.9492 205.745 55.373 205.678 55.7359 205.76C56.1021 205.843 56.4139 206.081 56.5539 206.48L56.5545 206.482C58.7445 212.902 59.669 221.193 55.6814 229.112L55.6815 229.112L55.6783 229.118C55.4676 229.506 55.1267 229.818 54.7524 230.02C54.3787 230.22 53.9542 230.319 53.5685 230.256C53.171 230.191 52.8702 229.943 52.734 229.588C52.5993 229.236 52.6394 228.815 52.8509 228.423C56.4379 221.312 55.4599 213.886 53.4371 207.997Z" fill="#F68A22" stroke="#F68A22" stroke-width="0.5"/>
</svg>
