<svg width="261" height="97" viewBox="0 0 261 97" fill="none" xmlns="http://www.w3.org/2000/svg">
<circle cx="2" cy="2" r="2" transform="matrix(-0.999943 0.01065 -0.0100546 -0.999949 260.93 94.231)" fill="#14A38B"/>
<circle cx="2" cy="2" r="2" transform="matrix(-0.999943 0.01065 -0.0100546 -0.999949 228.932 94.5718)" fill="#14A38B"/>
<circle cx="2" cy="2" r="2" transform="matrix(-0.999943 0.01065 -0.0100546 -0.999949 196.933 94.9125)" fill="#14A38B"/>
<circle cx="2" cy="2" r="2" transform="matrix(-0.999943 0.01065 -0.0100546 -0.999949 164.935 95.2534)" fill="#14A38B"/>
<circle cx="2" cy="2" r="2" transform="matrix(-0.999943 0.01065 -0.0100546 -0.999949 132.937 95.5942)" fill="#14A38B"/>
<circle cx="2" cy="2" r="2" transform="matrix(-0.999943 0.01065 -0.0100546 -0.999949 100.939 95.9349)" fill="#14A38B"/>
<circle cx="2" cy="2" r="2" transform="matrix(-0.999943 0.01065 -0.0100546 -0.999949 68.9406 96.2758)" fill="#14A38B"/>
<circle cx="2" cy="2" r="2" transform="matrix(-0.999943 0.01065 -0.0100546 -0.999949 36.9424 96.6166)" fill="#14A38B"/>
<circle cx="2" cy="2" r="2" transform="matrix(-0.999943 0.01065 -0.0100546 -0.999949 4.94421 96.9573)" fill="#14A38B"/>
<circle cx="2" cy="2" r="2" transform="matrix(-0.999943 0.01065 -0.0100546 -0.999949 260.729 74.2319)" fill="#14A38B"/>
<circle cx="2" cy="2" r="2" transform="matrix(-0.999943 0.01065 -0.0100546 -0.999949 228.73 74.5728)" fill="#14A38B"/>
<circle cx="2" cy="2" r="2" transform="matrix(-0.999943 0.01065 -0.0100546 -0.999949 196.732 74.9136)" fill="#14A38B"/>
<circle cx="2" cy="2" r="2" transform="matrix(-0.999943 0.01065 -0.0100546 -0.999949 164.734 75.2543)" fill="#14A38B"/>
<circle cx="2" cy="2" r="2" transform="matrix(-0.999943 0.01065 -0.0100546 -0.999949 132.736 75.5951)" fill="#14A38B"/>
<circle cx="2" cy="2" r="2" transform="matrix(-0.999943 0.01065 -0.0100546 -0.999949 100.738 75.9359)" fill="#14A38B"/>
<circle cx="2" cy="2" r="2" transform="matrix(-0.999943 0.01065 -0.0100546 -0.999949 68.7395 76.2767)" fill="#14A38B"/>
<circle cx="2" cy="2" r="2" transform="matrix(-0.999943 0.01065 -0.0100546 -0.999949 36.7413 76.6176)" fill="#14A38B"/>
<circle cx="2" cy="2" r="2" transform="matrix(-0.999943 0.01065 -0.0100546 -0.999949 4.74304 76.9584)" fill="#14A38B"/>
<circle cx="2" cy="2" r="2" transform="matrix(-0.999943 0.01065 -0.0100546 -0.999949 260.528 54.233)" fill="#14A38B"/>
<circle cx="2" cy="2" r="2" transform="matrix(-0.999943 0.01065 -0.0100546 -0.999949 228.529 54.5739)" fill="#14A38B"/>
<circle cx="2" cy="2" r="2" transform="matrix(-0.999943 0.01065 -0.0100546 -0.999949 196.531 54.9147)" fill="#14A38B"/>
<circle cx="2" cy="2" r="2" transform="matrix(-0.999943 0.01065 -0.0100546 -0.999949 164.533 55.2554)" fill="#14A38B"/>
<circle cx="2" cy="2" r="2" transform="matrix(-0.999943 0.01065 -0.0100546 -0.999949 132.535 55.5962)" fill="#14A38B"/>
<circle cx="2" cy="2" r="2" transform="matrix(-0.999943 0.01065 -0.0100546 -0.999949 100.537 55.937)" fill="#14A38B"/>
<circle cx="2" cy="2" r="2" transform="matrix(-0.999943 0.01065 -0.0100546 -0.999949 68.5385 56.2778)" fill="#14A38B"/>
<circle cx="2" cy="2" r="2" transform="matrix(-0.999943 0.01065 -0.0100546 -0.999949 36.5403 56.6187)" fill="#14A38B"/>
<circle cx="2" cy="2" r="2" transform="matrix(-0.999943 0.01065 -0.0100546 -0.999949 4.54199 56.9595)" fill="#14A38B"/>
<circle cx="2" cy="2" r="2" transform="matrix(-0.999943 0.01065 -0.0100546 -0.999949 260.326 34.234)" fill="#14A38B"/>
<circle cx="2" cy="2" r="2" transform="matrix(-0.999943 0.01065 -0.0100546 -0.999949 228.328 34.5748)" fill="#14A38B"/>
<circle cx="2" cy="2" r="2" transform="matrix(-0.999943 0.01065 -0.0100546 -0.999949 196.33 34.9156)" fill="#14A38B"/>
<circle cx="2" cy="2" r="2" transform="matrix(-0.999943 0.01065 -0.0100546 -0.999949 164.332 35.2563)" fill="#14A38B"/>
<circle cx="2" cy="2" r="2" transform="matrix(-0.999943 0.01065 -0.0100546 -0.999949 132.334 35.5972)" fill="#14A38B"/>
<circle cx="2" cy="2" r="2" transform="matrix(-0.999943 0.01065 -0.0100546 -0.999949 100.336 35.938)" fill="#14A38B"/>
<circle cx="2" cy="2" r="2" transform="matrix(-0.999943 0.01065 -0.0100546 -0.999949 68.3373 36.2788)" fill="#14A38B"/>
<circle cx="2" cy="2" r="2" transform="matrix(-0.999943 0.01065 -0.0100546 -0.999949 36.3391 36.6196)" fill="#14A38B"/>
<circle cx="2" cy="2" r="2" transform="matrix(-0.999943 0.01065 -0.0100546 -0.999949 4.34094 36.9604)" fill="#14A38B"/>
<circle cx="2" cy="2" r="2" transform="matrix(-0.999943 0.01065 -0.0100546 -0.999949 260.125 14.235)" fill="#14A38B"/>
<circle cx="2" cy="2" r="2" transform="matrix(-0.999943 0.01065 -0.0100546 -0.999949 228.127 14.5758)" fill="#14A38B"/>
<circle cx="2" cy="2" r="2" transform="matrix(-0.999943 0.01065 -0.0100546 -0.999949 196.129 14.9166)" fill="#14A38B"/>
<circle cx="2" cy="2" r="2" transform="matrix(-0.999943 0.01065 -0.0100546 -0.999949 164.131 15.2573)" fill="#14A38B"/>
<circle cx="2" cy="2" r="2" transform="matrix(-0.999943 0.01065 -0.0100546 -0.999949 132.133 15.5981)" fill="#14A38B"/>
<circle cx="2" cy="2" r="2" transform="matrix(-0.999943 0.01065 -0.0100546 -0.999949 100.134 15.939)" fill="#14A38B"/>
<circle cx="2" cy="2" r="2" transform="matrix(-0.999943 0.01065 -0.0100546 -0.999949 68.1362 16.2798)" fill="#14A38B"/>
<circle cx="2" cy="2" r="2" transform="matrix(-0.999943 0.01065 -0.0100546 -0.999949 36.1381 16.6206)" fill="#14A38B"/>
<circle cx="2" cy="2" r="2" transform="matrix(-0.999943 0.01065 -0.0100546 -0.999949 4.13977 16.9614)" fill="#14A38B"/>
</svg>
