<svg width="561" height="366" viewBox="0 0 561 366" fill="none" xmlns="http://www.w3.org/2000/svg">
<path fill-rule="evenodd" clip-rule="evenodd" d="M366.541 45.7348C385.523 46.707 400.611 56.3011 415.7 67.0741C465.184 102.452 481.734 157.342 447.825 211.281C395.096 294.928 272.278 349.674 177.042 324.408C155.95 318.84 127.395 313.933 106.466 286.741C86.9968 261.458 87.808 231.401 96.7313 203.575C105.817 175.045 123.339 148.786 137.292 131.908C198.295 58.2649 320.464 -8.66628 430.951 26.6193C433.223 27.2992 435.495 26.13 436.144 24.008C436.793 21.886 435.656 19.6106 433.547 18.9307C319.815 -17.3835 193.752 50.9849 130.964 126.774C113.604 147.821 90.8912 182.954 84.4015 219.306C80.021 244.151 83.1029 269.549 99.9762 291.642C122.203 320.607 152.543 326.28 174.933 332.21C273.252 358.305 400.287 301.96 454.638 215.569C491.143 157.594 473.621 98.5405 420.406 60.5144C404.181 48.8258 387.632 38.7246 367.027 37.6716C364.756 37.557 362.81 39.2704 362.81 41.4957C362.647 43.7211 364.432 45.6202 366.541 45.7348Z" fill="#F68A22"/>
<g filter="url(#filter0_bi_757_29344)">
<rect x="165" y="0.756104" width="175" height="76" rx="14" fill="#006162"/>
<path d="M198.081 48.7561V28.3925L210.709 28.3925V31.0374L201.153 31.0374V37.2419H209.804V39.8768H201.153V48.7561H198.081ZM214.057 48.7561V33.4834H216.931V35.9095H217.09C217.368 35.0875 217.859 34.4412 218.561 33.9706C219.271 33.4933 220.073 33.2547 220.968 33.2547C221.153 33.2547 221.372 33.2613 221.624 33.2746C221.882 33.2878 222.085 33.3044 222.23 33.3243V36.168C222.111 36.1349 221.899 36.0984 221.594 36.0587C221.289 36.0123 220.984 35.9891 220.679 35.9891C219.977 35.9891 219.35 36.1382 218.8 36.4365C218.256 36.7282 217.826 37.1358 217.507 37.6595C217.189 38.1766 217.03 38.7665 217.03 39.4294V48.7561H214.057ZM229.111 49.0942C228.143 49.0942 227.268 48.9152 226.486 48.5572C225.704 48.1927 225.084 47.6657 224.627 46.9763C224.176 46.2869 223.951 45.4417 223.951 44.4408C223.951 43.579 224.116 42.8697 224.448 42.3129C224.779 41.7561 225.227 41.3153 225.79 40.9905C226.354 40.6657 226.983 40.4204 227.679 40.2547C228.375 40.089 229.085 39.963 229.807 39.8768C230.722 39.7708 231.464 39.6846 232.034 39.6183C232.604 39.5454 233.019 39.4294 233.277 39.2703C233.536 39.1112 233.665 38.8527 233.665 38.4947V38.4251C233.665 37.5568 233.42 36.8839 232.929 36.4067C232.445 35.9294 231.723 35.6908 230.762 35.6908C229.761 35.6908 228.972 35.9128 228.395 36.357C227.825 36.7945 227.431 37.2817 227.212 37.8186L224.418 37.1822C224.749 36.2542 225.233 35.5052 225.87 34.9351C226.513 34.3584 227.252 33.9408 228.087 33.6822C228.922 33.4171 229.801 33.2845 230.722 33.2845C231.332 33.2845 231.978 33.3574 232.661 33.5033C233.35 33.6425 233.993 33.901 234.59 34.2788C235.193 34.6567 235.687 35.1969 236.071 35.8996C236.456 36.5956 236.648 37.5004 236.648 38.6141V48.7561H233.745V46.668H233.625C233.433 47.0525 233.145 47.4303 232.76 47.8016C232.376 48.1728 231.882 48.481 231.279 48.7263C230.676 48.9715 229.953 49.0942 229.111 49.0942ZM229.757 46.7078C230.579 46.7078 231.282 46.5454 231.865 46.2206C232.455 45.8958 232.903 45.4715 233.208 44.9479C233.519 44.4176 233.675 43.8508 233.675 43.2476V41.2788C233.569 41.3849 233.363 41.4843 233.059 41.5771C232.76 41.6633 232.419 41.7395 232.034 41.8058C231.65 41.8655 231.275 41.9218 230.911 41.9749C230.546 42.0213 230.241 42.061 229.996 42.0942C229.419 42.1671 228.892 42.2897 228.415 42.4621C227.944 42.6344 227.567 42.883 227.282 43.2078C227.003 43.526 226.864 43.9502 226.864 44.4805C226.864 45.2163 227.136 45.7731 227.679 46.151C228.223 46.5222 228.916 46.7078 229.757 46.7078ZM243.581 39.6879V48.7561H240.608V33.4834H243.462V35.9692H243.651C244.002 35.1605 244.552 34.5108 245.301 34.0203C246.057 33.5298 247.008 33.2845 248.155 33.2845C249.196 33.2845 250.107 33.5033 250.889 33.9408C251.671 34.3716 252.278 35.0146 252.709 35.8697C253.14 36.7249 253.355 37.7821 253.355 39.0416V48.7561H250.382V39.3996C250.382 38.2926 250.094 37.4275 249.517 36.8044C248.94 36.1747 248.148 35.8598 247.141 35.8598C246.451 35.8598 245.838 36.0089 245.301 36.3072C244.771 36.6055 244.35 37.043 244.038 37.6197C243.733 38.1898 243.581 38.8792 243.581 39.6879ZM263.776 49.0643C262.297 49.0643 261.025 48.7296 259.957 48.0601C258.897 47.3839 258.081 46.4526 257.511 45.266C256.941 44.0795 256.656 42.7206 256.656 41.1893C256.656 39.6382 256.948 38.2694 257.531 37.0828C258.115 35.8896 258.937 34.9583 259.997 34.2888C261.058 33.6193 262.307 33.2845 263.746 33.2845C264.906 33.2845 265.94 33.4999 266.848 33.9308C267.756 34.3551 268.489 34.9517 269.045 35.7206C269.609 36.4895 269.944 37.3877 270.05 38.4152H267.156C266.997 37.6993 266.633 37.0828 266.062 36.5658C265.499 36.0487 264.743 35.7902 263.795 35.7902C262.967 35.7902 262.241 36.0089 261.618 36.4464C261.001 36.8773 260.521 37.4938 260.176 38.2959C259.831 39.0913 259.659 40.0326 259.659 41.1197C259.659 42.2334 259.828 43.1946 260.166 44.0033C260.504 44.812 260.982 45.4384 261.598 45.8825C262.221 46.3267 262.954 46.5487 263.795 46.5487C264.359 46.5487 264.869 46.446 265.327 46.2405C265.791 46.0284 266.178 45.7267 266.49 45.3356C266.808 44.9446 267.03 44.4739 267.156 43.9237H270.05C269.944 44.9114 269.622 45.793 269.085 46.5686C268.548 47.3442 267.829 47.954 266.928 48.3981C266.033 48.8423 264.982 49.0643 263.776 49.0643ZM262.702 48.6766H264.651L264.491 49.4919C265.068 49.5847 265.572 49.8167 266.003 50.1879C266.434 50.5591 266.649 51.1193 266.649 51.8683C266.656 52.7632 266.268 53.4891 265.486 54.0459C264.71 54.6027 263.587 54.8811 262.115 54.8811L262.055 53.2206C262.745 53.2206 263.302 53.1212 263.726 52.9223C264.157 52.7234 264.375 52.4019 264.382 51.9578C264.389 51.5137 264.223 51.2021 263.885 51.0231C263.553 50.8442 263.023 50.7182 262.294 50.6453L262.702 48.6766ZM277.674 49.0942C276.706 49.0942 275.831 48.9152 275.049 48.5572C274.266 48.1927 273.647 47.6657 273.189 46.9763C272.738 46.2869 272.513 45.4417 272.513 44.4408C272.513 43.579 272.679 42.8697 273.01 42.3129C273.342 41.7561 273.789 41.3153 274.353 40.9905C274.916 40.6657 275.546 40.4204 276.242 40.2547C276.938 40.089 277.647 39.963 278.37 39.8768C279.284 39.7708 280.027 39.6846 280.597 39.6183C281.167 39.5454 281.581 39.4294 281.84 39.2703C282.098 39.1112 282.228 38.8527 282.228 38.4947V38.4251C282.228 37.5568 281.982 36.8839 281.492 36.4067C281.008 35.9294 280.285 35.6908 279.324 35.6908C278.323 35.6908 277.534 35.9128 276.958 36.357C276.388 36.7945 275.993 37.2817 275.774 37.8186L272.98 37.1822C273.312 36.2542 273.796 35.5052 274.432 34.9351C275.075 34.3584 275.814 33.9408 276.649 33.6822C277.485 33.4171 278.363 33.2845 279.284 33.2845C279.894 33.2845 280.541 33.3574 281.223 33.5033C281.913 33.6425 282.556 33.901 283.152 34.2788C283.756 34.6567 284.249 35.1969 284.634 35.8996C285.018 36.5956 285.211 37.5004 285.211 38.6141V48.7561H282.307V46.668H282.188C281.996 47.0525 281.707 47.4303 281.323 47.8016C280.938 48.1728 280.444 48.481 279.841 48.7263C279.238 48.9715 278.515 49.0942 277.674 49.0942ZM278.32 46.7078C279.142 46.7078 279.845 46.5454 280.428 46.2206C281.018 45.8958 281.465 45.4715 281.77 44.9479C282.082 44.4176 282.238 43.8508 282.238 43.2476V41.2788C282.131 41.3849 281.926 41.4843 281.621 41.5771C281.323 41.6633 280.981 41.7395 280.597 41.8058C280.212 41.8655 279.838 41.9218 279.473 41.9749C279.109 42.0213 278.804 42.061 278.559 42.0942C277.982 42.1671 277.455 42.2897 276.978 42.4621C276.507 42.6344 276.129 42.883 275.844 43.2078C275.566 43.526 275.426 43.9502 275.426 44.4805C275.426 45.2163 275.698 45.7731 276.242 46.151C276.785 46.5222 277.478 46.7078 278.32 46.7078ZM289.17 48.7561V33.4834H292.143V48.7561H289.17ZM290.672 31.1268C290.155 31.1268 289.711 30.9545 289.339 30.6098C288.975 30.2585 288.793 29.8409 288.793 29.357C288.793 28.8664 288.975 28.4488 289.339 28.1041C289.711 27.7528 290.155 27.5771 290.672 27.5771C291.189 27.5771 291.63 27.7528 291.994 28.1041C292.366 28.4488 292.551 28.8664 292.551 29.357C292.551 29.8409 292.366 30.2585 291.994 30.6098C291.63 30.9545 291.189 31.1268 290.672 31.1268ZM307.588 37.2121L304.893 37.6893C304.78 37.3446 304.601 37.0165 304.356 36.705C304.118 36.3934 303.793 36.1382 303.382 35.9393C302.971 35.7405 302.457 35.641 301.841 35.641C300.999 35.641 300.296 35.83 299.733 36.2078C299.169 36.579 298.887 37.0596 298.887 37.6496C298.887 38.16 299.076 38.571 299.454 38.8825C299.832 39.1941 300.442 39.4493 301.284 39.6481L303.71 40.205C305.115 40.5298 306.163 41.0303 306.852 41.7064C307.541 42.3825 307.886 43.2608 307.886 44.3413C307.886 45.2561 307.621 46.0714 307.091 46.7874C306.567 47.4966 305.834 48.0535 304.893 48.4578C303.958 48.8622 302.875 49.0643 301.642 49.0643C299.931 49.0643 298.536 48.6998 297.456 47.9706C296.375 47.2348 295.712 46.1908 295.467 44.8385L298.341 44.401C298.52 45.15 298.887 45.7168 299.444 46.1013C300.001 46.4791 300.727 46.668 301.622 46.668C302.596 46.668 303.375 46.4659 303.958 46.0615C304.542 45.6505 304.833 45.15 304.833 44.5601C304.833 44.0828 304.654 43.6818 304.296 43.357C303.945 43.0321 303.405 42.7869 302.676 42.6212L300.091 42.0544C298.665 41.7296 297.611 41.2125 296.929 40.5033C296.252 39.794 295.914 38.8958 295.914 37.8087C295.914 36.9071 296.166 36.1183 296.67 35.4422C297.174 34.766 297.87 34.2391 298.758 33.8612C299.646 33.4767 300.664 33.2845 301.811 33.2845C303.461 33.2845 304.761 33.6425 305.708 34.3584C306.656 35.0677 307.283 36.0189 307.588 37.2121Z" fill="white"/>
</g>
<g filter="url(#filter1_bi_757_29344)">
<rect y="229.001" width="200" height="76" rx="14" fill="#006162"/>
<path d="M27.2503 277.001V256.637H40.0173V259.282H30.3227V265.487H39.3511V268.121H30.3227V274.356H40.1366V277.001H27.2503ZM55.3273 265.457L52.6327 265.934C52.52 265.589 52.3411 265.261 52.0958 264.95C51.8572 264.638 51.5324 264.383 51.1214 264.184C50.7104 263.985 50.1967 263.886 49.5802 263.886C48.7383 263.886 48.0357 264.075 47.4722 264.452C46.9088 264.824 46.6271 265.304 46.6271 265.894C46.6271 266.405 46.816 266.816 47.1938 267.127C47.5717 267.439 48.1815 267.694 49.0234 267.893L51.4495 268.45C52.8548 268.774 53.9021 269.275 54.5915 269.951C55.2809 270.627 55.6256 271.505 55.6256 272.586C55.6256 273.501 55.3605 274.316 54.8302 275.032C54.3065 275.741 53.574 276.298 52.6327 276.702C51.6981 277.107 50.6143 277.309 49.3813 277.309C47.6711 277.309 46.2757 276.944 45.1952 276.215C44.1147 275.479 43.4519 274.435 43.2066 273.083L46.0802 272.646C46.2592 273.395 46.6271 273.961 47.1839 274.346C47.7407 274.724 48.4665 274.913 49.3614 274.913C50.3359 274.913 51.1147 274.71 51.6981 274.306C52.2814 273.895 52.5731 273.395 52.5731 272.805C52.5731 272.327 52.3941 271.926 52.0361 271.602C51.6848 271.277 51.1446 271.032 50.4154 270.866L47.8302 270.299C46.405 269.974 45.351 269.457 44.6682 268.748C43.9921 268.039 43.654 267.14 43.654 266.053C43.654 265.152 43.9059 264.363 44.4097 263.687C44.9135 263.011 45.6095 262.484 46.4978 262.106C47.386 261.721 48.4036 261.529 49.5503 261.529C51.2009 261.529 52.5002 261.887 53.4481 262.603C54.396 263.312 55.0224 264.264 55.3273 265.457ZM58.8945 282.728V261.728H61.7979V264.204H62.0464C62.2188 263.886 62.4674 263.518 62.7922 263.1C63.117 262.683 63.5677 262.318 64.1445 262.006C64.7212 261.688 65.4835 261.529 66.4314 261.529C67.6643 261.529 68.7647 261.841 69.7325 262.464C70.7003 263.087 71.4593 263.985 72.0095 265.158C72.5663 266.332 72.8447 267.744 72.8447 269.394C72.8447 271.045 72.5696 272.46 72.0195 273.64C71.4693 274.813 70.7136 275.718 69.7524 276.354C68.7912 276.984 67.6942 277.299 66.4612 277.299C65.5332 277.299 64.7742 277.143 64.1842 276.832C63.6009 276.52 63.1435 276.156 62.8121 275.738C62.4806 275.32 62.2254 274.949 62.0464 274.624H61.8675V282.728H58.8945ZM61.8078 269.364C61.8078 270.438 61.9636 271.38 62.2751 272.188C62.5867 272.997 63.0374 273.63 63.6274 274.087C64.2174 274.538 64.9399 274.764 65.795 274.764C66.6833 274.764 67.4257 274.528 68.0223 274.058C68.6189 273.58 69.0696 272.934 69.3746 272.119C69.6861 271.303 69.8419 270.385 69.8419 269.364C69.8419 268.357 69.6894 267.452 69.3845 266.65C69.0862 265.848 68.6355 265.215 68.0322 264.751C67.4356 264.287 66.6899 264.055 65.795 264.055C64.9333 264.055 64.2041 264.277 63.6075 264.721C63.0176 265.165 62.5701 265.785 62.2652 266.58C61.9603 267.376 61.8078 268.304 61.8078 269.364ZM80.6203 277.339C79.6525 277.339 78.7775 277.16 77.9953 276.802C77.2131 276.437 76.5933 275.91 76.1359 275.221C75.6852 274.532 75.4598 273.686 75.4598 272.685C75.4598 271.824 75.6255 271.114 75.957 270.558C76.2884 270.001 76.7358 269.56 77.2993 269.235C77.8627 268.91 78.4925 268.665 79.1885 268.499C79.8845 268.334 80.5938 268.208 81.3163 268.121C82.2311 268.015 82.9735 267.929 83.5436 267.863C84.1137 267.79 84.528 267.674 84.7865 267.515C85.045 267.356 85.1743 267.097 85.1743 266.739V266.67C85.1743 265.801 84.929 265.129 84.4385 264.651C83.9546 264.174 83.232 263.935 82.2709 263.935C81.2699 263.935 80.4811 264.157 79.9044 264.602C79.3343 265.039 78.9399 265.526 78.7212 266.063L75.9271 265.427C76.2586 264.499 76.7425 263.75 77.3788 263.18C78.0218 262.603 78.7609 262.185 79.5962 261.927C80.4314 261.662 81.3097 261.529 82.2311 261.529C82.8409 261.529 83.4873 261.602 84.17 261.748C84.8594 261.887 85.5024 262.146 86.099 262.523C86.7022 262.901 87.1961 263.442 87.5805 264.144C87.965 264.84 88.1572 265.745 88.1572 266.859V277.001H85.2538V274.913H85.1345C84.9423 275.297 84.6539 275.675 84.2695 276.046C83.885 276.417 83.3911 276.726 82.7879 276.971C82.1847 277.216 81.4622 277.339 80.6203 277.339ZM81.2666 274.952C82.0886 274.952 82.7912 274.79 83.3746 274.465C83.9645 274.14 84.412 273.716 84.7169 273.192C85.0285 272.662 85.1842 272.095 85.1842 271.492V269.523C85.0782 269.63 84.8727 269.729 84.5677 269.822C84.2695 269.908 83.9281 269.984 83.5436 270.05C83.1591 270.11 82.7846 270.166 82.42 270.219C82.0554 270.266 81.7505 270.306 81.5052 270.339C80.9285 270.412 80.4016 270.534 79.9243 270.707C79.4536 270.879 79.0758 271.128 78.7908 271.452C78.5124 271.771 78.3731 272.195 78.3731 272.725C78.3731 273.461 78.6449 274.018 79.1885 274.396C79.732 274.767 80.4248 274.952 81.2666 274.952ZM95.0901 267.933V277.001H92.1171V261.728H94.9708V264.214H95.1597C95.511 263.405 96.0612 262.755 96.8103 262.265C97.566 261.774 98.5172 261.529 99.664 261.529C100.705 261.529 101.616 261.748 102.398 262.185C103.181 262.616 103.787 263.259 104.218 264.114C104.649 264.969 104.864 266.027 104.864 267.286V277.001H101.891V267.644C101.891 266.537 101.603 265.672 101.026 265.049C100.449 264.419 99.6574 264.104 98.6498 264.104C97.9604 264.104 97.3472 264.254 96.8103 264.552C96.28 264.85 95.8591 265.288 95.5475 265.864C95.2426 266.434 95.0901 267.124 95.0901 267.933ZM95.4978 259.879L93.4992 259.819C93.4992 258.719 93.7942 257.84 94.3842 257.184C94.9807 256.528 95.7165 256.2 96.5915 256.2C96.9959 256.2 97.3505 256.269 97.6555 256.408C97.9604 256.541 98.2454 256.697 98.5106 256.876C98.7824 257.048 99.0508 257.204 99.316 257.343C99.5878 257.476 99.8894 257.542 100.221 257.542C100.605 257.542 100.917 257.396 101.155 257.104C101.401 256.813 101.523 256.451 101.523 256.021L103.482 256.15C103.482 257.257 103.184 258.129 102.587 258.765C101.991 259.395 101.258 259.713 100.39 259.719C99.9192 259.719 99.5281 259.653 99.2165 259.521C98.9116 259.381 98.6398 259.226 98.4012 259.053C98.1626 258.874 97.9173 258.715 97.6654 258.576C97.4135 258.437 97.1119 258.367 96.7606 258.367C96.3894 258.367 96.0844 258.513 95.8458 258.805C95.6138 259.09 95.4978 259.448 95.4978 259.879ZM115.285 277.309C113.853 277.309 112.603 276.981 111.536 276.325C110.469 275.668 109.64 274.75 109.05 273.57C108.46 272.39 108.165 271.012 108.165 269.434C108.165 267.85 108.46 266.464 109.05 265.278C109.64 264.091 110.469 263.17 111.536 262.514C112.603 261.857 113.853 261.529 115.285 261.529C116.717 261.529 117.966 261.857 119.033 262.514C120.101 263.17 120.929 264.091 121.519 265.278C122.109 266.464 122.404 267.85 122.404 269.434C122.404 271.012 122.109 272.39 121.519 273.57C120.929 274.75 120.101 275.668 119.033 276.325C117.966 276.981 116.717 277.309 115.285 277.309ZM115.295 274.813C116.223 274.813 116.992 274.568 117.601 274.077C118.211 273.587 118.662 272.934 118.954 272.119C119.252 271.303 119.401 270.405 119.401 269.424C119.401 268.45 119.252 267.555 118.954 266.739C118.662 265.917 118.211 265.258 117.601 264.761C116.992 264.264 116.223 264.015 115.295 264.015C114.36 264.015 113.584 264.264 112.968 264.761C112.358 265.258 111.904 265.917 111.606 266.739C111.314 267.555 111.168 268.45 111.168 269.424C111.168 270.405 111.314 271.303 111.606 272.119C111.904 272.934 112.358 273.587 112.968 274.077C113.584 274.568 114.36 274.813 115.295 274.813ZM128.696 256.637V277.001H125.723V256.637H128.696ZM140.344 277.001V256.637H153.111V259.282H143.416V265.487H152.445V268.121H143.416V274.356H153.23V277.001H140.344ZM170.31 256.637H173.393V270.031C173.393 271.456 173.058 272.719 172.388 273.819C171.719 274.913 170.778 275.774 169.565 276.404C168.351 277.027 166.93 277.339 165.299 277.339C163.675 277.339 162.256 277.027 161.043 276.404C159.83 275.774 158.889 274.913 158.219 273.819C157.55 272.719 157.215 271.456 157.215 270.031V256.637H160.288V269.782C160.288 270.703 160.49 271.522 160.894 272.238C161.305 272.954 161.885 273.517 162.634 273.928C163.383 274.333 164.271 274.535 165.299 274.535C166.333 274.535 167.225 274.333 167.974 273.928C168.729 273.517 169.306 272.954 169.704 272.238C170.108 271.522 170.31 270.703 170.31 269.782V256.637Z" fill="white"/>
</g>
<g filter="url(#filter2_bi_757_29344)">
<rect x="27" y="103.756" width="175" height="76" rx="14" fill="#006162"/>
<path d="M93.9359 150.896C92.9653 150.896 92.1159 150.756 91.3879 150.476C90.6599 150.177 90.0813 149.683 89.6519 148.992C89.2226 148.283 88.9799 147.303 88.9239 146.052L88.4759 136.308H90.6879L91.1359 145.548C91.1919 146.425 91.3226 147.088 91.5279 147.536C91.7519 147.984 92.0786 148.292 92.5079 148.46C92.9559 148.609 93.5159 148.684 94.1879 148.684C94.5799 148.684 94.8599 148.787 95.0279 148.992C95.2146 149.179 95.3079 149.421 95.3079 149.72C95.3079 150.019 95.1866 150.289 94.9439 150.532C94.7199 150.775 94.3839 150.896 93.9359 150.896ZM90.0999 147.732C89.1479 148.031 88.1959 148.189 87.2439 148.208C86.2919 148.227 85.4053 148.105 84.5839 147.844C83.7813 147.564 83.1279 147.144 82.6239 146.584C82.1386 146.024 81.8959 145.333 81.8959 144.512C81.8959 143.747 82.0826 143.028 82.4559 142.356C82.8479 141.665 83.3706 141.049 84.0239 140.508C84.6959 139.967 85.4706 139.509 86.3479 139.136C87.2439 138.763 88.1959 138.501 89.2039 138.352L89.5959 140.648C88.6999 140.704 87.9066 140.853 87.2159 141.096C86.5439 141.32 85.9746 141.6 85.5079 141.936C85.0413 142.272 84.6866 142.636 84.4439 143.028C84.2013 143.42 84.0799 143.793 84.0799 144.148C84.0799 144.577 84.2293 144.923 84.5279 145.184C84.8266 145.445 85.2093 145.641 85.6759 145.772C86.1426 145.903 86.6373 145.977 87.1599 145.996C87.7013 146.015 88.2146 145.996 88.6999 145.94C89.1853 145.865 89.5773 145.772 89.8759 145.66L90.0999 147.732ZM89.4839 133.088C89.1106 133.088 88.7839 132.957 88.5039 132.696C88.2426 132.435 88.1119 132.117 88.1119 131.744C88.1119 131.371 88.2426 131.053 88.5039 130.792C88.7839 130.512 89.1106 130.372 89.4839 130.372C89.8573 130.372 90.1746 130.512 90.4359 130.792C90.6973 131.053 90.8279 131.371 90.8279 131.744C90.8279 132.117 90.6973 132.435 90.4359 132.696C90.1746 132.957 89.8573 133.088 89.4839 133.088ZM85.7319 133.088C85.3586 133.088 85.0319 132.957 84.7519 132.696C84.4906 132.435 84.3599 132.117 84.3599 131.744C84.3599 131.371 84.4906 131.053 84.7519 130.792C85.0319 130.512 85.3586 130.372 85.7319 130.372C86.1053 130.372 86.4226 130.512 86.6839 130.792C86.9453 131.053 87.0759 131.371 87.0759 131.744C87.0759 132.117 86.9453 132.435 86.6839 132.696C86.4226 132.957 86.1053 133.088 85.7319 133.088ZM93.9101 150.896L94.1901 148.684C95.0488 148.684 95.7208 148.609 96.2061 148.46C96.6915 148.311 97.0648 148.031 97.3261 147.62C97.5875 147.209 97.7928 146.621 97.9421 145.856C98.1101 145.072 98.3155 144.064 98.5581 142.832L100.686 143.252C100.611 143.588 100.527 143.961 100.434 144.372C100.341 144.783 100.257 145.193 100.182 145.604C100.126 145.996 100.098 146.341 100.098 146.64C100.098 146.92 100.126 147.191 100.182 147.452C100.238 147.695 100.387 147.909 100.63 148.096C100.873 148.264 101.265 148.404 101.806 148.516C102.366 148.628 103.141 148.684 104.13 148.684C104.522 148.684 104.802 148.787 104.97 148.992C105.157 149.179 105.25 149.421 105.25 149.72C105.25 150.019 105.129 150.289 104.886 150.532C104.643 150.775 104.298 150.896 103.85 150.896C102.805 150.896 101.955 150.84 101.302 150.728C100.667 150.597 100.173 150.411 99.8181 150.168C99.4821 149.907 99.2301 149.599 99.0621 149.244C98.9128 148.871 98.8101 148.451 98.7541 147.984L99.5661 148.04C99.2675 148.637 98.9408 149.123 98.5861 149.496C98.2501 149.869 97.8675 150.159 97.4381 150.364C97.0088 150.569 96.5048 150.709 95.9261 150.784C95.3475 150.859 94.6755 150.896 93.9101 150.896ZM100.63 156.132C100.257 156.132 99.9301 156.001 99.6501 155.74C99.3888 155.479 99.2581 155.161 99.2581 154.788C99.2581 154.415 99.3888 154.088 99.6501 153.808C99.9301 153.547 100.257 153.416 100.63 153.416C101.003 153.416 101.321 153.547 101.582 153.808C101.843 154.088 101.974 154.415 101.974 154.788C101.974 155.161 101.843 155.479 101.582 155.74C101.321 156.001 101.003 156.132 100.63 156.132ZM96.8781 156.132C96.5048 156.132 96.1781 156.001 95.8981 155.74C95.6368 155.479 95.5061 155.161 95.5061 154.788C95.5061 154.415 95.6368 154.088 95.8981 153.808C96.1781 153.547 96.5048 153.416 96.8781 153.416C97.2515 153.416 97.5688 153.547 97.8301 153.808C98.0915 154.088 98.2221 154.415 98.2221 154.788C98.2221 155.161 98.0915 155.479 97.8301 155.74C97.5688 156.001 97.2515 156.132 96.8781 156.132ZM103.863 150.896L104.143 148.684C104.89 148.684 105.506 148.619 105.991 148.488C106.477 148.357 106.841 148.115 107.083 147.76C107.326 147.405 107.447 146.883 107.447 146.192C107.447 145.725 107.373 145.175 107.223 144.54C107.074 143.887 106.878 143.196 106.635 142.468C106.393 141.721 106.131 140.993 105.851 140.284L108.035 139.472C108.259 140.069 108.483 140.76 108.707 141.544C108.931 142.309 109.118 143.075 109.267 143.84C109.417 144.587 109.491 145.268 109.491 145.884C109.491 146.575 109.407 147.2 109.239 147.76C109.09 148.301 108.866 148.768 108.567 149.16C108.269 149.552 107.886 149.879 107.419 150.14C106.971 150.401 106.449 150.597 105.851 150.728C105.273 150.84 104.61 150.896 103.863 150.896ZM106.859 156.104C106.486 156.104 106.159 155.973 105.879 155.712C105.618 155.451 105.487 155.133 105.487 154.76C105.487 154.387 105.618 154.06 105.879 153.78C106.159 153.519 106.486 153.388 106.859 153.388C107.233 153.388 107.55 153.519 107.811 153.78C108.073 154.06 108.203 154.387 108.203 154.76C108.203 155.133 108.073 155.451 107.811 155.712C107.55 155.973 107.233 156.104 106.859 156.104ZM111.197 157.224L110.217 155.208C111.468 154.685 112.504 154.116 113.325 153.5C114.147 152.903 114.791 152.277 115.257 151.624C115.724 150.971 116.051 150.327 116.237 149.692C116.424 149.039 116.517 148.432 116.517 147.872C116.517 146.995 116.321 146.089 115.929 145.156C115.556 144.223 115.108 143.271 114.585 142.3L116.629 141.264C116.965 141.917 117.255 142.552 117.497 143.168C117.759 143.765 117.983 144.344 118.169 144.904C118.375 145.445 118.543 145.959 118.673 146.444C118.935 147.321 119.261 147.919 119.653 148.236C120.064 148.535 120.587 148.684 121.221 148.684C121.613 148.684 121.893 148.787 122.061 148.992C122.248 149.179 122.341 149.421 122.341 149.72C122.341 150.019 122.22 150.289 121.977 150.532C121.753 150.775 121.408 150.896 120.941 150.896C120.232 150.896 119.644 150.765 119.177 150.504C118.729 150.243 118.375 149.879 118.113 149.412C117.852 148.945 117.656 148.423 117.525 147.844L118.505 148.124C118.505 149.244 118.281 150.289 117.833 151.26C117.404 152.249 116.825 153.127 116.097 153.892C115.369 154.676 114.576 155.348 113.717 155.908C112.859 156.468 112.019 156.907 111.197 157.224ZM120.953 150.896L121.233 148.684C122.26 148.684 123.23 148.572 124.145 148.348C125.078 148.124 125.928 147.825 126.693 147.452C127.477 147.079 128.149 146.649 128.709 146.164C129.269 145.66 129.708 145.147 130.025 144.624C130.342 144.101 130.501 143.579 130.501 143.056C130.501 142.757 130.408 142.487 130.221 142.244C130.034 142.001 129.754 141.815 129.381 141.684C129.008 141.535 128.55 141.46 128.009 141.46C127.636 141.46 127.216 141.516 126.749 141.628C126.282 141.74 125.834 141.899 125.405 142.104C124.976 142.309 124.612 142.543 124.313 142.804C124.742 143.177 125.172 143.569 125.601 143.98C126.03 144.391 126.469 144.848 126.917 145.352C127.384 145.837 127.85 146.379 128.317 146.976C128.69 147.256 129.101 147.508 129.549 147.732C130.016 147.937 130.52 148.115 131.061 148.264C131.602 148.395 132.181 148.497 132.797 148.572C133.413 148.647 134.057 148.684 134.729 148.684C135.102 148.684 135.382 148.787 135.569 148.992C135.756 149.179 135.849 149.421 135.849 149.72C135.849 150.056 135.718 150.336 135.457 150.56C135.214 150.784 134.878 150.896 134.449 150.896C133.404 150.896 132.396 150.803 131.425 150.616C130.454 150.411 129.558 150.112 128.737 149.72C127.934 149.328 127.225 148.843 126.609 148.264C126.273 147.779 125.909 147.312 125.517 146.864C125.125 146.416 124.714 145.987 124.285 145.576C123.856 145.147 123.426 144.773 122.997 144.456C122.922 144.381 122.829 144.232 122.717 144.008C122.624 143.784 122.549 143.551 122.493 143.308C122.437 143.065 122.409 142.879 122.409 142.748C122.409 142.412 122.568 142.048 122.885 141.656C123.221 141.245 123.66 140.863 124.201 140.508C124.761 140.135 125.396 139.836 126.105 139.612C126.833 139.369 127.58 139.248 128.345 139.248C129.26 139.248 130.034 139.388 130.669 139.668C131.304 139.929 131.789 140.312 132.125 140.816C132.461 141.301 132.629 141.88 132.629 142.552C132.629 143.373 132.433 144.195 132.041 145.016C131.668 145.819 131.117 146.575 130.389 147.284C129.661 147.975 128.812 148.6 127.841 149.16C126.87 149.701 125.797 150.131 124.621 150.448C123.464 150.747 122.241 150.896 120.953 150.896ZM134.461 150.896L134.713 148.684C135.628 148.684 136.272 148.572 136.645 148.348C137.037 148.124 137.261 147.751 137.317 147.228C137.392 146.687 137.41 145.949 137.373 145.016L136.841 130.96H139.025L139.585 144.764C139.622 145.753 139.594 146.631 139.501 147.396C139.408 148.161 139.184 148.805 138.829 149.328C138.474 149.851 137.942 150.243 137.233 150.504C136.542 150.765 135.618 150.896 134.461 150.896ZM143.789 150.756L143.229 130.96H145.441L146.001 150.756H143.789Z" fill="white"/>
</g>
<g filter="url(#filter3_bi_757_29344)">
<rect x="266" y="289.756" width="159" height="76" rx="14" fill="#006162"/>
<path d="M306.484 314.14H324.824V337.576H322.612V316.268H308.64V337.688H306.484V314.14ZM307.912 323.856H323.536V325.928H307.912V323.856ZM307.884 333.768H323.592V335.868H307.884V333.768ZM331.348 318.144H355.792V320.272H331.348V318.144ZM336.948 330.632H349.996V332.76H336.948V330.632ZM342.408 312.264H344.62V337.996H342.408V312.264ZM341.764 318.844L343.64 319.488C341.148 325.424 336.752 330.772 331.908 333.6C331.572 333.068 330.872 332.284 330.396 331.864C335.072 329.428 339.524 324.22 341.764 318.844ZM345.32 318.928C347.532 324.248 351.928 329.344 356.772 331.668C356.24 332.116 355.512 332.956 355.176 333.544C350.22 330.8 345.908 325.452 343.444 319.572L345.32 318.928ZM370.968 327.916H382.812V337.884H380.768V329.848H372.956V337.996H370.968V327.916ZM370.212 318.004H382.056V324.864H380.012V319.852H370.212V318.004ZM374.244 314L376.316 314.168C375.812 317.612 375.028 322.204 374.44 324.864H372.368C373.012 322.092 373.796 317.388 374.244 314ZM369.764 313.3H383.624V315.12H369.764V313.3ZM368.924 323.912H384.52V325.788H368.924V323.912ZM371.864 334.804H381.888V336.708H371.864V334.804ZM359.936 320.888H367.832V322.54H359.936V320.888ZM360.104 313.244H367.804V314.924H360.104V313.244ZM359.936 324.696H367.832V326.376H359.936V324.696ZM358.62 316.996H368.812V318.732H358.62V316.996ZM360.944 328.532H367.944V336.708H360.944V334.972H366.096V330.296H360.944V328.532ZM359.908 328.532H361.728V337.996H359.908V328.532Z" fill="white"/>
</g>
<g filter="url(#filter4_bi_757_29344)">
<rect x="386" y="46.7561" width="175" height="76" rx="14" fill="#006162"/>
<path d="M428.987 77.0374V74.3925H444.747V77.0374H438.393V94.7561H435.331V77.0374H428.987ZM456.244 88.4223V79.4834H459.227V94.7561H456.303V92.1112H456.144C455.793 92.9266 455.229 93.606 454.454 94.1496C453.685 94.6865 452.727 94.955 451.58 94.955C450.599 94.955 449.731 94.7395 448.975 94.3087C448.226 93.8712 447.636 93.2249 447.205 92.3697C446.781 91.5146 446.569 90.4573 446.569 89.1979V79.4834H449.542V88.8399C449.542 89.8806 449.83 90.7092 450.407 91.3257C450.984 91.9422 451.733 92.2504 452.654 92.2504C453.211 92.2504 453.764 92.1112 454.315 91.8328C454.871 91.5544 455.332 91.1335 455.697 90.57C456.068 90.0066 456.25 89.2907 456.244 88.4223ZM449.999 77.0871C449.529 77.0871 449.118 76.9147 448.766 76.57C448.415 76.2187 448.239 75.8143 448.239 75.357C448.239 74.8598 448.415 74.4455 448.766 74.1141C449.118 73.7826 449.529 73.6169 449.999 73.6169C450.496 73.6169 450.911 73.7826 451.242 74.1141C451.58 74.4455 451.749 74.8598 451.749 75.357C451.749 75.8143 451.58 76.2187 451.242 76.57C450.911 76.9147 450.496 77.0871 449.999 77.0871ZM455.846 77.0871C455.375 77.0871 454.964 76.9147 454.613 76.57C454.262 76.2187 454.086 75.8143 454.086 75.357C454.086 74.8598 454.262 74.4455 454.613 74.1141C454.964 73.7826 455.375 73.6169 455.846 73.6169C456.343 73.6169 456.757 73.7826 457.089 74.1141C457.427 74.4455 457.596 74.8598 457.596 75.357C457.596 75.8143 457.427 76.2187 457.089 76.57C456.757 76.9147 456.343 77.0871 455.846 77.0871ZM463.221 94.7561V79.4834H466.095V81.9095H466.254C466.532 81.0875 467.023 80.4412 467.725 79.9706C468.435 79.4933 469.237 79.2547 470.132 79.2547C470.317 79.2547 470.536 79.2613 470.788 79.2746C471.046 79.2878 471.249 79.3044 471.395 79.3243V82.168C471.275 82.1349 471.063 82.0984 470.758 82.0587C470.453 82.0123 470.148 81.9891 469.843 81.9891C469.141 81.9891 468.514 82.1382 467.964 82.4365C467.421 82.7282 466.99 83.1358 466.671 83.6595C466.353 84.1766 466.194 84.7665 466.194 85.4294V94.7561H463.221ZM476.702 89.5757L476.682 85.9464H477.199L483.284 79.4834H486.844L479.903 86.8413H479.436L476.702 89.5757ZM473.967 94.7561V74.3925H476.94V94.7561H473.967ZM483.612 94.7561L478.143 87.4976L480.192 85.4195L487.261 94.7561H483.612ZM495.358 95.0643C493.879 95.0643 492.607 94.7296 491.539 94.0601C490.479 93.3839 489.663 92.4526 489.093 91.266C488.523 90.0795 488.238 88.7206 488.238 87.1893C488.238 85.6382 488.53 84.2694 489.113 83.0828C489.697 81.8896 490.519 80.9583 491.579 80.2888C492.64 79.6193 493.889 79.2845 495.328 79.2845C496.488 79.2845 497.522 79.4999 498.43 79.9308C499.338 80.3551 500.071 80.9517 500.627 81.7206C501.191 82.4895 501.526 83.3877 501.632 84.4152H498.738C498.579 83.6993 498.215 83.0828 497.645 82.5658C497.081 82.0487 496.325 81.7902 495.377 81.7902C494.549 81.7902 493.823 82.0089 493.2 82.4464C492.583 82.8773 492.103 83.4938 491.758 84.2959C491.413 85.0913 491.241 86.0326 491.241 87.1197C491.241 88.2334 491.41 89.1946 491.748 90.0033C492.086 90.812 492.564 91.4384 493.18 91.8825C493.803 92.3267 494.536 92.5487 495.377 92.5487C495.941 92.5487 496.451 92.446 496.909 92.2405C497.373 92.0284 497.761 91.7267 498.072 91.3356C498.39 90.9446 498.612 90.4739 498.738 89.9237H501.632C501.526 90.9114 501.204 91.793 500.667 92.5686C500.13 93.3442 499.411 93.954 498.51 94.3981C497.615 94.8423 496.564 95.0643 495.358 95.0643ZM494.284 94.6766H496.233L496.073 95.4919C496.65 95.5847 497.154 95.8167 497.585 96.1879C498.016 96.5591 498.231 97.1193 498.231 97.8683C498.238 98.7632 497.85 99.4891 497.068 100.046C496.292 100.603 495.169 100.881 493.697 100.881L493.637 99.2206C494.327 99.2206 494.884 99.1212 495.308 98.9223C495.739 98.7234 495.957 98.4019 495.964 97.9578C495.971 97.5137 495.805 97.2021 495.467 97.0231C495.136 96.8442 494.605 96.7182 493.876 96.6453L494.284 94.6766ZM511.393 95.0643C509.889 95.0643 508.593 94.7428 507.506 94.0999C506.425 93.4502 505.59 92.5388 505 91.3655C504.417 90.1856 504.125 88.8035 504.125 87.2192C504.125 85.6548 504.417 84.276 505 83.0828C505.59 81.8896 506.412 80.9583 507.466 80.2888C508.526 79.6193 509.766 79.2845 511.185 79.2845C512.046 79.2845 512.882 79.427 513.69 79.7121C514.499 79.9971 515.225 80.4446 515.868 81.0544C516.511 81.6642 517.018 82.4564 517.389 83.4308C517.76 84.3986 517.946 85.5752 517.946 86.9606V88.0146L505.805 88.0146V85.7874L515.033 85.7874C515.033 85.0052 514.874 84.3124 514.555 83.7092C514.237 83.0994 513.79 82.6188 513.213 82.2675C512.643 81.9161 511.973 81.7405 511.205 81.7405C510.369 81.7405 509.64 81.946 509.017 82.357C508.401 82.7613 507.923 83.2916 507.585 83.9479C507.254 84.5975 507.088 85.3035 507.088 86.0658V87.8058C507.088 88.8267 507.267 89.695 507.625 90.4109C507.99 91.1268 508.497 91.6737 509.146 92.0516C509.796 92.4228 510.555 92.6084 511.423 92.6084C511.987 92.6084 512.5 92.5288 512.964 92.3697C513.428 92.204 513.83 91.9588 514.168 91.6339C514.506 91.3091 514.764 90.9081 514.943 90.4308L517.757 90.9379C517.532 91.7665 517.127 92.4924 516.544 93.1155C515.967 93.732 515.241 94.2125 514.366 94.5572C513.498 94.8953 512.507 95.0643 511.393 95.0643Z" fill="white"/>
</g>
<defs>
<filter id="filter0_bi_757_29344" x="115" y="-49.2439" width="275" height="176" filterUnits="userSpaceOnUse" color-interpolation-filters="sRGB">
<feFlood flood-opacity="0" result="BackgroundImageFix"/>
<feGaussianBlur in="BackgroundImageFix" stdDeviation="25"/>
<feComposite in2="SourceAlpha" operator="in" result="effect1_backgroundBlur_757_29344"/>
<feBlend mode="normal" in="SourceGraphic" in2="effect1_backgroundBlur_757_29344" result="shape"/>
<feColorMatrix in="SourceAlpha" type="matrix" values="0 0 0 0 0 0 0 0 0 0 0 0 0 0 0 0 0 0 127 0" result="hardAlpha"/>
<feOffset/>
<feGaussianBlur stdDeviation="20"/>
<feComposite in2="hardAlpha" operator="arithmetic" k2="-1" k3="1"/>
<feColorMatrix type="matrix" values="0 0 0 0 1 0 0 0 0 1 0 0 0 0 1 0 0 0 0.04 0"/>
<feBlend mode="normal" in2="shape" result="effect2_innerShadow_757_29344"/>
</filter>
<filter id="filter1_bi_757_29344" x="-77.5555" y="151.445" width="355.111" height="231.111" filterUnits="userSpaceOnUse" color-interpolation-filters="sRGB">
<feFlood flood-opacity="0" result="BackgroundImageFix"/>
<feGaussianBlur in="BackgroundImageFix" stdDeviation="38.7778"/>
<feComposite in2="SourceAlpha" operator="in" result="effect1_backgroundBlur_757_29344"/>
<feBlend mode="normal" in="SourceGraphic" in2="effect1_backgroundBlur_757_29344" result="shape"/>
<feColorMatrix in="SourceAlpha" type="matrix" values="0 0 0 0 0 0 0 0 0 0 0 0 0 0 0 0 0 0 127 0" result="hardAlpha"/>
<feOffset/>
<feGaussianBlur stdDeviation="31.0222"/>
<feComposite in2="hardAlpha" operator="arithmetic" k2="-1" k3="1"/>
<feColorMatrix type="matrix" values="0 0 0 0 1 0 0 0 0 1 0 0 0 0 1 0 0 0 0.04 0"/>
<feBlend mode="normal" in2="shape" result="effect2_innerShadow_757_29344"/>
</filter>
<filter id="filter2_bi_757_29344" x="-50.5555" y="26.2006" width="330.111" height="231.111" filterUnits="userSpaceOnUse" color-interpolation-filters="sRGB">
<feFlood flood-opacity="0" result="BackgroundImageFix"/>
<feGaussianBlur in="BackgroundImageFix" stdDeviation="38.7778"/>
<feComposite in2="SourceAlpha" operator="in" result="effect1_backgroundBlur_757_29344"/>
<feBlend mode="normal" in="SourceGraphic" in2="effect1_backgroundBlur_757_29344" result="shape"/>
<feColorMatrix in="SourceAlpha" type="matrix" values="0 0 0 0 0 0 0 0 0 0 0 0 0 0 0 0 0 0 127 0" result="hardAlpha"/>
<feOffset/>
<feGaussianBlur stdDeviation="31.0222"/>
<feComposite in2="hardAlpha" operator="arithmetic" k2="-1" k3="1"/>
<feColorMatrix type="matrix" values="0 0 0 0 1 0 0 0 0 1 0 0 0 0 1 0 0 0 0.04 0"/>
<feBlend mode="normal" in2="shape" result="effect2_innerShadow_757_29344"/>
</filter>
<filter id="filter3_bi_757_29344" x="188.444" y="212.201" width="314.111" height="231.111" filterUnits="userSpaceOnUse" color-interpolation-filters="sRGB">
<feFlood flood-opacity="0" result="BackgroundImageFix"/>
<feGaussianBlur in="BackgroundImageFix" stdDeviation="38.7778"/>
<feComposite in2="SourceAlpha" operator="in" result="effect1_backgroundBlur_757_29344"/>
<feBlend mode="normal" in="SourceGraphic" in2="effect1_backgroundBlur_757_29344" result="shape"/>
<feColorMatrix in="SourceAlpha" type="matrix" values="0 0 0 0 0 0 0 0 0 0 0 0 0 0 0 0 0 0 127 0" result="hardAlpha"/>
<feOffset/>
<feGaussianBlur stdDeviation="31.0222"/>
<feComposite in2="hardAlpha" operator="arithmetic" k2="-1" k3="1"/>
<feColorMatrix type="matrix" values="0 0 0 0 1 0 0 0 0 1 0 0 0 0 1 0 0 0 0.04 0"/>
<feBlend mode="normal" in2="shape" result="effect2_innerShadow_757_29344"/>
</filter>
<filter id="filter4_bi_757_29344" x="336" y="-3.2439" width="275" height="176" filterUnits="userSpaceOnUse" color-interpolation-filters="sRGB">
<feFlood flood-opacity="0" result="BackgroundImageFix"/>
<feGaussianBlur in="BackgroundImageFix" stdDeviation="25"/>
<feComposite in2="SourceAlpha" operator="in" result="effect1_backgroundBlur_757_29344"/>
<feBlend mode="normal" in="SourceGraphic" in2="effect1_backgroundBlur_757_29344" result="shape"/>
<feColorMatrix in="SourceAlpha" type="matrix" values="0 0 0 0 0 0 0 0 0 0 0 0 0 0 0 0 0 0 127 0" result="hardAlpha"/>
<feOffset/>
<feGaussianBlur stdDeviation="20"/>
<feComposite in2="hardAlpha" operator="arithmetic" k2="-1" k3="1"/>
<feColorMatrix type="matrix" values="0 0 0 0 1 0 0 0 0 1 0 0 0 0 1 0 0 0 0.04 0"/>
<feBlend mode="normal" in2="shape" result="effect2_innerShadow_757_29344"/>
</filter>
</defs>
</svg>
