<svg width="195" height="211" viewBox="0 0 195 211" fill="none" xmlns="http://www.w3.org/2000/svg">
<path fill-rule="evenodd" clip-rule="evenodd" d="M85.9537 11.1008C50.5087 74.1139 77.4282 138.344 122.685 182.762C123.461 183.526 123.447 184.83 122.648 185.67C121.85 186.509 120.57 186.575 119.794 185.811C73.2671 140.152 46.0453 73.9963 82.4843 9.21835C83.05 8.20813 84.2883 7.81034 85.2501 8.32948C86.2079 8.8456 86.5227 10.0863 85.9537 11.1008Z" fill="#F68A22"/>
<path fill-rule="evenodd" clip-rule="evenodd" d="M119.393 183.552C118.483 180.116 117.294 175.82 117.173 175.328C113.901 161.984 112.872 148.71 113.725 134.705C113.793 133.568 114.757 132.645 115.871 132.645C116.985 132.644 117.834 133.57 117.766 134.707C116.935 148.288 117.929 161.162 121.104 174.105C121.289 174.86 123.968 184.516 124.363 186.518C124.529 187.339 124.369 187.871 124.32 187.994C124.082 188.654 123.664 188.998 123.298 189.2C122.883 189.425 122.12 189.632 121.181 189.319C120.2 188.987 118.372 187.783 117.884 187.519C110.512 183.554 102.663 178.452 94.3819 175.305C86.4851 172.302 78.1853 171.077 69.5271 174.686C68.4733 175.126 67.3182 174.628 66.9496 173.58C66.581 172.532 67.1417 171.323 68.1954 170.883C77.8762 166.849 87.1701 168.077 95.995 171.431C104.227 174.561 112.047 179.56 119.393 183.552Z" fill="#F68A22"/>
</svg>
