<svg width="129" height="402" viewBox="0 0 129 402" fill="none" xmlns="http://www.w3.org/2000/svg">
<g opacity="0.6" clip-path="url(#clip0_757_29377)">
<path d="M-26 -209L196 13" stroke="#14A38B" stroke-width="8"/>
<path d="M-26 -193L196 29" stroke="#14A38B" stroke-width="8"/>
<path d="M-26 -177L196 45" stroke="#14A38B" stroke-width="8"/>
<path d="M-26 -161L196 61" stroke="#14A38B" stroke-width="8"/>
<path d="M-26 -145L196 77" stroke="#14A38B" stroke-width="8"/>
<path d="M-26 -129L196 93" stroke="#14A38B" stroke-width="8"/>
<path d="M-26 -113L196 109" stroke="#14A38B" stroke-width="8"/>
<path d="M-26 -97L196 125" stroke="#14A38B" stroke-width="8"/>
<path d="M-26 -81L196 141" stroke="#14A38B" stroke-width="8"/>
<path d="M-26 -65L196 157" stroke="#14A38B" stroke-width="8"/>
<path d="M-26 -49L196 173" stroke="#14A38B" stroke-width="8"/>
<path d="M-26 -33L196 189" stroke="#14A38B" stroke-width="8"/>
<path d="M-26 -17L196 205" stroke="#14A38B" stroke-width="8"/>
<path d="M-26 -1.00001L196 221" stroke="#14A38B" stroke-width="8"/>
<path d="M-26 15L196 237" stroke="#14A38B" stroke-width="8"/>
<path d="M-26 31L196 253" stroke="#14A38B" stroke-width="8"/>
<path d="M-26 47L196 269" stroke="#14A38B" stroke-width="8"/>
<path d="M-26 63L196 285" stroke="#14A38B" stroke-width="8"/>
<path d="M-26 79L196 301" stroke="#14A38B" stroke-width="8"/>
<path d="M-26 95L196 317" stroke="#14A38B" stroke-width="8"/>
<path d="M-26 111L196 333" stroke="#14A38B" stroke-width="8"/>
<path d="M-26 127L196 349" stroke="#14A38B" stroke-width="8"/>
<path d="M-26 143L196 365" stroke="#14A38B" stroke-width="8"/>
<path d="M-26 159L196 381" stroke="#14A38B" stroke-width="8"/>
<path d="M-26 175L196 397" stroke="#14A38B" stroke-width="8"/>
<path d="M-26 191L196 413" stroke="#14A38B" stroke-width="8"/>
<path d="M-26 207L196 429" stroke="#14A38B" stroke-width="8"/>
</g>
<circle cx="82" cy="144" r="2" transform="rotate(90 82 144)" fill="white"/>
<circle cx="82" cy="176" r="2" transform="rotate(90 82 176)" fill="white"/>
<circle cx="82" cy="208" r="2" transform="rotate(90 82 208)" fill="white"/>
<circle cx="82" cy="240" r="2" transform="rotate(90 82 240)" fill="white"/>
<circle cx="82" cy="272" r="2" transform="rotate(90 82 272)" fill="white"/>
<circle cx="82" cy="304" r="2" transform="rotate(90 82 304)" fill="white"/>
<circle cx="82" cy="336" r="2" transform="rotate(90 82 336)" fill="white"/>
<circle cx="82" cy="368" r="2" transform="rotate(90 82 368)" fill="white"/>
<circle cx="82" cy="400" r="2" transform="rotate(90 82 400)" fill="white"/>
<circle cx="62" cy="144" r="2" transform="rotate(90 62 144)" fill="white"/>
<circle cx="62" cy="176" r="2" transform="rotate(90 62 176)" fill="white"/>
<circle cx="62" cy="208" r="2" transform="rotate(90 62 208)" fill="white"/>
<circle cx="62" cy="240" r="2" transform="rotate(90 62 240)" fill="white"/>
<circle cx="62" cy="272" r="2" transform="rotate(90 62 272)" fill="white"/>
<circle cx="62" cy="304" r="2" transform="rotate(90 62 304)" fill="white"/>
<circle cx="62" cy="336" r="2" transform="rotate(90 62 336)" fill="white"/>
<circle cx="62" cy="368" r="2" transform="rotate(90 62 368)" fill="white"/>
<circle cx="62" cy="400" r="2" transform="rotate(90 62 400)" fill="white"/>
<circle cx="42" cy="144" r="2" transform="rotate(90 42 144)" fill="white"/>
<circle cx="42" cy="176" r="2" transform="rotate(90 42 176)" fill="white"/>
<circle cx="42" cy="208" r="2" transform="rotate(90 42 208)" fill="white"/>
<circle cx="42" cy="240" r="2" transform="rotate(90 42 240)" fill="white"/>
<circle cx="42" cy="272" r="2" transform="rotate(90 42 272)" fill="white"/>
<circle cx="42" cy="304" r="2" transform="rotate(90 42 304)" fill="white"/>
<circle cx="42" cy="336" r="2" transform="rotate(90 42 336)" fill="white"/>
<circle cx="42" cy="368" r="2" transform="rotate(90 42 368)" fill="white"/>
<circle cx="42" cy="400" r="2" transform="rotate(90 42 400)" fill="white"/>
<circle cx="22" cy="144" r="2" transform="rotate(90 22 144)" fill="white"/>
<circle cx="22" cy="176" r="2" transform="rotate(90 22 176)" fill="white"/>
<circle cx="22" cy="208" r="2" transform="rotate(90 22 208)" fill="white"/>
<circle cx="22" cy="240" r="2" transform="rotate(90 22 240)" fill="white"/>
<circle cx="22" cy="272" r="2" transform="rotate(90 22 272)" fill="white"/>
<circle cx="22" cy="304" r="2" transform="rotate(90 22 304)" fill="white"/>
<circle cx="22" cy="336" r="2" transform="rotate(90 22 336)" fill="white"/>
<circle cx="22" cy="368" r="2" transform="rotate(90 22 368)" fill="white"/>
<circle cx="22" cy="400" r="2" transform="rotate(90 22 400)" fill="white"/>
<circle cx="2" cy="144" r="2" transform="rotate(90 2 144)" fill="white"/>
<circle cx="2" cy="176" r="2" transform="rotate(90 2 176)" fill="white"/>
<circle cx="2" cy="208" r="2" transform="rotate(90 2 208)" fill="white"/>
<circle cx="2" cy="240" r="2" transform="rotate(90 2 240)" fill="white"/>
<circle cx="2" cy="272" r="2" transform="rotate(90 2 272)" fill="white"/>
<circle cx="2" cy="304" r="2" transform="rotate(90 2 304)" fill="white"/>
<circle cx="2" cy="336" r="2" transform="rotate(90 2 336)" fill="white"/>
<circle cx="2" cy="368" r="2" transform="rotate(90 2 368)" fill="white"/>
<circle cx="2" cy="400" r="2" transform="rotate(90 2 400)" fill="white"/>
<defs>
<clipPath id="clip0_757_29377">
<rect width="220" height="88" fill="white" transform="translate(129) rotate(90)"/>
</clipPath>
</defs>
</svg>
