<svg width="250" height="525" viewBox="0 0 250 525" fill="none" xmlns="http://www.w3.org/2000/svg">
<path fill-rule="evenodd" clip-rule="evenodd" d="M135.29 33.4153C114.488 44.9808 94.9275 59.5964 77.2619 77.262C59.5963 94.9276 44.9808 114.488 33.4153 135.29L135.29 33.4153ZM15.0782 176.233L176.233 15.0783C187.071 11.3076 198.107 8.26953 209.265 5.96419L5.96412 209.265C8.26947 198.107 11.3075 187.071 15.0782 176.233ZM1.86477 235.971C1.01453 244.366 0.568645 252.795 0.527111 261.225L261.225 0.527163C252.795 0.568687 244.366 1.01457 235.971 1.86482L1.86477 235.971ZM283.036 1.32321L1.32317 283.036C1.88106 290.183 2.73105 297.312 3.87311 304.403L304.403 3.87316C297.312 2.7311 290.183 1.88111 283.036 1.32321ZM323.26 7.62314L7.62309 323.26C9.11619 329.553 10.8448 335.801 12.8089 341.991L341.991 12.809C335.801 10.8449 329.552 9.11623 323.26 7.62314ZM358.673 18.7328L18.7327 358.674C20.9465 364.295 23.3622 369.855 25.9797 375.344L375.343 25.9797C369.855 23.3622 364.295 20.9466 358.673 18.7328ZM390.244 33.686L33.6859 390.244C36.5068 395.292 39.5077 400.267 42.6885 405.158L405.158 42.6885C400.267 39.5077 395.292 36.5069 390.244 33.686ZM418.492 51.9617L51.9617 418.492C55.3258 423.022 58.8549 427.468 62.5491 431.821L431.821 62.5491C427.467 58.855 423.022 55.3258 418.492 51.9617ZM443.707 73.2696L73.2695 443.707C74.5826 445.078 75.9134 446.437 77.2619 447.786C79.9164 450.44 82.6137 453.026 85.3516 455.543L455.543 85.3516C453.026 82.6138 450.44 79.9165 447.786 77.262C446.437 75.9134 445.078 74.5826 443.707 73.2696ZM466.027 97.4742L97.4741 466.027C101.915 469.638 106.447 473.081 111.06 476.358L476.358 111.061C473.081 106.447 469.638 101.915 466.027 97.4742ZM485.379 124.645L124.645 485.379C129.632 488.47 134.699 491.378 139.839 494.103L494.103 139.839C491.378 134.699 488.47 129.632 485.379 124.645ZM501.53 155.019L155.019 501.53C160.615 504.046 166.281 506.355 172.007 508.458L508.458 172.007C506.355 166.282 504.046 160.615 501.53 155.019ZM514.053 189.019L189.019 514.053C195.342 515.894 201.72 517.493 208.14 518.849L518.849 208.14C517.493 201.72 515.894 195.342 514.053 189.019ZM522.176 227.42L227.42 522.176C234.693 523.154 242 523.826 249.319 524.193L524.193 249.319C523.826 242 523.153 234.693 522.176 227.42ZM524.362 271.757L271.757 524.362C280.494 524.056 289.219 523.315 297.896 522.139L522.139 297.896C523.315 289.219 524.056 280.494 524.362 271.757ZM516.797 325.845L325.845 516.797C337.863 513.817 349.712 509.973 361.292 505.268L505.268 361.292C509.973 349.712 513.817 337.863 516.797 325.845ZM479.064 410.102L410.102 479.064C423.377 469.995 436.003 459.569 447.786 447.786C459.569 436.003 469.995 423.377 479.064 410.102Z" fill="#00A5CE" fill-opacity="0.4"/>
</svg>
