<svg width="61" height="29" viewBox="0 0 61 29" fill="none" xmlns="http://www.w3.org/2000/svg">
<g opacity="0.6" clip-path="url(#clip0_76_15986)">
<path d="M25.6286 0.821832C22.9673 0.782397 20.6054 2.89309 20.6054 5.94769V19.7027C20.6081 20.1978 20.2311 20.637 19.6823 20.637H15.2993C5.81505 20.6481 6.66254 8.74263 14.7354 8.73146C18.3243 8.72646 19.5787 8.73146 19.5787 8.73146V5.39576H14.5633C11.4205 5.40075 9.04126 6.57481 7.44086 8.32519C5.84042 10.0756 5.02107 12.4067 5.02234 14.7233C5.02359 16.9535 5.799 19.2682 7.41871 21.0225C9.03842 22.7767 11.5012 23.9764 14.9049 23.9764H23.1776C23.6559 23.9764 24.0613 23.579 24.0613 23.1155V6.31062C24.0561 5.43183 24.5207 4.72534 25.2678 4.49149H25.2679C25.9926 4.26528 26.7885 4.55989 27.2683 5.2293L27.2704 5.23229L27.2723 5.23539C28.4349 7.10422 31.3398 11.6887 33.9638 15.8213C35.2758 17.8876 36.5176 19.8411 37.4364 21.2861C37.8958 22.0085 38.2745 22.6039 38.5409 23.0227C38.8052 23.4381 38.952 23.6689 38.9684 23.6951C39.1619 23.9633 39.4055 24.0641 39.6084 24.0014H39.6085L39.6087 24.0013C39.7238 23.9662 39.8143 23.8867 39.8821 23.7558C39.9499 23.6248 39.99 23.443 39.99 23.2246V6.31303C39.9872 5.43704 40.449 4.72906 41.1986 4.49654C41.9188 4.27 42.7172 4.56463 43.1922 5.2347L43.1941 5.23735L43.1957 5.24011C44.3609 7.10774 47.2671 11.6923 49.8917 15.8249C52.5147 19.9551 54.86 23.6399 54.8968 23.6972C54.8969 23.6974 54.8969 23.6975 54.897 23.6976C55.0867 23.9642 55.3456 24.0706 55.5619 24.0037C55.679 23.9674 55.7726 23.8862 55.8423 23.7552C55.9121 23.6242 55.9538 23.4436 55.9538 23.2272V0.925987V0.924837H52.523V13.9479C52.523 13.9479 50.3985 10.4138 46.7768 4.31399C43.2335 -1.66166 36.5465 0.808174 36.5438 5.9501V13.9455C36.5438 13.9455 34.4702 10.4088 30.8509 4.30904C29.4105 1.88241 27.4495 0.848814 25.6286 0.821832ZM15.1831 0.924837C-4.53149 0.92243 -4.34446 28.4759 15.4486 28.4885H23.1825C26.5109 28.4908 28.6481 26.5543 28.6455 22.9852V16.006C28.6455 16.006 32.9831 23.061 34.6852 25.8225C37.5812 30.518 44.5891 29.5947 44.5715 23.7295V16.011C44.5715 16.011 48.9089 23.0633 50.6134 25.8286C53.5094 30.5226 60.5178 29.5984 60.5 23.7318V0.924837H57.0745V23.2269V23.2272C57.0768 24.2811 56.4746 24.8701 55.9008 25.048L55.9005 25.0481C55.2005 25.267 54.4392 24.9741 53.9657 24.3088L53.9641 24.3065L53.9625 24.3042C53.8646 24.1508 44.5814 9.56742 42.2603 5.84158C42.0677 5.57333 41.7857 5.46312 41.5354 5.54073C41.2755 5.62239 41.1103 5.89221 41.1103 6.31257V23.2219V23.2221C41.1131 24.2803 40.5211 24.8676 39.9497 25.048L39.9494 25.0481L39.949 25.0483C39.2594 25.2609 38.5101 24.9685 38.0396 24.3038L38.0384 24.3022L38.0373 24.3006C38.0186 24.2719 37.8688 24.0369 37.6009 23.6163C37.3331 23.1958 36.9531 22.5989 36.4926 21.8751C35.5715 20.4275 34.3285 18.4724 33.016 16.4056C30.3922 12.2741 27.4934 7.69919 26.3344 5.83664C26.1421 5.56881 25.8574 5.46055 25.6067 5.53843V5.53832C25.3439 5.62012 25.1771 5.88989 25.1795 6.30694V6.30729V23.1154C25.1795 24.1942 24.2781 25.0731 23.1776 25.0731H14.9048C11.1408 25.0731 8.38463 23.7327 6.57648 21.7666C4.76834 19.8005 3.90683 17.2145 3.90426 14.7233C3.90168 12.1385 4.8142 9.53664 6.60531 7.57691C8.39642 5.61717 11.0684 4.30394 14.5607 4.29893H14.5608H19.5787V0.924837H15.1831Z" fill="white"/>
</g>
<defs>
<clipPath id="clip0_76_15986">
<rect width="60" height="28" fill="white" transform="translate(0.5 0.821289)"/>
</clipPath>
</defs>
</svg>
