<svg width="313" height="148" viewBox="0 0 313 148" fill="none" xmlns="http://www.w3.org/2000/svg">
<g clip-path="url(#clip0_757_27450)">
<g clip-path="url(#clip1_757_27450)">
<circle cx="3.00268" cy="3.00268" r="3.00268" transform="matrix(0.0114627 -0.999934 -0.999934 -0.0114627 311.218 126.415)" fill="#14A38B"/>
<circle cx="3.00268" cy="3.00268" r="3.00268" transform="matrix(0.0114627 -0.999934 -0.999934 -0.0114627 311.493 102.395)" fill="#14A38B"/>
<circle cx="3.00268" cy="3.00268" r="3.00268" transform="matrix(0.0114627 -0.999934 -0.999934 -0.0114627 311.769 78.3749)" fill="#14A38B"/>
<circle cx="3.00268" cy="3.00268" r="3.00268" transform="matrix(0.0114627 -0.999934 -0.999934 -0.0114627 312.044 54.3551)" fill="#14A38B"/>
<circle cx="3.00268" cy="3.00268" r="3.00268" transform="matrix(0.0114627 -0.999934 -0.999934 -0.0114627 312.319 30.3353)" fill="#14A38B"/>
</g>
<g clip-path="url(#clip2_757_27450)">
<circle cx="3.00268" cy="3.00268" r="3.00268" transform="matrix(0.0114627 -0.999934 -0.999934 -0.0114627 287.198 126.139)" fill="#14A38B"/>
<circle cx="3.00268" cy="3.00268" r="3.00268" transform="matrix(0.0114627 -0.999934 -0.999934 -0.0114627 287.474 102.119)" fill="#14A38B"/>
<circle cx="3.00268" cy="3.00268" r="3.00268" transform="matrix(0.0114627 -0.999934 -0.999934 -0.0114627 287.749 78.0995)" fill="#14A38B"/>
<circle cx="3.00268" cy="3.00268" r="3.00268" transform="matrix(0.0114627 -0.999934 -0.999934 -0.0114627 288.024 54.0797)" fill="#14A38B"/>
<circle cx="3.00268" cy="3.00268" r="3.00268" transform="matrix(0.0114627 -0.999934 -0.999934 -0.0114627 288.3 30.0599)" fill="#14A38B"/>
</g>
<g clip-path="url(#clip3_757_27450)">
<circle cx="3.00268" cy="3.00268" r="3.00268" transform="matrix(0.0114627 -0.999934 -0.999934 -0.0114627 263.178 125.864)" fill="#14A38B"/>
<circle cx="3.00268" cy="3.00268" r="3.00268" transform="matrix(0.0114627 -0.999934 -0.999934 -0.0114627 263.454 101.844)" fill="#14A38B"/>
<circle cx="3.00268" cy="3.00268" r="3.00268" transform="matrix(0.0114627 -0.999934 -0.999934 -0.0114627 263.729 77.8242)" fill="#14A38B"/>
<circle cx="3.00268" cy="3.00268" r="3.00268" transform="matrix(0.0114627 -0.999934 -0.999934 -0.0114627 264.005 53.8044)" fill="#14A38B"/>
<circle cx="3.00268" cy="3.00268" r="3.00268" transform="matrix(0.0114627 -0.999934 -0.999934 -0.0114627 264.28 29.7845)" fill="#14A38B"/>
</g>
<g clip-path="url(#clip4_757_27450)">
<circle cx="3.00268" cy="3.00268" r="3.00268" transform="matrix(0.0114627 -0.999934 -0.999934 -0.0114627 239.158 125.589)" fill="#14A38B"/>
<circle cx="3.00268" cy="3.00268" r="3.00268" transform="matrix(0.0114627 -0.999934 -0.999934 -0.0114627 239.434 101.569)" fill="#14A38B"/>
<circle cx="3.00268" cy="3.00268" r="3.00268" transform="matrix(0.0114627 -0.999934 -0.999934 -0.0114627 239.709 77.5489)" fill="#14A38B"/>
<circle cx="3.00268" cy="3.00268" r="3.00268" transform="matrix(0.0114627 -0.999934 -0.999934 -0.0114627 239.985 53.5291)" fill="#14A38B"/>
<circle cx="3.00268" cy="3.00268" r="3.00268" transform="matrix(0.0114627 -0.999934 -0.999934 -0.0114627 240.26 29.5092)" fill="#14A38B"/>
</g>
<g clip-path="url(#clip5_757_27450)">
<circle cx="3.00268" cy="3.00268" r="3.00268" transform="matrix(0.0114627 -0.999934 -0.999934 -0.0114627 215.139 125.313)" fill="#14A38B"/>
<circle cx="3.00268" cy="3.00268" r="3.00268" transform="matrix(0.0114627 -0.999934 -0.999934 -0.0114627 215.414 101.293)" fill="#14A38B"/>
<circle cx="3.00268" cy="3.00268" r="3.00268" transform="matrix(0.0114627 -0.999934 -0.999934 -0.0114627 215.689 77.2734)" fill="#14A38B"/>
<circle cx="3.00268" cy="3.00268" r="3.00268" transform="matrix(0.0114627 -0.999934 -0.999934 -0.0114627 215.965 53.2537)" fill="#14A38B"/>
<circle cx="3.00268" cy="3.00268" r="3.00268" transform="matrix(0.0114627 -0.999934 -0.999934 -0.0114627 216.24 29.2338)" fill="#14A38B"/>
</g>
<g clip-path="url(#clip6_757_27450)">
<circle cx="3.00268" cy="3.00268" r="3.00268" transform="matrix(0.0114627 -0.999934 -0.999934 -0.0114627 191.119 125.038)" fill="#14A38B"/>
<circle cx="3.00268" cy="3.00268" r="3.00268" transform="matrix(0.0114627 -0.999934 -0.999934 -0.0114627 191.394 101.018)" fill="#14A38B"/>
<circle cx="3.00268" cy="3.00268" r="3.00268" transform="matrix(0.0114627 -0.999934 -0.999934 -0.0114627 191.67 76.9982)" fill="#14A38B"/>
<circle cx="3.00268" cy="3.00268" r="3.00268" transform="matrix(0.0114627 -0.999934 -0.999934 -0.0114627 191.945 52.9783)" fill="#14A38B"/>
<circle cx="3.00268" cy="3.00268" r="3.00268" transform="matrix(0.0114627 -0.999934 -0.999934 -0.0114627 192.22 28.9585)" fill="#14A38B"/>
</g>
<g clip-path="url(#clip7_757_27450)">
<circle cx="3.00268" cy="3.00268" r="3.00268" transform="matrix(0.0114627 -0.999934 -0.999934 -0.0114627 167.099 124.763)" fill="#14A38B"/>
<circle cx="3.00268" cy="3.00268" r="3.00268" transform="matrix(0.0114627 -0.999934 -0.999934 -0.0114627 167.374 100.743)" fill="#14A38B"/>
<circle cx="3.00268" cy="3.00268" r="3.00268" transform="matrix(0.0114627 -0.999934 -0.999934 -0.0114627 167.65 76.7228)" fill="#14A38B"/>
<circle cx="3.00268" cy="3.00268" r="3.00268" transform="matrix(0.0114627 -0.999934 -0.999934 -0.0114627 167.925 52.703)" fill="#14A38B"/>
<circle cx="3.00268" cy="3.00268" r="3.00268" transform="matrix(0.0114627 -0.999934 -0.999934 -0.0114627 168.2 28.6832)" fill="#14A38B"/>
</g>
<g clip-path="url(#clip8_757_27450)">
<circle cx="3.00268" cy="3.00268" r="3.00268" transform="matrix(0.0114627 -0.999934 -0.999934 -0.0114627 143.079 124.487)" fill="#14A38B"/>
<circle cx="3.00268" cy="3.00268" r="3.00268" transform="matrix(0.0114627 -0.999934 -0.999934 -0.0114627 143.354 100.467)" fill="#14A38B"/>
<circle cx="3.00268" cy="3.00268" r="3.00268" transform="matrix(0.0114627 -0.999934 -0.999934 -0.0114627 143.63 76.4474)" fill="#14A38B"/>
<circle cx="3.00268" cy="3.00268" r="3.00268" transform="matrix(0.0114627 -0.999934 -0.999934 -0.0114627 143.905 52.4276)" fill="#14A38B"/>
<circle cx="3.00268" cy="3.00268" r="3.00268" transform="matrix(0.0114627 -0.999934 -0.999934 -0.0114627 144.18 28.4078)" fill="#14A38B"/>
</g>
<g clip-path="url(#clip9_757_27450)">
<circle cx="3.00268" cy="3.00268" r="3.00268" transform="matrix(0.0114627 -0.999934 -0.999934 -0.0114627 119.059 124.212)" fill="#14A38B"/>
<circle cx="3.00268" cy="3.00268" r="3.00268" transform="matrix(0.0114627 -0.999934 -0.999934 -0.0114627 119.335 100.192)" fill="#14A38B"/>
<circle cx="3.00268" cy="3.00268" r="3.00268" transform="matrix(0.0114627 -0.999934 -0.999934 -0.0114627 119.61 76.1721)" fill="#14A38B"/>
<circle cx="3.00268" cy="3.00268" r="3.00268" transform="matrix(0.0114627 -0.999934 -0.999934 -0.0114627 119.885 52.1523)" fill="#14A38B"/>
<circle cx="3.00268" cy="3.00268" r="3.00268" transform="matrix(0.0114627 -0.999934 -0.999934 -0.0114627 120.161 28.1324)" fill="#14A38B"/>
</g>
<g clip-path="url(#clip10_757_27450)">
<circle cx="3.00268" cy="3.00268" r="3.00268" transform="matrix(0.0114627 -0.999934 -0.999934 -0.0114627 95.0396 123.936)" fill="#14A38B"/>
<circle cx="3.00268" cy="3.00268" r="3.00268" transform="matrix(0.0114627 -0.999934 -0.999934 -0.0114627 95.3149 99.9166)" fill="#14A38B"/>
<circle cx="3.00268" cy="3.00268" r="3.00268" transform="matrix(0.0114627 -0.999934 -0.999934 -0.0114627 95.5903 75.8968)" fill="#14A38B"/>
<circle cx="3.00268" cy="3.00268" r="3.00268" transform="matrix(0.0114627 -0.999934 -0.999934 -0.0114627 95.8657 51.877)" fill="#14A38B"/>
<circle cx="3.00268" cy="3.00268" r="3.00268" transform="matrix(0.0114627 -0.999934 -0.999934 -0.0114627 96.1409 27.8571)" fill="#14A38B"/>
</g>
<g clip-path="url(#clip11_757_27450)">
<circle cx="3.00268" cy="3.00268" r="3.00268" transform="matrix(0.0114627 -0.999934 -0.999934 -0.0114627 71.0195 123.661)" fill="#14A38B"/>
<circle cx="3.00268" cy="3.00268" r="3.00268" transform="matrix(0.0114627 -0.999934 -0.999934 -0.0114627 71.2949 99.6412)" fill="#14A38B"/>
<circle cx="3.00268" cy="3.00268" r="3.00268" transform="matrix(0.0114627 -0.999934 -0.999934 -0.0114627 71.5703 75.6214)" fill="#14A38B"/>
<circle cx="3.00268" cy="3.00268" r="3.00268" transform="matrix(0.0114627 -0.999934 -0.999934 -0.0114627 71.8457 51.6016)" fill="#14A38B"/>
<circle cx="3.00268" cy="3.00268" r="3.00268" transform="matrix(0.0114627 -0.999934 -0.999934 -0.0114627 72.1208 27.5817)" fill="#14A38B"/>
</g>
<g clip-path="url(#clip12_757_27450)">
<circle cx="3.00268" cy="3.00268" r="3.00268" transform="matrix(0.0114627 -0.999934 -0.999934 -0.0114627 47 123.386)" fill="#14A38B"/>
<circle cx="3.00268" cy="3.00268" r="3.00268" transform="matrix(0.0114627 -0.999934 -0.999934 -0.0114627 47.2754 99.3659)" fill="#14A38B"/>
<circle cx="3.00268" cy="3.00268" r="3.00268" transform="matrix(0.0114627 -0.999934 -0.999934 -0.0114627 47.5508 75.346)" fill="#14A38B"/>
<circle cx="3.00268" cy="3.00268" r="3.00268" transform="matrix(0.0114627 -0.999934 -0.999934 -0.0114627 47.8262 51.3262)" fill="#14A38B"/>
<circle cx="3.00268" cy="3.00268" r="3.00268" transform="matrix(0.0114627 -0.999934 -0.999934 -0.0114627 48.1016 27.3064)" fill="#14A38B"/>
</g>
<g clip-path="url(#clip13_757_27450)">
<circle cx="3.00268" cy="3.00268" r="3.00268" transform="matrix(0.0114627 -0.999934 -0.999934 -0.0114627 22.98 123.11)" fill="#14A38B"/>
<circle cx="3.00268" cy="3.00268" r="3.00268" transform="matrix(0.0114627 -0.999934 -0.999934 -0.0114627 23.2554 99.0906)" fill="#14A38B"/>
<circle cx="3.00268" cy="3.00268" r="3.00268" transform="matrix(0.0114627 -0.999934 -0.999934 -0.0114627 23.5308 75.0707)" fill="#14A38B"/>
<circle cx="3.00268" cy="3.00268" r="3.00268" transform="matrix(0.0114627 -0.999934 -0.999934 -0.0114627 23.8062 51.0509)" fill="#14A38B"/>
<circle cx="3.00268" cy="3.00268" r="3.00268" transform="matrix(0.0114627 -0.999934 -0.999934 -0.0114627 24.0815 27.0311)" fill="#14A38B"/>
</g>
<g clip-path="url(#clip14_757_27450)">
<circle cx="3.00268" cy="3.00268" r="3.00268" transform="matrix(0.0114627 -0.999934 -0.999934 -0.0114627 0.0615234 26.7557)" fill="#14A38B"/>
</g>
</g>
<defs>
<clipPath id="clip0_757_27450">
<rect width="143.625" height="311" fill="white" transform="matrix(0.0114627 -0.999934 -0.999934 -0.0114627 310.98 147.18)"/>
</clipPath>
<clipPath id="clip1_757_27450">
<rect width="102.091" height="6.00535" fill="white" transform="matrix(0.0114627 -0.999934 -0.999934 -0.0114627 311.218 126.415)"/>
</clipPath>
<clipPath id="clip2_757_27450">
<rect width="102.091" height="6.00535" fill="white" transform="matrix(0.0114627 -0.999934 -0.999934 -0.0114627 287.198 126.139)"/>
</clipPath>
<clipPath id="clip3_757_27450">
<rect width="102.091" height="6.00535" fill="white" transform="matrix(0.0114627 -0.999934 -0.999934 -0.0114627 263.178 125.864)"/>
</clipPath>
<clipPath id="clip4_757_27450">
<rect width="102.091" height="6.00535" fill="white" transform="matrix(0.0114627 -0.999934 -0.999934 -0.0114627 239.158 125.589)"/>
</clipPath>
<clipPath id="clip5_757_27450">
<rect width="102.091" height="6.00535" fill="white" transform="matrix(0.0114627 -0.999934 -0.999934 -0.0114627 215.139 125.313)"/>
</clipPath>
<clipPath id="clip6_757_27450">
<rect width="102.091" height="6.00535" fill="white" transform="matrix(0.0114627 -0.999934 -0.999934 -0.0114627 191.119 125.038)"/>
</clipPath>
<clipPath id="clip7_757_27450">
<rect width="102.091" height="6.00535" fill="white" transform="matrix(0.0114627 -0.999934 -0.999934 -0.0114627 167.099 124.763)"/>
</clipPath>
<clipPath id="clip8_757_27450">
<rect width="102.091" height="6.00535" fill="white" transform="matrix(0.0114627 -0.999934 -0.999934 -0.0114627 143.079 124.487)"/>
</clipPath>
<clipPath id="clip9_757_27450">
<rect width="102.091" height="6.00535" fill="white" transform="matrix(0.0114627 -0.999934 -0.999934 -0.0114627 119.059 124.212)"/>
</clipPath>
<clipPath id="clip10_757_27450">
<rect width="102.091" height="6.00535" fill="white" transform="matrix(0.0114627 -0.999934 -0.999934 -0.0114627 95.0396 123.936)"/>
</clipPath>
<clipPath id="clip11_757_27450">
<rect width="102.091" height="6.00535" fill="white" transform="matrix(0.0114627 -0.999934 -0.999934 -0.0114627 71.0195 123.661)"/>
</clipPath>
<clipPath id="clip12_757_27450">
<rect width="102.091" height="6.00535" fill="white" transform="matrix(0.0114627 -0.999934 -0.999934 -0.0114627 47 123.386)"/>
</clipPath>
<clipPath id="clip13_757_27450">
<rect width="102.091" height="6.00535" fill="white" transform="matrix(0.0114627 -0.999934 -0.999934 -0.0114627 22.98 123.11)"/>
</clipPath>
<clipPath id="clip14_757_27450">
<rect width="102.091" height="6.00535" fill="white" transform="matrix(0.0114627 -0.999934 -0.999934 -0.0114627 -1.04004 122.835)"/>
</clipPath>
</defs>
</svg>
