<svg width="93" height="25" viewBox="0 0 93 25" fill="none" xmlns="http://www.w3.org/2000/svg">
<g opacity="0.6" clip-path="url(#clip0_76_15983)">
<path d="M8.95379 2.91218H10.9911C12.2318 2.7294 13.4988 2.8901 14.6546 3.37682C16.1046 4.2492 17.1563 5.65364 17.5854 7.29054C17.8892 8.14834 17.8892 8.14834 18.6219 7.84454H19.1938V1.05361H0.018358V2.25096H0.804676C1.14638 2.24859 1.48427 2.32281 1.79352 2.46816C2.10277 2.61351 2.37553 2.82629 2.59176 3.09089C3.32447 4.27036 3.44956 5.59281 3.44956 12.4731C3.44956 19.7823 3.28873 21.5694 2.59176 22.4808C2.4197 22.7151 2.19694 22.9075 1.94009 23.0437C1.68325 23.1798 1.39898 23.2562 1.10848 23.2671C0.0183581 23.4637 0.018358 23.4458 0.018358 23.9283C-0.0419266 24.0897 -0.0419266 24.2674 0.018358 24.4287H12.1169C12.197 24.2709 12.2387 24.0964 12.2387 23.9194C12.2387 23.7424 12.197 23.5679 12.1169 23.4101C11.8239 23.3285 11.5252 23.2688 11.2234 23.2314C10.8969 23.1925 10.5741 23.1268 10.2584 23.0348C9.80626 22.7047 9.44811 22.2624 9.21931 21.7515C8.99052 21.2406 8.899 20.6789 8.95379 20.1218C8.77508 18.9423 8.68573 16.78 8.68573 14.9929V13.5811H9.40056C10.2912 13.5538 11.1813 13.6501 12.0455 13.867C12.4595 14.1229 12.8119 14.4669 13.0776 14.8747C13.3432 15.2825 13.5156 15.7439 13.5823 16.226L13.7432 16.78H14.8333V8.86318H13.8325L13.6717 9.63163C13.604 10.1246 13.4216 10.5949 13.1392 11.0046C12.8568 11.4143 12.4821 11.752 12.0455 11.9906C11.6225 12.1164 11.177 12.147 10.7409 12.0799H8.68573V10.1499C8.68573 8.14834 8.79295 3.93082 8.86444 3.2696L8.95379 2.91218ZM92.5895 17.0838C91.7447 15.7242 90.4272 14.7249 88.8902 14.2781C87.7119 13.9097 86.6227 13.3012 85.6913 12.491C85.4817 12.2882 85.3249 12.0373 85.2346 11.7601C85.1442 11.4829 85.1231 11.1877 85.173 10.9005C85.1744 10.337 85.3994 9.79706 85.7985 9.3993C86.069 9.11598 86.4114 8.91146 86.7891 8.80758C87.1669 8.70372 87.5657 8.7044 87.943 8.80956C88.7243 9.03222 89.4307 9.46205 89.9876 10.0535C90.5445 10.645 90.931 11.3761 91.1062 12.1693C91.3921 12.9735 91.4278 12.9735 91.9461 12.759L92.2678 12.6339V8.18408L92.0355 8.07686C90.2761 7.45894 88.4098 7.20362 86.5491 7.32628C84.9467 7.36688 83.4172 8.00418 82.2601 9.11337C81.7353 9.60462 81.3242 10.2046 81.0557 10.8714C80.7871 11.5382 80.6675 12.2556 80.7053 12.9735C80.7154 14.071 81.151 15.1217 81.9205 15.9043C82.771 16.7407 83.8144 17.3545 84.9586 17.6914C87.7286 18.7815 88.5328 19.4785 88.5328 20.7473C88.5446 21.2824 88.3742 21.8056 88.0495 22.231C87.7247 22.6564 87.265 22.9588 86.7457 23.0884C86.1217 23.2255 85.4754 23.2255 84.8514 23.0884C84.0344 22.7713 83.3049 22.2637 82.7236 21.6078C82.1424 20.952 81.7261 20.1668 81.5095 19.3176L81.2772 18.7458H80.9555C80.8018 18.7572 80.6509 18.7934 80.5088 18.853H80.33V23.9283H80.6338C81.8412 24.33 83.0869 24.6054 84.351 24.7504H86.1381C86.9131 24.8073 87.6922 24.7348 88.4434 24.5359C89.3971 24.3599 90.2882 23.9374 91.0281 23.3104C91.768 22.6834 92.3309 21.8737 92.6609 20.9618C92.8742 20.4524 92.9836 19.9056 92.9826 19.3534C93.053 18.5754 92.9174 17.7927 92.5895 17.0838ZM75.7551 7.84454C74.6842 7.39492 73.5304 7.17682 72.3692 7.20454C71.2081 7.23226 70.066 7.50517 69.0178 8.00538C68.0325 8.48732 67.1592 9.17052 66.4543 10.0109C65.7494 10.8512 65.2285 11.83 64.9253 12.8841C64.5388 14.034 64.375 15.2471 64.4428 16.4583C64.43 17.1173 64.4839 17.7759 64.6037 18.4241C64.8923 20.0178 65.6617 21.4851 66.8085 22.6287C67.9554 23.7724 69.4248 24.5377 71.0193 24.8219C72.0577 24.9527 73.1084 24.9527 74.1467 24.8219C75.2242 24.632 76.2554 24.2377 77.1848 23.6603C77.9535 23.2293 78.6041 22.6155 79.0791 21.8732C79.0486 21.7567 78.9949 21.6476 78.9212 21.5524C78.8475 21.4572 78.7553 21.3779 78.6502 21.3192C78.4462 21.393 78.2537 21.4953 78.0783 21.623C77.1894 22.2088 76.1398 22.5024 75.076 22.4629C74.3699 22.5106 73.662 22.4007 73.0037 22.1411C72.3453 21.8814 71.753 21.4786 71.2695 20.9618C70.8955 20.6144 70.5869 20.2028 70.3581 19.7465C69.8028 18.6356 69.5035 17.4142 69.4824 16.1724V15.4754H79.3829V15.118C79.4047 14.7609 79.4047 14.4028 79.3829 14.0457C79.3793 12.7839 79.0418 11.5454 78.4046 10.4563C77.7675 9.3671 76.8533 8.466 75.7551 7.84454ZM70.7691 14.0279H69.5182V12.9735C69.9292 10.275 70.9478 8.6666 72.1988 8.6666C73.4498 8.6666 73.9859 10.2571 74.2182 13.1701V13.9921H73.146L70.7691 14.0279ZM45.0708 7.2548C44.4533 7.23085 43.8394 7.35976 43.2837 7.63009C42.0759 8.21666 41.1003 9.19224 40.5137 10.4001L40.2814 10.829V7.2548H40.1921C39.9776 7.2548 33.3654 8.57724 33.151 8.6666C32.9365 8.75595 33.008 8.77382 33.008 9.0955C33.008 9.41717 33.008 9.47079 33.151 9.48866L33.8479 9.63163C34.0431 9.63641 34.2347 9.68556 34.4081 9.77536C34.5814 9.86515 34.7321 9.99322 34.8487 10.1499C35.2955 10.7396 35.3848 11.7761 35.3848 16.1902C35.4731 18.1774 35.3894 20.1685 35.1346 22.1412C35.0746 22.4387 34.9238 22.7102 34.7029 22.9183C34.4821 23.1263 34.202 23.2607 33.9015 23.3028L33.2939 23.4279H33.0616V23.9283C32.9968 24.095 32.9968 24.2799 33.0616 24.4466H43.0514V23.9283C43.0861 23.7573 43.0861 23.5811 43.0514 23.4101C42.4499 23.3866 41.8518 23.3089 41.2643 23.1777C40.9444 23.0104 40.6827 22.7501 40.5136 22.4311C40.3445 22.1121 40.276 21.7493 40.3172 21.3907C40.1742 20.3541 40.1027 17.3161 40.1385 14.9929C40.1742 12.6697 40.1385 12.5267 40.335 12.3659C40.933 11.9074 41.673 11.6733 42.4259 11.7046C43.1356 11.7201 43.8324 11.8974 44.4632 12.2229C44.6819 12.3443 44.9165 12.4346 45.1602 12.491C45.1602 12.491 46.9473 8.16621 46.9473 7.96963C46.7186 7.70389 46.4272 7.49935 46.0996 7.37454C45.7719 7.24972 45.4184 7.20857 45.0708 7.2548ZM33.0259 14.7606C32.9635 13.4835 32.5968 12.2399 31.9565 11.1332C31.3161 10.0266 30.4206 9.08898 29.3445 8.39853C28.0656 7.70863 26.6428 7.32822 25.1903 7.28787C23.7378 7.24753 22.2961 7.54836 20.9809 8.16621C19.1214 9.14675 17.7174 10.8136 17.0672 12.8126C16.3955 15.0508 16.3955 17.4369 17.0672 19.6751C17.4193 20.8983 18.0774 22.0115 18.9793 22.9097C20.1027 24.0058 21.5512 24.7081 23.1075 24.9112C24.1065 24.9948 25.1108 24.9948 26.1098 24.9112C26.4775 24.8553 26.8415 24.7777 27.1999 24.6789C28.6546 24.272 29.9632 23.4592 30.9728 22.3357C31.9824 21.2122 32.6511 19.8244 32.9008 18.3347C33.0792 17.1521 33.1211 15.9528 33.0259 14.7606ZM25.5916 23.696C23.8045 24.2321 22.4642 22.4986 22.0174 18.853C21.8533 16.9443 21.8533 15.0251 22.0174 13.1164C22.3748 10.1856 23.2862 8.70234 24.698 8.70234C24.9829 8.68469 25.2678 8.73551 25.5289 8.85054C25.7901 8.96558 26.0199 9.14149 26.1992 9.36356C27.3965 10.5609 27.9863 12.9377 27.9863 16.5119C28.135 18.5347 27.817 20.5646 27.057 22.445C26.7214 22.9935 26.2021 23.4051 25.5916 23.6066V23.696ZM57.7591 7.61222C57.2549 7.54733 56.7444 7.54733 56.2401 7.61222C55.2721 7.61139 54.3153 7.81861 53.4344 8.21983L52.8804 8.45215V4.57417C52.9772 3.26543 52.9772 1.95132 52.8804 0.642578C52.6659 0.642578 45.8393 1.94715 45.732 2.00076C45.6793 2.13271 45.6793 2.27985 45.732 2.41179C45.732 2.78708 45.732 2.76921 46.5362 2.94792C46.762 2.99856 46.9789 3.0829 47.1796 3.19811C47.5284 3.52615 47.7606 3.95912 47.8408 4.4312C48.0443 5.79122 48.1101 7.16828 48.0374 8.5415V24.2321L48.5199 24.3393C49.2347 24.5002 51.2541 24.8397 51.9154 24.9112C53.2357 25.0162 54.5623 25.0162 55.8827 24.9112C57.3482 24.7615 58.7451 24.2148 59.9229 23.3299C61.1007 22.445 62.0147 21.2554 62.5664 19.8895C62.8953 19.0128 63.1231 18.1015 63.2455 17.1731C63.3519 15.9157 63.3099 14.65 63.1204 13.4024C62.9287 12.0038 62.3114 10.6981 61.3523 9.66231C60.3933 8.62652 59.1388 7.91079 57.7591 7.61222ZM53.077 23.3922C53.077 23.1599 52.8983 15.3324 52.934 12.205V9.75672L53.4523 9.63163C53.8019 9.58152 54.157 9.58152 54.5066 9.63163C54.8933 9.5923 55.2823 9.68014 55.6146 9.88182C56.282 10.3424 56.8362 10.9484 57.2355 11.6542C57.6348 12.3599 57.8689 13.1471 57.92 13.9564C58.0502 15.2577 58.0502 16.5688 57.92 17.8701C57.813 19.7615 57.0842 21.5645 55.847 22.999C55.4958 23.3326 55.0547 23.5562 54.5781 23.6424C54.2175 23.7051 53.8487 23.7051 53.488 23.6424C53.1485 23.6424 53.1484 23.5352 53.1484 23.3922H53.077Z" fill="white"/>
</g>
<defs>
<clipPath id="clip0_76_15983">
<rect width="93" height="24.358" fill="white" transform="translate(0.000488281 0.642578)"/>
</clipPath>
</defs>
</svg>
