<svg width="91" height="31" viewBox="0 0 91 31" fill="none" xmlns="http://www.w3.org/2000/svg">
<g opacity="0.6">
<g clip-path="url(#clip0_76_15985)">
<path d="M11.4305 5.16867C11.155 5.76145 10.6674 6.22951 10.0639 6.48059C9.75323 6.61505 9.41844 6.6848 9.07995 6.68558C8.74586 6.68479 8.41553 6.61501 8.10967 6.48059C7.81734 6.35479 7.54913 6.17907 7.31706 5.96129C7.09634 5.73155 6.92024 5.46278 6.79776 5.16867C6.65772 4.86413 6.58323 4.53357 6.57911 4.1984C6.57848 3.85535 6.64825 3.51581 6.78409 3.2008C6.9099 2.90847 7.08562 2.64026 7.30339 2.40818C7.53313 2.18746 7.80191 2.01137 8.09601 1.88888C8.401 1.7518 8.7319 1.6819 9.06628 1.6839C9.40842 1.67856 9.74799 1.74369 10.0639 1.87522C10.3622 1.99751 10.6355 2.17353 10.8702 2.39452C11.1036 2.6195 11.2894 2.88902 11.4168 3.18713C11.5633 3.49914 11.6381 3.84004 11.6354 4.18474C11.6495 4.52462 11.5791 4.86267 11.4305 5.16867Z" fill="white"/>
<path d="M69.8804 12.4382C69.6364 11.6921 69.2324 11.0084 68.6966 10.4348C68.1607 9.86117 67.506 9.41156 66.7783 9.1174C65.9567 8.79263 65.0787 8.63468 64.1955 8.65276C62.3232 8.65276 59.6584 9.06274 57.9912 10.5113C57.7925 10.6978 57.6384 10.9267 57.5402 11.1809C57.4309 11.4452 57.3751 11.7286 57.3762 12.0145C57.3765 12.2916 57.4323 12.5657 57.5402 12.8208C57.6486 13.0655 57.8016 13.2879 57.9912 13.4768C58.3991 13.8587 58.9357 14.0733 59.4944 14.0781C59.7804 14.0792 60.0638 14.0234 60.328 13.9141C60.8322 13.6964 61.2401 13.303 61.476 12.8072C61.5959 12.5555 61.6567 12.2797 61.6536 12.0009C61.6384 11.8626 61.6745 11.7235 61.7552 11.6101C61.8358 11.4967 61.9553 11.4169 62.0909 11.3859C62.7506 11.2312 63.4399 11.2588 64.0851 11.4658C64.7302 11.6729 65.3069 12.0515 65.7534 12.5612C66.218 13.0805 66.4503 13.9004 66.4503 15.021V15.9913C64.8745 15.9655 63.3011 16.1261 61.7629 16.4696C60.6985 16.7136 59.6793 17.1241 58.7428 17.6858C58.0714 18.0929 57.5124 18.6613 57.1166 19.3394C56.8029 19.9043 56.6338 20.5382 56.6246 21.1843C56.6067 21.8475 56.7229 22.5076 56.9663 23.1248C57.1863 23.6569 57.5225 24.1332 57.9502 24.5187C58.3894 24.9033 58.907 25.1877 59.4671 25.3524C60.0916 25.5431 60.741 25.6398 61.394 25.6393C61.9307 25.6442 62.4665 25.5938 62.9929 25.489C63.464 25.3973 63.9226 25.2505 64.3594 25.0517C64.7957 24.8551 65.2122 24.6172 65.603 24.3411C66.0313 24.0367 66.442 23.7082 66.833 23.3571L67.1883 24.5187C67.2149 24.6602 67.2698 24.7948 67.3496 24.9145C67.4295 25.0342 67.5326 25.1367 67.6529 25.2157C67.9276 25.3381 68.2272 25.3943 68.5275 25.3797H70.3041V15.0074C70.3068 14.1334 70.1636 13.265 69.8804 12.4382ZM66.4366 21.157C66.1693 21.4333 65.8815 21.6891 65.5757 21.9222C65.3009 22.1299 65.0082 22.3128 64.7011 22.4689C64.3928 22.6187 64.0668 22.7289 63.7308 22.7969C63.3625 22.8744 62.9866 22.9111 62.6102 22.9062C62.0385 22.9305 61.4738 22.7726 60.9977 22.4552C60.5877 22.1546 60.3827 21.6489 60.3827 20.952C60.3771 20.6006 60.4823 20.2563 60.6833 19.968C60.9405 19.6208 61.2846 19.3474 61.681 19.1754C62.2757 18.9148 62.8997 18.7266 63.5395 18.6151C64.4965 18.4536 65.4663 18.3804 66.4366 18.3965V21.157ZM87.3316 25.407V14.9664C87.344 14.1149 87.2242 13.2666 86.9763 12.4519C86.7613 11.7319 86.4035 11.0626 85.9241 10.484C85.4492 9.92759 84.8563 9.48408 84.1885 9.18573C83.4356 8.87246 82.6259 8.7189 81.8107 8.73476C81.2961 8.7345 80.7829 8.78948 80.2801 8.89875C79.8268 9.00419 79.3868 9.16004 78.9682 9.36338C78.5534 9.56532 78.1597 9.80794 77.7929 10.0877C77.4201 10.3715 77.0684 10.6821 76.7406 11.0169L76.481 9.7187C76.421 9.50037 76.2877 9.30929 76.1036 9.17744C75.9196 9.04559 75.6958 8.98098 75.4697 8.99441H71.1513V10.2243C71.1513 11.1536 72.9416 10.484 72.9416 12.1649V25.407H76.9866V13.5314C77.4811 13.025 78.0532 12.6006 78.6812 12.2742C79.2724 11.9696 79.9294 11.8148 80.5944 11.8232C81.5237 11.8232 82.2206 12.0965 82.6853 12.6432C83.1499 13.1898 83.3822 13.9688 83.3822 14.9664V25.407H87.3316ZM11.1859 8.99441H5.33691V10.238C5.33691 11.0579 7.1408 10.5796 7.1408 12.1922V25.407H11.1722V8.99441H11.1859ZM29.2657 25.407V14.9664C29.2781 14.1149 29.1582 13.2666 28.9104 12.4519C28.6954 11.7319 28.3375 11.0626 27.8581 10.484C27.3833 9.92759 26.7904 9.48408 26.1226 9.18573C25.3697 8.87246 24.56 8.7189 23.7447 8.73476C23.2301 8.7345 22.717 8.78948 22.2142 8.89875C21.7609 9.00419 21.3208 9.16004 20.9022 9.36338C20.4901 9.56232 20.1007 9.80515 19.7407 10.0877C19.3678 10.3715 19.0161 10.6821 18.6884 11.0169L18.4287 9.7187C18.3687 9.50037 18.2355 9.30929 18.0514 9.17744C17.8673 9.04559 17.6435 8.98098 17.4175 8.99441H13.0717V10.2243C13.0717 11.1536 14.862 10.484 14.862 12.1649V25.407H18.907V13.5314C19.4015 13.025 19.9736 12.6006 20.6016 12.2742C21.1972 11.968 21.8589 11.8132 22.5285 11.8232C23.4577 11.8232 24.1547 12.0965 24.6193 12.6432C25.084 13.1898 25.3163 13.9688 25.3163 14.9664V25.407H29.2657ZM54.6157 12.3152C54.3914 11.5948 54.019 10.9291 53.5225 10.361C53.0325 9.8234 52.4243 9.40704 51.7459 9.14473C50.9725 8.85752 50.1519 8.71844 49.3271 8.73476C48.8026 8.73229 48.2797 8.79192 47.7692 8.91241C47.2597 9.02231 46.7677 9.20164 46.3069 9.44538C45.84 9.69592 45.4157 10.0188 45.0497 10.402C44.6517 10.8123 44.3281 11.2885 44.0931 11.8096C43.8059 10.9466 43.2913 10.1771 42.6035 9.58204C41.8846 8.99543 40.975 8.69384 40.048 8.73476C39.5921 8.73453 39.1378 8.7896 38.6951 8.89875C38.2969 9.00612 37.9119 9.15736 37.5472 9.34972C37.1886 9.54397 36.8499 9.77282 36.5359 10.033C36.2154 10.3034 35.9141 10.5956 35.634 10.9076L35.3743 9.69136C35.3143 9.47303 35.181 9.28195 34.997 9.15011C34.8129 9.01826 34.5891 8.95365 34.363 8.96708H30.3043V10.3883C30.3043 11.0579 32.0672 10.9076 32.0672 12.1785V25.407H35.9209V13.3948C36.3155 12.9358 36.7816 12.5436 37.3012 12.2332C37.7887 11.9565 38.3395 11.8106 38.9001 11.8096C39.761 11.8096 40.417 12.0555 40.8543 12.5612C41.2916 13.0668 41.5239 13.8594 41.5239 14.9664V25.407H45.487V14.9664C45.4761 14.5058 45.5502 14.0471 45.7056 13.6134C45.8306 13.2557 46.0324 12.9296 46.2968 12.6581C46.5612 12.3866 46.8819 12.1763 47.2362 12.0419C47.5941 11.9056 47.9739 11.8361 48.3568 11.8369C49.2451 11.8369 49.9147 12.0965 50.3657 12.6295C50.8167 13.1625 51.049 13.9414 51.049 14.9937V25.407H54.9847V14.9664C54.9916 14.0694 54.8673 13.1762 54.6157 12.3152Z" fill="white"/>
</g>
</g>
<defs>
<clipPath id="clip0_76_15985">
<rect width="81.9961" height="23.9561" fill="white" transform="translate(5.33691 1.68359)"/>
</clipPath>
</defs>
</svg>
