<svg width="24" height="24" viewBox="0 0 24 24" fill="none" xmlns="http://www.w3.org/2000/svg">
<g clip-path="url(#clip0_845_606)">
<path d="M18.0834 10.2857C18.5507 10.2857 18.971 10.5702 19.1445 11.0041L23.2587 21.2898C23.5591 22.0405 23.0053 22.8571 22.1968 22.8571C21.7296 22.8571 21.309 22.5728 21.1354 22.1391L20.0503 19.4285H15.376L14.2929 22.1385C14.1194 22.5724 13.6992 22.8571 13.2318 22.8571C12.4233 22.8571 11.8705 22.0407 12.1707 21.29L16.2841 11.0042C16.4576 10.5702 16.8779 10.2857 17.3453 10.2857H18.0834ZM8 1.14282C8.63118 1.14282 9.14286 1.6545 9.14286 2.28568V3.42854H14.8571C15.4883 3.42854 16 3.94022 16 4.57139C16 5.20257 15.4883 5.71425 14.8571 5.71425H13.7509C12.8693 8.36806 11.4623 10.8171 9.61371 12.9154C10.1942 13.4333 10.8093 13.9106 11.4545 14.3437C11.9226 14.658 12.1254 15.2615 11.916 15.785C11.6589 16.4281 10.8869 16.7103 10.3089 16.3288C9.49613 15.7925 8.72426 15.1955 8 14.5428C6.25071 16.126 4.22527 17.3682 2.02838 18.2097C1.42523 18.4407 0.768986 18.0788 0.596073 17.4565C0.431573 16.8645 0.765563 16.2492 1.3375 16.0247C3.18946 15.2975 4.90035 14.2458 6.38857 12.9165C5.48129 11.8894 4.67944 10.7757 3.99414 9.5923C3.5748 8.86817 4.12259 7.99997 4.95937 7.99997H5.04161C5.46102 7.99997 5.84422 8.23121 6.05754 8.5923C6.62182 9.54743 7.2719 10.4497 8 11.288C9.4287 9.64122 10.5546 7.75459 11.3257 5.71539L1.14274 5.71437C0.511603 5.71431 0 5.20259 0 4.57145C0 3.94027 0.511674 3.42854 1.14286 3.42854H6.85714V2.28568C6.85714 1.6545 7.36882 1.14282 8 1.14282ZM17.7143 13.5828L16.2891 17.1428H19.1371L17.7143 13.5828Z" fill="#F55116"/>
</g>
<defs>
<clipPath id="clip0_845_606">
<rect width="24" height="24" fill="white"/>
</clipPath>
</defs>
</svg>
