<svg width="223" height="33" viewBox="0 0 223 33" fill="none" xmlns="http://www.w3.org/2000/svg">
<g opacity="0.6" clip-path="url(#clip0_76_15982)">
<path d="M16.7275 6.30078C16.7275 3.90078 14.4475 3.30078 12.6475 3.30078V3.66078C13.7275 3.66078 14.5675 4.02078 14.5675 4.86078C14.5675 5.34078 14.2075 6.06078 13.1275 6.06078C12.2875 6.06078 10.4875 5.58078 9.16748 5.10078C7.60748 4.50078 6.16748 4.02078 4.96748 4.02078C2.56748 4.02078 0.88748 5.82078 0.88748 7.86078C0.88748 9.66078 2.20748 10.2608 2.68748 10.5008L2.80748 10.2608C2.56748 10.0208 2.20748 9.78078 2.20748 9.06078C2.20748 8.58078 2.68748 7.74078 3.88748 7.74078C4.96748 7.74078 6.40748 8.22078 8.32748 8.82078C10.0075 9.30078 11.8075 9.66078 12.7675 9.78078V13.5008L10.9675 15.0608V15.1808L12.7675 16.7408V21.9008C11.8075 22.5008 10.7275 22.6208 9.76748 22.6208C7.96748 22.6208 6.40748 22.1408 5.08748 20.7008L10.0075 18.3008V10.0208L4.00748 12.6608C4.48748 11.1008 5.80748 10.0208 7.12748 9.30078L7.00748 8.94078C3.40748 9.90078 0.16748 13.2608 0.16748 17.3408C0.16748 22.1408 4.12748 25.7408 8.56748 25.7408C13.3675 25.7408 16.4875 21.9008 16.4875 17.9408H16.2475C15.5275 19.5008 14.4475 20.9408 13.1275 21.6608V16.7408L15.0475 15.1808V15.0608L13.1275 13.5008V9.78078C14.9275 9.78078 16.7275 8.58078 16.7275 6.30078ZM6.28748 19.5008L4.84748 20.2208C4.00748 19.1408 3.52748 17.7008 3.52748 15.6608C3.52748 14.8208 3.52748 13.8608 3.76748 13.1408L6.28748 12.0608V19.5008ZM19.0075 22.2608L17.4475 23.4608L17.6875 23.7008L18.4075 23.1008L21.0475 25.5008L24.6475 23.1008L24.5275 22.8608L23.5675 23.4608L22.3675 22.2608V14.1008L23.3275 13.3808L25.3675 15.0608V22.3808C25.3675 26.9408 24.4075 27.6608 22.3675 28.3808V28.7408C25.7275 28.8608 28.8475 27.7808 28.8475 21.9008V13.9808L29.9275 13.1408L29.6875 12.9008L28.7275 13.6208L25.7275 11.1008L22.3675 13.6208V3.78078H22.1275L17.9275 6.66078V6.90078C18.4075 7.14078 19.1275 7.38078 19.1275 8.70078L19.0075 22.2608ZM40.9675 20.9408L37.9675 23.2208L34.9675 20.8208V19.3808L40.6075 15.5408V15.4208L37.7275 11.1008L31.4875 14.4608V22.3808L30.2875 23.3408L30.5275 23.5808L31.6075 22.7408L35.6875 25.7408L41.0875 21.4208L40.9675 20.9408ZM34.9675 18.9008V13.0208L35.2075 12.9008L37.8475 17.1008L34.9675 18.9008ZM63.8875 5.22078C63.8875 4.86078 63.7675 4.50078 63.6475 4.14078H63.4075C63.0475 5.10078 62.5675 5.58078 61.3675 5.58078C60.2875 5.58078 59.5675 4.98078 59.0875 4.50078L55.6075 8.46078L55.8475 8.70078L57.0475 7.62078C57.7675 8.22078 58.3675 8.70078 60.0475 8.82078V18.7808L52.9675 6.66078C52.3675 5.70078 51.5275 4.38078 49.8475 4.38078C47.9275 4.38078 46.2475 6.06078 46.4875 8.70078H46.8475C46.9675 7.98078 47.3275 7.14078 48.1675 7.14078C48.7675 7.14078 49.3675 7.74078 49.7275 8.34078V12.3008C47.5675 12.3008 46.1275 13.2608 46.1275 15.0608C46.1275 16.0208 46.6075 17.4608 48.0475 17.8208V17.5808C47.8075 17.3408 47.6875 17.1008 47.6875 16.7408C47.6875 16.1408 48.1675 15.6608 49.0075 15.6608H49.6075V20.7008C47.0875 20.7008 45.0475 22.1408 45.0475 24.5408C45.0475 26.8208 46.9675 27.9008 49.1275 27.7808V27.5408C47.8075 27.4208 47.2075 26.8208 47.2075 25.9808C47.2075 24.9008 47.9275 24.4208 48.8875 24.4208C49.8475 24.4208 50.6875 25.0208 51.2875 25.7408L54.7675 21.9008L54.5275 21.6608L53.6875 22.6208C52.3675 21.4208 51.6475 21.0608 50.0875 20.8208V8.82078L59.6875 25.6208H60.4075V8.82078C62.2075 8.70078 63.8875 7.26078 63.8875 5.22078ZM72.6475 20.9408L69.6475 23.2208L66.6475 20.8208V19.3808L72.2875 15.5408V15.4208L69.4075 11.1008L63.1675 14.4608V22.3808L61.9675 23.3408L62.2075 23.5808L63.2875 22.7408L67.3675 25.7408L72.7675 21.4208L72.6475 20.9408ZM66.6475 18.9008V13.0208L66.8875 12.9008L69.5275 17.1008L66.6475 18.9008ZM92.2075 12.4208L91.3675 13.0208L89.0875 11.1008L86.4475 13.5008L87.5275 14.5808V23.5808L84.6475 21.7808V14.3408L85.6075 13.7408L82.8475 11.1008L80.2075 13.5008L81.2875 14.5808V23.2208L80.9275 23.4608L78.4075 21.6608V14.4608C78.4075 12.7808 77.5675 12.3008 76.6075 11.7008C75.7675 11.1008 75.2875 10.7408 75.2875 9.90078C75.2875 9.18078 76.0075 8.82078 76.3675 8.58078V8.34078C75.4075 8.34078 72.8875 9.30078 72.8875 11.5808C72.8875 12.7808 73.4875 13.2608 74.0875 13.8608C74.6875 14.4608 75.2875 14.9408 75.2875 16.0208V22.9808L73.9675 23.9408L74.2075 24.1808L75.4075 23.2208L78.1675 25.6208L81.1675 23.5808L84.5275 25.6208L90.8875 21.9008V13.8608L92.4475 12.6608L92.2075 12.4208ZM114.527 5.82078L113.327 6.90078L110.687 4.50078L106.727 7.38078V4.74078H106.367L106.487 24.1808C106.127 24.1808 105.047 23.9408 104.207 23.7008L103.967 7.50078C103.967 6.30078 103.127 4.62078 100.967 4.62078C98.8075 4.62078 97.3675 6.30078 97.3675 7.98078H97.7275C97.8475 7.26078 98.2075 6.66078 98.9275 6.66078C99.6475 6.66078 100.247 7.14078 100.247 8.70078V13.3808C98.0875 13.5008 96.7675 14.7008 96.7675 16.2608C96.7675 17.2208 97.2475 18.6608 98.6875 18.6608V18.4208C98.2075 18.1808 98.0875 17.8208 98.0875 17.5808C98.0875 16.8608 98.6875 16.6208 99.6475 16.6208H100.127V24.0608C98.3275 24.6608 97.6075 25.9808 97.6075 27.4208C97.6075 29.4608 99.1675 30.9008 101.567 30.9008C103.247 30.9008 104.687 30.6608 106.127 30.3008C107.327 30.0608 108.887 29.7008 109.607 29.7008C110.567 29.7008 110.927 30.1808 110.927 30.7808C110.927 31.6208 110.567 31.9808 110.087 32.1008V32.3408C112.007 31.9808 113.207 30.7808 113.207 28.9808C113.207 27.1808 111.407 26.1008 109.487 26.1008C108.527 26.1008 106.487 26.4608 105.047 26.7008C103.367 27.0608 101.687 27.3008 101.207 27.3008C100.367 27.3008 99.4075 26.9408 99.4075 25.7408C99.4075 24.7808 100.247 23.9408 102.287 23.9408C103.367 23.9408 104.687 24.0608 106.007 24.4208C107.447 24.7808 108.767 25.1408 109.967 25.1408C111.767 25.1408 113.327 24.5408 113.327 22.0208V7.26078L114.767 6.06078L114.527 5.82078ZM109.607 13.1408C109.247 13.5008 108.767 13.8608 108.167 13.8608C107.567 13.8608 106.967 13.5008 106.727 13.1408V7.86078L107.927 7.02078L109.607 8.58078V13.1408ZM109.607 16.7408C109.367 16.5008 108.767 16.1408 108.167 16.1408C107.567 16.1408 106.967 16.5008 106.727 16.7408V13.6208C106.967 13.8608 107.567 14.2208 108.167 14.2208C108.767 14.2208 109.367 13.8608 109.607 13.6208V16.7408ZM109.607 22.3808C109.607 23.3408 109.007 24.3008 107.687 24.3008H106.727V17.2208C106.967 16.9808 107.567 16.6208 108.167 16.6208C108.767 16.6208 109.247 16.9808 109.607 17.2208V22.3808ZM126.047 13.8608L122.207 11.1008L116.327 14.4608V22.2608L115.127 23.2208L115.247 23.4608L116.207 22.7408L120.047 25.6208L126.047 22.0208V13.8608ZM119.567 21.4208V12.7808L122.567 14.9408V23.4608L119.567 21.4208ZM137.447 11.3408H137.207C136.847 11.5808 136.487 11.8208 136.127 11.8208C135.647 11.8208 135.047 11.5808 134.807 11.2208H134.567L132.527 13.5008L130.487 11.2208L126.887 13.6208L127.007 13.8608L127.967 13.2608L129.167 14.5808V22.1408L127.607 23.3408L127.847 23.5808L128.567 22.9808L131.447 25.3808L135.167 22.8608L135.047 22.6208L133.967 23.2208L132.527 22.0208V13.6208C133.127 14.2208 133.847 14.8208 134.687 14.8208C136.367 14.9408 137.327 13.2608 137.447 11.3408ZM151.847 22.8608L147.767 25.6208L142.247 17.2208L146.207 11.1008H146.447C146.927 11.5808 147.647 12.0608 148.487 12.0608C149.327 12.0608 149.927 11.5808 150.287 11.1008H150.527C150.407 13.5008 148.727 14.9408 147.527 14.9408C146.327 14.9408 145.727 14.3408 145.007 13.9808L144.647 14.5808L150.647 23.4608L151.847 22.7408V22.8608ZM138.647 22.2608L137.087 23.4608L137.327 23.7008L138.047 23.1008L140.687 25.5008L144.287 23.1008L144.047 22.8608L143.087 23.4608L141.887 22.2608V3.78078H141.767L137.447 6.66078V6.90078C137.927 7.14078 138.647 7.26078 138.647 8.70078V22.2608ZM171.767 6.30078C171.767 3.90078 169.487 3.30078 167.688 3.30078V3.66078C168.768 3.66078 169.607 4.02078 169.607 4.86078C169.607 5.34078 169.247 6.06078 168.167 6.06078C167.327 6.06078 165.527 5.58078 164.207 5.10078C162.647 4.62078 161.207 4.14078 160.007 4.14078C157.607 4.14078 155.927 5.94078 155.927 7.98078C155.927 9.78078 157.247 10.3808 157.727 10.6208L157.847 10.3808C157.487 10.1408 157.127 9.90078 157.127 9.18078C157.127 8.70078 157.607 7.86078 158.807 7.86078C159.887 7.86078 161.327 8.34078 163.247 8.94078C164.927 9.42078 166.727 9.78078 167.688 9.90078V13.6208L165.887 15.1808V15.3008L167.688 16.8608V22.0208C166.727 22.6208 165.647 22.7408 164.688 22.7408C162.887 22.7408 161.327 22.2608 160.007 20.8208L164.927 18.4208V10.0208L158.927 12.6608C159.527 11.1008 160.847 10.0208 162.047 9.18078L161.927 8.94078C158.327 9.90078 155.087 13.1408 155.087 17.2208C155.087 22.0208 159.048 25.6208 163.487 25.6208C168.287 25.6208 171.407 21.7808 171.407 17.8208H171.167C170.447 19.3808 169.367 20.8208 168.047 21.5408V16.6208L169.967 15.0608V14.9408L168.167 13.3808V9.78078C169.967 9.78078 171.767 8.58078 171.767 6.30078ZM161.327 19.5008L159.887 20.2208C159.048 19.1408 158.567 17.7008 158.567 15.6608C158.567 14.8208 158.687 13.8608 158.927 13.1408L161.447 12.0608L161.327 19.5008ZM175.967 5.10078H175.847L173.447 7.14078V7.26078L175.487 9.54078H175.727L178.127 7.50078V7.38078L175.967 5.10078ZM179.567 22.8608L178.607 23.4608L177.407 22.2608V13.9808L178.607 13.1408L178.367 12.9008L177.527 13.6208L175.367 11.1008L171.887 13.5008L172.127 13.8608L172.967 13.2608L174.047 14.5808V22.3808L172.487 23.5808L172.607 23.8208L173.447 23.2208L176.087 25.6208L179.688 23.2208L179.567 22.8608ZM199.607 22.7408L198.767 23.3408L197.447 22.1408V13.9808L198.647 13.0208L198.407 12.7808L197.447 13.6208L194.688 11.1008L191.087 13.6208L188.327 11.1008L184.967 13.6208L182.807 11.1008L179.327 13.5008L179.447 13.8608L180.287 13.2608L181.487 14.5808V22.3808L180.527 23.3408L183.287 25.6208L185.927 23.2208L184.847 22.1408V13.9808L185.927 13.2608L187.727 14.9408V22.1408L186.767 23.1008L189.527 25.3808L192.167 22.9808L191.087 21.9008V13.9808L192.047 13.3808L193.967 15.0608V22.2608L193.127 23.1008L195.887 25.6208L199.607 23.1008V22.7408ZM210.047 20.9408L207.047 23.2208L204.047 20.8208V19.3808L209.688 15.5408V15.4208L206.807 11.1008L200.567 14.4608V22.6208L204.767 25.6208L210.167 21.3008L210.047 20.9408ZM204.047 18.9008V13.0208L204.287 12.9008L206.927 17.1008L204.047 18.9008ZM220.967 17.8208L218.688 16.0208C220.247 14.7008 220.847 12.9008 220.847 11.7008V10.9808H220.607C220.367 11.5808 219.887 12.1808 218.927 12.1808C217.967 12.1808 217.367 11.7008 216.767 10.9808L211.367 13.9808V18.3008L213.407 19.8608C211.367 21.6608 211.007 22.8608 211.007 23.8208C211.007 25.0208 211.607 25.8608 212.567 26.2208L212.688 25.9808C212.447 25.7408 212.207 25.6208 212.207 25.0208C212.207 24.6608 212.687 24.0608 213.647 24.0608C214.847 24.0608 215.567 24.9008 215.927 25.2608L221.087 22.1408V17.8208H220.967ZM219.647 14.2208C218.807 15.6608 217.007 17.1008 215.927 17.8208L214.607 16.7408V12.5408C215.087 13.7408 216.407 14.7008 217.727 14.7008C218.567 14.7008 219.047 14.5808 219.647 14.2208ZM217.607 23.8208C217.007 22.5008 215.567 21.5408 214.127 21.5408C213.767 21.5408 212.807 21.5408 211.847 22.1408C212.447 21.1808 214.007 19.5008 216.047 18.3008L217.488 19.5008L217.607 23.8208Z" fill="white"/>
</g>
<defs>
<clipPath id="clip0_76_15982">
<rect width="222" height="32" fill="white" transform="translate(0.16748 0.821289)"/>
</clipPath>
</defs>
</svg>
