<svg width="164" height="311" viewBox="0 0 164 311" fill="none" xmlns="http://www.w3.org/2000/svg">
<g clip-path="url(#clip0_757_28073)">
<g clip-path="url(#clip1_757_28073)">
<circle cx="23.9573" cy="3.00268" r="3.00268" fill="#F68A22"/>
<circle cx="47.9788" cy="3.00268" r="3.00268" fill="#F68A22"/>
<circle cx="72" cy="3.00268" r="3.00268" fill="#F68A22"/>
<circle cx="96.0215" cy="3.00268" r="3.00268" fill="#F68A22"/>
<circle cx="120.043" cy="3.00268" r="3.00268" fill="#F68A22"/>
</g>
<g clip-path="url(#clip2_757_28073)">
<circle cx="23.9573" cy="27.0242" r="3.00268" fill="#F68A22"/>
<circle cx="47.9788" cy="27.0242" r="3.00268" fill="#F68A22"/>
<circle cx="72" cy="27.0242" r="3.00268" fill="#F68A22"/>
<circle cx="96.0215" cy="27.0242" r="3.00268" fill="#F68A22"/>
<circle cx="120.043" cy="27.0242" r="3.00268" fill="#F68A22"/>
</g>
<g clip-path="url(#clip3_757_28073)">
<circle cx="23.9573" cy="51.0456" r="3.00268" fill="#F68A22"/>
<circle cx="47.9788" cy="51.0456" r="3.00268" fill="#F68A22"/>
<circle cx="72" cy="51.0456" r="3.00268" fill="#F68A22"/>
<circle cx="96.0215" cy="51.0456" r="3.00268" fill="#F68A22"/>
<circle cx="120.043" cy="51.0456" r="3.00268" fill="#F68A22"/>
</g>
<g clip-path="url(#clip4_757_28073)">
<circle cx="23.9573" cy="75.0671" r="3.00268" fill="#F68A22"/>
<circle cx="47.9788" cy="75.0671" r="3.00268" fill="#F68A22"/>
<circle cx="72" cy="75.0671" r="3.00268" fill="#F68A22"/>
<circle cx="96.0215" cy="75.0671" r="3.00268" fill="#F68A22"/>
<circle cx="120.043" cy="75.0671" r="3.00268" fill="#F68A22"/>
</g>
<g clip-path="url(#clip5_757_28073)">
<circle cx="23.9573" cy="99.0881" r="3.00268" fill="#F68A22"/>
<circle cx="47.9788" cy="99.0881" r="3.00268" fill="#F68A22"/>
<circle cx="72" cy="99.0881" r="3.00268" fill="#F68A22"/>
<circle cx="96.0215" cy="99.0881" r="3.00268" fill="#F68A22"/>
<circle cx="120.043" cy="99.0881" r="3.00268" fill="#F68A22"/>
</g>
<g clip-path="url(#clip6_757_28073)">
<circle cx="23.9573" cy="123.11" r="3.00268" fill="#F68A22"/>
<circle cx="47.9788" cy="123.11" r="3.00268" fill="#F68A22"/>
<circle cx="72" cy="123.11" r="3.00268" fill="#F68A22"/>
<circle cx="96.0215" cy="123.11" r="3.00268" fill="#F68A22"/>
<circle cx="120.043" cy="123.11" r="3.00268" fill="#F68A22"/>
</g>
<g clip-path="url(#clip7_757_28073)">
<circle cx="23.9573" cy="147.131" r="3.00268" fill="#F68A22"/>
<circle cx="47.9788" cy="147.131" r="3.00268" fill="#F68A22"/>
<circle cx="72" cy="147.131" r="3.00268" fill="#F68A22"/>
<circle cx="96.0215" cy="147.131" r="3.00268" fill="#F68A22"/>
<circle cx="120.043" cy="147.131" r="3.00268" fill="#F68A22"/>
</g>
<g clip-path="url(#clip8_757_28073)">
<circle cx="23.9573" cy="171.153" r="3.00268" fill="#F68A22"/>
<circle cx="47.9788" cy="171.153" r="3.00268" fill="#F68A22"/>
<circle cx="72" cy="171.153" r="3.00268" fill="#F68A22"/>
<circle cx="96.0215" cy="171.153" r="3.00268" fill="#F68A22"/>
<circle cx="120.043" cy="171.153" r="3.00268" fill="#F68A22"/>
</g>
<g clip-path="url(#clip9_757_28073)">
<circle cx="23.9573" cy="195.174" r="3.00268" fill="#F68A22"/>
<circle cx="47.9788" cy="195.174" r="3.00268" fill="#F68A22"/>
<circle cx="72" cy="195.174" r="3.00268" fill="#F68A22"/>
<circle cx="96.0215" cy="195.174" r="3.00268" fill="#F68A22"/>
<circle cx="120.043" cy="195.174" r="3.00268" fill="#F68A22"/>
</g>
<g clip-path="url(#clip10_757_28073)">
<circle cx="23.9573" cy="219.196" r="3.00268" fill="#F68A22"/>
<circle cx="47.9788" cy="219.196" r="3.00268" fill="#F68A22"/>
<circle cx="72" cy="219.196" r="3.00268" fill="#F68A22"/>
<circle cx="96.0215" cy="219.196" r="3.00268" fill="#F68A22"/>
<circle cx="120.043" cy="219.196" r="3.00268" fill="#F68A22"/>
</g>
<g clip-path="url(#clip11_757_28073)">
<circle cx="23.9573" cy="243.217" r="3.00268" fill="#F68A22"/>
<circle cx="47.9788" cy="243.217" r="3.00268" fill="#F68A22"/>
<circle cx="72" cy="243.217" r="3.00268" fill="#F68A22"/>
<circle cx="96.0215" cy="243.217" r="3.00268" fill="#F68A22"/>
<circle cx="120.043" cy="243.217" r="3.00268" fill="#F68A22"/>
</g>
<g clip-path="url(#clip12_757_28073)">
<circle cx="23.9573" cy="267.238" r="3.00268" fill="#F68A22"/>
<circle cx="47.9788" cy="267.238" r="3.00268" fill="#F68A22"/>
<circle cx="72" cy="267.238" r="3.00268" fill="#F68A22"/>
<circle cx="96.0215" cy="267.238" r="3.00268" fill="#F68A22"/>
<circle cx="120.043" cy="267.238" r="3.00268" fill="#F68A22"/>
</g>
<g clip-path="url(#clip13_757_28073)">
<circle cx="23.9573" cy="291.26" r="3.00268" fill="#F68A22"/>
<circle cx="47.9788" cy="291.26" r="3.00268" fill="#F68A22"/>
<circle cx="72" cy="291.26" r="3.00268" fill="#F68A22"/>
<circle cx="96.0215" cy="291.26" r="3.00268" fill="#F68A22"/>
<circle cx="120.043" cy="291.26" r="3.00268" fill="#F68A22"/>
</g>
</g>
<g clip-path="url(#clip14_757_28073)">
<g clip-path="url(#clip15_757_28073)">
<circle cx="142.957" cy="3.00268" r="3.00268" fill="#F68A22"/>
<circle cx="166.979" cy="3.00268" r="3.00268" fill="#F68A22"/>
</g>
<g clip-path="url(#clip16_757_28073)">
<circle cx="142.957" cy="27.0242" r="3.00268" fill="#F68A22"/>
<circle cx="166.979" cy="27.0242" r="3.00268" fill="#F68A22"/>
</g>
<g clip-path="url(#clip17_757_28073)">
<circle cx="142.957" cy="51.0456" r="3.00268" fill="#F68A22"/>
<circle cx="166.979" cy="51.0456" r="3.00268" fill="#F68A22"/>
</g>
<g clip-path="url(#clip18_757_28073)">
<circle cx="142.957" cy="75.0671" r="3.00268" fill="#F68A22"/>
<circle cx="166.979" cy="75.0671" r="3.00268" fill="#F68A22"/>
</g>
<g clip-path="url(#clip19_757_28073)">
<circle cx="142.957" cy="99.0881" r="3.00268" fill="#F68A22"/>
<circle cx="166.979" cy="99.0881" r="3.00268" fill="#F68A22"/>
</g>
<g clip-path="url(#clip20_757_28073)">
<circle cx="142.957" cy="123.11" r="3.00268" fill="#F68A22"/>
<circle cx="166.979" cy="123.11" r="3.00268" fill="#F68A22"/>
</g>
<g clip-path="url(#clip21_757_28073)">
<circle cx="142.957" cy="147.131" r="3.00268" fill="#F68A22"/>
<circle cx="166.979" cy="147.131" r="3.00268" fill="#F68A22"/>
</g>
<g clip-path="url(#clip22_757_28073)">
<circle cx="142.957" cy="171.153" r="3.00268" fill="#F68A22"/>
<circle cx="166.979" cy="171.153" r="3.00268" fill="#F68A22"/>
</g>
<g clip-path="url(#clip23_757_28073)">
<circle cx="142.957" cy="195.174" r="3.00268" fill="#F68A22"/>
<circle cx="166.979" cy="195.174" r="3.00268" fill="#F68A22"/>
</g>
<g clip-path="url(#clip24_757_28073)">
<circle cx="142.957" cy="219.196" r="3.00268" fill="#F68A22"/>
<circle cx="166.979" cy="219.196" r="3.00268" fill="#F68A22"/>
</g>
<g clip-path="url(#clip25_757_28073)">
<circle cx="142.957" cy="243.217" r="3.00268" fill="#F68A22"/>
<circle cx="166.979" cy="243.217" r="3.00268" fill="#F68A22"/>
</g>
<g clip-path="url(#clip26_757_28073)">
<circle cx="142.957" cy="267.238" r="3.00268" fill="#F68A22"/>
<circle cx="166.979" cy="267.238" r="3.00268" fill="#F68A22"/>
</g>
<g clip-path="url(#clip27_757_28073)">
<circle cx="142.957" cy="291.26" r="3.00268" fill="#F68A22"/>
<circle cx="166.979" cy="291.26" r="3.00268" fill="#F68A22"/>
</g>
</g>
<defs>
<clipPath id="clip0_757_28073">
<rect width="144" height="311" fill="white"/>
</clipPath>
<clipPath id="clip1_757_28073">
<rect width="102.091" height="6.00535" fill="white" transform="translate(20.9546)"/>
</clipPath>
<clipPath id="clip2_757_28073">
<rect width="102.091" height="6.00535" fill="white" transform="translate(20.9546 24.0215)"/>
</clipPath>
<clipPath id="clip3_757_28073">
<rect width="102.091" height="6.00535" fill="white" transform="translate(20.9546 48.043)"/>
</clipPath>
<clipPath id="clip4_757_28073">
<rect width="102.091" height="6.00535" fill="white" transform="translate(20.9546 72.0645)"/>
</clipPath>
<clipPath id="clip5_757_28073">
<rect width="102.091" height="6.00535" fill="white" transform="translate(20.9546 96.0854)"/>
</clipPath>
<clipPath id="clip6_757_28073">
<rect width="102.091" height="6.00535" fill="white" transform="translate(20.9546 120.107)"/>
</clipPath>
<clipPath id="clip7_757_28073">
<rect width="102.091" height="6.00535" fill="white" transform="translate(20.9546 144.128)"/>
</clipPath>
<clipPath id="clip8_757_28073">
<rect width="102.091" height="6.00535" fill="white" transform="translate(20.9546 168.15)"/>
</clipPath>
<clipPath id="clip9_757_28073">
<rect width="102.091" height="6.00535" fill="white" transform="translate(20.9546 192.171)"/>
</clipPath>
<clipPath id="clip10_757_28073">
<rect width="102.091" height="6.00535" fill="white" transform="translate(20.9546 216.193)"/>
</clipPath>
<clipPath id="clip11_757_28073">
<rect width="102.091" height="6.00535" fill="white" transform="translate(20.9546 240.214)"/>
</clipPath>
<clipPath id="clip12_757_28073">
<rect width="102.091" height="6.00535" fill="white" transform="translate(20.9546 264.235)"/>
</clipPath>
<clipPath id="clip13_757_28073">
<rect width="102.091" height="6.00535" fill="white" transform="translate(20.9546 288.257)"/>
</clipPath>
<clipPath id="clip14_757_28073">
<rect width="144" height="311" fill="white" transform="translate(119)"/>
</clipPath>
<clipPath id="clip15_757_28073">
<rect width="102.091" height="6.00535" fill="white" transform="translate(139.954)"/>
</clipPath>
<clipPath id="clip16_757_28073">
<rect width="102.091" height="6.00535" fill="white" transform="translate(139.954 24.0215)"/>
</clipPath>
<clipPath id="clip17_757_28073">
<rect width="102.091" height="6.00535" fill="white" transform="translate(139.954 48.043)"/>
</clipPath>
<clipPath id="clip18_757_28073">
<rect width="102.091" height="6.00535" fill="white" transform="translate(139.954 72.0645)"/>
</clipPath>
<clipPath id="clip19_757_28073">
<rect width="102.091" height="6.00535" fill="white" transform="translate(139.954 96.0854)"/>
</clipPath>
<clipPath id="clip20_757_28073">
<rect width="102.091" height="6.00535" fill="white" transform="translate(139.954 120.107)"/>
</clipPath>
<clipPath id="clip21_757_28073">
<rect width="102.091" height="6.00535" fill="white" transform="translate(139.954 144.128)"/>
</clipPath>
<clipPath id="clip22_757_28073">
<rect width="102.091" height="6.00535" fill="white" transform="translate(139.954 168.15)"/>
</clipPath>
<clipPath id="clip23_757_28073">
<rect width="102.091" height="6.00535" fill="white" transform="translate(139.954 192.171)"/>
</clipPath>
<clipPath id="clip24_757_28073">
<rect width="102.091" height="6.00535" fill="white" transform="translate(139.954 216.193)"/>
</clipPath>
<clipPath id="clip25_757_28073">
<rect width="102.091" height="6.00535" fill="white" transform="translate(139.954 240.214)"/>
</clipPath>
<clipPath id="clip26_757_28073">
<rect width="102.091" height="6.00535" fill="white" transform="translate(139.954 264.235)"/>
</clipPath>
<clipPath id="clip27_757_28073">
<rect width="102.091" height="6.00535" fill="white" transform="translate(139.954 288.257)"/>
</clipPath>
</defs>
</svg>
