<svg width="287" height="252" viewBox="0 0 287 252" fill="none" xmlns="http://www.w3.org/2000/svg">
<path d="M0 0L287 252H0V0Z" fill="#FF8B98"/>
<path fill-rule="evenodd" clip-rule="evenodd" d="M37.354 213.602L225.882 28.5264L37.354 213.602Z" fill="#FF8B98"/>
<path d="M37.354 213.602L225.882 28.5264" stroke="white" stroke-width="8" stroke-linecap="round"/>
<path fill-rule="evenodd" clip-rule="evenodd" d="M158.368 26.0073L32.7393 149.448L158.368 26.0073Z" fill="#FF8B98"/>
<path d="M158.368 26.0073L32.7393 149.448" stroke="white" stroke-width="8" stroke-linecap="round"/>
<path fill-rule="evenodd" clip-rule="evenodd" d="M34.1074 79.4137L89.3151 25.3354L34.1074 79.4137Z" fill="#FF8B98"/>
<path d="M34.1074 79.4137L89.3151 25.3354" stroke="white" stroke-width="8" stroke-linecap="round"/>
<path fill-rule="evenodd" clip-rule="evenodd" d="M34.9624 110.485L120.937 26.1753L34.9624 110.485Z" fill="#FF8B98"/>
<path d="M34.9624 110.485L120.937 26.1753" stroke="white" stroke-width="8" stroke-linecap="round"/>
<path fill-rule="evenodd" clip-rule="evenodd" d="M106.066 214.78L227.422 95.5381L106.066 214.78Z" fill="#FF8B98"/>
<path d="M106.066 214.78L227.422 95.5381" stroke="white" stroke-width="8" stroke-linecap="round"/>
<path fill-rule="evenodd" clip-rule="evenodd" d="M65.0449 219.818L229.132 58.5894L65.0449 219.818Z" fill="#FF8B98"/>
<path d="M65.0449 219.818L229.132 58.5894" stroke="white" stroke-width="8" stroke-linecap="round"/>
<path fill-rule="evenodd" clip-rule="evenodd" d="M32.5674 182.87L193.237 25L32.5674 182.87Z" fill="#FF8B98"/>
<path d="M32.5674 182.87L193.237 25" stroke="white" stroke-width="8" stroke-linecap="round"/>
<path fill-rule="evenodd" clip-rule="evenodd" d="M176.156 219.476L232.903 163.55L176.156 219.476Z" fill="#FF8B98"/>
<path d="M176.156 219.476L232.903 163.55" stroke="white" stroke-width="8" stroke-linecap="round"/>
<path fill-rule="evenodd" clip-rule="evenodd" d="M143.156 216.795L228.96 132.318L143.156 216.795Z" fill="#FF8B98"/>
<path d="M143.156 216.795L228.96 132.318" stroke="white" stroke-width="8" stroke-linecap="round"/>
</svg>
