<svg width="527" height="573" viewBox="0 0 527 573" fill="none" xmlns="http://www.w3.org/2000/svg">
<path fill-rule="evenodd" clip-rule="evenodd" d="M202.179 124.02C202.179 124.02 293.473 124.02 476.061 124.02C473.674 106.741 461.5 98.1013 439.54 98.1013C406.6 98.1013 376.611 64.2256 339.12 64.2256C301.63 64.2256 301.446 93.7746 270.976 98.1013C240.507 102.428 202.179 102.428 202.179 124.02Z" fill="#B9DEDE"/>
<path fill-rule="evenodd" clip-rule="evenodd" d="M102.962 37.2564C104.202 41.5941 104.864 46.1648 104.864 50.8856C104.864 55.6064 104.202 60.1771 102.962 64.5149L102.962 37.2564ZM99.7633 72.8062L99.7633 28.965C98.7654 26.9393 97.6336 24.9876 96.3788 23.1208L96.3788 78.6504C97.6336 76.7836 98.7654 74.8319 99.7633 72.8062ZM93.1798 82.9113C92.1126 84.1886 90.983 85.4148 89.7953 86.5854L89.7953 15.1858C90.983 16.3564 92.1126 17.5826 93.1798 18.8599L93.1798 82.9113ZM86.5963 12.284L86.5963 89.4872C85.5062 90.3968 84.3771 91.2636 83.2119 92.0849L83.2119 9.68628C84.3771 10.5077 85.5062 11.3745 86.5963 12.284ZM80.0128 7.6008L80.0128 94.1704C78.9112 94.833 77.7824 95.457 76.6284 96.0407L76.6284 5.73057C77.7824 6.31418 78.9112 6.93824 80.0128 7.6008ZM73.4294 4.2445L73.4294 97.5267C72.3207 97.9975 71.192 98.4321 70.0449 98.8291L70.0449 2.94216C71.192 3.33911 72.3207 3.77374 73.4294 4.2445ZM66.8459 1.94692V99.8243C65.7324 100.133 64.6038 100.406 63.4614 100.643L63.4614 1.12778C64.6038 1.36514 65.7324 1.63862 66.8459 1.94692ZM60.2624 0.56363L60.2624 101.208C59.1454 101.37 58.0169 101.498 56.878 101.591L56.878 0.180358C58.0169 0.273165 59.1454 0.4013 60.2624 0.56363ZM53.679 0.0141069L53.6789 101.757C53.2645 101.767 52.8488 101.771 52.432 101.771C51.7161 101.771 51.0034 101.757 50.2944 101.73L50.2944 0.0415186C51.0034 0.0139275 51.7161 0 52.432 0C52.8488 0 53.2645 0.00471965 53.679 0.0141069ZM47.0954 0.260331L47.0954 101.511C45.9561 101.399 44.8275 101.252 43.711 101.071L43.711 0.700699C44.8275 0.519277 45.9561 0.372105 47.0954 0.260331ZM40.5119 1.32078V100.45C39.369 100.193 38.2404 99.8984 37.1275 99.5693L37.1275 2.20191C38.2404 1.8728 39.369 1.57865 40.5119 1.32078ZM33.9285 3.25929L33.9285 98.5119C32.7806 98.0917 31.6519 97.6334 30.544 97.1388V4.63239C31.6519 4.13778 32.7806 3.67955 33.9285 3.25929ZM27.345 6.19169L27.345 95.5795C26.1898 94.9675 25.061 94.3145 23.9605 93.6226V8.1486C25.061 7.45668 26.1898 6.80371 27.345 6.19169ZM20.7615 10.3282L20.7615 91.4431C19.5941 90.5831 18.465 89.6768 17.3771 88.7269V13.0443C18.465 12.0944 19.5941 11.1881 20.7615 10.3282ZM14.178 16.0854L14.178 85.6858C12.9856 84.4516 11.8558 83.1598 10.7936 81.815V19.9563C11.8558 18.6115 12.9856 17.3196 14.178 16.0854ZM7.59457 24.4933V77.278C6.31862 75.2407 5.18595 73.1095 4.21012 70.8976V30.8736C5.18595 28.6617 6.31862 26.5306 7.59457 24.4933ZM1.01109 40.8898V60.8814C0.347733 57.6494 -0.000175476 54.3069 -0.000175476 50.8856C-0.000175476 47.4643 0.347733 44.1219 1.01109 40.8898Z" fill="#F68A22"/>
<path fill-rule="evenodd" clip-rule="evenodd" d="M275.82 159.156H376.345V256.716H275.82V159.156Z" fill="#388172"/>
<path fill-rule="evenodd" clip-rule="evenodd" d="M320.64 213.379V242.154H290.824V213.379H320.64ZM361.341 213.379V242.154H331.525V213.379H361.341ZM320.64 174.445V203.221H290.824V174.445H320.64ZM361.341 174.445V203.221H331.525V174.445H361.341Z" stroke="#006162" stroke-width="1.78847"/>
<path fill-rule="evenodd" clip-rule="evenodd" d="M22.6509 109.647V434.513H526V109.647H22.6509Z" stroke="#006162" stroke-width="1.78847"/>
<path fill-rule="evenodd" clip-rule="evenodd" d="M275.82 274.189H376.345V318.601H275.82V274.189Z" fill="#00A5CE"/>
<path d="M295.325 306.224C300.297 306.224 304.328 302.312 304.328 297.487C304.328 292.662 300.297 288.75 295.325 288.75C290.354 288.75 286.323 292.662 286.323 297.487C286.323 302.312 290.354 306.224 295.325 306.224Z" stroke="#006162" stroke-width="1.78847"/>
<path d="M311.83 290.934H365.843" stroke="#006162" stroke-width="1.78847" stroke-linecap="round"/>
<path d="M311.83 304.039H344.838" stroke="#006162" stroke-width="1.78847" stroke-linecap="round"/>
<path fill-rule="evenodd" clip-rule="evenodd" d="M44.0127 308.018L146.103 281.47L152.79 305.689L50.6995 332.237L44.0127 308.018Z" fill="#E05794"/>
<path fill-rule="evenodd" clip-rule="evenodd" d="M50.8452 311.011L66.7008 306.598L71.2474 321.986L55.3917 326.398L50.8452 311.011Z" stroke="#14A38B" stroke-width="1.78847"/>
<path d="M79.6673 315.379L111.847 306.424M77.4487 307.87L133.782 292.193L77.4487 307.87Z" stroke="#14A38B" stroke-width="1.78847"/>
<path fill-rule="evenodd" clip-rule="evenodd" d="M45.5552 348.263H146.08V373.336H45.5552V348.263Z" stroke="#006162" stroke-width="1.78847"/>
<path fill-rule="evenodd" clip-rule="evenodd" d="M52.1606 352.796H68.6553V368.804H52.1606V352.796Z" stroke="#006162" stroke-width="1.78847"/>
<path d="M78.625 364.705H112.102M78.625 356.894H137.228H78.625Z" stroke="#006162" stroke-width="1.78847"/>
<path fill-rule="evenodd" clip-rule="evenodd" d="M45.5552 199.927H146.08V225.001H45.5552V199.927Z" stroke="#006162" stroke-width="1.78847"/>
<path fill-rule="evenodd" clip-rule="evenodd" d="M52.1606 204.46H68.6553V220.468H52.1606V204.46Z" stroke="#006162" stroke-width="1.78847"/>
<path d="M78.625 216.37H112.102M78.625 208.558H137.228H78.625Z" stroke="#006162" stroke-width="1.78847"/>
<path fill-rule="evenodd" clip-rule="evenodd" d="M45.5132 159.884H146.038V184.958H45.5132V159.884Z" stroke="#006162" stroke-width="1.78847"/>
<path fill-rule="evenodd" clip-rule="evenodd" d="M52.1187 164.417H68.6133V180.425H52.1187V164.417Z" stroke="#006162" stroke-width="1.78847"/>
<path d="M78.583 176.327H112.06M78.583 168.515H137.186H78.583Z" stroke="#006162" stroke-width="1.78847"/>
<path fill-rule="evenodd" clip-rule="evenodd" d="M45.5552 386.76H146.08V411.833H45.5552V386.76Z" stroke="#006162" stroke-width="1.78847"/>
<path fill-rule="evenodd" clip-rule="evenodd" d="M52.1606 391.292H68.6553V407.3H52.1606V391.292Z" stroke="#006162" stroke-width="1.78847"/>
<path d="M78.625 403.202H112.102M78.625 395.391H137.228H78.625Z" stroke="#006162" stroke-width="1.78847"/>
<path fill-rule="evenodd" clip-rule="evenodd" d="M45.5552 239.152H146.08V264.226H45.5552V239.152Z" stroke="#006162" stroke-width="1.78847"/>
<path fill-rule="evenodd" clip-rule="evenodd" d="M52.1606 243.685H68.6553V259.693H52.1606V243.685Z" stroke="#006162" stroke-width="1.78847"/>
<path d="M78.625 255.595H112.102M78.625 247.783H137.228H78.625Z" stroke="#006162" stroke-width="1.78847"/>
<path d="M40.0205 128.32C42.823 128.32 45.0948 126.116 45.0948 123.396C45.0948 120.676 42.823 118.471 40.0205 118.471C37.2181 118.471 34.9463 120.676 34.9463 123.396C34.9463 126.116 37.2181 128.32 40.0205 128.32Z" stroke="#006162" stroke-width="1.78847"/>
<path d="M43.8638 137.764H526" stroke="#006162" stroke-width="1.78847"/>
<path d="M52.9419 128.32H74.823" stroke="#006162" stroke-width="1.78847"/>
<path fill-rule="evenodd" clip-rule="evenodd" d="M174.209 281.924H191.961V299.151H174.209V281.924Z" stroke="#006162" stroke-width="1.71566"/>
<path d="M200.325 294.741H231.555M200.325 286.334H258.596H200.325Z" stroke="#006162" stroke-width="1.71566"/>
<path fill-rule="evenodd" clip-rule="evenodd" d="M174.209 314.516H191.961V331.744H174.209V314.516Z" stroke="#006162" stroke-width="1.71566"/>
<path fill-rule="evenodd" clip-rule="evenodd" d="M174.209 347.109H191.961V364.337H174.209V347.109Z" stroke="#006162" stroke-width="1.71566"/>
<path fill-rule="evenodd" clip-rule="evenodd" d="M174.209 379.702H191.961V396.93H174.209V379.702Z" stroke="#006162" stroke-width="1.71566"/>
<path fill-rule="evenodd" clip-rule="evenodd" d="M405.455 249.331H423.206V266.558H405.455V249.331Z" stroke="#006162" stroke-width="1.71566"/>
<path d="M431.859 261.812H462.416M431.859 253.803H488.874H431.859Z" stroke="#006162" stroke-width="1.71566"/>
<path fill-rule="evenodd" clip-rule="evenodd" d="M405.455 281.924H423.206V299.151H405.455V281.924Z" stroke="#006162" stroke-width="1.71566"/>
<path d="M431.859 294.575H462.416M431.859 286.566H488.874H431.859Z" stroke="#006162" stroke-width="1.71566"/>
<path fill-rule="evenodd" clip-rule="evenodd" d="M405.455 314.516H423.206V331.744H405.455V314.516Z" stroke="#006162" stroke-width="1.71566"/>
<path d="M431.859 327.337H462.416M431.859 318.6H488.874H431.859Z" stroke="#006162" stroke-width="1.71566"/>
<path fill-rule="evenodd" clip-rule="evenodd" d="M405.455 347.109H423.206V364.337H405.455V347.109Z" stroke="#006162" stroke-width="1.71566"/>
<path d="M431.859 360.1H462.416M431.859 351.363H488.874H431.859Z" stroke="#006162" stroke-width="1.71566"/>
<path fill-rule="evenodd" clip-rule="evenodd" d="M405.455 379.702H423.206V396.93H405.455V379.702Z" stroke="#006162" stroke-width="1.71566"/>
<path d="M431.859 392.863H462.416M431.859 384.126H488.874H431.859Z" stroke="#006162" stroke-width="1.71566"/>
<path fill-rule="evenodd" clip-rule="evenodd" d="M396.734 159.933H497.747V411.619H396.734V159.933Z" stroke="#006162" stroke-width="1.78847"/>
<path fill-rule="evenodd" clip-rule="evenodd" d="M174.209 249.331H191.961V266.559H174.209V249.331Z" stroke="#006162" stroke-width="1.78847"/>
<path d="M200.325 262.148H231.555M200.325 253.741H258.596H200.325Z" stroke="#006162" stroke-width="1.78847"/>
<path d="M200.325 327.334H231.555M200.325 318.927H258.596H200.325Z" stroke="#006162" stroke-width="1.78847"/>
<path d="M200.325 359.926H231.555M200.325 351.52H258.596H200.325Z" stroke="#006162" stroke-width="1.78847"/>
<path d="M200.325 392.519H231.555M200.325 384.113H258.596H200.325Z" stroke="#006162" stroke-width="1.78847"/>
<path fill-rule="evenodd" clip-rule="evenodd" d="M165.922 159.933H266.935V411.619H165.922V159.933Z" stroke="#006162" stroke-width="1.78847"/>
<path d="M186.548 237.058H246.563" stroke="#006162" stroke-width="1.78847"/>
<path fill-rule="evenodd" clip-rule="evenodd" d="M175.494 148.758H257.363V228.213H175.494V148.758Z" fill="#F0AD2C"/>
<path fill-rule="evenodd" clip-rule="evenodd" d="M406.306 148.758H488.175V228.213H406.306V148.758Z" fill="#7D50B2"/>
<path d="M416.88 236.846H476.895" stroke="#006162" stroke-width="1.71566"/>
<path opacity="0.5" d="M23.0078 572H525.633" stroke="#006162" stroke-width="1.71566"/>
<path fill-rule="evenodd" clip-rule="evenodd" d="M211.76 246.191L210.392 255.631L216.011 258.207C216.885 258.402 211.68 275.698 202.063 274.541L201.772 274.503C192.14 273.19 194.133 253.902 195.421 254.024L196.115 242.046L211.76 246.191Z" fill="#FF8B98"/>
<path fill-rule="evenodd" clip-rule="evenodd" d="M210.065 217.222C216.728 218.13 221.371 224.109 220.434 230.576L219.74 235.373L221.676 239.859C221.918 240.418 221.646 241.061 221.071 241.295C220.981 241.331 220.887 241.357 220.791 241.37L218.832 241.637L218.138 246.435C217.747 249.136 215.174 251.017 212.392 250.637C212.263 250.62 212.135 250.598 212.009 250.571L202.395 248.521C198.56 247.704 195.923 244.282 196.198 240.482L197.147 227.371C197.587 221.294 203.019 216.715 209.28 217.141C209.543 217.159 209.805 217.186 210.065 217.222Z" fill="#FF8B98"/>
<path fill-rule="evenodd" clip-rule="evenodd" d="M215.866 229.015L220.623 229.177C223.397 227.377 224.143 225.096 222.86 222.334C222.431 221.41 221.585 220.401 220.454 219.434C220.154 219.178 219.048 221.028 218.71 220.779C214.612 217.764 208.064 215.28 203.218 218.089C197.277 218.606 191.005 225.604 193.296 232.28L193.535 232.982C194.626 236.218 195.41 238.893 195.887 241.005L195.936 241.23C195.964 241.357 195.973 242.202 195.961 243.762C195.952 245.014 196.963 246.042 198.239 246.104L198.36 246.107H201.137C202.444 246.107 203.68 245.533 204.5 244.545L204.983 243.965C207.829 240.57 209.665 238.695 210.491 238.341C210.873 238.178 212.469 238.444 212.92 237.498C213.803 235.647 214.785 232.819 215.866 229.015Z" fill="#273237"/>
<path fill-rule="evenodd" clip-rule="evenodd" d="M197.572 291.539L174.084 319.286C173.233 320.292 173.08 321.693 173.695 322.85L201.713 375.518L190.714 383.799L146.721 335.699C140.456 328.849 138.911 319.07 142.775 310.714L161.749 269.672C166.547 259.293 179.106 254.654 189.801 259.311C190.697 259.701 191.565 260.152 192.397 260.658C202.441 266.778 205.473 279.642 199.167 289.39C198.683 290.139 198.15 290.857 197.572 291.539Z" fill="#FF8B98"/>
<path fill-rule="evenodd" clip-rule="evenodd" d="M174.851 318.443L144.74 306.618L161.662 269.116C165.219 261.231 173.648 256.508 182.463 257.461L184.778 257.711C192.466 258.542 199.043 263.447 201.85 270.442C204.667 277.46 203.323 285.41 198.344 291.187L174.851 318.443Z" fill="#FF5F13"/>
<path fill-rule="evenodd" clip-rule="evenodd" d="M211.214 233.004C211.506 233.043 211.71 233.306 211.669 233.59L210.678 240.437L210.148 240.364C208.053 240.079 206.594 238.199 206.888 236.167C207.183 234.134 209.119 232.718 211.214 233.004Z" fill="#FF8B98"/>
<path fill-rule="evenodd" clip-rule="evenodd" d="M146.91 389.014H254.358V333.567C254.358 333.17 254.353 332.773 254.342 332.376L253.4 296.627C252.748 271.899 232.287 251.983 206.811 251.275C205.157 251.23 203.512 251.22 201.875 251.246C201.097 251.258 200.326 251.28 199.56 251.312C175.161 252.311 155.429 270.937 153.723 294.579L146.91 389.014Z" fill="#FF5F13"/>
<path fill-rule="evenodd" clip-rule="evenodd" d="M227.931 256.99L263.12 276.236C264.289 276.876 265.737 276.778 266.804 275.989L319.736 236.846L330.941 246.705L285.378 302.483C279.515 309.661 269.86 312.835 260.71 310.593L210.581 298.315C198.233 295.291 190.749 283.124 193.866 271.14C194.127 270.136 194.46 269.15 194.862 268.19C199.713 256.605 213.324 251.03 225.261 255.739C226.178 256.101 227.07 256.518 227.931 256.99Z" fill="#FF8B98"/>
<path fill-rule="evenodd" clip-rule="evenodd" d="M319.737 236.846L319.476 233.477C319.257 230.634 320.966 227.983 323.696 226.931L329.014 224.882L337.259 218.002C338.097 217.303 339.351 217.361 340.116 218.135C340.887 218.915 340.916 220.139 340.181 220.952L334.64 227.086L335.643 227.016C337.242 226.906 338.631 228.073 338.745 229.625L338.751 229.725L338.752 229.826L339.63 229.768C341.171 229.667 342.505 230.797 342.61 232.293C342.62 232.448 342.617 232.603 342.601 232.757L342.58 232.91C343.872 233.11 344.752 234.288 344.546 235.542C344.485 235.909 344.334 236.257 344.104 236.556L338.611 243.688C337.549 245.067 335.969 245.982 334.215 246.234L330.942 246.705L319.737 236.846Z" fill="#FF8B98"/>
<path fill-rule="evenodd" clip-rule="evenodd" d="M261.879 275.509L254.523 309.007L209.984 298.511C200.62 296.304 193.823 288.442 193.211 279.109L193.05 276.658C192.516 268.518 196.682 260.763 203.864 256.528C211.071 252.279 220.089 252.174 227.398 256.255L261.879 275.509Z" fill="#FF5F13"/>
<path fill-rule="evenodd" clip-rule="evenodd" d="M201.874 251.246C203.512 251.22 205.157 251.23 206.811 251.275C211.984 251.419 216.95 252.355 221.586 253.962C223.594 254.46 225.551 255.224 227.398 256.256L261.879 275.509L254.524 309.007L253.721 308.818L254.342 332.376C254.348 332.574 254.351 332.773 254.354 332.971L254.358 333.567V389.014H146.91L152.63 309.717L144.74 306.618L161.662 269.116C164.554 262.705 170.668 258.384 177.59 257.505C184.103 253.85 191.582 251.638 199.56 251.312C200.326 251.28 201.097 251.258 201.874 251.246Z" fill="#0A8080"/>
<path fill-rule="evenodd" clip-rule="evenodd" d="M165.202 330.092C186.641 330.092 204.021 346.959 204.021 367.766C204.021 375.649 201.527 382.966 197.263 389.015H195.502C199.956 383.043 202.582 375.702 202.582 367.766C202.582 347.731 185.846 331.489 165.202 331.489C160.121 331.489 155.276 332.473 150.859 334.255L150.971 332.704C155.378 331.018 160.178 330.092 165.202 330.092ZM247.515 368.094C249.85 368.094 252.137 368.294 254.358 368.678V370.097C252.14 369.699 249.852 369.491 247.515 369.491C233.098 369.491 220.587 377.412 214.351 389.014H212.735C219.09 376.615 232.277 368.094 247.515 368.094ZM261.241 278.416L260.932 279.819C240.725 280.307 224.499 296.357 224.499 316.085C224.499 333.62 237.318 348.25 254.358 351.628L254.358 353.053C236.518 349.654 223.06 334.395 223.06 316.085C223.06 295.485 240.096 278.746 261.241 278.416ZM217.592 283.083C217.592 303.89 200.212 320.758 178.773 320.758C168.663 320.758 159.455 317.007 152.548 310.861L152.631 309.717L150.47 308.869C148.869 307.214 147.42 305.419 146.145 303.504L146.843 301.957C153.407 312.394 165.252 319.361 178.773 319.361C199.417 319.361 216.153 303.119 216.153 283.083C216.153 269.52 208.483 257.695 197.124 251.471C197.728 251.417 198.336 251.373 198.948 251.341L199.638 251.308C210.434 257.999 217.592 269.73 217.592 283.083Z" fill="#8AC7C8"/>
<path d="M254.523 309.007L209.984 298.511C200.62 296.304 193.823 288.443 193.21 279.109" stroke="#14A38B" stroke-width="1.14377" stroke-linecap="round" stroke-linejoin="round"/>
<path d="M152.866 309.861L153.824 295.206" stroke="#14A38B" stroke-width="1.14377" stroke-linecap="round" stroke-linejoin="round"/>
<path d="M199.772 434.62L196.498 556.277H156.889L147.854 389.908H253.442L246.141 556.277H206.529L201.56 434.607L199.772 434.62Z" fill="#1F1F1F" stroke="#006162" stroke-width="1.78847"/>
<path fill-rule="evenodd" clip-rule="evenodd" d="M208.182 557.172H241.679L242.101 561.23L245.319 561.017C251.062 560.635 256.036 564.844 256.429 570.418C256.456 570.796 256.461 571.176 256.443 571.555L256.426 571.839H210.436C208.581 571.839 207.078 570.379 207.078 568.579C207.078 568.476 207.083 568.373 207.093 568.27L208.182 557.172Z" fill="#006162"/>
<path fill-rule="evenodd" clip-rule="evenodd" d="M156.432 557.172H189.93L190.352 561.23L193.569 561.017C199.312 560.635 204.287 564.844 204.68 570.418C204.706 570.796 204.711 571.176 204.694 571.555L204.677 571.839H158.686C156.832 571.839 155.328 570.379 155.328 568.579C155.328 568.476 155.333 568.373 155.343 568.27L156.432 557.172Z" fill="#006162"/>
</svg>
