<svg width="242" height="39" viewBox="0 0 242 39" fill="none" xmlns="http://www.w3.org/2000/svg">
<path d="M16.1035 9.81545C17.3212 6.66505 17.9301 5.08986 18.9193 4.87154C19.1794 4.81414 19.4482 4.81414 19.7083 4.87154C20.6975 5.08986 21.3063 6.66505 22.524 9.81545C23.2165 11.607 23.5627 12.5028 24.2106 13.1121C24.3923 13.283 24.5896 13.4352 24.7996 13.5665C25.5485 14.0349 26.4832 14.1218 28.3528 14.2956C31.5176 14.5897 33.1001 14.7368 33.5833 15.6731C33.6834 15.867 33.7514 16.077 33.7846 16.2943C33.9448 17.3433 32.7815 18.4417 30.4549 20.6384L29.8088 21.2484C28.721 22.2754 28.1772 22.7889 27.8626 23.4297C27.6739 23.8141 27.5473 24.2281 27.4881 24.6551C27.3892 25.367 27.5485 26.1119 27.867 27.6018L27.9808 28.1341C28.552 30.8059 28.8377 32.1418 28.4811 32.7985C28.1609 33.3883 27.571 33.7659 26.9193 33.7982C26.1939 33.8342 25.1717 32.9698 23.1273 31.241C21.7803 30.102 21.1069 29.5325 20.3592 29.31C19.676 29.1067 18.9515 29.1067 18.2683 29.31C17.5207 29.5325 16.8472 30.102 15.5003 31.241C13.4559 32.9698 12.4337 33.8342 11.7082 33.7982C11.0566 33.7659 10.4667 33.3883 10.1464 32.7985C9.78989 32.1418 10.0755 30.8059 10.6467 28.1341L10.7605 27.6018C11.0791 26.1119 11.2383 25.367 11.1395 24.6551C11.0802 24.2281 10.9537 23.8141 10.765 23.4297C10.4504 22.7889 9.90651 22.2754 8.81878 21.2484L8.17268 20.6384C5.84606 18.4417 4.68274 17.3433 4.84295 16.2943C4.87613 16.077 4.94417 15.867 5.04426 15.6731C5.52749 14.7368 7.10991 14.5897 10.2747 14.2956C12.1443 14.1218 13.0791 14.0349 13.8279 13.5665C14.0379 13.4352 14.2352 13.283 14.4169 13.1121C15.0648 12.5028 15.411 11.607 16.1035 9.81545Z" fill="#FDC9AB"/>
<path d="M66.7315 9.81545C67.9492 6.66505 68.558 5.08986 69.5472 4.87154C69.8073 4.81414 70.0761 4.81414 70.3362 4.87154C71.3254 5.08986 71.9342 6.66505 73.1519 9.81545C73.8444 11.607 74.1907 12.5028 74.8386 13.1121C75.0203 13.283 75.2175 13.4352 75.4276 13.5665C76.1764 14.0349 77.1112 14.1218 78.9807 14.2956C82.1456 14.5897 83.728 14.7368 84.2112 15.6731C84.3113 15.867 84.3793 16.077 84.4125 16.2943C84.5727 17.3433 83.4094 18.4417 81.0828 20.6384L80.4367 21.2484C79.349 22.2754 78.8051 22.7889 78.4905 23.4297C78.3018 23.8141 78.1753 24.2281 78.116 24.6551C78.0172 25.367 78.1764 26.1119 78.4949 27.6018L78.6087 28.1341C79.18 30.8059 79.4656 32.1418 79.109 32.7985C78.7888 33.3883 78.1989 33.7659 77.5472 33.7982C76.8218 33.8342 75.7996 32.9698 73.7552 31.241C72.4083 30.102 71.7348 29.5325 70.9872 29.31C70.304 29.1067 69.5794 29.1067 68.8962 29.31C68.1486 29.5325 67.4751 30.102 66.1282 31.241C64.0838 32.9698 63.0616 33.8342 62.3362 33.7982C61.6845 33.7659 61.0946 33.3883 60.7744 32.7985C60.4178 32.1418 60.7034 30.8059 61.2747 28.1341L61.3885 27.6018C61.707 26.1119 61.8662 25.367 61.7674 24.6551C61.7081 24.2281 61.5816 23.8141 61.3929 23.4297C61.0783 22.7889 60.5344 22.2754 59.4467 21.2484L58.8006 20.6384C56.474 18.4417 55.3107 17.3433 55.4709 16.2943C55.5041 16.077 55.5721 15.867 55.6722 15.6731C56.1554 14.7368 57.7378 14.5897 60.9027 14.2956C62.7722 14.1218 63.707 14.0349 64.4558 13.5665C64.6659 13.4352 64.8631 13.283 65.0448 13.1121C65.6927 12.5028 66.039 11.607 66.7315 9.81545Z" fill="#FDC9AB"/>
<path d="M117.359 9.81545C118.577 6.66505 119.186 5.08986 120.175 4.87154C120.435 4.81414 120.704 4.81414 120.964 4.87154C121.953 5.08986 122.562 6.66505 123.78 9.81545C124.472 11.607 124.819 12.5028 125.466 13.1121C125.648 13.283 125.845 13.4352 126.055 13.5665C126.804 14.0349 127.739 14.1218 129.609 14.2956C132.773 14.5897 134.356 14.7368 134.839 15.6731C134.939 15.867 135.007 16.077 135.04 16.2943C135.201 17.3433 134.037 18.4417 131.711 20.6384L131.065 21.2484C129.977 22.2754 129.433 22.7889 129.118 23.4297C128.93 23.8141 128.803 24.2281 128.744 24.6551C128.645 25.367 128.804 26.1119 129.123 27.6018L129.237 28.1341C129.808 30.8059 130.094 32.1418 129.737 32.7985C129.417 33.3883 128.827 33.7659 128.175 33.7982C127.45 33.8342 126.428 32.9698 124.383 31.241C123.036 30.102 122.363 29.5325 121.615 29.31C120.932 29.1067 120.207 29.1067 119.524 29.31C118.777 29.5325 118.103 30.102 116.756 31.241C114.712 32.9698 113.69 33.8342 112.964 33.7982C112.312 33.7659 111.723 33.3883 111.402 32.7985C111.046 32.1418 111.331 30.8059 111.903 28.1341L112.016 27.6018C112.335 26.1119 112.494 25.367 112.395 24.6551C112.336 24.2281 112.21 23.8141 112.021 23.4297C111.706 22.7889 111.162 22.2754 110.075 21.2484L109.429 20.6384C107.102 18.4417 105.939 17.3433 106.099 16.2943C106.132 16.077 106.2 15.867 106.3 15.6731C106.783 14.7368 108.366 14.5897 111.531 14.2956C113.4 14.1218 114.335 14.0349 115.084 13.5665C115.294 13.4352 115.491 13.283 115.673 13.1121C116.321 12.5028 116.667 11.607 117.359 9.81545Z" fill="#FDC9AB"/>
<path d="M167.987 9.81545C169.205 6.66505 169.814 5.08986 170.803 4.87154C171.063 4.81414 171.332 4.81414 171.592 4.87154C172.581 5.08986 173.19 6.66505 174.408 9.81545C175.1 11.607 175.447 12.5028 176.094 13.1121C176.276 13.283 176.473 13.4352 176.683 13.5665C177.432 14.0349 178.367 14.1218 180.237 14.2956C183.401 14.5897 184.984 14.7368 185.467 15.6731C185.567 15.867 185.635 16.077 185.668 16.2943C185.829 17.3433 184.665 18.4417 182.339 20.6384L181.693 21.2484C180.605 22.2754 180.061 22.7889 179.746 23.4297C179.558 23.8141 179.431 24.2281 179.372 24.6551C179.273 25.367 179.432 26.1119 179.751 27.6018L179.865 28.1341C180.436 30.8059 180.721 32.1418 180.365 32.7985C180.045 33.3883 179.455 33.7659 178.803 33.7982C178.078 33.8342 177.055 32.9698 175.011 31.241C173.664 30.102 172.991 29.5325 172.243 29.31C171.56 29.1067 170.835 29.1067 170.152 29.31C169.404 29.5325 168.731 30.102 167.384 31.241C165.34 32.9698 164.317 33.8342 163.592 33.7982C162.94 33.7659 162.35 33.3883 162.03 32.7985C161.674 32.1418 161.959 30.8059 162.531 28.1341L162.644 27.6018C162.963 26.1119 163.122 25.367 163.023 24.6551C162.964 24.2281 162.837 23.8141 162.649 23.4297C162.334 22.7889 161.79 22.2754 160.703 21.2484L160.056 20.6384C157.73 18.4417 156.567 17.3433 156.727 16.2943C156.76 16.077 156.828 15.867 156.928 15.6731C157.411 14.7368 158.994 14.5897 162.159 14.2956C164.028 14.1218 164.963 14.0349 165.712 13.5665C165.922 13.4352 166.119 13.283 166.301 13.1121C166.949 12.5028 167.295 11.607 167.987 9.81545Z" fill="#FDC9AB"/>
<path d="M218.615 9.81545C219.833 6.66505 220.442 5.08986 221.431 4.87154C221.691 4.81414 221.96 4.81414 222.22 4.87154C223.209 5.08986 223.818 6.66505 225.036 9.81545C225.728 11.607 226.074 12.5028 226.722 13.1121C226.904 13.283 227.101 13.4352 227.311 13.5665C228.06 14.0349 228.995 14.1218 230.865 14.2956C234.029 14.5897 235.612 14.7368 236.095 15.6731C236.195 15.867 236.263 16.077 236.296 16.2943C236.457 17.3433 235.293 18.4417 232.967 20.6384L232.32 21.2484C231.233 22.2754 230.689 22.7889 230.374 23.4297C230.186 23.8141 230.059 24.2281 230 24.6551C229.901 25.367 230.06 26.1119 230.379 27.6018L230.493 28.1341C231.064 30.8059 231.349 32.1418 230.993 32.7985C230.673 33.3883 230.083 33.7659 229.431 33.7982C228.706 33.8342 227.683 32.9698 225.639 31.241C224.292 30.102 223.619 29.5325 222.871 29.31C222.188 29.1067 221.463 29.1067 220.78 29.31C220.032 29.5325 219.359 30.102 218.012 31.241C215.968 32.9698 214.945 33.8342 214.22 33.7982C213.568 33.7659 212.978 33.3883 212.658 32.7985C212.302 32.1418 212.587 30.8059 213.158 28.1341L213.272 27.6018C213.591 26.1119 213.75 25.367 213.651 24.6551C213.592 24.2281 213.465 23.8141 213.277 23.4297C212.962 22.7889 212.418 22.2754 211.33 21.2484L210.684 20.6384C208.358 18.4417 207.194 17.3433 207.355 16.2943C207.388 16.077 207.456 15.867 207.556 15.6731C208.039 14.7368 209.622 14.5897 212.786 14.2956C214.656 14.1218 215.591 14.0349 216.34 13.5665C216.55 13.4352 216.747 13.283 216.929 13.1121C217.577 12.5028 217.923 11.607 218.615 9.81545Z" fill="#FDC9AB"/>
</svg>
