<svg width="541" height="534" viewBox="0 0 541 534" fill="none" xmlns="http://www.w3.org/2000/svg">
<path fill-rule="evenodd" clip-rule="evenodd" d="M468.939 347.401H420.743V365.116H405.587L318.635 533.803H336.063L422.091 366.909H454.021V533.88H468.939V347.401ZM467.218 365.188H422.979L423.015 365.116H422.464V349.122H467.218V365.188ZM420.192 366.837L335.014 532.082H321.459L406.637 366.837H420.192ZM467.218 366.915V532.159H455.743V366.915H467.218Z" fill="black"/>
<path fill-rule="evenodd" clip-rule="evenodd" d="M287.342 348.262H240.867V366.048H287.342V348.262Z" fill="#D8D8D8" stroke="#979797" stroke-width="0.573765"/>
<path fill-rule="evenodd" clip-rule="evenodd" d="M257.806 365.118H240.378L153.426 533.805H170.854L257.806 365.118ZM254.982 366.839L169.805 532.083H156.249L241.427 366.839H254.982Z" fill="black"/>
<path fill-rule="evenodd" clip-rule="evenodd" d="M421.604 348.262H240.867V366.048H421.604V348.262Z" fill="#D8D8D8" stroke="#979797" stroke-width="0.573765"/>
<path fill-rule="evenodd" clip-rule="evenodd" d="M238.454 398.905L228.398 418.413L380.051 418.413L390.106 398.905L238.454 398.905ZM387.282 400.627L379.002 416.692L231.221 416.692L239.503 400.626L387.282 400.627ZM353.862 465.462L345.581 481.528L197.801 481.527L206.082 465.462L353.862 465.462ZM205.033 463.74L194.978 483.248L346.631 483.249L356.686 463.741L205.033 463.74Z" fill="black"/>
<path fill-rule="evenodd" clip-rule="evenodd" d="M288.203 365.194H273.285V400.627H288.203V365.194ZM286.482 366.915V398.906H275.006V366.915H286.482ZM288.203 416.693H273.285V465.463H288.203V416.693ZM286.482 418.414V463.741H275.006V418.414H286.482ZM288.203 481.528H273.285V533.881H288.203V481.528ZM286.482 483.249V532.16H275.006V483.249H286.482Z" fill="black"/>
<path fill-rule="evenodd" clip-rule="evenodd" d="M385.571 186.327C385.571 186.327 276.747 186.327 59.0988 186.327C61.945 165.104 76.4563 154.492 102.633 154.492C141.898 154.492 177.646 112.885 222.335 112.885C267.024 112.885 267.243 149.178 303.563 154.492C339.884 159.807 385.571 159.807 385.571 186.327Z" fill="#00A5CE"/>
<mask id="mask0_757_26916" style="mask-type:alpha" maskUnits="userSpaceOnUse" x="351" y="88" width="190" height="50">
<path fill-rule="evenodd" clip-rule="evenodd" d="M541 138C541 138 477.667 138 351 138C352.656 123.551 361.102 116.327 376.336 116.327C399.187 116.327 419.992 88 446 88C472.008 88 472.136 112.709 493.273 116.327C514.411 119.945 541 119.945 541 138Z" fill="#00A5CE"/>
</mask>
<g mask="url(#mask0_757_26916)">
<path fill-rule="evenodd" clip-rule="evenodd" d="M541 138C541 138 477.667 138 351 138C352.656 123.551 361.102 116.327 376.336 116.327C399.187 116.327 419.992 88 446 88C472.008 88 472.136 112.709 493.273 116.327C514.411 119.945 541 119.945 541 138Z" fill="#00A5CE"/>
<g clip-path="url(#clip0_757_26916)">
<g clip-path="url(#clip1_757_26916)">
<path d="M374.003 103.088C374.003 104.746 372.659 106.091 371 106.091C369.342 106.091 367.998 104.746 367.998 103.088C367.998 101.43 369.342 100.085 371 100.085C372.659 100.085 374.003 101.43 374.003 103.088Z" fill="black"/>
<path d="M398.024 103.088C398.024 104.746 396.68 106.091 395.021 106.091C393.363 106.091 392.019 104.746 392.019 103.088C392.019 101.43 393.363 100.085 395.021 100.085C396.68 100.085 398.024 101.43 398.024 103.088Z" fill="black"/>
<path d="M422.046 103.088C422.046 104.746 420.701 106.091 419.043 106.091C417.385 106.091 416.04 104.746 416.04 103.088C416.04 101.43 417.385 100.085 419.043 100.085C420.701 100.085 422.046 101.43 422.046 103.088Z" fill="black"/>
</g>
<g clip-path="url(#clip2_757_26916)">
<path d="M374.003 127.11C374.003 128.768 372.658 130.112 371 130.112C369.342 130.112 367.997 128.768 367.997 127.11C367.997 125.451 369.342 124.107 371 124.107C372.658 124.107 374.003 125.451 374.003 127.11Z" fill="black"/>
<path d="M398.024 127.11C398.024 128.768 396.68 130.112 395.021 130.112C393.363 130.112 392.019 128.768 392.019 127.11C392.019 125.451 393.363 124.107 395.021 124.107C396.68 124.107 398.024 125.451 398.024 127.11Z" fill="black"/>
<path d="M422.046 127.11C422.046 128.768 420.701 130.112 419.043 130.112C417.385 130.112 416.04 128.768 416.04 127.11C416.04 125.451 417.385 124.107 419.043 124.107C420.701 124.107 422.046 125.451 422.046 127.11Z" fill="black"/>
</g>
</g>
<g clip-path="url(#clip3_757_26916)">
<g clip-path="url(#clip4_757_26916)">
<path d="M443.96 103.088C443.96 104.746 442.616 106.091 440.957 106.091C439.299 106.091 437.955 104.746 437.955 103.088C437.955 101.43 439.299 100.085 440.957 100.085C442.616 100.085 443.96 101.43 443.96 103.088Z" fill="black"/>
<path d="M467.981 103.088C467.981 104.746 466.637 106.091 464.979 106.091C463.32 106.091 461.976 104.746 461.976 103.088C461.976 101.43 463.32 100.085 464.979 100.085C466.637 100.085 467.981 101.43 467.981 103.088Z" fill="black"/>
<path d="M492.003 103.088C492.003 104.746 490.659 106.091 489 106.091C487.342 106.091 485.998 104.746 485.998 103.088C485.998 101.43 487.342 100.085 489 100.085C490.659 100.085 492.003 101.43 492.003 103.088Z" fill="black"/>
<path d="M516.024 103.088C516.024 104.746 514.68 106.091 513.021 106.091C511.363 106.091 510.019 104.746 510.019 103.088C510.019 101.43 511.363 100.085 513.021 100.085C514.68 100.085 516.024 101.43 516.024 103.088Z" fill="black"/>
<path d="M540.046 103.088C540.046 104.746 538.701 106.091 537.043 106.091C535.385 106.091 534.04 104.746 534.04 103.088C534.04 101.43 535.385 100.085 537.043 100.085C538.701 100.085 540.046 101.43 540.046 103.088Z" fill="black"/>
</g>
<g clip-path="url(#clip5_757_26916)">
<path d="M443.96 127.11C443.96 128.768 442.616 130.112 440.957 130.112C439.299 130.112 437.955 128.768 437.955 127.11C437.955 125.451 439.299 124.107 440.957 124.107C442.616 124.107 443.96 125.451 443.96 127.11Z" fill="black"/>
<path d="M467.981 127.11C467.981 128.768 466.637 130.112 464.979 130.112C463.32 130.112 461.976 128.768 461.976 127.11C461.976 125.451 463.32 124.107 464.979 124.107C466.637 124.107 467.981 125.451 467.981 127.11Z" fill="black"/>
<path d="M492.003 127.11C492.003 128.768 490.658 130.112 489 130.112C487.342 130.112 485.997 128.768 485.997 127.11C485.997 125.451 487.342 124.107 489 124.107C490.658 124.107 492.003 125.451 492.003 127.11Z" fill="black"/>
<path d="M516.024 127.11C516.024 128.768 514.68 130.112 513.021 130.112C511.363 130.112 510.019 128.768 510.019 127.11C510.019 125.451 511.363 124.107 513.021 124.107C514.68 124.107 516.024 125.451 516.024 127.11Z" fill="black"/>
<path d="M540.046 127.11C540.046 128.768 538.701 130.112 537.043 130.112C535.385 130.112 534.04 128.768 534.04 127.11C534.04 125.451 535.385 124.107 537.043 124.107C538.701 124.107 540.046 125.451 540.046 127.11Z" fill="black"/>
</g>
</g>
</g>
<path fill-rule="evenodd" clip-rule="evenodd" d="M2.26706 45.7601C0.789573 51.0879 0 56.7017 0 62.5C0 68.2983 0.789573 73.9121 2.26706 79.2399L2.26706 45.7601ZM6.08035 89.4238L6.08035 35.5762C7.26983 33.0881 8.61905 30.691 10.1147 28.3981L10.1147 96.6019C8.61906 94.309 7.26983 91.9119 6.08035 89.4238ZM13.928 101.835C15.2001 103.404 16.5467 104.91 17.9623 106.348L17.9623 18.652C16.5467 20.0898 15.2001 21.5958 13.928 23.1646L13.928 101.835ZM21.7756 15.0878L21.7756 109.912C23.0751 111.029 24.4209 112.094 25.8099 113.103L25.8099 11.8972C24.4209 12.906 23.0751 13.9707 21.7756 15.0878ZM29.6232 9.33567L29.6232 115.664C30.9364 116.478 32.282 117.245 33.6575 117.961L33.6575 7.03856C32.282 7.75538 30.9364 8.52188 29.6232 9.33567ZM37.4708 5.2133L37.4708 119.787C38.7924 120.365 40.1378 120.899 41.5051 121.386L41.5051 3.61371C40.1378 4.10126 38.7924 4.63509 37.4708 5.2133ZM45.3184 2.39131L45.3184 122.609C46.6457 122.987 47.991 123.323 49.3527 123.615L49.3527 1.3852C47.991 1.67674 46.6457 2.01264 45.3184 2.39131ZM53.166 0.692282L53.166 124.308C54.4975 124.507 55.8428 124.664 57.2003 124.778L57.2003 0.221527C55.8428 0.335517 54.4975 0.492899 53.166 0.692282ZM61.0136 0.0173276L61.0136 124.983C61.5077 124.994 62.0032 125 62.5 125C63.3534 125 64.2029 124.983 65.048 124.949V0.0509936C64.2029 0.0171059 63.3534 0 62.5 0C62.0032 0 61.5077 0.00579718 61.0136 0.0173276ZM68.8613 0.319747V124.68C70.2194 124.543 71.5646 124.362 72.8956 124.139L72.8956 0.860624C71.5646 0.637795 70.2194 0.457031 68.8613 0.319747ZM76.7089 1.62223V123.378C78.0713 123.061 79.4166 122.7 80.7432 122.296V2.70447C79.4166 2.30025 78.0713 1.93896 76.7089 1.62223ZM84.5565 4.0032L84.5565 120.997C85.9248 120.481 87.2702 119.918 88.5908 119.31V5.68969C87.2702 5.08219 85.9248 4.51938 84.5565 4.0032ZM92.4041 7.60489V117.395C93.7811 116.643 95.1267 115.841 96.4384 114.992V10.0085C95.1267 9.15861 93.7811 8.3566 92.4041 7.60489ZM100.252 12.6855V112.315C101.643 111.258 102.989 110.145 104.286 108.978V16.0215C102.989 14.8549 101.643 13.7417 100.252 12.6855ZM108.099 19.7568V105.243C109.521 103.727 110.867 102.141 112.134 100.489V24.5111C110.867 22.8594 109.521 21.2727 108.099 19.7568ZM115.947 30.0837V94.9163C117.468 92.414 118.818 89.7964 119.981 87.0798V37.9202C118.818 35.2036 117.468 32.586 115.947 30.0837ZM123.795 50.2225V74.7775C124.585 70.8077 125 66.7023 125 62.5C125 58.2977 124.585 54.1923 123.795 50.2225Z" fill="#F68A22"/>
<path d="M367.103 348.263V279.328" stroke="white" stroke-width="1.14753" stroke-linecap="round" stroke-linejoin="round"/>
<path d="M277.588 348.263V279.328" stroke="white" stroke-width="1.14753" stroke-linecap="round" stroke-linejoin="round"/>
<path fill-rule="evenodd" clip-rule="evenodd" d="M336.091 117.829C284.141 117.829 256.582 128.856 243.229 143.864C239.938 147.562 233.768 161.285 233.234 164.011L205.085 258.359C202.073 268.455 207.815 279.082 217.911 282.094C219.682 282.622 221.519 282.891 223.366 282.891L242.5 282.889L243.683 292.725C244.291 297.741 244.923 302.903 245.579 308.212L421.136 307.791L421.713 282.889L435.795 282.891C437.642 282.891 439.479 282.622 441.249 282.094C451.245 279.112 456.973 268.667 454.163 258.662L454.076 258.359L426.616 166.326C425.734 154.653 414.961 117.829 336.091 117.829Z" fill="#F45D48"/>
<path fill-rule="evenodd" clip-rule="evenodd" d="M329.199 117.896L329.201 134.883L299.627 134.884L299.626 120.037C298.764 120.153 297.913 120.274 297.072 120.399L297.073 134.884H267.498L267.498 127.906C266.627 128.251 265.776 128.602 264.943 128.961L264.944 134.884L253.794 134.884C252.525 135.713 251.323 136.565 250.185 137.438L264.944 137.438V167.013H235.15L235.15 158.819L234.862 159.498C233.994 161.57 233.386 163.236 233.234 164.012L232.597 166.148L232.596 167.013L232.339 167.013L231.577 169.567L232.596 169.567V199.141H222.753L221.991 201.695L232.596 201.695V231.27L213.167 231.27L212.395 233.858H232.596L232.596 263.432L204.288 263.432C204.27 264.291 204.311 265.144 204.408 265.986L232.596 265.986L232.597 282.89L235.151 282.889L235.15 265.986H264.944V295.561L244.027 295.561L244.338 298.114L264.944 298.115L264.945 308.165L267.498 308.159L267.498 298.115H297.073L297.074 308.089L299.628 308.082L299.627 298.115H329.201L329.201 308.011L331.756 308.005L331.756 298.115H361.549L361.549 307.934L364.103 307.927L364.103 298.115H393.897L393.897 307.856L396.45 307.85L396.45 298.115L421.36 298.115L421.42 295.561L396.45 295.561V265.986H426.026L426.026 282.89H428.58L428.579 265.986L454.753 265.986C454.85 265.144 454.891 264.291 454.873 263.432L428.579 263.432V233.858H446.766L445.993 231.27L428.579 231.27V201.695L437.169 201.695L436.407 199.141H428.579L428.58 172.907L426.616 166.326C426.53 165.193 426.351 163.824 426.026 162.274L426.026 167.013H396.45V137.438L410.285 137.438C409.245 136.575 408.141 135.722 406.968 134.883L396.45 134.884L396.451 128.741C395.623 128.347 394.772 127.96 393.898 127.581L393.897 134.884H364.103L364.107 119.641C363.265 119.522 362.413 119.409 361.55 119.301L361.549 134.884L331.756 134.883L331.754 117.855C330.895 117.866 330.044 117.879 329.199 117.896ZM267.498 265.986H297.073V295.561H267.498V265.986ZM331.756 265.986H361.549V295.561H331.756V265.986ZM364.103 265.986H393.897V295.561H364.103V265.986ZM299.627 265.986H329.201V295.561H299.627V265.986ZM331.756 233.857H361.549V263.432H331.756V233.857ZM364.103 233.858H393.897V263.432H364.103V233.858ZM396.45 233.858H426.026V263.432H396.45V233.858ZM235.15 233.858H264.944V263.432H235.15L235.15 233.858ZM267.498 233.858L297.073 233.858V263.432H267.498V233.858ZM299.627 233.857H329.201V263.432H299.627V233.857ZM396.45 201.695H426.026V231.27H396.45V201.695ZM364.103 201.695H393.897V231.27H364.103V201.695ZM331.756 201.695H361.549V231.27H331.756V201.695ZM235.15 201.695H264.944V231.27H235.15V201.695ZM267.498 201.695L297.073 201.695V231.27L267.498 231.27V201.695ZM299.627 201.695H329.201V231.27H299.627V201.695ZM364.103 169.567H393.897V199.141H364.103V169.567ZM396.45 169.567H426.026V199.141H396.45V169.567ZM267.498 169.567H297.073V199.141L267.498 199.141V169.567ZM235.15 169.567H264.944V199.141H235.15V169.567ZM329.201 169.566V199.141H299.627V169.567L329.201 169.566ZM331.756 169.566L361.549 169.567V199.141H331.756V169.566ZM364.103 137.438H393.897V167.013H364.103V137.438ZM331.756 137.437L361.549 137.438V167.013L331.756 167.012V137.437ZM267.498 137.438H297.073V167.013H267.498V137.438ZM329.201 137.437V167.012L299.627 167.013V137.438L329.201 137.437Z" fill="#1F1F1F"/>
<path fill-rule="evenodd" clip-rule="evenodd" d="M382.536 198.775V230.904H393.092L382.536 198.775Z" fill="#151C24"/>
<path d="M421.945 282.84H363.643" stroke="#273237" stroke-width="1.14753" stroke-linecap="round" stroke-linejoin="round"/>
<path d="M411.688 230.904H353.385" stroke="#273237" stroke-width="1.14753" stroke-linecap="round" stroke-linejoin="round"/>
<path fill-rule="evenodd" clip-rule="evenodd" d="M382.355 198.596C382.055 198.696 381.892 199.021 381.992 199.322L392.548 231.085C392.648 231.386 392.973 231.549 393.273 231.449C393.574 231.349 393.737 231.024 393.637 230.723L383.081 198.96C382.981 198.659 382.656 198.496 382.355 198.596Z" fill="#273237"/>
<path fill-rule="evenodd" clip-rule="evenodd" d="M321.787 105.562L321.786 118.128C317.985 118.293 314.335 118.524 310.83 118.819V121.536C310.83 134.102 321.017 144.288 333.582 144.288C346.147 144.288 356.334 134.102 356.334 121.536L356.337 118.549C352.859 118.286 349.21 118.092 345.382 117.971L345.381 105.562H321.787Z" fill="#FDC9AB"/>
<path fill-rule="evenodd" clip-rule="evenodd" d="M321.787 105.563L321.787 115.668L342.198 107.517L329.724 105.562L321.787 105.563Z" fill="#482C1C"/>
<path fill-rule="evenodd" clip-rule="evenodd" d="M333.584 68.0596C324.978 68.0596 318.002 75.0357 318.002 83.6412V104.438C318.002 107.29 320.314 109.602 323.166 109.602H344.002C346.854 109.602 349.166 107.29 349.166 104.438V83.6412C349.166 75.0357 342.189 68.0596 333.584 68.0596Z" fill="#FDC9AB"/>
<path fill-rule="evenodd" clip-rule="evenodd" d="M341.616 78.7365L341.154 79.2938C339.846 80.8705 337.904 81.7829 335.855 81.7829H318.02C314.836 78.9396 314.31 75.8302 316.442 72.4545C319.639 67.391 333.786 61.5737 341.616 67.8809C354.418 71.6088 357.824 78.5923 351.836 88.8313L349.165 99.6932L345.381 88.8313L344.438 87.2631C342.939 84.7693 341.991 81.9853 341.655 79.098L341.616 78.7365Z" fill="#388172"/>
<path fill-rule="evenodd" clip-rule="evenodd" d="M346.938 86.0898C346.56 86.0898 346.254 86.3963 346.254 86.7744V95.8855H346.938C349.643 95.8855 351.836 93.6927 351.836 90.9877C351.836 88.2827 349.643 86.0898 346.938 86.0898ZM317.318 86.0898C314.613 86.0898 312.42 88.2827 312.42 90.9877C312.42 93.6435 314.534 95.8056 317.171 95.8833L317.318 95.8855H318.002V86.0898H317.318Z" fill="#FDC9AB"/>
<path fill-rule="evenodd" clip-rule="evenodd" d="M326.229 89.8994C326.539 89.9692 326.733 90.2763 326.663 90.5854L324.722 99.1904C324.851 99.8139 325.08 100.16 325.337 100.34C325.604 100.529 326.018 100.619 326.674 100.485C326.985 100.422 327.288 100.622 327.351 100.932C327.415 101.243 327.215 101.546 326.904 101.61C326.068 101.781 325.294 101.713 324.677 101.279C324.064 100.848 323.724 100.138 323.571 99.2821L323.55 99.1679L325.543 90.3329C325.613 90.0238 325.92 89.8297 326.229 89.8994Z" fill="#273237"/>
<path fill-rule="evenodd" clip-rule="evenodd" d="M381.049 270.705H306.793V282.838H374.738C378.224 282.838 381.049 280.013 381.049 276.527V270.705Z" fill="#D8D8D8"/>
<path fill-rule="evenodd" clip-rule="evenodd" d="M344.673 201.422L229.38 201.422C227.089 201.422 225.574 203.301 225.996 205.619L240.056 282.839H363.643L349.584 205.619C349.162 203.301 346.963 201.422 344.673 201.422Z" fill="#151C24"/>
<path fill-rule="evenodd" clip-rule="evenodd" d="M339.519 202.383L224.226 202.383C221.935 202.383 220.421 204.24 220.843 206.53L234.902 282.839H358.489L344.43 206.53C344.008 204.24 341.809 202.383 339.519 202.383Z" fill="white"/>
<path fill-rule="evenodd" clip-rule="evenodd" d="M339.519 203.243C341.384 203.243 343.235 204.793 343.584 206.686L357.456 281.978H235.618L221.689 206.374C221.52 205.456 221.744 204.68 222.184 204.141C222.622 203.604 223.322 203.243 224.226 203.243L339.519 203.243ZM345.276 206.374C344.781 203.685 342.235 201.522 339.519 201.522L224.226 201.522C222.839 201.522 221.636 202.09 220.85 203.053C220.065 204.016 219.743 205.313 219.996 206.686L234.185 283.7H359.523L345.276 206.374Z" fill="#151C24"/>
<path d="M289.631 249.462C285.848 249.462 282.781 246.395 282.781 242.612C282.781 238.829 285.848 235.762 289.631 235.762C293.414 235.762 296.481 238.829 296.481 242.612C296.481 246.395 293.414 249.462 289.631 249.462Z" fill="#151C24"/>
<path fill-rule="evenodd" clip-rule="evenodd" d="M315.735 298.624C276.713 263.064 245.304 244.425 221.509 242.709C183.504 239.968 166.754 295.227 171.996 364.113L172.411 369.521C175.696 411.966 178.137 434.697 179.736 437.715H247.235V402.346C273.78 408.438 295.14 400.08 311.314 377.272C324.522 358.647 329.633 339.331 326.648 319.326L326.555 318.72C325.338 310.986 321.522 303.897 315.735 298.624Z" fill="#1F1F1F"/>
<path fill-rule="evenodd" clip-rule="evenodd" d="M248.735 402.676C274.586 408.116 295.446 399.648 311.314 377.272C324.522 358.647 329.633 339.331 326.648 319.326L326.555 318.72C325.338 310.986 321.522 303.897 315.735 298.624C276.713 263.064 245.304 244.425 221.509 242.709C183.504 239.968 166.754 295.227 171.996 364.113L172.411 369.521C175.696 411.966 178.137 434.697 179.736 437.715H247.235V402.346C247.737 402.461 248.237 402.571 248.735 402.676ZM245.735 436.215V400.462L247.57 400.884C260.605 403.875 272.267 403.299 282.617 399.249C292.97 395.198 302.135 387.622 310.09 376.404C323.105 358.052 328.084 339.122 325.165 319.552L325.164 319.547L325.073 318.953L325.073 318.95C323.908 311.554 320.259 304.775 314.725 299.733C295.259 281.994 277.734 268.515 262.146 259.265C246.545 250.007 232.975 245.04 221.401 244.205C212.311 243.55 204.525 246.348 197.98 251.973C191.4 257.626 186.026 266.182 181.939 277.078C173.763 298.878 170.879 329.671 173.492 363.998L173.906 369.406M245.735 436.215H180.783C180.715 435.976 180.641 435.682 180.559 435.326C180.344 434.38 180.111 433.116 179.861 431.523C179.361 428.34 178.806 423.917 178.197 418.243C176.979 406.9 175.548 390.623 173.906 369.406" fill="white"/>
<path fill-rule="evenodd" clip-rule="evenodd" d="M282.78 304.861L258.145 404.06C272.343 405.204 284.88 401.718 295.756 393.603L282.78 304.861Z" fill="#151C24"/>
<path fill-rule="evenodd" clip-rule="evenodd" d="M420.473 298.624C381.451 263.064 350.042 244.425 326.247 242.709C288.242 239.968 271.492 295.227 276.734 364.113L277.149 369.521C280.434 411.966 282.875 434.697 284.474 437.715H351.973V402.346C378.518 408.438 399.878 400.08 416.052 377.272C429.26 358.647 434.371 339.331 431.386 319.326L431.293 318.72C430.097 311.114 426.386 304.134 420.761 298.889L420.473 298.624Z" fill="#1F1F1F"/>
<path fill-rule="evenodd" clip-rule="evenodd" d="M353.473 402.676C379.324 408.116 400.184 399.648 416.052 377.272C429.26 358.647 434.371 339.331 431.386 319.326L431.293 318.72C430.097 311.114 426.386 304.134 420.761 298.889L420.473 298.624C381.451 263.064 350.042 244.425 326.247 242.709C288.242 239.968 271.492 295.227 276.734 364.113L277.149 369.521C280.434 411.966 282.875 434.697 284.474 437.715H351.973V402.346C352.475 402.461 352.975 402.571 353.473 402.676ZM350.473 436.215V400.462L352.308 400.884C365.343 403.875 377.005 403.299 387.355 399.249C397.708 395.198 406.873 387.622 414.829 376.404C427.843 358.051 432.823 339.121 429.903 319.55C429.902 319.549 429.902 319.548 429.902 319.547L429.811 318.953C429.811 318.953 429.811 318.953 429.811 318.953C428.667 311.681 425.12 305.005 419.741 299.989C419.74 299.988 419.739 299.987 419.738 299.986L419.463 299.733C419.461 299.731 419.46 299.73 419.459 299.729C399.994 281.992 382.471 268.514 366.884 259.265C351.283 250.007 337.713 245.04 326.139 244.205C317.049 243.55 309.263 246.348 302.718 251.973C296.138 257.626 290.764 266.182 286.677 277.078C278.501 298.878 275.618 329.671 278.23 363.998C278.23 363.998 278.23 363.999 278.23 363.998L278.644 369.406M350.473 436.215H285.521C285.454 435.976 285.379 435.682 285.298 435.326C285.082 434.38 284.849 433.116 284.599 431.523C284.099 428.34 283.545 423.917 282.935 418.243C281.717 406.9 280.286 390.623 278.644 369.406" fill="black"/>
<path d="M286.759 272.824C277.34 295.069 273.963 327.685 276.735 364.113C280.229 410.037 282.809 434.571 284.475 437.715" stroke="white" stroke-width="1.14753" stroke-linecap="round" stroke-linejoin="round"/>
<path fill-rule="evenodd" clip-rule="evenodd" d="M351.973 437.715H293.625L294.561 444.999L288.956 444.615C278.953 443.931 270.289 451.485 269.604 461.488C269.555 462.196 269.549 462.906 269.583 463.614L269.609 464.039H347.956C350.174 464.039 351.973 462.241 351.973 460.023V437.715Z" fill="#006162"/>
<path fill-rule="evenodd" clip-rule="evenodd" d="M246.674 437.715H188.326L189.262 444.999L183.658 444.615C173.654 443.931 164.99 451.485 164.305 461.488C164.257 462.196 164.25 462.906 164.284 463.614L164.31 464.039H242.657C244.876 464.039 246.674 462.241 246.674 460.023V437.715Z" fill="#006162"/>
<path fill-rule="evenodd" clip-rule="evenodd" d="M351.973 327.116C351.656 327.116 351.399 327.373 351.399 327.689V402.346C351.399 402.662 351.656 402.919 351.973 402.919C352.29 402.919 352.546 402.662 352.546 402.346V327.689C352.546 327.373 352.29 327.116 351.973 327.116Z" fill="white"/>
<path fill-rule="evenodd" clip-rule="evenodd" d="M246.674 327.116C246.357 327.116 246.1 327.373 246.1 327.689V402.346C246.1 402.662 246.357 402.919 246.674 402.919C246.991 402.919 247.248 402.662 247.248 402.346V327.689C247.248 327.373 246.991 327.116 246.674 327.116Z" fill="white"/>
<path d="M264.105 202.382L264.944 194.295" stroke="#273237" stroke-width="1.14753" stroke-linecap="round" stroke-linejoin="round"/>
<defs>
<clipPath id="clip0_757_26916">
<rect width="294" height="213" fill="white" transform="translate(224 4)"/>
</clipPath>
<clipPath id="clip1_757_26916">
<rect width="102.091" height="6.00535" fill="white" transform="translate(319.955 100.085)"/>
</clipPath>
<clipPath id="clip2_757_26916">
<rect width="102.091" height="6.00535" fill="white" transform="translate(319.955 124.107)"/>
</clipPath>
<clipPath id="clip3_757_26916">
<rect width="294" height="213" fill="white" transform="translate(342 4)"/>
</clipPath>
<clipPath id="clip4_757_26916">
<rect width="102.091" height="6.00535" fill="white" transform="translate(437.955 100.085)"/>
</clipPath>
<clipPath id="clip5_757_26916">
<rect width="102.091" height="6.00535" fill="white" transform="translate(437.955 124.107)"/>
</clipPath>
</defs>
</svg>
