<svg width="221" height="35" viewBox="0 0 221 35" fill="none" xmlns="http://www.w3.org/2000/svg">
<g opacity="0.6" clip-path="url(#clip0_76_15984)">
<path d="M13.4434 11.5409V23.3942C15.0509 22.5293 16.1765 21.0234 16.723 19.3254L16.8517 19.3898C16.4977 23.6186 13.604 27.847 9.10231 27.847C4.56831 27.847 1.22412 24.4835 1.22412 19.101C1.22412 15.0648 3.8608 12.5336 7.2373 10.2589C6.74393 10.13 6.23586 10.0654 5.72581 10.0667C3.41034 10.0667 2.05993 11.6365 2.05993 13.2385H1.86702C1.8347 13.0141 1.8347 12.7901 1.8347 12.5658C1.8347 9.71449 3.34619 6.25444 7.01207 6.25444C9.35937 6.25444 11.1602 8.40082 13.8934 8.40082C14.9867 8.40082 16.3371 7.88813 16.8836 6.70275H16.98C16.9482 8.78569 16.3053 10.9321 13.4434 11.5409ZM15.1796 23.6825C13.5717 25.3801 11.8354 26.8221 9.5846 26.8221C5.4046 26.8221 2.18918 23.5542 2.18918 18.8127C2.18918 16.0258 3.34667 14.5204 4.63293 12.758H4.50416C3.70019 13.5589 1.57812 15.577 1.57812 19.0049C1.57812 24.2591 4.89 27.4948 9.23108 27.4948C12.2536 27.4948 14.3115 25.4128 15.2443 23.7147L15.1796 23.6825ZM16.4654 8.14518C15.919 9.17009 14.7615 10.4833 12.4142 10.4833C10.0669 10.4833 7.9125 8.88132 6.01518 8.88132C4.27846 8.88132 3.08913 10.035 2.63868 10.8999L2.67099 10.9643C3.28205 10.3555 4.21432 9.74668 5.72581 9.74668C8.23371 9.74668 9.84166 11.2847 12.3819 11.2847C15.0832 11.2847 16.3048 9.52229 16.53 8.17738L16.4654 8.14518ZM7.5262 10.3555C5.88641 12.0535 4.37492 13.9116 4.37492 17.5317C4.37492 19.5176 5.05013 21.5679 6.56162 22.8493L7.49388 22.3684V13.7833L6.62576 14.2316L6.46516 13.9111L10.9668 11.476C9.7452 11.2204 8.65185 10.676 7.5262 10.3555ZM13.0894 11.6048C12.8642 11.6365 12.6394 11.6365 12.3819 11.6365C11.9319 11.6365 11.5138 11.6048 11.0956 11.5082V20.8625L6.8833 23.1381C7.75142 23.7786 8.81246 24.163 10.1629 24.163C11.2562 24.163 12.2208 23.9386 13.0889 23.5542L13.0894 11.6048ZM8.45894 13.2389L7.84788 13.5911V22.1771L8.45894 21.8566V13.2389ZM26.9484 14.456V25.5406C26.9484 28.6158 24.2153 30.6987 21.1605 31.307L21.0963 31.1787C22.6078 30.4417 23.476 28.9363 23.476 27.3343V15.8653L21.7397 14.296L21.0645 15.0326V23.9708L22.0291 24.8357V24.9001L19.4247 27.7192L16.4345 24.9962V24.8679L17.592 23.6503V9.49057L21.0004 5.87099L21.0645 5.90271V14.4882L23.8623 11.4769L26.7883 14.1043L27.3347 13.5272L27.5923 13.7521L26.9484 14.456ZM17.9451 24.9318V24.8679L18.6203 24.1947V8.9457L17.9451 9.65106V23.8747L16.9159 24.9001V24.964L19.4238 27.2065L19.8738 26.6938L17.9451 24.9318ZM24.5047 15.3526L22.4144 13.5589L21.9645 14.0394L23.8295 15.7058V27.2387C23.8295 28.0075 23.6689 28.808 23.3795 29.2568L23.4118 29.2889C24.2158 28.7119 24.5052 27.847 24.5052 26.726V15.3526H24.5047ZM32.0612 20.8952V22.5288L35.1801 24.9635L36.981 23.0415L37.2385 23.2976L33.0585 27.7504L28.8139 24.3547L28.171 25.0274L27.9135 24.7713L28.6533 24.0025V15.8975L34.7306 11.4765L37.9142 16.6024L32.0612 20.8952ZM29.6816 23.7147V15.577L29.0064 16.058V24.0352L32.9939 27.2709L33.5085 26.7264L29.6816 23.7147ZM32.1258 13.8472L32.0612 13.8794V20.4469L34.9231 18.3644L32.1258 13.8472ZM32.9616 13.2067L32.3829 13.6228L35.2129 18.14L35.7917 17.7234L32.9616 13.2067ZM58.8741 27.7187L54.4043 23.8742L50.9959 27.7187L46.3655 23.7459V17.4673H45.465C44.6611 17.4673 44.2434 17.98 44.05 18.5883H43.9535C43.8509 18.1905 43.797 17.7819 43.7929 17.3712C43.7929 16.538 44.0182 14.3599 46.3655 14.3599V8.8496C46.3655 7.7925 45.1115 7.37592 45.1115 5.96614C45.1115 4.14073 46.8478 2.34656 50.0313 1.22461L50.1601 1.32071C49.0026 1.99388 48.3916 2.63438 48.3916 4.01196C48.3916 6.12662 50.4495 5.58175 50.4495 8.91351V10.195L54.2118 6.25444L58.1671 10.1306L61.8971 6.25444L65.4983 9.7784V21.6318L58.8741 27.7187ZM47.3947 23.2337V16.4746H45.5938C44.6611 16.4746 44.2434 17.0829 44.1788 17.6278L44.2106 17.66C44.5323 17.3078 44.854 17.1156 45.5933 17.1156H46.7185V23.5869L50.9631 27.2391L51.4454 26.6621L47.3947 23.2337ZM47.3947 8.52911C47.3947 7.21591 46.2372 6.76713 46.2372 5.93443C46.2372 4.78076 46.6871 3.82024 47.3947 2.92315L47.3305 2.89144C46.3659 3.62851 45.4655 4.8139 45.4655 5.96662C45.4655 7.12028 46.7195 7.66469 46.7195 8.69006V14.3604H47.3947V8.52911ZM54.1795 11.7331L51.7357 9.36228L50.4495 10.6755V22.0162L53.3755 24.483L54.1795 23.5859V11.7331ZM55.2082 23.1698V11.2847L52.4751 8.59349L51.9605 9.10618L54.533 11.5726V23.522L58.8741 27.2704L59.3887 26.7894L55.2082 23.1698ZM61.4466 11.3165L59.421 9.394L58.2635 10.5794V21.9844L61.4148 24.7391L61.4466 24.7074V11.3165ZM62.4753 10.8682L60.1281 8.59349L59.6458 9.10618L61.8001 11.1565V24.5474L62.4753 23.9064V10.8682ZM76.1386 27.7187L73.0838 24.9635L70.3507 27.7187L67.0065 24.7713L66.556 25.2518L66.299 24.9957L66.8777 24.3869V15.8019L72.9232 11.4448L76.3962 14.136L77.0072 13.495L77.2648 13.7516L76.5573 14.4882V23.3625L78.2612 24.9318L78.8081 24.3552L79.0652 24.5796L76.1386 27.7187ZM67.9069 24.163V15.5131L67.2317 15.9936V24.4835L70.3188 27.2387L70.8335 26.726L67.9069 24.163ZM73.0838 15.7375L70.4471 13.6872L70.3507 13.7516V23.0737L72.5374 24.9635L73.0838 24.4191V15.7375ZM74.113 24.4513V15.257L71.3799 13.0463L70.737 13.4946L73.4378 15.6092V24.7713L76.1391 27.206L76.6214 26.6933L74.113 24.4513ZM85.496 17.2751H88.8079V24.1308L83.6951 27.7187C83.0199 26.9499 82.0549 26.4055 80.8655 26.4055C79.901 26.4055 79.1288 26.726 78.1001 27.5909L77.9395 27.5265L82.3129 21.1835H79.6116V15.2248L84.9819 11.5087C85.6248 12.0213 86.1071 12.3092 86.9433 12.3092C87.5867 12.3092 88.519 12.1809 89.2265 11.6048L89.3553 11.6687L85.496 17.2751ZM81.8947 25.4762C80.962 25.4762 80.2226 25.7967 79.5793 26.245V26.3094C80.0939 26.085 80.6085 26.0211 81.0908 26.0211C81.8301 26.0211 82.9881 26.3738 83.7598 27.2709L84.4996 26.7264C83.888 26.0211 83.1487 25.4762 81.8947 25.4762ZM85.3349 20.0942H83.5341L79.7717 25.5089L79.804 25.5728C80.7363 24.9001 81.6367 24.4518 82.7301 24.4518C83.6947 24.4518 84.6916 24.9001 85.3026 25.6689L85.3349 25.6372V20.0942ZM80.6403 20.0942V14.937L79.9651 15.4175V20.7995H82.5695L83.0841 20.0946L80.6403 20.0942ZM87.361 13.815C86.6858 14.296 86.3 14.5521 85.1743 14.5521C84.5309 14.5521 83.7593 14.2638 83.1487 13.6228L83.0845 13.655V18.3322H84.3062L87.3933 13.8468L87.361 13.815ZM85.8177 13.5267C85.2389 13.5267 84.4996 13.2389 84.0168 12.5979L83.2128 13.1424C83.8239 13.8794 84.4026 14.1994 85.3026 14.1994C85.8814 14.1994 86.7176 14.039 87.5858 13.3019L87.6176 13.2063C87.0716 13.4311 86.3964 13.5267 85.8177 13.5267ZM86.3641 19.0376H84.2739L83.7916 19.7102H85.6889V25.925L86.3641 25.4445V19.0376ZM99.9015 14.456V25.5406C99.9015 28.6158 97.1684 30.6987 94.1135 31.307L94.0494 31.1787C95.5609 30.4417 96.429 28.9363 96.429 27.3343V15.8653L94.6928 14.296L94.0176 15.0326V23.9708L94.9821 24.8357V24.9001L92.3778 27.7192L89.3876 24.9962V24.8679L90.5451 23.6503V9.49057L93.9534 5.87099L94.0176 5.90271V14.4882L96.8153 11.4769L99.7414 14.1043L100.288 13.5272L100.545 13.7521L99.9015 14.456ZM90.8981 24.9318V24.8679L91.5733 24.1947V8.9457L90.8981 9.65058V23.8742L89.8689 24.8996V24.9635L92.3768 27.206L92.8268 26.6933L90.8981 24.9318ZM97.4577 15.3526L95.3675 13.5589L94.9175 14.0394L96.7825 15.7058V27.2387C96.7825 28.0075 96.6219 28.808 96.3325 29.2568L96.3649 29.2889C97.1688 28.7119 97.4582 27.847 97.4582 26.726L97.4577 15.3526ZM105.754 27.7187L102.989 25.1879L102.345 25.8606L102.088 25.604L102.828 24.8035V15.5453L101.477 14.2638L100.963 14.8409L100.705 14.5843L103.599 11.4448L106.171 13.7516L106.815 13.0467L107.104 13.2711L106.3 14.136V23.4908L107.844 24.9323L108.551 24.1952L108.808 24.4518L105.754 27.7187ZM103.857 24.5796V15.0326L102.185 13.495L101.735 14.0077L103.182 15.3853V24.9001L105.754 27.2065L106.236 26.6938L103.857 24.5796ZM104.821 11.1886L102.185 8.78616L104.597 6.2232L107.233 8.62568L104.821 11.1886ZM103.182 8.273L102.699 8.7535L104.789 10.7077L105.271 10.1633L103.182 8.273ZM119.351 27.7187L116.553 25.1879V15.8336L114.849 14.296L113.948 15.257V23.9064L114.945 24.8352V24.9635L112.308 27.7187L109.318 24.9957V24.8996L110.476 23.6825V15.6092L108.964 14.2316L108.353 14.9043L108.096 14.6482L111.022 11.4765L113.948 14.0716V14.7121L117.003 11.4765L119.864 14.0394L120.508 13.3667L120.797 13.6228L120.026 14.4238V23.5859L121.472 24.9313L122.18 24.1625L122.437 24.4186L119.351 27.7187ZM110.862 24.9318V24.8679C110.862 24.9318 111.505 24.2269 111.505 24.2269V15.1282L109.672 13.4624L109.221 13.9429L110.829 15.4165V23.8738L109.832 24.8991V24.963L112.308 27.2055L112.823 26.6611L110.862 24.9318ZM117.582 24.6757V15.2892L115.588 13.495L115.074 14.0394L116.907 15.6731V24.9957L119.318 27.2382L119.833 26.6933L117.582 24.6757ZM128.418 33.4851C127.358 32.3319 126.618 31.8514 125.621 31.8514C124.56 31.8514 123.338 32.268 122.084 32.9407L121.987 32.8451L126.425 27.7192L123.274 25.2206L122.663 25.8616L122.406 25.6372L123.113 24.8684V15.8019L129.222 11.4448L132.631 14.136L133.21 13.495L133.467 13.7516L132.792 14.4882V25.445C132.792 27.1108 133.724 27.0469 133.724 28.2958C133.724 29.7372 131.634 31.0826 128.418 33.4851ZM124.142 24.6113V15.5453L123.467 16.0263V24.9001L126.65 27.4631L127.133 26.886L124.142 24.6113ZM126.393 31.0187C125.332 31.0187 124.367 31.3392 123.467 31.9475V32.0119C124.045 31.7875 124.688 31.4992 125.782 31.4992C126.779 31.4992 127.614 32.0436 128.451 33.0051L129.094 32.4924C128.29 31.5636 127.325 31.0187 126.393 31.0187ZM130.316 27.9431C129.512 27.4304 129.319 26.886 129.319 25.5084V24.9313L123.981 31.0822L124.013 31.1139C125.042 30.5056 125.975 30.0573 127.486 30.0573C128.772 30.0573 129.64 30.5695 130.637 31.4027C131.248 30.89 131.666 30.3778 131.666 29.5768C131.666 28.9363 131.119 28.4558 130.316 27.9431ZM129.319 15.7375L126.65 13.6555L126.585 13.7194V23.5542L128.644 25.1562L129.319 24.3874V15.7375ZM131.28 27.4948C130.444 26.8538 130.347 26.3094 130.347 24.9318V15.1931L127.646 13.0145L127.036 13.4311L129.672 15.5131V25.3801C129.672 26.7577 129.737 27.1426 130.605 27.7187C131.377 28.2314 131.987 28.7758 131.987 29.5129C131.987 29.7046 131.955 30.0251 131.955 30.0251L131.987 30.0573C132.148 29.8968 132.341 29.6407 132.341 29.2241C132.342 28.5197 131.988 28.0392 131.28 27.4948ZM138.998 27.7187L136.039 25.4123L135.428 26.085L135.171 25.8284L135.878 25.0596V13.8472H134.013L133.949 13.7833L135.074 12.117H135.878V9.97107L139.287 6.35101L139.351 6.4154V12.1174H141.923L141.988 12.1818L140.862 13.8477H139.351V23.5547L141.12 24.9006L141.795 24.1635L142.052 24.4196L138.998 27.7187ZM136.908 9.42619L136.232 10.1633V12.1174H136.908V9.42619ZM136.908 24.7396V13.8472H136.232V25.124L138.965 27.2387L139.448 26.726L136.908 24.7396ZM152.567 14.7765V23.7464L147.133 27.7509L143.049 24.6757L142.566 25.2201L142.309 24.9635L142.888 24.323V15.5453L148.58 11.4765L152.374 14.4243L152.985 13.7833L153.242 14.0394L152.567 14.7765ZM143.918 24.003V15.257L143.242 15.7375V24.3552L147.101 27.3026L147.712 26.8543L143.918 24.003ZM149.095 15.8336L146.393 13.7189L146.361 13.7511V23.2976L149.095 25.3479V15.8336ZM150.124 15.257L147.133 12.9502L146.522 13.3985L149.449 15.6409V25.6045L150.124 25.0923V15.257ZM164.851 27.7187L162.053 25.1879V15.8336L160.349 14.296L159.448 15.257V23.9064L160.445 24.8352V24.9635L157.809 27.7187L154.818 24.9957V24.8996L155.976 23.6825V15.6092L154.464 14.2316L153.853 14.9043L153.596 14.6482L156.522 11.4765L159.448 14.0716V14.7121L162.503 11.4765L165.365 14.0394L166.008 13.3667L166.297 13.6228L165.526 14.4238V23.5859L166.973 24.9313L167.68 24.1625L167.937 24.4186L164.851 27.7187ZM156.361 24.9318V24.8679C156.361 24.9318 157.005 24.2269 157.005 24.2269V15.1282L155.172 13.4624L154.722 13.9429L156.33 15.4165V23.8738L155.333 24.8991V24.963L157.809 27.2055L158.324 26.6611L156.361 24.9318ZM163.082 24.6757V15.2892L161.089 13.495L160.574 14.0394L162.407 15.6731V24.9957L164.818 27.2382L165.333 26.6933L163.082 24.6757ZM184.716 27.7187C183.815 26.7577 183.494 26.4372 182.432 26.1489V32.428L182.368 32.4597L181.081 31.3061L177.351 34.7339L177.287 34.7022V26.085C176.162 26.3411 174.972 26.9182 173.814 28.0709L173.75 28.0392C173.975 25.5723 175.197 23.7464 177.286 23.0415V16.7946H176.611C175.679 16.7946 175.164 17.2751 174.714 18.14H174.618C174.521 17.8522 174.457 17.4029 174.457 16.6668C174.457 15.3209 175.454 13.9116 177.094 13.9116H177.286V10.4516L175.968 9.26619L175.325 9.90716L175.1 9.68277L178.347 6.25491L181.37 9.01008V11.9253L182.077 11.1565V7.47202H182.431V10.836L186.707 6.25444L190.341 9.55448V23.4903L184.716 27.7187ZM177.288 24.8996C175.97 25.1557 175.037 25.9567 174.426 27.0138L174.458 27.0782C175.359 26.3094 176.194 25.9572 177.288 25.7006V24.8996ZM178.317 15.7058H176.548C175.326 15.7058 174.844 16.4746 174.812 17.3717L174.844 17.4034C175.23 16.7624 175.616 16.5385 176.387 16.4429H177.642V33.9022L178.317 33.2612V15.7058ZM178.317 9.93888L176.709 8.46567L176.194 9.01008L177.642 10.2911V13.9111H178.317V9.93888ZM182.079 11.7648L181.372 12.5018V31.0509L182.079 31.6919V11.7648ZM186.292 11.0282L184.394 9.29838L182.433 11.413V22.6893C184.105 22.8498 185.262 23.3303 186.259 24.4191L186.292 24.3874V11.0282ZM182.433 24.8996V25.7328C183.526 25.9889 183.976 26.3094 184.748 27.206L185.488 26.6294C184.716 25.6684 183.944 25.0923 182.433 24.8996ZM187.32 10.516L185.134 8.49739L184.619 9.0418L186.645 10.8999V25.7967L187.32 25.284V10.516ZM201.565 14.7765V23.7464L196.13 27.7509L192.047 24.6757L191.564 25.2201L191.307 24.9635L191.886 24.323V15.5453L197.578 11.4765L201.372 14.4243L201.982 13.7833L202.24 14.0394L201.565 14.7765ZM192.915 24.003V15.257L192.24 15.7375V24.3552L196.098 27.3026L196.71 26.8543L192.915 24.003ZM198.092 15.8336L195.391 13.7189L195.359 13.7511V23.2976L198.092 25.3479V15.8336ZM199.121 15.257L196.131 12.9502L195.52 13.3985L198.446 15.6409V25.6045L199.121 25.0923V15.257ZM209.025 17.2751H212.337V24.1308L207.224 27.7187C206.549 26.9499 205.585 26.4055 204.395 26.4055C203.43 26.4055 202.659 26.726 201.629 27.5909L201.469 27.5265L205.842 21.1835H203.14V15.2248L208.511 11.5087C209.154 12.0213 209.636 12.3092 210.472 12.3092C211.116 12.3092 212.047 12.1809 212.755 11.6048L212.884 11.6687L209.025 17.2751ZM205.424 25.4762C204.491 25.4762 203.751 25.7967 203.109 26.245V26.3094C203.623 26.085 204.137 26.0211 204.62 26.0211C205.36 26.0211 206.517 26.3738 207.289 27.2709L208.028 26.7264C207.418 26.0211 206.678 25.4762 205.424 25.4762ZM208.865 20.0942H207.064L203.302 25.5089L203.334 25.5728C204.266 24.9001 205.167 24.4518 206.26 24.4518C207.224 24.4518 208.221 24.9001 208.832 25.6689L208.864 25.6372L208.865 20.0942ZM204.17 20.0942V14.937L203.494 15.4175V20.7995H206.099L206.613 20.0946L204.17 20.0942ZM210.89 13.815C210.215 14.296 209.829 14.5521 208.703 14.5521C208.06 14.5521 207.288 14.2638 206.678 13.6228L206.613 13.655V18.3322H207.835L210.922 13.8468L210.89 13.815ZM209.346 13.5267C208.768 13.5267 208.028 13.2389 207.546 12.5979L206.742 13.1424C207.353 13.8794 207.932 14.1994 208.832 14.1994C209.411 14.1994 210.247 14.039 211.116 13.3019L211.147 13.2063C210.601 13.4311 209.926 13.5267 209.346 13.5267ZM209.893 19.0376H207.804L207.321 19.7102H209.218V25.925L209.893 25.4445V19.0376ZM217.675 27.7187L214.717 25.4123L214.106 26.085L213.849 25.8284L214.556 25.0596V13.8472H212.691L212.627 13.7833L213.752 12.117H214.555V9.97107L217.964 6.35101L218.029 6.4154V12.1174H220.601L220.665 12.1818L219.54 13.8477H218.029V23.5547L219.797 24.9006L220.472 24.1635L220.729 24.4196L217.675 27.7187ZM215.585 9.42619L214.91 10.1633V12.1174H215.585V9.42619ZM215.585 24.7396V13.8472H214.91V25.124L217.643 27.2387L218.125 26.726L215.585 24.7396Z" fill="white"/>
</g>
<defs>
<clipPath id="clip0_76_15984">
<rect width="220" height="34.0845" fill="white" transform="translate(0.833496 0.779297)"/>
</clipPath>
</defs>
</svg>
