<svg width="147" height="61" viewBox="0 0 147 61" fill="none" xmlns="http://www.w3.org/2000/svg">
<path d="M0 15L6.51472 8.48528C11.201 3.79899 18.799 3.79899 23.4853 8.48528L29.5147 14.5147C34.201 19.201 41.799 19.201 46.4853 14.5147L52.5147 8.48528C57.201 3.79899 64.799 3.79899 69.4853 8.48528L75.5147 14.5147C80.201 19.201 87.799 19.201 92.4853 14.5147L98.5147 8.48528C103.201 3.79899 110.799 3.79899 115.485 8.48528L121.515 14.5147C126.201 19.201 133.799 19.201 138.485 14.5147L145 8" stroke="#B9DEDE" stroke-width="5"/>
<path d="M0 34L6.51472 27.4853C11.201 22.799 18.799 22.799 23.4853 27.4853L29.5147 33.5147C34.201 38.201 41.799 38.201 46.4853 33.5147L52.5147 27.4853C57.201 22.799 64.799 22.799 69.4853 27.4853L75.5147 33.5147C80.201 38.201 87.799 38.201 92.4853 33.5147L98.5147 27.4853C103.201 22.799 110.799 22.799 115.485 27.4853L121.515 33.5147C126.201 38.201 133.799 38.201 138.485 33.5147L145 27" stroke="#B9DEDE" stroke-width="5"/>
<path d="M0 53L6.51472 46.4853C11.201 41.799 18.799 41.799 23.4853 46.4853L29.5147 52.5147C34.201 57.201 41.799 57.201 46.4853 52.5147L52.5147 46.4853C57.201 41.799 64.799 41.799 69.4853 46.4853L75.5147 52.5147C80.201 57.201 87.799 57.201 92.4853 52.5147L98.5147 46.4853C103.201 41.799 110.799 41.799 115.485 46.4853L121.515 52.5147C126.201 57.201 133.799 57.201 138.485 52.5147L145 46" stroke="#B9DEDE" stroke-width="5"/>
</svg>
