<svg width="49" height="26" viewBox="0 0 49 26" fill="none" xmlns="http://www.w3.org/2000/svg">
<g opacity="0.6">
<path fill-rule="evenodd" clip-rule="evenodd" d="M22.6383 1.13086H22.3872C21.1891 1.13086 20.5716 1.35142 20.1433 3.39835L15.5912 25.2561H14.1872L11.3514 10.9563H11.3209L8.42128 25.2561H7.01931L2.55901 2.84011C2.27412 1.40941 1.8599 1.13086 0.593662 1.13086H0.5V0.199219H7.26715V1.13086H7.14222C6.17035 1.13086 5.92633 1.47061 5.92633 2.12318C5.92633 2.27485 5.92316 2.50422 5.95884 2.68266L8.79531 17.8537H8.85661L10.6938 7.88012L9.72897 2.84011C9.48553 1.59743 9.20125 1.13086 8.20455 1.13086H8.04523V0.199219H14.7169V1.13086H14.5939C13.3494 1.13086 13.0963 1.54831 13.0963 2.40292C13.0963 2.63422 13.1359 2.89221 13.192 3.1796L16.0266 17.6695H16.0914L18.7739 3.15222C18.8102 2.94125 18.8338 2.74457 18.8338 2.56037C18.8338 1.56689 18.503 1.13086 17.1807 1.13086H16.9946V0.199219H22.6383V1.13086Z" fill="white"/>
<path fill-rule="evenodd" clip-rule="evenodd" d="M34.2708 19.2263C34.2708 23.6266 31.5969 25.4441 28.4717 25.4441C26.203 25.4441 25.1642 24.6998 24.0771 23.9523L23.4824 25.258H22.8285V16.7083H23.6685V16.9576C23.6685 22.9587 26.6981 24.3257 28.2224 24.3257C30.5351 24.3257 31.5573 22.9984 31.5573 20.3792C31.5573 17.5159 29.7564 15.4314 27.1589 13.4731C24.8105 11.7027 22.6387 9.52553 22.6387 5.89113C22.6406 2.14778 24.9564 0.199219 27.7202 0.199219C30.0291 0.199219 31.0947 1.13476 31.7128 1.6586L32.3361 0.44442H32.9612V9.02927H32.1194V8.7794C32.1194 4.1171 30.7154 1.31881 27.9407 1.31881C26.1812 1.31881 25.2598 2.55249 25.2598 4.52167C25.2598 6.85919 26.6439 8.18941 29.2216 10.1815C32.0722 12.3852 34.2708 14.7067 34.2708 19.2263Z" fill="white"/>
<path fill-rule="evenodd" clip-rule="evenodd" d="M48.3341 1.13086H47.7108C46.8671 1.13086 46.3343 1.53436 46.3343 2.56037V19.9105C46.3343 23.8017 43.8885 25.2561 40.7594 25.2561C38.5156 25.2561 36.2705 23.4264 36.2705 19.9105C36.2705 18.0191 37.4501 17.2049 38.3824 17.2049C39.3651 17.2049 40.0711 17.895 40.0711 19.0707C40.0711 20.5702 39.1917 21.2026 38.0446 21.3709C38.0446 22.6499 39.0343 24.1378 40.7269 24.1378C42.3507 24.1378 42.907 23.2416 42.907 20.5593V2.56037C42.907 1.53436 42.4125 1.13086 41.5688 1.13086H40.9111V0.199219H48.3341V1.13086Z" fill="white"/>
</g>
</svg>
