<svg width="190" height="39" viewBox="0 0 190 39" fill="none" xmlns="http://www.w3.org/2000/svg">
<path fill-rule="evenodd" clip-rule="evenodd" d="M179.58 7.93992C177.022 5.29332 173.489 3.65637 169.587 3.65637C161.782 3.65637 155.454 10.2042 155.454 18.2814C155.454 22.3199 157.036 25.9762 159.594 28.6228L156.263 32.0699C159.796 35.7269 164.589 37.7814 169.587 37.7814C174.584 37.7814 179.377 35.7269 182.911 32.0699C186.444 28.413 188.429 23.4531 188.429 18.2814C188.429 13.1096 186.444 8.14973 182.911 4.49278L179.58 7.93992ZM179.58 7.93992L169.587 18.2814L159.594 28.6228C162.151 31.2694 165.684 32.9064 169.587 32.9064C177.392 32.9064 183.719 26.3585 183.719 18.2814C183.719 14.2428 182.137 10.5865 179.58 7.93992Z" fill="#151C24"/>
<path fill-rule="evenodd" clip-rule="evenodd" d="M100.692 19.6756L85.5905 3.43574L82.438 4.26566V32.9063H87.1487V12.1419L100.692 26.7062L114.236 12.1419V32.9063H118.946V4.26566L116.122 3.08301L100.692 19.6756ZM28.2645 3.65631H22.4474L14.0949 14.4306L5.81683 3.65631H0V3.69524L11.2983 18.2424L0 32.8675V32.9063H5.74236L14.0949 22.0931L22.5221 32.9063H28.2645V32.8675L16.9289 18.2424L28.2645 3.69524V3.65631ZM135.434 32.9063H140.145V3.65631H135.434V32.9063ZM55.3512 28.0313C60.5546 28.0313 64.7727 23.6661 64.7727 18.2813C64.7727 12.8965 60.5546 8.5313 55.3512 8.5313C50.1479 8.5313 45.9297 12.8965 45.9297 18.2813C45.9297 23.6661 50.1479 28.0313 55.3512 28.0313ZM55.3512 32.9063C63.1562 32.9063 69.4835 26.3585 69.4835 18.2813C69.4835 10.2041 63.1562 3.65631 55.3512 3.65631C47.5462 3.65631 41.219 10.2041 41.219 18.2813C41.219 26.3585 47.5462 32.9063 55.3512 32.9063Z" fill="#151C24"/>
</svg>
